<svg width="100" height="87" fill="none" xmlns="http://www.w3.org/2000/svg"><path d="M94.66 0H32.091a1.465 1.465 0 100 2.93h62.57a2.413 2.413 0 012.41 2.41v9.291H2.93V5.34a2.413 2.413 0 012.41-2.41h20.77a1.465 1.465 0 100-2.929H5.34A5.346 5.346 0 000 5.34v77.763a3.24 3.24 0 003.236 3.236h31.208a1.465 1.465 0 100-2.93h-6.976V50.036l2.85-6.777c.12-.287.146-.605.073-.909l-2.94-12.29a1.465 1.465 0 00-1.425-1.125h-5.883c-.677 0-1.266.465-1.424 1.124L15.777 42.35c-.072.303-.046.621.075.909l2.826 6.724V83.41H3.236a.306.306 0 01-.306-.306V17.561h94.14v6.407a1.465 1.465 0 102.93 0V5.339A5.346 5.346 0 0094.66 0zM21.3 31.865h3.57l2.561 10.701-2.663 6.336a1.458 1.458 0 00-.229.786V83.41h-2.93V49.69a1.46 1.46 0 00-.114-.569l-2.756-6.554L21.3 31.865z" fill="url(#paint0_linear)"/><path d="M98.535 28.483c-.81 0-1.465.656-1.465 1.465v53.155a.306.306 0 01-.306.306H70.111v-7.826C77.64 72.12 82.45 64.66 82.45 56.308c0-3.718-.976-7.376-2.822-10.58a21.35 21.35 0 00-7.426-7.586 2.844 2.844 0 00-2.865-.046 2.79 2.79 0 00-1.436 2.459v11.448H54.56V40.555a2.79 2.79 0 00-1.435-2.46 2.845 2.845 0 00-2.865.047 21.35 21.35 0 00-7.426 7.586 21.216 21.216 0 00-2.822 10.58c0 8.352 4.81 15.812 12.337 19.275v7.826H40.425a1.465 1.465 0 100 2.93h56.34A3.24 3.24 0 00100 83.103V29.948c0-.809-.656-1.465-1.465-1.465zM67.182 74.62v8.79h-4.487V68.924a1.465 1.465 0 10-2.93 0V83.41H55.28v-8.79c0-.596-.362-1.133-.915-1.357a18.221 18.221 0 01-11.422-16.955c0-6.401 3.244-12.209 8.69-15.57v12.73c0 .81.655 1.465 1.464 1.465h16.269c.809 0 1.465-.656 1.465-1.465v-12.73c5.444 3.361 8.689 9.169 8.689 15.57a18.22 18.22 0 01-11.423 16.955c-.553.224-.914.76-.914 1.357z" fill="url(#paint1_linear)"/><path d="M66.737 7.586H14.484a1.465 1.465 0 100 2.93h52.253a1.465 1.465 0 100-2.93z" fill="url(#paint2_linear)"/><path d="M73.821 7.188c-.809 0-1.465.656-1.465 1.465v.254a1.465 1.465 0 102.93 0v-.254c0-.809-.656-1.465-1.465-1.465z" fill="url(#paint3_linear)"/><path d="M79.668 7.188c-.809 0-1.465.656-1.465 1.465v.254a1.465 1.465 0 102.93 0v-.254c0-.809-.655-1.465-1.465-1.465z" fill="url(#paint4_linear)"/><path d="M85.516 7.188c-.81 0-1.465.656-1.465 1.465v.254a1.465 1.465 0 102.93 0v-.254c0-.809-.656-1.465-1.465-1.465z" fill="url(#paint5_linear)"/><path d="M40.377 33.109H39.36v-1.017a1.465 1.465 0 10-2.93 0v1.017h-1.016a1.465 1.465 0 100 2.93h1.016v1.016a1.465 1.465 0 102.93 0v-1.017h1.017a1.465 1.465 0 100-2.93z" fill="url(#paint6_linear)"/><path d="M83.073 33.239h-1.017v-1.017a1.465 1.465 0 10-2.93 0v1.017H78.11a1.465 1.465 0 100 2.93h1.017v1.016a1.465 1.465 0 102.93 0v-1.017h1.017a1.465 1.465 0 100-2.93z" fill="url(#paint7_linear)"/><defs><linearGradient id="paint0_linear" x1="91.25" y1="0" x2="24.325" y2="89.627" gradientUnits="userSpaceOnUse"><stop stop-color="#54D6BF"/><stop offset="1" stop-color="#9851DF"/></linearGradient><linearGradient id="paint1_linear" x1="91.25" y1="0" x2="24.325" y2="89.627" gradientUnits="userSpaceOnUse"><stop stop-color="#54D6BF"/><stop offset="1" stop-color="#9851DF"/></linearGradient><linearGradient id="paint2_linear" x1="91.25" y1="0" x2="24.325" y2="89.627" gradientUnits="userSpaceOnUse"><stop stop-color="#54D6BF"/><stop offset="1" stop-color="#9851DF"/></linearGradient><linearGradient id="paint3_linear" x1="91.25" y1="0" x2="24.325" y2="89.627" gradientUnits="userSpaceOnUse"><stop stop-color="#54D6BF"/><stop offset="1" stop-color="#9851DF"/></linearGradient><linearGradient id="paint4_linear" x1="91.25" y1="0" x2="24.325" y2="89.627" gradientUnits="userSpaceOnUse"><stop stop-color="#54D6BF"/><stop offset="1" stop-color="#9851DF"/></linearGradient><linearGradient id="paint5_linear" x1="91.25" y1="0" x2="24.325" y2="89.627" gradientUnits="userSpaceOnUse"><stop stop-color="#54D6BF"/><stop offset="1" stop-color="#9851DF"/></linearGradient><linearGradient id="paint6_linear" x1="91.25" y1="0" x2="24.325" y2="89.627" gradientUnits="userSpaceOnUse"><stop stop-color="#54D6BF"/><stop offset="1" stop-color="#9851DF"/></linearGradient><linearGradient id="paint7_linear" x1="91.25" y1="0" x2="24.325" y2="89.627" gradientUnits="userSpaceOnUse"><stop stop-color="#54D6BF"/><stop offset="1" stop-color="#9851DF"/></linearGradient></defs></svg>