<svg width="106" height="106" fill="none" xmlns="http://www.w3.org/2000/svg"><path d="M100.7 0H5.3A5.306 5.306 0 000 5.3v95.4a5.305 5.305 0 005.3 5.3h95.4a5.305 5.305 0 005.3-5.3V5.3a5.305 5.305 0 00-5.3-5.3zm1.767 100.7a1.77 1.77 0 01-1.767 1.767H5.3a1.77 1.77 0 01-1.767-1.767V17.667h98.934V100.7zm0-86.567H3.533V5.3A1.769 1.769 0 015.3 3.533h95.4a1.769 1.769 0 011.767 1.767v8.833z" fill="#9851DF"/><path d="M7.579 7.579a1.791 1.791 0 000 2.509 1.791 1.791 0 002.508 0 1.791 1.791 0 000-2.509 1.849 1.849 0 00-2.508 0zm9.31-.212a1.345 1.345 0 00-.318-.16 1.15 1.15 0 00-.319-.105 1.695 1.695 0 00-1.024.105c-.214.09-.411.216-.583.372a1.791 1.791 0 000 2.509c.172.155.369.28.583.37.212.091.44.14.672.142a2.44 2.44 0 00.352-.035c.111-.02.218-.056.319-.107a1.35 1.35 0 00.318-.16l.265-.21c.07-.09.141-.177.211-.284a.975.975 0 00.16-.3c.05-.1.086-.207.106-.318.02-.117.032-.235.035-.353a1.859 1.859 0 00-.512-1.254l-.265-.212zm7.703.794a1.348 1.348 0 00-.16-.317 2.6 2.6 0 00-.21-.265A1.767 1.767 0 0021.2 8.833a1.774 1.774 0 003.021 1.255c.076-.084.147-.173.212-.265.067-.099.12-.206.16-.318.05-.1.086-.208.105-.319a2.59 2.59 0 00.036-.353 2.721 2.721 0 00-.036-.353 1.145 1.145 0 00-.106-.319zm40.775-1.094H40.634a1.766 1.766 0 100 3.533h24.733a1.767 1.767 0 100-3.533zm31.8 0H95.4a1.766 1.766 0 100 3.533h1.767a1.767 1.767 0 100-3.533zm-8.833 0h-1.767a1.766 1.766 0 100 3.533h1.767a1.767 1.767 0 100-3.533zM15.9 40.633a8.848 8.848 0 008.655-7.066h6.514l-2.285 2.284a1.766 1.766 0 102.498 2.498l4.783-4.782H42.4V37.1a3.537 3.537 0 003.533 3.533H74.2a3.537 3.537 0 003.534-3.533v-3.533H95.4v21.2H62.565l2.284-2.285a1.766 1.766 0 10-2.498-2.498l-4.782 4.783H53v-3.534a3.537 3.537 0 00-3.533-3.533H21.2a3.537 3.537 0 00-3.533 3.533v10.6a3.537 3.537 0 003.533 3.534h12.367v6.335l-2.285-2.284a1.767 1.767 0 00-2.498 2.498l4.783 4.782V79.5H26.5c-.669 0-1.281.378-1.58.977L17.853 94.61a1.767 1.767 0 001.58 2.557h24.734c.669 0 1.281-.378 1.58-.977l3.045-6.09H73.47l-2.285 2.284a1.767 1.767 0 102.498 2.498l4.783-4.782h2.98a8.833 8.833 0 100-3.534h-2.98l-4.782-4.782a1.767 1.767 0 00-2.499 2.498l2.284 2.285h-22.91l2.256-4.51a1.766 1.766 0 00-1.58-2.557H37.1v-2.802l4.782-4.782a1.767 1.767 0 00-2.498-2.498L37.1 71.702v-6.335h12.367A3.537 3.537 0 0053 61.833V58.3h4.569l4.782 4.782a1.766 1.766 0 002.498-2.498L62.565 58.3h34.602a1.766 1.766 0 001.766-1.767V31.8a1.766 1.766 0 00-1.766-1.767H77.733V26.5a3.537 3.537 0 00-3.533-3.533H45.933A3.537 3.537 0 0042.4 26.5v3.533h-6.335l-4.782-4.782a1.767 1.767 0 00-2.499 2.498l2.285 2.285h-6.514a8.833 8.833 0 10-8.655 10.6zm74.2 42.4a5.3 5.3 0 110 10.6 5.3 5.3 0 010-10.6zm-41.725 0l-5.3 10.6H22.292l5.3-10.6h20.783zM21.2 61.833v-10.6h28.267v5.307l.002 5.293H21.2zM45.934 26.5H74.2l.001 5.294v.012l.002 5.294h-28.27V26.5zm-30.034 0a5.3 5.3 0 110 10.6 5.3 5.3 0 010-10.6z" fill="#9851DF"/></svg>