<svg width="112" height="112" fill="none" xmlns="http://www.w3.org/2000/svg"><path d="M75.128 68.537c3.875-.463 7.017-3.346 7.786-7.118H112V0H0v61.42h29.086c.769 3.773 3.91 6.656 7.786 7.117a19.915 19.915 0 008.29 11.32V83.6L26.71 89.752a12.63 12.63 0 00-8.646 11.995V112h75.872v-10.253a12.626 12.626 0 00-8.646-11.995L66.839 83.6v-3.742a19.927 19.927 0 008.29-11.321zM55.81 44.354l-.968-1.935-1.733 1.298a38.332 38.332 0 01-13.367 6.41v-4.966h-3.613v5.602c-1.343.275-2.558.87-3.613 1.67v-9.03c0-11.978 9.748-21.726 21.726-21.726a21.69 21.69 0 0118.08 9.674l.628.941.677.17a7.72 7.72 0 015.857 7.502v12.47c-1.055-.798-2.27-1.396-3.613-1.669v-9.217l-2.89 2.169a33.554 33.554 0 01-15.34 6.352l-.895.129a9.95 9.95 0 00-.936-5.844zm-25.812-8.297c-2.65-.352-4.708-2.603-4.708-5.347a5.427 5.427 0 015.42-5.42c1.596 0 3.078.707 4.095 1.886a25.342 25.342 0 00-4.807 8.88zm7.34-11.475a9.019 9.019 0 00-6.628-2.905 8.977 8.977 0 00-4.973 1.505l-7.734-7.734a19.79 19.79 0 0112.707-4.61c6.46 0 12.448 3.15 16.154 8.33-3.58 1.091-6.81 2.972-9.527 5.414zm-21.89-6.58l7.734 7.735a8.977 8.977 0 00-1.505 4.973 8.98 8.98 0 001.505 4.973l-7.734 7.734a19.79 19.79 0 01-4.61-12.707 19.79 19.79 0 014.61-12.707zm10.289 20.235a8.977 8.977 0 003.484 1.355c-.188 1.246-.318 2.513-.318 3.811v7.086a19.792 19.792 0 01-10.9-4.518l7.734-7.734zm50.058 26.486c.038-.496.076-.992.076-1.497v-8.7c2.098.748 3.613 2.735 3.613 5.087 0 2.379-1.552 4.384-3.689 5.11zM3.613 3.614h104.774v54.193h-25.29V39.964a11.33 11.33 0 00-7.9-10.81 25.283 25.283 0 00-20.955-11.09c-1.215 0-2.403.116-3.573.282a23.487 23.487 0 00-19.96-11.12C17.762 7.226 7.227 17.76 7.227 30.71c0 12.338 9.572 22.463 21.677 23.392v3.704H3.613V3.613zm28.903 56c0-2.352 1.516-4.339 3.613-5.087v8.7c0 .505.038 1 .076 1.498-2.137-.727-3.689-2.732-3.689-5.111zm7.226 3.613v-9.38a41.927 41.927 0 0013.455-5.778 6.29 6.29 0 01-.62 3.512l-1.543 3.083 7.117-1.015a37.228 37.228 0 0014.107-5.08v14.658c0 8.965-7.293 16.258-16.258 16.258S39.742 72.19 39.742 63.226zM46.48 86.97l6.966 6.966-6.15 6.148-6.923-11.078 6.107-2.036zm-24.803 14.777a9.02 9.02 0 016.177-8.568l8.992-2.998 9.793 15.67 7.554-7.555v10.091H36.13v-7.226h-3.613v7.226h-10.84v-6.64zm68.646 0v6.64h-10.84v-7.226h-3.612v7.226H57.806v-10.09l7.555 7.554 9.793-15.67 8.992 2.998a9.022 9.022 0 016.177 8.568zM71.627 89.006l-6.924 11.078-6.149-6.148 6.966-6.966 6.107 2.036zm-8.401-4.85L56 91.38l-7.226-7.226v-2.439A19.73 19.73 0 0056 83.096c2.55 0 4.982-.5 7.226-1.38v2.44z" fill="#9851DF"/><path d="M66.838 57.806a1.807 1.807 0 11-3.613 0 1.807 1.807 0 013.613 0zm-18.064 0a1.806 1.806 0 11-3.613 0 1.806 1.806 0 013.613 0zm14.452 9.033h-3.613A3.616 3.616 0 0156 70.452a3.616 3.616 0 01-3.613-3.613h-3.613A7.233 7.233 0 0056 74.064a7.233 7.233 0 007.226-7.225zm37.935-59.613h3.613v3.613h-3.613V7.226zm-43.354 0h39.742v3.613H57.807V7.226zm10.838 7.226h36.13v3.612h-36.13v-3.612zm10.838 7.225h25.291v3.613h-25.29v-3.613zm7.227 7.226h18.064v3.613H86.71v-3.613zm0 7.226h18.064v3.613H86.71v-3.613zm0 7.226h18.064v3.613H86.71v-3.613zm0 7.225h18.064v3.614H86.71V50.58z" fill="#9851DF"/></svg>