<svg width="122" height="122" fill="none" xmlns="http://www.w3.org/2000/svg"><path d="M99.633 0H22.367C16.755.007 12.207 4.555 12.2 10.167v54.9c.007 5.612 4.555 10.16 10.167 10.166H50.17L47.267 85.4h-6.6v4.067h40.666V85.4h-6.6L71.83 75.233h27.803c5.613-.006 10.161-4.554 10.167-10.166v-54.9C109.794 4.555 105.246.007 99.634 0zM51.496 85.4L54.4 75.233h13.2L70.504 85.4H51.496zm54.238-20.333a6.1 6.1 0 01-6.1 6.1H22.367a6.1 6.1 0 01-6.1-6.1V61h89.467v4.067zm0-8.134H16.267V10.167a6.1 6.1 0 016.1-6.1h77.266a6.1 6.1 0 016.101 6.1v46.766zm-28.468 36.6H20.333c-1.123 0-2.033.91-2.033 2.034v24.4c0 1.123.91 2.033 2.033 2.033h56.933c1.123 0 2.034-.91 2.034-2.033v-24.4c0-1.123-.91-2.034-2.034-2.034zm-2.033 24.4H22.366V97.6h52.867v20.333z" fill="#9851DF"/><path d="M30.5 109.8h-4.067v4.067H30.5V109.8zm0-8.133h-4.067v4.066H30.5v-4.066zm8.134 0h-4.067v4.066h4.067v-4.066zm8.133 0H42.7v4.066h4.067v-4.066zm16.266 0h-4.066v4.066h4.066v-4.066zm-8.133 0h-4.067v4.066H54.9v-4.066zm16.267 8.133H67.1v4.067h4.067V109.8zm0-8.133H67.1v4.066h4.067v-4.066zm-8.133 8.133H34.567v4.067h28.467V109.8zm30.499-16.267c-5.614 0-10.166 4.552-10.166 10.167v8.133c0 5.615 4.552 10.167 10.166 10.167 5.615 0 10.167-4.552 10.167-10.167V103.7c0-5.615-4.552-10.167-10.167-10.167zm6.1 18.3a6.1 6.1 0 11-12.2 0V103.7a6.1 6.1 0 1112.2 0v8.133z" fill="#9851DF"/><path d="M95.567 101.667H91.5v4.066h4.067v-4.066zM63.103 17.784l-8.141 28.45 3.908 1.118 8.14-28.45-3.907-1.118zM50.1 23.928l-2.602-3.123-12.2 10.167a2.033 2.033 0 000 3.123l12.2 10.167 2.603-3.124-10.326-8.605 10.326-8.605zm36.86 7.303a2.029 2.029 0 00-.258-.26l-12.2-10.166-2.603 3.123 10.325 8.605L71.9 41.138l2.603 3.124 12.2-10.167c.862-.72.978-2.001.259-2.864z" fill="#9851DF"/></svg>