<svg width="150" height="150" fill="none" xmlns="http://www.w3.org/2000/svg"><g filter="url(#filter0_i)"><circle cx="75" cy="75" r="75" fill="#9851DF"/></g><path d="M113.375 36h-74.75c-.898 0-1.625.727-1.625 1.625v26c0 .898.727 1.625 1.625 1.625h8.125v17.875a1.624 1.624 0 103.25 0V75h24.375a1.624 1.624 0 100-3.25H50v-6.5h8.125c.898 0 1.625-.727 1.625-1.625v-6.5a1.624 1.624 0 10-3.25 0V62H40.25V39.25h52v4.875a1.624 1.624 0 103.25 0V39.25h16.25v63.375a1.624 1.624 0 103.25 0v-65c0-.898-.727-1.625-1.625-1.625z" fill="#fff"/><path d="M113.375 110.75h-8.125V92.875c0-.898-.727-1.625-1.625-1.625H95.5V75h6.5v8.125a1.624 1.624 0 103.25 0v-35.75a1.624 1.624 0 10-3.25 0v4.875H87.375a1.624 1.624 0 100 3.25H102v16.25h-8.125c-.898 0-1.625.727-1.625 1.625v19.5c0 .898.727 1.625 1.625 1.625H102v16.25H40.25V94.5h17.875c.898 0 1.625-.727 1.625-1.625V84.75h6.5V101H51.625a1.624 1.624 0 100 3.25h22.75a1.624 1.624 0 100-3.25H69.5V83.125c0-.898-.727-1.625-1.625-1.625h-9.75c-.898 0-1.625.727-1.625 1.625v8.125H40.25V73.375a1.624 1.624 0 10-3.25 0v39c0 .898.727 1.625 1.625 1.625h74.75a1.624 1.624 0 100-3.25z" fill="#fff"/><path d="M77.625 91.25a1.624 1.624 0 100 3.25H82.5v8.125c0 .898.727 1.625 1.625 1.625h9.75a1.624 1.624 0 100-3.25H85.75V65.25h8.125a1.624 1.624 0 100-3.25H69.5V49h4.875a1.624 1.624 0 100-3.25h-26c-.898 0-1.625.727-1.625 1.625v6.5a1.624 1.624 0 103.25 0V49h16.25v14.625c0 .898.727 1.625 1.625 1.625H82.5v26h-4.875z" fill="#fff"/><defs><filter id="filter0_i" x="0" y="0" width="150" height="156" filterUnits="userSpaceOnUse" color-interpolation-filters="sRGB"><feFlood flood-opacity="0" result="BackgroundImageFix"/><feBlend in="SourceGraphic" in2="BackgroundImageFix" result="shape"/><feColorMatrix in="SourceAlpha" values="0 0 0 0 0 0 0 0 0 0 0 0 0 0 0 0 0 0 127 0" result="hardAlpha"/><feOffset dy="6"/><feGaussianBlur stdDeviation="3"/><feComposite in2="hardAlpha" operator="arithmetic" k2="-1" k3="1"/><feColorMatrix values="0 0 0 0 0 0 0 0 0 0 0 0 0 0 0 0 0 0 0.2 0"/><feBlend in2="shape" result="effect1_innerShadow"/></filter></defs></svg>