<svg width="100" height="100" fill="none" xmlns="http://www.w3.org/2000/svg"><path d="M70.313 20.313H54.687c-.862 0-1.562.7-1.562 1.562V37.5c0 .863.7 1.563 1.563 1.563h15.624c.863 0 1.563-.7 1.563-1.563V21.875c0-.863-.7-1.563-1.563-1.563zM56.25 35.938V25.645l10.292 10.291H56.25zm12.5-2.211l-10.29-10.29h10.29v10.29z" fill="url(#paint0_linear)"/><path d="M70.313 42.188H54.687c-.862 0-1.562.7-1.562 1.562v15.625c0 .863.7 1.563 1.563 1.563h15.624c.863 0 1.563-.7 1.563-1.563V43.75c0-.863-.7-1.563-1.563-1.563zM56.25 57.812v-10.29l10.29 10.29H56.25zm12.5-2.209l-10.29-10.29h10.29v10.29z" fill="url(#paint1_linear)"/><path d="M65.625 64.063h-12.5v3.124h12.5v-3.124z" fill="url(#paint2_linear)"/><path d="M71.875 64.063H68.75v3.124h3.125v-3.124z" fill="url(#paint3_linear)"/><path d="M71.875 70.313h-18.75v3.124h18.75v-3.124z" fill="url(#paint4_linear)"/><path d="M71.875 76.563h-18.75v3.124h18.75v-3.124z" fill="url(#paint5_linear)"/><path d="M42.188 35.938H26.562v3.124h15.625v-3.124z" fill="url(#paint6_linear)"/><path d="M42.188 48.438H26.562v3.124h15.625v-3.124z" fill="url(#paint7_linear)"/><path d="M42.188 60.938H26.562v3.124h15.625v-3.124z" fill="url(#paint8_linear)"/><path d="M90.625 10.938c-.863 0-1.563.7-1.563 1.562v6.25h-9.374V3.125A3.125 3.125 0 0076.561 0H23.438a3.125 3.125 0 00-3.125 3.125V18.75h-9.375V12.5c0-.863-.7-1.563-1.563-1.563-.094 0-9.375.143-9.375 12.5v60.938c0 5.958 5.938 8.717 9.063 9.344.102.021.207.032.312.031h10.938v3.125A3.125 3.125 0 0023.438 100h53.124a3.125 3.125 0 003.126-3.125V93.75h10.937c.105.001.21-.01.313-.031 3.124-.627 9.062-3.386 9.062-9.344V23.437c0-12.357-9.281-12.5-9.375-12.5zm-87.5 12.5c0-6.375 2.813-8.416 4.688-9.063v60.983a13.718 13.718 0 00-4.688 2.539v-54.46zm17.188 67.187H9.546c-.933-.223-6.422-1.733-6.422-6.25 0-4.875 6.298-6.227 6.563-6.281a1.563 1.563 0 001.25-1.531V21.874h9.374v68.75zm3.125-73.438H41.43l-17.992 11.24v-11.24zm21.875 1.26v11.24H27.317l17.995-11.24zM23.436 32.813h21.875v9.374H23.439v-9.374zm0 12.5h21.875v9.374H23.439v-9.374zm0 12.5h21.875v9.374H23.439v-9.374zm0 12.5h18.396l-18.395 12.64v-12.64zm21.875 1.4v12.662H26.887l18.425-12.662zm31.25 25.162H23.438V87.5h53.124v9.375zm0-12.5H48.439V17.187h28.124v67.188zm0-70.313H23.438V3.126h53.124v10.938zm13.894 76.563H79.687v-68.75h9.376v54.688c0 .742.522 1.382 1.25 1.53.071.015 6.562 1.37 6.562 6.282 0 4.542-5.455 6.023-6.419 6.25zm6.419-12.728a13.717 13.717 0 00-4.688-2.54V14.376c1.855.648 4.688 2.69 4.688 9.063v54.459z" fill="url(#paint9_linear)"/><path d="M51.563 7.813h-12.5v3.125h12.5V7.812z" fill="url(#paint10_linear)"/><path d="M57.813 7.813h-3.126v3.125h3.126V7.812z" fill="url(#paint11_linear)"/><path d="M64.063 7.813h-3.126v3.125h3.126V7.812z" fill="url(#paint12_linear)"/><defs><linearGradient id="paint0_linear" x1="91.25" y1="0" x2="11.25" y2="92.5" gradientUnits="userSpaceOnUse"><stop stop-color="#54D6BF"/><stop offset="1" stop-color="#9851DF"/></linearGradient><linearGradient id="paint1_linear" x1="91.25" y1="0" x2="11.25" y2="92.5" gradientUnits="userSpaceOnUse"><stop stop-color="#54D6BF"/><stop offset="1" stop-color="#9851DF"/></linearGradient><linearGradient id="paint2_linear" x1="91.25" y1="0" x2="11.25" y2="92.5" gradientUnits="userSpaceOnUse"><stop stop-color="#54D6BF"/><stop offset="1" stop-color="#9851DF"/></linearGradient><linearGradient id="paint3_linear" x1="91.25" y1="0" x2="11.25" y2="92.5" gradientUnits="userSpaceOnUse"><stop stop-color="#54D6BF"/><stop offset="1" stop-color="#9851DF"/></linearGradient><linearGradient id="paint4_linear" x1="91.25" y1="0" x2="11.25" y2="92.5" gradientUnits="userSpaceOnUse"><stop stop-color="#54D6BF"/><stop offset="1" stop-color="#9851DF"/></linearGradient><linearGradient id="paint5_linear" x1="91.25" y1="0" x2="11.25" y2="92.5" gradientUnits="userSpaceOnUse"><stop stop-color="#54D6BF"/><stop offset="1" stop-color="#9851DF"/></linearGradient><linearGradient id="paint6_linear" x1="91.25" y1="0" x2="11.25" y2="92.5" gradientUnits="userSpaceOnUse"><stop stop-color="#54D6BF"/><stop offset="1" stop-color="#9851DF"/></linearGradient><linearGradient id="paint7_linear" x1="91.25" y1="0" x2="11.25" y2="92.5" gradientUnits="userSpaceOnUse"><stop stop-color="#54D6BF"/><stop offset="1" stop-color="#9851DF"/></linearGradient><linearGradient id="paint8_linear" x1="91.25" y1="0" x2="11.25" y2="92.5" gradientUnits="userSpaceOnUse"><stop stop-color="#54D6BF"/><stop offset="1" stop-color="#9851DF"/></linearGradient><linearGradient id="paint9_linear" x1="91.25" y1="0" x2="11.25" y2="92.5" gradientUnits="userSpaceOnUse"><stop stop-color="#54D6BF"/><stop offset="1" stop-color="#9851DF"/></linearGradient><linearGradient id="paint10_linear" x1="91.25" y1="0" x2="11.25" y2="92.5" gradientUnits="userSpaceOnUse"><stop stop-color="#54D6BF"/><stop offset="1" stop-color="#9851DF"/></linearGradient><linearGradient id="paint11_linear" x1="91.25" y1="0" x2="11.25" y2="92.5" gradientUnits="userSpaceOnUse"><stop stop-color="#54D6BF"/><stop offset="1" stop-color="#9851DF"/></linearGradient><linearGradient id="paint12_linear" x1="91.25" y1="0" x2="11.25" y2="92.5" gradientUnits="userSpaceOnUse"><stop stop-color="#54D6BF"/><stop offset="1" stop-color="#9851DF"/></linearGradient></defs></svg>