<svg width="100" height="100" fill="none" xmlns="http://www.w3.org/2000/svg"><path d="M42.16 17.913l-2.914-1.285a18.59 18.59 0 00-.435-1.4l1.619-2.788c.295-.51.3-1.137.013-1.652a22.17 22.17 0 00-2.84-3.97 1.658 1.658 0 00-1.618-.514l-3.066.701c-.357-.285-.73-.56-1.118-.825l-.297-3.245a1.67 1.67 0 00-.962-1.362A21.2 21.2 0 0025.968.037a1.661 1.661 0 00-1.608.545l-2.14 2.484h-1.284L18.796.582a1.658 1.658 0 00-1.608-.545 21.222 21.222 0 00-4.574 1.536 1.67 1.67 0 00-.962 1.363l-.297 3.244c-.387.264-.762.54-1.119.825L7.17 6.304a1.657 1.657 0 00-1.617.513 22.132 22.132 0 00-2.841 3.971 1.672 1.672 0 00.013 1.652l1.62 2.789a18.3 18.3 0 00-.436 1.399L.995 17.913A1.67 1.67 0 000 19.44v4.537c0 .662.39 1.26.995 1.528l2.914 1.285c.132.49.275.953.435 1.4l-1.619 2.788a1.67 1.67 0 00-.013 1.651 22.169 22.169 0 002.84 3.971 1.663 1.663 0 001.618.514l3.066-.701c.357.285.73.56 1.118.825l.297 3.245a1.67 1.67 0 00.962 1.361c1.461.685 2.996 1.2 4.574 1.536a1.665 1.665 0 001.608-.544l2.14-2.484h1.284l2.14 2.484a1.667 1.667 0 001.608.544 21.225 21.225 0 004.574-1.536c.541-.25.907-.77.962-1.363l.297-3.243c.386-.264.761-.54 1.118-.825l3.066.7a1.66 1.66 0 001.618-.513 22.131 22.131 0 002.84-3.97 1.672 1.672 0 00-.013-1.653L38.81 28.19c.16-.447.303-.91.435-1.4l2.914-1.284a1.67 1.67 0 00.995-1.528v-4.536a1.668 1.668 0 00-.994-1.528zm-2.345 4.977l-2.666 1.175a1.673 1.673 0 00-.952 1.155 15.363 15.363 0 01-.773 2.477c-.2.48-.163 1.027.098 1.477l1.528 2.634a18.914 18.914 0 01-1.306 1.824l-2.887-.66a1.655 1.655 0 00-1.479.375 15.239 15.239 0 01-2.048 1.515 1.668 1.668 0 00-.783 1.267l-.28 3.064c-.667.27-1.348.502-2.042.693l-1.975-2.293a1.67 1.67 0 00-1.265-.58H20.17c-.486 0-.948.212-1.266.58l-1.974 2.293a18.498 18.498 0 01-2.043-.693l-.281-3.067a1.671 1.671 0 00-.783-1.265 15.053 15.053 0 01-2.046-1.514 1.657 1.657 0 00-1.48-.375l-2.886.66a18.965 18.965 0 01-1.306-1.824l1.528-2.634c.26-.45.297-.996.098-1.477a15.345 15.345 0 01-.773-2.477 1.672 1.672 0 00-.952-1.154L3.339 22.89v-2.362l2.667-1.175c.481-.214.834-.642.952-1.155.187-.846.446-1.674.773-2.477.2-.48.163-1.027-.098-1.477L6.105 11.61c.4-.633.835-1.242 1.306-1.824l2.887.66a1.662 1.662 0 001.479-.375 15.241 15.241 0 012.048-1.515 1.67 1.67 0 00.783-1.267l.28-3.064c.667-.27 1.348-.502 2.042-.693l1.974 2.293c.318.368.78.58 1.266.58h2.815a1.67 1.67 0 001.265-.58l1.975-2.293c.694.19 1.376.422 2.043.693l.28 3.067c.05.521.339.99.783 1.265a14.99 14.99 0 012.047 1.514 1.66 1.66 0 001.479.375l2.886-.66c.471.581.908 1.19 1.306 1.824l-1.527 2.634a1.67 1.67 0 00-.098 1.477c.327.802.585 1.631.773 2.477.118.513.47.941.952 1.154l2.666 1.176v2.362z" fill="url(#paint0_linear)"/><path d="M21.578 10.02c-6.456 0-11.69 5.233-11.69 11.689.008 6.452 5.237 11.681 11.69 11.689 6.455 0 11.688-5.233 11.688-11.689S28.033 10.02 21.578 10.02zm0 20.038a8.35 8.35 0 01-8.35-8.349 8.359 8.359 0 018.35-8.35 8.35 8.35 0 010 16.7z" fill="url(#paint1_linear)"/><path d="M98.955 14.951l-2.305-1.017a15.7 15.7 0 00-.292-.935l1.285-2.214c.295-.51.3-1.138.013-1.654a18.877 18.877 0 00-2.404-3.357 1.658 1.658 0 00-1.616-.514l-2.426.555a16.85 16.85 0 00-.734-.542L90.24 2.7a1.667 1.667 0 00-.962-1.363 18.079 18.079 0 00-3.873-1.3 1.659 1.659 0 00-1.608.544l-1.7 1.974h-.814L79.584.58a1.657 1.657 0 00-1.608-.544 18.072 18.072 0 00-3.872 1.3c-.542.25-.909.77-.962 1.363l-.235 2.573a16.04 16.04 0 00-.734.542l-2.427-.555a1.662 1.662 0 00-1.616.514 18.75 18.75 0 00-2.402 3.36 1.672 1.672 0 00.013 1.651l1.284 2.213c-.105.301-.202.613-.292.936l-2.306 1.017a1.668 1.668 0 00-.996 1.528v3.78c0 .662.39 1.261.996 1.528l2.306 1.018c.09.323.187.632.292.934l-1.285 2.215c-.295.51-.3 1.138-.013 1.653a18.86 18.86 0 002.403 3.358 1.66 1.66 0 001.618.514l2.423-.556c.238.187.484.368.735.543l.235 2.573c.054.594.421 1.113.962 1.363a18.08 18.08 0 003.873 1.3 1.664 1.664 0 001.608-.545l1.7-1.973h.815l1.699 1.973a1.667 1.667 0 001.608.545 18.07 18.07 0 003.873-1.3c.541-.25.908-.77.962-1.363l.235-2.573c.25-.175.496-.356.734-.542l2.426.555a1.66 1.66 0 001.616-.514 18.878 18.878 0 002.404-3.358 1.675 1.675 0 00-.013-1.653l-1.285-2.215c.104-.301.202-.611.292-.934l2.305-1.018c.606-.266.997-.866.997-1.528v-3.78c0-.662-.39-1.261-.997-1.528zm-2.343 4.22l-2.056.907a1.664 1.664 0 00-.954 1.158 12.461 12.461 0 01-.63 2.014 1.677 1.677 0 00.098 1.48l1.189 2.047c-.27.418-.56.824-.871 1.22l-2.237-.512a1.653 1.653 0 00-1.476.375 12.35 12.35 0 01-1.666 1.231 1.672 1.672 0 00-.787 1.269l-.216 2.384c-.449.176-.9.33-1.347.457l-1.53-1.776a1.67 1.67 0 00-1.265-.58h-2.345c-.486 0-.948.212-1.266.58L77.725 33.2c-.448-.127-.899-.28-1.347-.457l-.217-2.384a1.671 1.671 0 00-.786-1.269 12.257 12.257 0 01-1.665-1.23 1.68 1.68 0 00-1.479-.378l-2.236.512c-.311-.393-.601-.8-.87-1.218l1.188-2.048c.26-.451.297-.998.098-1.479a12.477 12.477 0 01-.63-2.014 1.665 1.665 0 00-.953-1.158l-2.057-.906v-1.605l2.057-.907c.484-.212.838-.642.954-1.157.152-.69.363-1.364.63-2.018a1.674 1.674 0 00-.099-1.477L69.125 9.96c.267-.416.558-.824.87-1.218l2.236.512a1.66 1.66 0 001.476-.375c.52-.457 1.078-.868 1.667-1.231.446-.276.738-.746.786-1.27l.217-2.383c.448-.176.898-.33 1.347-.457l1.53 1.776c.316.368.778.58 1.265.58h2.344a1.67 1.67 0 001.266-.58l1.53-1.776c.448.127.898.28 1.346.457l.217 2.384c.049.523.34.993.787 1.269a12.43 12.43 0 011.666 1.23c.402.358.952.497 1.476.376l2.237-.512c.311.394.602.8.87 1.22L93.07 12.01c-.26.45-.297.998-.098 1.479.267.652.477 1.326.63 2.014.116.515.47.945.954 1.157l2.056.907v1.605z" fill="url(#paint2_linear)"/><path d="M81.691 10.02a8.35 8.35 0 00-8.349 8.35 8.359 8.359 0 008.35 8.348 8.35 8.35 0 000-16.698zm0 13.359a5.01 5.01 0 110-10.02 5.01 5.01 0 010 10.02z" fill="url(#paint3_linear)"/><path d="M98.543 70.662l-2.42-.509c-.1-.419-.212-.838-.338-1.254l1.856-1.663c.533-.477.703-1.24.422-1.898a25.09 25.09 0 00-3.067-5.254 1.676 1.676 0 00-1.856-.582l-2.333.766a22.157 22.157 0 00-.92-.92l.766-2.331a1.67 1.67 0 00-.58-1.855 24.992 24.992 0 00-5.256-3.07 1.678 1.678 0 00-1.898.422l-1.663 1.857a20.37 20.37 0 00-1.254-.339l-.51-2.42a1.67 1.67 0 00-1.633-1.326h-5.694a1.67 1.67 0 00-1.634 1.326l-.51 2.42c-.418.1-.837.212-1.253.338l-1.663-1.856c-.479-.53-1.24-.7-1.899-.422a25.093 25.093 0 00-5.254 3.067 1.67 1.67 0 00-.582 1.856l.767 2.333c-.315.297-.623.605-.92.92l-2.332-.767a1.68 1.68 0 00-1.854.58 24.99 24.99 0 00-3.07 5.257 1.67 1.67 0 00.421 1.898l1.858 1.663c-.127.416-.24.835-.34 1.254l-2.42.51a1.67 1.67 0 00-1.325 1.633v5.694c0 .79.553 1.472 1.325 1.634l2.42.51c.1.418.213.837.338 1.253l-1.856 1.664a1.669 1.669 0 00-.422 1.898 25.093 25.093 0 003.067 5.254c.431.57 1.176.803 1.856.582l2.334-.766c.296.314.605.622.92.92l-.767 2.331a1.67 1.67 0 00.58 1.854 24.997 24.997 0 005.256 3.07 1.665 1.665 0 001.898-.421l1.664-1.858c.415.127.835.24 1.254.34l.509 2.42A1.67 1.67 0 0072.164 100h5.695a1.67 1.67 0 001.634-1.326l.509-2.42c.419-.099.838-.212 1.254-.337l1.663 1.856c.476.534 1.24.704 1.898.422a25.09 25.09 0 005.254-3.067 1.67 1.67 0 00.582-1.856l-.766-2.334c.315-.296.623-.605.92-.92l2.332.767a1.675 1.675 0 001.854-.58 24.983 24.983 0 003.07-5.256 1.67 1.67 0 00-.422-1.898l-1.857-1.664c.127-.415.24-.835.339-1.254l2.42-.508a1.67 1.67 0 001.326-1.634v-5.695a1.67 1.67 0 00-1.326-1.634zm-2.014 5.973l-2.16.456a1.67 1.67 0 00-1.3 1.337 18.07 18.07 0 01-.785 2.91 1.67 1.67 0 00.458 1.809l1.752 1.569c-.436.87-.929 1.71-1.476 2.514l-2.206-.725a1.677 1.677 0 00-1.797.507 18.236 18.236 0 01-2.136 2.138 1.673 1.673 0 00-.506 1.795l.726 2.205a21.794 21.794 0 01-2.515 1.475l-1.57-1.751a1.678 1.678 0 00-1.81-.458c-.946.342-1.918.605-2.908.784a1.67 1.67 0 00-1.337 1.3l-.455 2.16H73.52l-.455-2.16a1.67 1.67 0 00-1.337-1.3c-.99-.18-1.964-.443-2.911-.784a1.681 1.681 0 00-1.808.458l-1.57 1.751c-.87-.435-1.71-.928-2.514-1.475l.726-2.207a1.673 1.673 0 00-.507-1.796 18.23 18.23 0 01-2.138-2.137 1.678 1.678 0 00-1.795-.505l-2.205.726a21.804 21.804 0 01-1.476-2.515l1.752-1.57c.507-.454.688-1.17.458-1.81a17.983 17.983 0 01-.785-2.908 1.67 1.67 0 00-1.3-1.337l-2.16-.455v-2.984l2.16-.455a1.67 1.67 0 001.3-1.337c.18-.99.443-1.964.785-2.911a1.67 1.67 0 00-.459-1.809l-1.75-1.568c.435-.87.928-1.71 1.475-2.515l2.206.726a1.68 1.68 0 001.797-.507 18.236 18.236 0 012.136-2.138c.518-.44.717-1.15.506-1.796l-.726-2.204a21.804 21.804 0 012.514-1.476l1.57 1.752c.455.505 1.17.686 1.81.458a17.984 17.984 0 012.908-.785 1.67 1.67 0 001.337-1.3l.456-2.16h2.984l.455 2.16a1.67 1.67 0 001.337 1.3c.99.18 1.964.443 2.91.785.64.229 1.355.048 1.809-.459l1.569-1.751c.87.436 1.71.929 2.514 1.476l-.725 2.206a1.673 1.673 0 00.507 1.797c.77.652 1.485 1.366 2.138 2.136.442.515 1.15.714 1.795.506l2.205-.726c.547.804 1.04 1.644 1.475 2.514l-1.751 1.57a1.67 1.67 0 00-.458 1.81c.342.946.604 1.919.784 2.908a1.67 1.67 0 001.3 1.338l2.16.454v2.984z" fill="url(#paint4_linear)"/><path d="M75.012 60.115c-8.3 0-15.028 6.728-15.028 15.029 0 8.3 6.728 15.028 15.028 15.028 8.296-.009 15.02-6.732 15.028-15.028 0-8.3-6.728-15.029-15.028-15.029zm0 26.717c-6.452-.007-11.681-5.236-11.689-11.688 0-6.456 5.233-11.69 11.69-11.69 6.455 0 11.688 5.234 11.688 11.69 0 6.455-5.233 11.688-11.689 11.688z" fill="url(#paint5_linear)"/><path d="M59.984 18.37H46.625v3.339h13.359v-3.34z" fill="url(#paint6_linear)"/><path d="M46.49 72.817a1.67 1.67 0 00-.878-.878l-11.689-5.01a1.669 1.669 0 00-2.327 1.535v3.34H11.56V45.086H8.22v28.388a1.67 1.67 0 001.668 1.67h21.709v3.339c0 .921.747 1.67 1.668 1.67h.002c.226 0 .45-.046.657-.136l11.69-5.009a1.669 1.669 0 00.878-2.19zm-11.554 3.134v-4.954l5.78 2.477-5.78 2.477z" fill="url(#paint7_linear)"/><path d="M80.408 69.064L73.23 77.68l-3.717-3.716-2.361 2.361 5.01 5.01c.312.313.737.49 1.18.489.025 0 .05 0 .075-.002a1.672 1.672 0 001.208-.598l8.35-10.02-2.567-2.139z" fill="url(#paint8_linear)"/><defs><linearGradient id="paint0_linear" x1="91.206" y1="0" x2="11.2" y2="92.462" gradientUnits="userSpaceOnUse"><stop stop-color="#54D6BF"/><stop offset="1" stop-color="#9851DF"/></linearGradient><linearGradient id="paint1_linear" x1="91.206" y1="0" x2="11.2" y2="92.462" gradientUnits="userSpaceOnUse"><stop stop-color="#54D6BF"/><stop offset="1" stop-color="#9851DF"/></linearGradient><linearGradient id="paint2_linear" x1="91.206" y1="0" x2="11.2" y2="92.462" gradientUnits="userSpaceOnUse"><stop stop-color="#54D6BF"/><stop offset="1" stop-color="#9851DF"/></linearGradient><linearGradient id="paint3_linear" x1="91.206" y1="0" x2="11.2" y2="92.462" gradientUnits="userSpaceOnUse"><stop stop-color="#54D6BF"/><stop offset="1" stop-color="#9851DF"/></linearGradient><linearGradient id="paint4_linear" x1="91.206" y1="0" x2="11.2" y2="92.462" gradientUnits="userSpaceOnUse"><stop stop-color="#54D6BF"/><stop offset="1" stop-color="#9851DF"/></linearGradient><linearGradient id="paint5_linear" x1="91.206" y1="0" x2="11.2" y2="92.462" gradientUnits="userSpaceOnUse"><stop stop-color="#54D6BF"/><stop offset="1" stop-color="#9851DF"/></linearGradient><linearGradient id="paint6_linear" x1="91.206" y1="0" x2="11.2" y2="92.462" gradientUnits="userSpaceOnUse"><stop stop-color="#54D6BF"/><stop offset="1" stop-color="#9851DF"/></linearGradient><linearGradient id="paint7_linear" x1="91.206" y1="0" x2="11.2" y2="92.462" gradientUnits="userSpaceOnUse"><stop stop-color="#54D6BF"/><stop offset="1" stop-color="#9851DF"/></linearGradient><linearGradient id="paint8_linear" x1="91.206" y1="0" x2="11.2" y2="92.462" gradientUnits="userSpaceOnUse"><stop stop-color="#54D6BF"/><stop offset="1" stop-color="#9851DF"/></linearGradient></defs></svg>