<svg width="27" height="27" fill="none" xmlns="http://www.w3.org/2000/svg"><path d="M18.668 3.164A3.168 3.168 0 0015.504 0H3.164A3.168 3.168 0 000 3.164v12.34a3.168 3.168 0 003.164 3.164h5.063v2.11h2.109v-2.11h5.168a3.168 3.168 0 003.164-3.164V10.44h2.057V8.332h-2.057V3.164zm-2.11 12.34c0 .581-.473 1.055-1.054 1.055H3.164a1.056 1.056 0 01-1.055-1.055V3.164c0-.581.474-1.055 1.055-1.055h12.34c.581 0 1.055.474 1.055 1.055v12.34zm8.333 7.277H27v2.11A2.11 2.11 0 0124.89 27h-2.056v-2.11h2.057v-2.109zm-10.494 2.11h2.109V27h-2.11v-2.11zm4.218 0h2.11V27h-2.11v-2.11zM27 10.44v2.11h-2.11v-2.11h-2.056V8.332h2.057A2.11 2.11 0 0127 10.442zm-2.11 4.114H27v2.11h-2.11v-2.11zm0 4.113H27v2.11h-2.11v-2.11zM10.336 24.89h2.057V27h-2.057a2.11 2.11 0 01-2.11-2.11v-2.109h2.11v2.11zm1.951-16.77h2.11v6.328h-6.33v-2.11h2.728l-3.763-3.76 1.492-1.492 3.763 3.763V8.121z" fill="#BDBDBD"/></svg>