<svg width="100" height="100" fill="none" xmlns="http://www.w3.org/2000/svg"><path d="M93.333 13.333v3.334A3.333 3.333 0 0196.667 20v50H3.333V20a3.333 3.333 0 013.334-3.333v-3.334A6.667 6.667 0 000 20v56.667a6.667 6.667 0 006.667 6.666h32.76l-4 13.334h-3.76V100h36.666v-3.333h-3.76l-4-13.334h32.76A6.667 6.667 0 00100 76.667V20a6.667 6.667 0 00-6.667-6.667zm-32.24 83.334H38.907l4-13.334h14.186l4 13.334zm35.574-20A3.333 3.333 0 0193.333 80H6.667a3.333 3.333 0 01-3.334-3.333v-3.334h93.334v3.334z" fill="url(#paint0_linear)"/><path d="M16.667 66.667h66.666A6.667 6.667 0 0090 60V6.667A6.667 6.667 0 0083.333 0H16.667A6.667 6.667 0 0010 6.667V60a6.667 6.667 0 006.667 6.667zm-3.334-60a3.333 3.333 0 013.334-3.334h66.666a3.333 3.333 0 013.334 3.334V60a3.333 3.333 0 01-3.334 3.333H16.667A3.333 3.333 0 0113.333 60V6.667z" fill="url(#paint1_linear)"/><path d="M16.667 13.333h66.666v3.334H16.667v-3.334z" fill="url(#paint2_linear)"/><path d="M16.667 21.667h15V25h-15v-3.333z" fill="url(#paint3_linear)"/><path d="M16.667 28.333h11.666v3.334H16.667v-3.334z" fill="url(#paint4_linear)"/><path d="M16.667 35h10v3.333h-10V35z" fill="url(#paint5_linear)"/><path d="M16.667 41.667h10V45h-10v-3.333z" fill="url(#paint6_linear)"/><path d="M16.667 48.333h10v3.334h-10v-3.334z" fill="url(#paint7_linear)"/><path d="M16.667 55h15v3.333h-15V55z" fill="url(#paint8_linear)"/><path d="M68.333 21.667h15V25h-15v-3.333z" fill="url(#paint9_linear)"/><path d="M71.667 28.333h11.666v3.334H71.667v-3.334z" fill="url(#paint10_linear)"/><path d="M73.333 35h10v3.333h-10V35z" fill="url(#paint11_linear)"/><path d="M73.333 41.667h10V45h-10v-3.333z" fill="url(#paint12_linear)"/><path d="M73.333 48.333h10v3.334h-10v-3.334z" fill="url(#paint13_linear)"/><path d="M68.333 55h15v3.333h-15V55z" fill="url(#paint14_linear)"/><path d="M16.667 6.667H20V10h-3.333V6.667z" fill="url(#paint15_linear)"/><path d="M23.333 6.667h3.334V10h-3.334V6.667z" fill="url(#paint16_linear)"/><path d="M30 6.667h3.333V10H30V6.667z" fill="url(#paint17_linear)"/><path d="M63.527 46.455c.225-.475.426-.96.603-1.455h4.203c.921 0 1.667-.746 1.667-1.667v-6.666c0-.921-.746-1.667-1.667-1.667H64.13c-.177-.495-.377-.98-.603-1.455l2.973-2.973c.65-.65.65-1.706 0-2.356L61.784 23.5a1.665 1.665 0 00-2.356 0l-2.973 2.971c-.475-.224-.96-.425-1.455-.601v-4.203c0-.921-.746-1.667-1.667-1.667h-6.666c-.921 0-1.667.746-1.667 1.667v4.203c-.495.177-.98.377-1.455.603L40.572 23.5a1.665 1.665 0 00-2.356 0L33.5 28.216c-.65.65-.65 1.705 0 2.356l2.971 2.973c-.225.475-.426.96-.602 1.455h-4.202c-.921 0-1.667.746-1.667 1.667v6.666c0 .921.746 1.667 1.667 1.667h4.203c.177.495.378.98.603 1.455L33.5 49.428c-.65.65-.65 1.706 0 2.356l4.716 4.716c.65.65 1.705.65 2.356 0l2.973-2.971c.475.225.96.426 1.455.602v4.202c0 .921.746 1.667 1.667 1.667h6.666c.921 0 1.667-.746 1.667-1.667V54.13c.495-.177.98-.378 1.455-.603l2.973 2.973c.65.65 1.706.65 2.356 0l4.716-4.716c.65-.65.65-1.705 0-2.356l-2.973-2.973zm-2.92 6.5l-2.667-2.667a1.669 1.669 0 00-2.027-.256 11.66 11.66 0 01-3 1.241c-.735.19-1.25.853-1.25 1.614v3.78h-3.33v-3.77c0-.76-.514-1.424-1.25-1.614a11.648 11.648 0 01-3-1.241 1.666 1.666 0 00-2.026.257l-2.667 2.666-2.356-2.356 2.666-2.667a1.669 1.669 0 00.258-2.027 11.643 11.643 0 01-1.243-3 1.665 1.665 0 00-1.613-1.25h-3.769v-3.332h3.77c.76 0 1.424-.514 1.614-1.25a11.65 11.65 0 011.241-3 1.666 1.666 0 00-.257-2.026l-2.666-2.667 2.356-2.356 2.667 2.666a1.669 1.669 0 002.027.258c.937-.553 1.947-.97 3-1.243a1.665 1.665 0 001.25-1.613v-3.769h3.332v3.77c0 .76.515 1.424 1.25 1.614a11.62 11.62 0 013 1.241c.656.387 1.49.282 2.028-.257l2.667-2.666 2.356 2.356-2.666 2.667a1.67 1.67 0 00-.257 2.027c.551.937.97 1.947 1.242 3 .19.735.854 1.25 1.613 1.25h3.767v3.332h-3.77c-.76 0-1.424.515-1.614 1.25a11.628 11.628 0 01-1.241 3 1.667 1.667 0 00.257 2.028l2.666 2.667-2.359 2.343z" fill="url(#paint18_linear)"/><path d="M50 31.667A8.334 8.334 0 1058.333 40 8.344 8.344 0 0050 31.667zM50 45a5 5 0 11.001-10.001A5 5 0 0150 45z" fill="url(#paint19_linear)"/><defs><linearGradient id="paint0_linear" x1="91.25" y1="0" x2="11.25" y2="92.5" gradientUnits="userSpaceOnUse"><stop stop-color="#54D6BF"/><stop offset="1" stop-color="#9851DF"/></linearGradient><linearGradient id="paint1_linear" x1="91.25" y1="0" x2="11.25" y2="92.5" gradientUnits="userSpaceOnUse"><stop stop-color="#54D6BF"/><stop offset="1" stop-color="#9851DF"/></linearGradient><linearGradient id="paint2_linear" x1="91.25" y1="0" x2="11.25" y2="92.5" gradientUnits="userSpaceOnUse"><stop stop-color="#54D6BF"/><stop offset="1" stop-color="#9851DF"/></linearGradient><linearGradient id="paint3_linear" x1="91.25" y1="0" x2="11.25" y2="92.5" gradientUnits="userSpaceOnUse"><stop stop-color="#54D6BF"/><stop offset="1" stop-color="#9851DF"/></linearGradient><linearGradient id="paint4_linear" x1="91.25" y1="0" x2="11.25" y2="92.5" gradientUnits="userSpaceOnUse"><stop stop-color="#54D6BF"/><stop offset="1" stop-color="#9851DF"/></linearGradient><linearGradient id="paint5_linear" x1="91.25" y1="0" x2="11.25" y2="92.5" gradientUnits="userSpaceOnUse"><stop stop-color="#54D6BF"/><stop offset="1" stop-color="#9851DF"/></linearGradient><linearGradient id="paint6_linear" x1="91.25" y1="0" x2="11.25" y2="92.5" gradientUnits="userSpaceOnUse"><stop stop-color="#54D6BF"/><stop offset="1" stop-color="#9851DF"/></linearGradient><linearGradient id="paint7_linear" x1="91.25" y1="0" x2="11.25" y2="92.5" gradientUnits="userSpaceOnUse"><stop stop-color="#54D6BF"/><stop offset="1" stop-color="#9851DF"/></linearGradient><linearGradient id="paint8_linear" x1="91.25" y1="0" x2="11.25" y2="92.5" gradientUnits="userSpaceOnUse"><stop stop-color="#54D6BF"/><stop offset="1" stop-color="#9851DF"/></linearGradient><linearGradient id="paint9_linear" x1="91.25" y1="0" x2="11.25" y2="92.5" gradientUnits="userSpaceOnUse"><stop stop-color="#54D6BF"/><stop offset="1" stop-color="#9851DF"/></linearGradient><linearGradient id="paint10_linear" x1="91.25" y1="0" x2="11.25" y2="92.5" gradientUnits="userSpaceOnUse"><stop stop-color="#54D6BF"/><stop offset="1" stop-color="#9851DF"/></linearGradient><linearGradient id="paint11_linear" x1="91.25" y1="0" x2="11.25" y2="92.5" gradientUnits="userSpaceOnUse"><stop stop-color="#54D6BF"/><stop offset="1" stop-color="#9851DF"/></linearGradient><linearGradient id="paint12_linear" x1="91.25" y1="0" x2="11.25" y2="92.5" gradientUnits="userSpaceOnUse"><stop stop-color="#54D6BF"/><stop offset="1" stop-color="#9851DF"/></linearGradient><linearGradient id="paint13_linear" x1="91.25" y1="0" x2="11.25" y2="92.5" gradientUnits="userSpaceOnUse"><stop stop-color="#54D6BF"/><stop offset="1" stop-color="#9851DF"/></linearGradient><linearGradient id="paint14_linear" x1="91.25" y1="0" x2="11.25" y2="92.5" gradientUnits="userSpaceOnUse"><stop stop-color="#54D6BF"/><stop offset="1" stop-color="#9851DF"/></linearGradient><linearGradient id="paint15_linear" x1="91.25" y1="0" x2="11.25" y2="92.5" gradientUnits="userSpaceOnUse"><stop stop-color="#54D6BF"/><stop offset="1" stop-color="#9851DF"/></linearGradient><linearGradient id="paint16_linear" x1="91.25" y1="0" x2="11.25" y2="92.5" gradientUnits="userSpaceOnUse"><stop stop-color="#54D6BF"/><stop offset="1" stop-color="#9851DF"/></linearGradient><linearGradient id="paint17_linear" x1="91.25" y1="0" x2="11.25" y2="92.5" gradientUnits="userSpaceOnUse"><stop stop-color="#54D6BF"/><stop offset="1" stop-color="#9851DF"/></linearGradient><linearGradient id="paint18_linear" x1="91.25" y1="0" x2="11.25" y2="92.5" gradientUnits="userSpaceOnUse"><stop stop-color="#54D6BF"/><stop offset="1" stop-color="#9851DF"/></linearGradient><linearGradient id="paint19_linear" x1="91.25" y1="0" x2="11.25" y2="92.5" gradientUnits="userSpaceOnUse"><stop stop-color="#54D6BF"/><stop offset="1" stop-color="#9851DF"/></linearGradient></defs></svg>