<svg width="22" height="22" fill="none" xmlns="http://www.w3.org/2000/svg"><circle cx="11.021" cy="10.979" r="10.979" fill="#C4C4C4"/><path fill-rule="evenodd" clip-rule="evenodd" d="M10.999 3.764c-3.972 0-7.193 3.167-7.193 7.072 0 3.124 2.074 5.77 4.898 6.725.353.043.486-.174.486-.347v-1.215c-1.986.434-2.427-.955-2.427-.955-.31-.824-.795-1.04-.795-1.04-.662-.435.044-.435.044-.435.706.044 1.104.738 1.104.738.662 1.085 1.676.78 2.074.607a1.5 1.5 0 01.44-.954c-1.588-.174-3.265-.781-3.265-3.514 0-.781.265-1.389.75-1.91-.043-.13-.308-.867.089-1.822 0 0 .618-.173 1.986.738.573-.174 1.191-.217 1.809-.217.618 0 1.235.087 1.81.217 1.367-.911 1.985-.738 1.985-.738.397.955.132 1.692.088 1.866a2.78 2.78 0 01.75 1.909c0 2.733-1.677 3.297-3.265 3.47.264.218.485.652.485 1.302v1.953c0 .173.133.39.486.347 2.868-.955 4.898-3.601 4.898-6.725-.044-3.905-3.266-7.072-7.237-7.072z" fill="#292929"/></svg>