<svg width="23" height="22" fill="none" xmlns="http://www.w3.org/2000/svg"><circle cx="11.5" cy="10.979" r="10.979" fill="#C4C4C4"/><path d="M8.547 16.94h5.906a3.011 3.011 0 003.007-3.008V8.026a3.011 3.011 0 00-3.007-3.007H8.547A3.011 3.011 0 005.54 8.026v5.906a3.011 3.011 0 003.007 3.007zM6.836 8.025c0-.944.767-1.711 1.71-1.711h5.907c.944 0 1.711.767 1.711 1.711v5.906c0 .944-.767 1.711-1.71 1.711H8.546a1.713 1.713 0 01-1.711-1.71V8.025z" fill="#292929"/><path d="M11.5 14.05a3.076 3.076 0 003.07-3.07 3.076 3.076 0 00-3.07-3.071 3.076 3.076 0 00-3.07 3.07 3.076 3.076 0 003.07 3.07zm0-4.846c.978 0 1.775.797 1.775 1.775 0 .978-.797 1.775-1.775 1.775a1.778 1.778 0 01-1.775-1.775c0-.978.797-1.775 1.775-1.775zm3.168-.66a.73.73 0 00.729-.728.73.73 0 00-.729-.729.73.73 0 00-.728.729c0 .4.327.728.728.728z" fill="#292929"/></svg>