<svg width="28" height="28" fill="none" xmlns="http://www.w3.org/2000/svg"><path d="M7.063 28h13.874C24.83 28 28 24.83 28 20.937V7.063C28 3.17 24.83 0 20.937 0H7.063C3.17 0 0 3.17 0 7.063v13.874C0 24.83 3.17 28 7.063 28zM3.043 7.063a4.024 4.024 0 014.02-4.02h13.874a4.024 4.024 0 014.02 4.02v13.874a4.024 4.024 0 01-4.02 4.02H7.063a4.024 4.024 0 01-4.02-4.02V7.063z" fill="#fff"/><path d="M14 21.212c3.974 0 7.212-3.238 7.212-7.212 0-3.974-3.238-7.212-7.212-7.212-3.974 0-7.212 3.238-7.212 7.212 0 3.974 3.238 7.212 7.212 7.212zm0-11.381A4.176 4.176 0 0118.169 14 4.176 4.176 0 0114 18.169 4.176 4.176 0 019.831 14 4.176 4.176 0 0114 9.831zm7.442-1.551c.942 0 1.711-.769 1.711-1.71 0-.942-.77-1.712-1.71-1.712-.943 0-1.712.77-1.712 1.711 0 .942.77 1.712 1.711 1.712z" fill="#fff"/></svg>