<svg width="242" height="233" fill="none" xmlns="http://www.w3.org/2000/svg"><path d="M236.1 154.901h-2.375v-10.428c9.396-9.508 8.327-26.472 8.149-28.624V98.086c0-5.719-4.653-10.372-10.372-10.372h-.398c-1.808 0-3.511.465-4.993 1.283a10.36 10.36 0 00-8.117-3.922h-.398c-1.751 0-3.416.43-4.88 1.206a10.355 10.355 0 00-7.934-3.698h-.398c-1.45 0-2.845.299-4.116.848a10.373 10.373 0 00-8.662-4.672h-.399c-5.718 0-10.371 4.653-10.371 10.372v9.996c-4.166-.447-7.421.348-9.883 2.409-5.338 4.468-4.801 13.333-4.281 21.908.709 11.703 11.142 21.522 15.163 24.891v6.565h-2.003a3.818 3.818 0 00-3.818 3.818v78.519a3.817 3.817 0 003.818 3.817h56.269a3.817 3.817 0 003.818-3.817v-78.519a3.818 3.818 0 00-3.819-3.817zm-61.807-31.919c-.368-6.057-.824-13.595 1.56-15.59.886-.742 2.622-.932 4.982-.563v5.186a3.818 3.818 0 107.636 0V89.132a2.74 2.74 0 012.736-2.737h.398a2.74 2.74 0 012.738 2.737v14.739a3.817 3.817 0 107.635 0V91.66a2.727 2.727 0 012.405-1.44h.399a2.74 2.74 0 012.737 2.737v10.915a3.818 3.818 0 107.635 0v-9.664a2.722 2.722 0 012.441-1.495h.398a2.74 2.74 0 012.737 2.736v10.297a3.817 3.817 0 107.635 0V98.09a2.74 2.74 0 012.738-2.737h.398a2.74 2.74 0 012.737 2.737v17.929c0 .122.006.245.017.367.441 4.563.074 17.683-6.815 23.514a3.818 3.818 0 00-1.35 2.915v12.089h-36.621v-8.399a3.826 3.826 0 00-1.538-3.064c-.13-.098-12.993-9.814-13.638-20.459zm57.99 110.438h-48.634v-51.245h48.634v51.245zm0-58.88h-48.634v-12.004h48.634v12.004z" fill="#fff"/><path d="M162.187 63.041l17.465 7.376c1.26.532 2.586.798 3.913.798 1.282 0 2.563-.247 3.785-.744a9.993 9.993 0 005.482-5.406l2.124-5.03a9.99 9.99 0 00.054-7.699 9.992 9.992 0 00-5.412-5.482l-20.732-8.714.958-3.466c.012-.046.025-.091.035-.136.64-2.696.192-5.48-1.261-7.838a10.305 10.305 0 00-6.431-4.65l-.391-.092a10.297 10.297 0 00-5.154.094 10.363 10.363 0 00-6.992-5.692l-.386-.092a10.389 10.389 0 00-5.021.045c-.134-.264-.28-.524-.437-.78a10.302 10.302 0 00-6.431-4.649l-.391-.093a10.316 10.316 0 00-4.193-.126 10.438 10.438 0 00-.92-1.896 10.307 10.307 0 00-6.44-4.652l-.382-.09a10.303 10.303 0 00-7.838 1.261 10.3 10.3 0 00-4.635 6.373l-.679 2.525L84.993 2.89c-.013-.006-.027-.01-.041-.015a4.405 4.405 0 00-.218-.079c-.049-.016-.097-.033-.146-.047-.063-.019-.126-.034-.19-.05-.063-.014-.127-.03-.191-.04-.051-.01-.102-.017-.154-.025a3.321 3.321 0 00-.234-.027c-.02-.001-.04-.005-.06-.007L58.198.953a3.799 3.799 0 00-3.733 2.257 3.818 3.818 0 00.82 4.284l17.97 17.551.017.018.009.008c.01.011.022.02.033.029.074.071.152.14.233.206.039.032.08.06.12.09.043.033.084.067.13.098.01.008.023.013.035.021.065.044.132.084.2.122.486.312.995.593 1.526.816l16.35 6.905c-1.206 3.54-1.942 7.746-2.602 11.534C87.22 56.86 95.76 69.273 98.63 73.039l.013 17.358h-3.178a3.817 3.817 0 00-3.817 3.817v143.024a3.817 3.817 0 003.817 3.818h56.27a3.818 3.818 0 003.818-3.818v-95.535a3.818 3.818 0 10-7.636 0v91.717H99.282V117.671h48.634v10.606a3.817 3.817 0 007.636 0V94.214a3.818 3.818 0 00-3.818-3.818h-1.601l.035-9.862c6.448-4.271 10.067-11.69 12.019-17.493zm20.259-10.91l4.188 1.76c.596.25 1.058.72 1.302 1.319.244.6.239 1.258-.013 1.854l-2.125 5.03a2.403 2.403 0 01-1.32 1.303 2.404 2.404 0 01-1.854-.013l-4.465-1.886 4.287-9.367zm-18.229 2.817l2.597-9.387 8.59 3.61-4.282 9.355-7.007-2.959c.045-.258.079-.467.102-.62zM74.791 15.875l-6.798-6.64 9.656.622-2.858 6.018zm6.263 4.61l4.343-9.143 24.477 10.286-2.666 9.903-26.154-11.045zm66.862 89.551H99.282V98.032h48.634v12.004zm-3.286-35.097a3.817 3.817 0 00-2.091 3.392l-.041 11.673h-36.222l-.013-18.295a3.835 3.835 0 00-.893-2.451c-.103-.126-10.374-12.55-8.543-23.055.578-3.313 1.218-6.978 2.135-9.866l6.903 2.917a3.811 3.811 0 002.584 2.358 3.82 3.82 0 004.678-2.694l6.815-25.319.028-.11a2.72 2.72 0 011.227-1.698 2.72 2.72 0 012.073-.331l.382.09c.71.17 1.314.605 1.698 1.228.383.622.501 1.356.332 2.07l-.388 1.632-4.497 15.583a3.817 3.817 0 107.336 2.118l4.345-15.057a2.722 2.722 0 012.718-.902l.391.093c.711.17 1.314.605 1.698 1.228.376.611.494 1.33.337 2.031l-3.999 13.509a3.816 3.816 0 003.662 4.902 3.818 3.818 0 003.659-2.735l3.703-12.506a2.714 2.714 0 012.832-1.044l.386.092a2.74 2.74 0 012.03 3.295l-.578 2.438-3.255 10.374a3.818 3.818 0 007.285 2.286l3.296-10.504c.014-.047.023-.093.036-.14.011-.04.025-.08.035-.12a2.738 2.738 0 013.292-2.031l.392.093a2.74 2.74 0 012.042 3.24l-5.646 20.417c-.045.16-.079.328-.101.49-.023.162-2.417 16.417-12.063 21.309z" fill="#fff"/><path d="M75.516 136.904v-17.761c0-5.72-4.653-10.373-10.372-10.373h-.398a10.3 10.3 0 00-4.993 1.283 10.359 10.359 0 00-8.117-3.923h-.398a10.39 10.39 0 00-4.88 1.208 10.354 10.354 0 00-7.934-3.699h-.399c-1.45 0-2.844.299-4.115.847a10.373 10.373 0 00-8.661-4.671h-.399c-5.72 0-10.372 4.653-10.372 10.372v9.996c-4.167-.449-7.42.348-9.882 2.409C-.742 127.059-.206 135.925.314 144.5c.71 11.703 11.142 21.522 15.162 24.891v6.566h-2.002a3.816 3.816 0 00-3.818 3.817v57.464a3.817 3.817 0 003.818 3.818h56.27a3.817 3.817 0 003.818-3.818v-57.464a3.816 3.816 0 00-3.818-3.817h-2.375v-10.428c9.394-9.508 8.325-26.473 8.147-28.625zm-9.59 96.516H17.29v-30.19h48.635v30.19zm0-37.825H17.29v-12.003h48.635v12.003zm-4.843-34.642a3.817 3.817 0 00-1.35 2.914v12.09H23.11v-8.4a3.815 3.815 0 00-1.542-3.065c-3.61-2.679-13.095-11.575-13.633-20.454-.368-6.057-.824-13.596 1.56-15.591.885-.741 2.624-.931 4.982-.563v5.186a3.817 3.817 0 107.635 0v-22.884a2.74 2.74 0 012.737-2.737h.399a2.74 2.74 0 012.737 2.737v14.739a3.816 3.816 0 003.818 3.817 3.816 3.816 0 003.817-3.817v-12.211a2.726 2.726 0 012.405-1.441h.398a2.74 2.74 0 012.737 2.737v10.916a3.816 3.816 0 003.818 3.817 3.816 3.816 0 003.818-3.817v-9.664a2.72 2.72 0 012.44-1.496h.4a2.74 2.74 0 012.736 2.736V126.8a3.817 3.817 0 107.635 0v-7.657a2.74 2.74 0 012.738-2.737h.398a2.74 2.74 0 012.737 2.737v17.929c0 .121.006.244.018.366.44 4.563.074 17.684-6.814 23.515z" fill="#fff"/></svg>