<svg viewBox="0 0 224 224" fill="none" xmlns="http://www.w3.org/2000/svg"><path d="M215.497 15.598h-32.789V3.574c0-1.974-1.6-3.574-3.574-3.574H44.866a3.574 3.574 0 00-3.574 3.574v12.024H8.502C3.815 15.598 0 19.412 0 24.1v156.898c0 4.688 3.814 8.503 8.503 8.503h78.07v27.35H52.859a3.574 3.574 0 100 7.149h102.458a3.574 3.574 0 100-7.149h-17.89v-27.35h14.711a3.574 3.574 0 100-7.149H8.503c-.734 0-1.354-.62-1.354-1.354V24.101c0-.735.62-1.354 1.354-1.354h32.789v130.521H18.36a3.574 3.574 0 100 7.149h133.779a3.574 3.574 0 100-7.149h-28.064v-29.213c0-1.975-1.6-3.574-3.574-3.574h-56.57a3.574 3.574 0 00-3.575 3.574v29.213H48.44V7.149h127.12v32.57a3.574 3.574 0 107.149 0V22.747h32.789c.733 0 1.354.62 1.354 1.354v156.897c0 .734-.621 1.354-1.354 1.354h-9.37a3.574 3.574 0 100 7.149h9.369c4.689 0 8.503-3.814 8.503-8.503V24.101c0-4.69-3.814-8.503-8.503-8.503zm-85.218 201.253H93.722v-27.35h36.557v27.35zM67.504 127.63h49.422v25.639H67.504V127.63z" fill="#fff"/><path d="M195.36 85.103c-.008-.052-.013-.104-.023-.155-.015-.074-.035-.147-.054-.22-.01-.038-.018-.075-.029-.113a3.404 3.404 0 00-.078-.224c-.01-.027-.018-.056-.029-.083l-.017-.044-.009-.023-12.67-31.556a3.574 3.574 0 00-6.634 0l-12.671 31.558a4.84 4.84 0 00-.026.064c-.012.03-.02.062-.032.092-.026.071-.053.142-.074.215-.012.038-.02.078-.03.116-.019.073-.038.144-.053.218-.01.052-.015.104-.023.156-.01.062-.021.122-.027.185a3.411 3.411 0 00-.018.35v122.09c0 8.972 7.299 16.271 16.272 16.271 8.971 0 16.271-7.299 16.271-16.271V85.639c0-.117-.006-.233-.018-.35-.007-.063-.019-.124-.028-.186zm-25.348 4.11h18.244v102.081h-18.244V89.214zm9.122-25.603l7.409 18.455h-14.819l7.41-18.455zm0 153.241c-5.03 0-9.123-4.092-9.123-9.122v-9.286h18.245v9.286c0 5.03-4.092 9.122-9.122 9.122zM63.93 51.375h96.14c1.975 0 3.575-1.6 3.575-3.575V22.638c0-1.974-1.6-3.574-3.575-3.574H63.93a3.574 3.574 0 00-3.575 3.574V47.8c0 1.975 1.6 3.575 3.575 3.575zm3.574-25.162h88.992v18.013H67.504V26.213zm92.566 32.311H63.93a3.574 3.574 0 100 7.148h96.14a3.574 3.574 0 100-7.148zM120.5 77.587H63.93a3.574 3.574 0 100 7.15h56.57a3.574 3.574 0 100-7.15zm32.327 0h-18.029a3.574 3.574 0 100 7.15h18.029a3.574 3.574 0 100-7.15zM120.5 91.885H63.93a3.574 3.574 0 100 7.15h56.57a3.574 3.574 0 100-7.15zm31.639 0h-17.341a3.574 3.574 0 100 7.15h17.341a3.574 3.574 0 100-7.15zM120.5 106.183H63.93a3.574 3.574 0 100 7.149h56.57a3.574 3.574 0 100-7.149zm31.639 0h-17.341a3.574 3.574 0 000 7.149h17.341a3.574 3.574 0 100-7.149z" fill="#fff"/></svg>