<svg viewBox="0 0 223 223" fill="none" xmlns="http://www.w3.org/2000/svg"><path d="M219.283 0H52.033a3.717 3.717 0 00-3.716 3.717v55.75h7.433V7.433h159.816V211.85a3.657 3.657 0 01-3.423 3.716c-.319 0-.639-.026-.959-.033-.658-.019-1.315-.034-1.962-.101-.056 0-.108 0-.164-.022-12.138-1.327-21.727-10.906-23.065-23.043 0-.052-.019-.108-.026-.16-.09-.883-.135-1.77-.134-2.657v-7.434a3.717 3.717 0 00-3.717-3.716H55.75v-66.9h-7.433v66.9H18.583a3.717 3.717 0 00-3.716 3.716v7.434c.02 18.465 14.984 33.429 33.45 33.45H212.22c6.031-.158 10.825-5.117 10.779-11.15V3.717A3.717 3.717 0 00219.283 0zM48.317 215.566c-14.362-.016-26-11.655-26.017-26.016v-3.717h156.1v3.717c.005 1.225.075 2.45.212 3.668.033.323.096.636.141.955.122.9.271 1.795.468 2.676.067.309.152.613.231.922.226.896.483 1.776.78 2.646.085.249.175.494.268.743.338.922.721 1.822 1.141 2.71.089.182.171.372.26.539.466.942.977 1.857 1.535 2.746.074.119.141.242.215.372.606.949 1.26 1.867 1.959 2.75l.119.16a32.542 32.542 0 005.092 5.14l-142.504-.011z" fill="#fff"/><path d="M122.65 104.066c.986 0 1.931-.392 2.627-1.089l14.867-14.866a3.716 3.716 0 000-5.255l-14.867-14.867a3.713 3.713 0 00-2.627-1.09H18.583C8.32 66.9 0 75.22 0 85.484s8.32 18.583 18.583 18.583H122.65zm-.959-29.153l10.57 10.57-10.57 10.57-2.643-10.57 2.643-10.57zm-91.958-.58h84.443l-1.859 7.433h-75.15V89.2h75.15l1.859 7.433H29.733v-22.3zm-22.3 11.15c0-6.158 4.992-11.15 11.15-11.15H22.3v22.3h-3.717c-6.158 0-11.15-4.992-11.15-11.15zm78.051 74.333h111.499a3.717 3.717 0 003.717-3.716V44.6a3.717 3.717 0 00-6.344-2.628l-111.5 111.5a3.716 3.716 0 002.628 6.344zM193.267 53.572v9.611h-7.434v7.434h7.434v7.433h-7.434v7.433h7.434v7.433h-7.434v7.434h7.434v7.433h-7.434v7.433h7.434v7.434h-7.434v7.433h7.434v7.433h-7.434v7.434h7.434v7.433h-7.434v-7.433H178.4v7.433h-7.433v-7.433h-7.434v7.433H156.1v-7.433h-7.433v7.433h-7.434v-7.433H133.8v7.433h-7.433v-7.433h-7.434v7.433H111.5v-7.433h-7.433v7.433h-9.611l98.811-98.811z" fill="#fff"/><path d="M139.319 137.516h35.364a3.717 3.717 0 003.717-3.716V98.436a3.717 3.717 0 00-6.345-2.628l-35.364 35.364a3.716 3.716 0 002.628 6.344zm31.647-30.105v22.672h-22.671l22.671-22.672zm0-85.111H96.633v7.433h74.333V22.3zm11.151 14.867H85.483V44.6h96.634v-7.433zm-96.634 78.049h-22.3v7.434h22.3v-7.434zm-7.433 14.867H63.183v7.433H78.05v-7.433z" fill="#fff"/></svg>