<svg viewBox="0 0 195 248" fill="none" xmlns="http://www.w3.org/2000/svg"><path fill-rule="evenodd" clip-rule="evenodd" d="M37.8 82.499a4.841 4.841 0 006.12-3.078 55.968 55.968 0 0153.237-38.45c30.911 0 56.061 25.148 56.061 56.061 0 23.891-10.702 38.165-19.3 49.635-6.255 8.342-11.657 15.549-11.657 24.289 0 .575-.008 1.145-.021 1.71h-20.239v-11.127a4.844 4.844 0 00-9.688 0v11.127H72.071a72.639 72.639 0 01-.02-1.71c0-8.741-5.402-15.947-11.657-24.291-6.333-8.448-13.51-18.024-17.07-31.63a4.845 4.845 0 00-9.37 2.451c4.039 15.445 12.162 26.283 18.69 34.99 5.43 7.245 9.72 12.966 9.72 18.48 0 2.32.098 4.583.289 6.742v40.971c0 .13.01.257.019.384.003.03.002.062.005.093.017.179.046.353.082.528v.003c1.682 7.89 5.988 15.065 12.13 20.202C81.148 245.116 89.057 248 97.157 248c8.1 0 16.007-2.884 22.268-8.121 6.14-5.137 10.448-12.312 12.128-20.202l.002-.005c.036-.173.062-.347.081-.526l.004-.093c.01-.129.019-.256.019-.386v-40.969c.191-2.159.291-4.422.291-6.742 0-5.514 4.29-11.235 9.72-18.48 8.961-11.954 21.235-28.325 21.235-55.444 0-36.254-29.496-65.748-65.748-65.748A65.64 65.64 0 0034.722 76.38a4.844 4.844 0 003.078 6.119zm59.357 155.813c-9.849 0-18.73-5.956-22.938-14.801h45.876c-4.21 8.845-13.092 14.801-22.938 14.801zm24.816-24.489H72.34v-10.891h49.633v10.891zm0-20.578H72.34v-10.891h49.633v10.891zM97.157 22.593a4.843 4.843 0 004.844-4.843V4.844a4.843 4.843 0 10-9.688 0V17.75a4.843 4.843 0 004.844 4.843zM4.969 101.876h12.906a4.844 4.844 0 100-9.688H4.969a4.843 4.843 0 100 9.688z" fill="#fff"/><path fill-rule="evenodd" clip-rule="evenodd" d="M119.334 106.818a4.843 4.843 0 00-4.843-4.844H79.824a4.844 4.844 0 000 9.688h12.49v11.127a4.844 4.844 0 109.687 0v-11.127h12.49a4.843 4.843 0 004.843-4.844zM37.672 44.396a4.828 4.828 0 003.424 1.42c1.24 0 2.479-.474 3.425-1.42a4.842 4.842 0 000-6.85l-9.126-9.125a4.844 4.844 0 00-6.85 6.85l9.127 9.125zM28.63 170.404a4.83 4.83 0 003.424-1.42l9.126-9.125a4.842 4.842 0 000-6.849 4.84 4.84 0 00-6.85 0l-9.127 9.125a4.845 4.845 0 003.426 8.269zM153.218 45.815a4.83 4.83 0 003.425-1.419l9.125-9.126a4.844 4.844 0 00-6.849-6.85l-9.126 9.125a4.846 4.846 0 00-.002 6.851 4.834 4.834 0 003.427 1.42zm-.084 107.195a4.842 4.842 0 000 6.849l9.126 9.125a4.829 4.829 0 003.425 1.42 4.828 4.828 0 003.424-1.42 4.842 4.842 0 000-6.849l-9.125-9.125a4.841 4.841 0 00-6.85 0zm23.305-51.134h12.906a4.843 4.843 0 100-9.688h-12.906a4.843 4.843 0 00-4.843 4.844 4.843 4.843 0 004.843 4.844zM97.157 137.32a4.853 4.853 0 00-4.843 4.844 4.853 4.853 0 004.843 4.844 4.853 4.853 0 004.844-4.844 4.853 4.853 0 00-4.844-4.844zM41.096 97.032a4.853 4.853 0 00-4.844-4.844 4.852 4.852 0 00-4.843 4.844 4.852 4.852 0 004.843 4.844 4.853 4.853 0 004.844-4.844z" fill="#fff"/></svg>