<svg width="210" height="42" fill="none" xmlns="http://www.w3.org/2000/svg"><path d="M.007 24.37c-.086-1.307.608-2.048 1.476-2.637 1.02-.697 2.192-.893 3.407-.893 2.973 0 5.968.021 8.94 0 2.084 0 3.994-.545 5.47-2.071.564-.589.976-1.351 1.302-2.114.325-.807.151-.981-.76-.981H1.309c-.434-.088-.868.087-1.302 0 .174-.48.217-1.264.5-1.657 1.085-1.504 2.69-1.896 4.448-1.896 5.208 0 10.417-.022 15.625 0 1.432 0 2.8-.305 4.058-1.003 1.302-.72 2.3-1.722 2.712-3.204.24-.85.13-1.003-.78-1.003H1.178c-1.02 0-1.215-.283-.716-1.155C2.503 2.116 5.584.133 9.73.046c4.883-.088 9.766-.022 14.648-.022 5.795 0 10.547 4.664 10.59 10.484.044 4.664.044 9.307 0 13.972-.043 5.82-4.774 10.484-10.59 10.506-4.882 0-9.765.043-14.648-.022-3.559-.044-6.575-1.46-8.875-4.229-.196-.24-.239-.61-.37-.915.305-.066.587-.196.89-.218 2.474-.066 4.948.043 7.379-.218 2.148-.218 3.95-1.33 4.948-3.4a4.51 4.51 0 00.26-.763c.174-.632-.043-.872-.716-.872-4.167.022-8.355.022-12.522.022H.007zm50.209 5.87c-1.616 0-2.856-.52-3.72-1.56-.864-1.04-1.328-2.424-1.392-4.152l-.024-.792.024-.768c.048-1.68.504-3.048 1.368-4.104.88-1.056 2.128-1.584 3.744-1.584 1.552 0 2.784.528 3.696 1.584v-5.328c0-.176.056-.312.168-.408a.555.555 0 01.408-.168h2.04c.176 0 .312.056.408.168a.508.508 0 01.168.408v15.888c0 .16-.056.296-.168.408a.508.508 0 01-.408.168h-1.896a.555.555 0 01-.408-.168.555.555 0 01-.168-.408v-.888c-.912 1.136-2.192 1.704-3.84 1.704zm.888-2.568c.928 0 1.616-.296 2.064-.888.448-.592.696-1.32.744-2.184.016-.192.024-.504.024-.936 0-.416-.008-.72-.024-.912-.032-.8-.288-1.48-.768-2.04-.464-.576-1.144-.864-2.04-.864-1.728 0-2.648 1.064-2.76 3.192l-.024.72.024.72c.112 2.128 1.032 3.192 2.76 3.192zm8.959-12.216a.555.555 0 01-.408-.168.555.555 0 01-.168-.408v-1.728c0-.16.056-.296.168-.408a.555.555 0 01.408-.168h2.184c.16 0 .296.056.408.168a.523.523 0 01.192.408v1.728c0 .16-.056.296-.168.408a.585.585 0 01-.432.168h-2.184zM60.159 30a.555.555 0 01-.408-.168.555.555 0 01-.168-.408V18.096c0-.16.056-.296.168-.408a.555.555 0 01.408-.168h1.992c.176 0 .312.056.408.168a.508.508 0 01.168.408v11.328c0 .16-.056.296-.168.408a.508.508 0 01-.408.168h-1.992zm10.672 5.28c-1.424 0-2.576-.24-3.456-.72-.88-.464-1.504-1-1.872-1.608-.368-.608-.552-1.128-.552-1.56 0-.144.056-.272.168-.384a.611.611 0 01.408-.168h2.088c.144 0 .264.032.36.096.112.08.2.216.264.408.16.432.416.792.768 1.08.368.304.936.456 1.704.456.96 0 1.664-.216 2.112-.648.464-.432.696-1.176.696-2.232v-1.632c-.88 1.04-2.112 1.56-3.696 1.56-1.664 0-2.92-.512-3.768-1.536-.832-1.024-1.28-2.4-1.344-4.128l-.024-.648.024-.648c.064-1.696.52-3.064 1.368-4.104.848-1.056 2.096-1.584 3.744-1.584.848 0 1.592.16 2.232.48.64.32 1.176.76 1.608 1.32v-.96c0-.176.056-.32.168-.432a.555.555 0 01.408-.168h1.944c.16 0 .296.064.408.192a.555.555 0 01.168.408l.024 11.568c0 1.776-.496 3.152-1.488 4.128s-2.48 1.464-4.464 1.464zm-.12-7.896c.912 0 1.592-.288 2.04-.864.464-.576.72-1.28.768-2.112.016-.128.024-.392.024-.792a7.7 7.7 0 00-.024-.768c-.048-.848-.304-1.56-.768-2.136-.448-.576-1.128-.864-2.04-.864-1.728 0-2.64 1.064-2.736 3.192l-.024.576c0 1.136.2 2.048.6 2.736.416.688 1.136 1.032 2.16 1.032zm9.029-11.928a.555.555 0 01-.408-.168.555.555 0 01-.168-.408v-1.728c0-.16.056-.296.168-.408a.555.555 0 01.408-.168h2.184c.16 0 .296.056.408.168a.523.523 0 01.192.408v1.728c0 .16-.056.296-.168.408a.585.585 0 01-.432.168H79.74zM79.836 30a.555.555 0 01-.408-.168.555.555 0 01-.168-.408V18.096c0-.16.056-.296.168-.408a.555.555 0 01.408-.168h1.992c.176 0 .312.056.408.168a.508.508 0 01.168.408v11.328c0 .16-.056.296-.168.408a.508.508 0 01-.408.168h-1.992zm10.672 0c-1.456 0-2.552-.376-3.288-1.128-.72-.768-1.08-1.888-1.08-3.36v-5.448h-1.896a.555.555 0 01-.408-.168.639.639 0 01-.168-.432v-1.368c0-.16.056-.296.168-.408a.555.555 0 01.408-.168h1.896v-3.984c0-.176.056-.312.168-.408a.555.555 0 01.408-.168h1.944c.176 0 .312.056.408.168a.508.508 0 01.168.408v3.984h3c.176 0 .312.056.408.168a.508.508 0 01.168.408v1.368c0 .176-.056.32-.168.432a.555.555 0 01-.408.168h-3v5.208c0 .688.12 1.208.36 1.56.24.352.64.528 1.2.528h1.656c.16 0 .296.056.408.168a.555.555 0 01.168.408v1.488c0 .16-.056.296-.168.408a.508.508 0 01-.408.168h-1.944zm7.553.24c-.816 0-1.568-.16-2.256-.48-.672-.336-1.208-.784-1.608-1.344a3.198 3.198 0 01-.576-1.848c0-1.088.44-1.968 1.32-2.64.88-.672 2.088-1.128 3.624-1.368l3.288-.48v-.504c0-.704-.176-1.232-.528-1.584-.352-.352-.92-.528-1.704-.528-.528 0-.96.104-1.296.312-.32.192-.576.384-.768.576-.192.208-.32.344-.384.408-.064.192-.184.288-.36.288h-1.848a.573.573 0 01-.384-.144.519.519 0 01-.144-.384c.016-.4.208-.856.576-1.368.384-.512.968-.952 1.752-1.32.784-.368 1.744-.552 2.88-.552 1.888 0 3.264.424 4.128 1.272.864.848 1.296 1.96 1.296 3.336v7.536c0 .16-.056.296-.168.408a.508.508 0 01-.408.168h-1.944a.555.555 0 01-.408-.168.555.555 0 01-.168-.408v-.936c-.352.512-.856.936-1.512 1.272-.64.32-1.44.48-2.4.48zm.816-2.28c.88 0 1.6-.288 2.16-.864.56-.576.84-1.416.84-2.52v-.504l-2.4.384c-.928.144-1.632.376-2.112.696-.464.32-.696.712-.696 1.176 0 .512.216.912.648 1.2.432.288.952.432 1.56.432zm9.151 2.04a.555.555 0 01-.408-.168.555.555 0 01-.168-.408V13.536c0-.176.056-.312.168-.408a.555.555 0 01.408-.168h1.992c.176 0 .312.056.408.168a.508.508 0 01.168.408v15.888c0 .16-.056.296-.168.408a.508.508 0 01-.408.168h-1.992zm8.44 0c-.208 0-.376-.048-.504-.144a1.396 1.396 0 01-.288-.456l-3.432-11.136a.728.728 0 01-.024-.216c0-.144.048-.264.144-.36a.505.505 0 01.36-.168h1.776a.64.64 0 01.432.144c.112.096.184.2.216.312l2.352 7.944 2.496-7.872a.796.796 0 01.24-.36.703.703 0 01.48-.168h1.2c.192 0 .344.056.456.168a.732.732 0 01.264.36l2.496 7.872 2.352-7.944a.51.51 0 01.192-.312.702.702 0 01.432-.144h1.776c.144 0 .264.056.36.168a.455.455 0 01.168.36l-.048.216-3.432 11.136c-.064.192-.16.344-.288.456-.112.096-.272.144-.48.144h-1.56c-.416 0-.68-.2-.792-.6l-2.496-7.584-2.496 7.584c-.128.4-.4.6-.816.6h-1.536zm16.039-14.544a.555.555 0 01-.408-.168.555.555 0 01-.168-.408v-1.728c0-.16.056-.296.168-.408a.555.555 0 01.408-.168h2.184c.16 0 .296.056.408.168a.523.523 0 01.192.408v1.728c0 .16-.056.296-.168.408a.585.585 0 01-.432.168h-2.184zM132.603 30a.555.555 0 01-.408-.168.555.555 0 01-.168-.408V18.096c0-.16.056-.296.168-.408a.555.555 0 01.408-.168h1.992c.176 0 .312.056.408.168a.508.508 0 01.168.408v11.328c0 .16-.056.296-.168.408a.508.508 0 01-.408.168h-1.992zm5.608 0a.555.555 0 01-.408-.168.555.555 0 01-.168-.408V18.096c0-.16.056-.296.168-.408a.555.555 0 01.408-.168h1.968c.16 0 .296.056.408.168a.555.555 0 01.168.408v.984c.944-1.2 2.28-1.8 4.008-1.8 1.472 0 2.64.488 3.504 1.464.864.96 1.296 2.272 1.296 3.936v6.744c0 .16-.056.296-.168.408a.508.508 0 01-.408.168h-2.112a.555.555 0 01-.408-.168.555.555 0 01-.168-.408v-6.6c0-.944-.232-1.672-.696-2.184-.448-.528-1.104-.792-1.968-.792-.848 0-1.52.264-2.016.792-.48.528-.72 1.256-.72 2.184v6.6c0 .16-.056.296-.168.408a.508.508 0 01-.408.168h-2.112zm19.321 5.28c-1.424 0-2.576-.24-3.456-.72-.88-.464-1.504-1-1.872-1.608-.368-.608-.552-1.128-.552-1.56 0-.144.056-.272.168-.384a.611.611 0 01.408-.168h2.088c.144 0 .264.032.36.096.112.08.2.216.264.408.16.432.416.792.768 1.08.368.304.936.456 1.704.456.96 0 1.664-.216 2.112-.648.464-.432.696-1.176.696-2.232v-1.632c-.88 1.04-2.112 1.56-3.696 1.56-1.664 0-2.92-.512-3.768-1.536-.832-1.024-1.28-2.4-1.344-4.128l-.024-.648.024-.648c.064-1.696.52-3.064 1.368-4.104.848-1.056 2.096-1.584 3.744-1.584.848 0 1.592.16 2.232.48.64.32 1.176.76 1.608 1.32v-.96c0-.176.056-.32.168-.432a.555.555 0 01.408-.168h1.944c.16 0 .296.064.408.192a.555.555 0 01.168.408l.024 11.568c0 1.776-.496 3.152-1.488 4.128s-2.48 1.464-4.464 1.464zm-.12-7.896c.912 0 1.592-.288 2.04-.864.464-.576.72-1.28.768-2.112.016-.128.024-.392.024-.792a7.7 7.7 0 00-.024-.768c-.048-.848-.304-1.56-.768-2.136-.448-.576-1.128-.864-2.04-.864-1.728 0-2.64 1.064-2.736 3.192l-.024.576c0 1.136.2 2.048.6 2.736.416.688 1.136 1.032 2.16 1.032zM166.393 30a.555.555 0 01-.408-.168.555.555 0 01-.168-.408v-2.376c0-.16.056-.296.168-.408a.523.523 0 01.408-.192h2.4c.16 0 .296.064.408.192a.555.555 0 01.168.408v2.376c0 .16-.056.296-.168.408a.555.555 0 01-.408.168h-2.4zm10.506.24c-1.76 0-3.168-.488-4.224-1.464-1.04-.976-1.592-2.328-1.656-4.056l-.024-.96.024-.96c.064-1.728.616-3.08 1.656-4.056 1.056-.976 2.464-1.464 4.224-1.464 1.248 0 2.304.224 3.168.672.88.448 1.528 1 1.944 1.656.432.64.664 1.248.696 1.824a.457.457 0 01-.168.408.555.555 0 01-.408.168h-2.112a.682.682 0 01-.384-.096c-.08-.08-.16-.208-.24-.384-.24-.624-.56-1.072-.96-1.344-.384-.272-.88-.408-1.488-.408-.816 0-1.456.264-1.92.792-.464.512-.712 1.296-.744 2.352l-.024.888.024.792c.064 2.096.952 3.144 2.664 3.144.624 0 1.128-.136 1.512-.408.384-.272.696-.72.936-1.344.08-.176.16-.296.24-.36a.58.58 0 01.384-.12h2.112c.16 0 .296.056.408.168a.457.457 0 01.168.408c-.032.56-.256 1.16-.672 1.8-.416.64-1.056 1.192-1.92 1.656-.864.464-1.936.696-3.216.696zm13.111 0c-1.872 0-3.32-.48-4.344-1.44-1.024-.976-1.576-2.304-1.656-3.984l-.024-1.056.024-1.056c.08-1.664.64-2.984 1.68-3.96s2.48-1.464 4.32-1.464c1.84 0 3.28.488 4.32 1.464 1.04.976 1.6 2.296 1.68 3.96.016.192.024.544.024 1.056s-.008.864-.024 1.056c-.08 1.68-.632 3.008-1.656 3.984-1.024.96-2.472 1.44-4.344 1.44zm0-2.376c.848 0 1.504-.264 1.968-.792.464-.544.72-1.336.768-2.376.016-.16.024-.472.024-.936 0-.464-.008-.776-.024-.936-.048-1.04-.304-1.824-.768-2.352-.464-.544-1.12-.816-1.968-.816-.848 0-1.504.272-1.968.816-.464.528-.72 1.312-.768 2.352l-.024.936.024.936c.048 1.04.304 1.832.768 2.376.464.528 1.12.792 1.968.792z" fill="#fff"/></svg>