<svg width="53" height="53" fill="none" xmlns="http://www.w3.org/2000/svg"><path d="M36.94 0H14.997C8.55 0 2.99 3.812.445 9.308c-.223.495.123 1.089.667 1.089h40.127c.272.025.47.248.494.52 0 .05 0 .074-.025.124-.173 1.609-.939 3.044-2.298 4.332-1.112 1.04-2.47 1.807-4.077 2.351a13.87 13.87 0 01-3.385.62c-.148 0-.519.024-.568.024H6.894c-.025 0-.272 0-.37.025a9.5 9.5 0 00-2.25.396c-1.087.346-2 .866-2.717 1.56-.89.841-1.409 1.806-1.532 2.871v.074c0 .198.148.347.346.347h30.738a.514.514 0 01.469.52c0 .05 0 .074-.025.123-.173 1.61-.939 3.045-2.298 4.332-1.112 1.04-2.47 1.808-4.077 2.352a13.884 13.884 0 01-3.385.62c-.148 0-.296.024-.445.024H6.77c-.025 0-.272 0-.37.025a9.5 9.5 0 00-2.249.396c-1.087.346-2.001.866-2.718 1.56-.741.692-1.21 1.484-1.433 2.351v.866c.05.05.148.1.247.1h20.607c.272 0 .519.222.519.52 0 .049 0 .074-.025.123-.173 1.61-.939 3.045-2.298 4.332-1.111 1.04-2.47 1.807-4.077 2.352a13.87 13.87 0 01-3.385.619c-.148 0-.296.024-.444.024H1.235c-.494 0-.79.57-.494.966C3.731 50.153 9.44 53 14.998 53h21.966C45.834 53 53 45.796 53 36.934V16.066C53 7.204 45.81 0 36.94 0z" fill="url(#paint0_linear)"/><defs><linearGradient id="paint0_linear" x1="48.362" y1="0" x2="5.963" y2="49.025" gradientUnits="userSpaceOnUse"><stop stop-color="#54D6BF"/><stop offset="1" stop-color="#9851DF"/></linearGradient></defs></svg>