<svg width="88" height="100" fill="none" xmlns="http://www.w3.org/2000/svg"><path d="M66.917 18.75h-5.255a19.333 19.333 0 00-.754-1.819l3.717-3.716a2.083 2.083 0 000-2.946l-5.894-5.894a2.083 2.083 0 00-2.946 0L52.07 8.092c-.593-.283-1.2-.534-1.819-.755V2.084A2.085 2.085 0 0048.167 0h-8.334c-1.15 0-2.083.933-2.083 2.083v5.255c-.619.219-1.226.47-1.819.752l-3.716-3.715a2.083 2.083 0 00-2.946 0l-5.894 5.894a2.083 2.083 0 000 2.946l3.717 3.716a19.28 19.28 0 00-.755 1.819h-5.254c-1.15 0-2.083.933-2.083 2.083v8.334c0 1.15.933 2.083 2.083 2.083h5.255c.219.619.47 1.226.752 1.819l-3.715 3.716a2.083 2.083 0 000 2.946l5.894 5.894a2.083 2.083 0 002.946 0l3.716-3.717c.593.283 1.2.534 1.819.755v5.254c0 1.15.933 2.083 2.083 2.083h8.334c1.15 0 2.083-.933 2.083-2.083v-5.253a19.36 19.36 0 001.819-.754l3.716 3.715a2.083 2.083 0 002.946 0l5.894-5.894a2.083 2.083 0 000-2.946L60.91 33.07c.282-.593.533-1.2.754-1.819h5.254c1.15 0 2.083-.933 2.083-2.083v-8.334c0-1.15-.933-2.083-2.083-2.083zm-2.084 8.331h-4.71c-.95 0-1.78.643-2.017 1.563a14.58 14.58 0 01-1.552 3.75 2.083 2.083 0 00.321 2.533l3.334 3.334-2.946 2.945-3.334-3.333a2.084 2.084 0 00-2.533-.32 14.579 14.579 0 01-3.75 1.551 2.083 2.083 0 00-1.563 2.017v4.712h-4.166l.002-4.706c0-.95-.643-1.78-1.563-2.017a14.582 14.582 0 01-3.75-1.552 2.083 2.083 0 00-2.533.321l-3.333 3.334-2.946-2.946 3.333-3.334a2.083 2.083 0 00.321-2.533 14.582 14.582 0 01-1.552-3.75 2.083 2.083 0 00-2.017-1.563h-4.712v-4.166h4.714c.95 0 1.78-.643 2.017-1.563.34-1.316.863-2.578 1.552-3.75a2.083 2.083 0 00-.32-2.533l-3.334-3.333 2.942-2.948 3.333 3.333a2.083 2.083 0 002.533.321 14.582 14.582 0 013.75-1.552 2.083 2.083 0 001.563-2.017V4.167h4.166v4.712c0 .95.64 1.78 1.559 2.019 1.316.34 2.578.862 3.75 1.552a2.083 2.083 0 002.533-.32l3.334-3.334 2.947 2.941-3.333 3.334a2.084 2.084 0 00-.32 2.533 14.579 14.579 0 011.551 3.75 2.083 2.083 0 002.017 1.563h4.712v4.164z" fill="url(#paint0_linear)"/><path d="M44 16.667a8.333 8.333 0 100 16.666 8.333 8.333 0 000-16.666zm0 12.5a4.167 4.167 0 110-8.333 4.167 4.167 0 010 8.333z" fill="url(#paint1_linear)"/><path d="M29.417 52.083v4.107c0 6.935-3.738 12.56-8.334 12.56-4.595 0-8.333-5.625-8.333-12.56v-3.813a8.885 8.885 0 018.333-6.544v-4.166a13.031 13.031 0 00-12.437 9.91 2.087 2.087 0 00-.063.506v4.107c0 9.379 5.492 16.727 12.5 16.727 7.009 0 12.5-7.348 12.5-16.727v-4.107h-4.166z" fill="url(#paint2_linear)"/><path d="M31.5 72.917a3.923 3.923 0 01-4.167-4.167h-4.166a8.098 8.098 0 008.333 8.333 6.25 6.25 0 016.25 6.25V100h4.167V83.333c-.007-5.75-4.667-10.41-10.417-10.416z" fill="url(#paint3_linear)"/><path d="M19 68.75h-4.167a3.925 3.925 0 01-4.167 4.167C4.917 72.924.257 77.583.25 83.333V100h4.167V83.333a6.25 6.25 0 016.25-6.25A8.098 8.098 0 0019 68.75z" fill="url(#paint4_linear)"/><path d="M12.75 85.416H8.585V100h4.167V85.416z" fill="url(#paint5_linear)"/><path d="M33.583 85.416h-4.167V100h4.167V85.416z" fill="url(#paint6_linear)"/><path d="M79.354 51.577a13.031 13.031 0 00-12.437-9.91v4.166a8.888 8.888 0 018.333 6.542v3.815c0 6.935-3.737 12.56-8.333 12.56s-8.334-5.625-8.334-12.56v-4.107h-4.166v4.107c0 9.379 5.491 16.727 12.5 16.727 7.008 0 12.5-7.348 12.5-16.727v-4.107c0-.17-.021-.34-.063-.506z" fill="url(#paint7_linear)"/><path d="M77.333 72.917a3.923 3.923 0 01-4.167-4.167H69a8.098 8.098 0 008.333 8.333 6.25 6.25 0 016.25 6.25V100h4.167V83.333c-.007-5.75-4.667-10.41-10.417-10.416z" fill="url(#paint8_linear)"/><path d="M64.833 68.75h-4.166a3.925 3.925 0 01-4.167 4.167c-5.75.006-10.41 4.666-10.416 10.416V100h4.166V83.333a6.25 6.25 0 016.25-6.25 8.098 8.098 0 008.333-8.333z" fill="url(#paint9_linear)"/><path d="M58.583 85.416h-4.167V100h4.167V85.416z" fill="url(#paint10_linear)"/><path d="M79.417 85.416H75.25V100h4.167V85.416z" fill="url(#paint11_linear)"/><path d="M46.083 54.166h-4.167v4.167h4.167v-4.167z" fill="url(#paint12_linear)"/><path d="M46.083 62.5h-4.167v4.167h4.167V62.5z" fill="url(#paint13_linear)"/><path d="M46.083 70.834h-4.167v4.167h4.167v-4.167z" fill="url(#paint14_linear)"/><defs><linearGradient id="paint0_linear" x1="80.094" y1="0" x2="-.745" y2="81.787" gradientUnits="userSpaceOnUse"><stop stop-color="#54D6BF"/><stop offset="1" stop-color="#9851DF"/></linearGradient><linearGradient id="paint1_linear" x1="80.094" y1="0" x2="-.745" y2="81.787" gradientUnits="userSpaceOnUse"><stop stop-color="#54D6BF"/><stop offset="1" stop-color="#9851DF"/></linearGradient><linearGradient id="paint2_linear" x1="80.094" y1="0" x2="-.745" y2="81.787" gradientUnits="userSpaceOnUse"><stop stop-color="#54D6BF"/><stop offset="1" stop-color="#9851DF"/></linearGradient><linearGradient id="paint3_linear" x1="80.094" y1="0" x2="-.745" y2="81.787" gradientUnits="userSpaceOnUse"><stop stop-color="#54D6BF"/><stop offset="1" stop-color="#9851DF"/></linearGradient><linearGradient id="paint4_linear" x1="80.094" y1="0" x2="-.745" y2="81.787" gradientUnits="userSpaceOnUse"><stop stop-color="#54D6BF"/><stop offset="1" stop-color="#9851DF"/></linearGradient><linearGradient id="paint5_linear" x1="80.094" y1="0" x2="-.745" y2="81.787" gradientUnits="userSpaceOnUse"><stop stop-color="#54D6BF"/><stop offset="1" stop-color="#9851DF"/></linearGradient><linearGradient id="paint6_linear" x1="80.094" y1="0" x2="-.745" y2="81.787" gradientUnits="userSpaceOnUse"><stop stop-color="#54D6BF"/><stop offset="1" stop-color="#9851DF"/></linearGradient><linearGradient id="paint7_linear" x1="80.094" y1="0" x2="-.745" y2="81.787" gradientUnits="userSpaceOnUse"><stop stop-color="#54D6BF"/><stop offset="1" stop-color="#9851DF"/></linearGradient><linearGradient id="paint8_linear" x1="80.094" y1="0" x2="-.745" y2="81.787" gradientUnits="userSpaceOnUse"><stop stop-color="#54D6BF"/><stop offset="1" stop-color="#9851DF"/></linearGradient><linearGradient id="paint9_linear" x1="80.094" y1="0" x2="-.745" y2="81.787" gradientUnits="userSpaceOnUse"><stop stop-color="#54D6BF"/><stop offset="1" stop-color="#9851DF"/></linearGradient><linearGradient id="paint10_linear" x1="80.094" y1="0" x2="-.745" y2="81.787" gradientUnits="userSpaceOnUse"><stop stop-color="#54D6BF"/><stop offset="1" stop-color="#9851DF"/></linearGradient><linearGradient id="paint11_linear" x1="80.094" y1="0" x2="-.745" y2="81.787" gradientUnits="userSpaceOnUse"><stop stop-color="#54D6BF"/><stop offset="1" stop-color="#9851DF"/></linearGradient><linearGradient id="paint12_linear" x1="80.094" y1="0" x2="-.745" y2="81.787" gradientUnits="userSpaceOnUse"><stop stop-color="#54D6BF"/><stop offset="1" stop-color="#9851DF"/></linearGradient><linearGradient id="paint13_linear" x1="80.094" y1="0" x2="-.745" y2="81.787" gradientUnits="userSpaceOnUse"><stop stop-color="#54D6BF"/><stop offset="1" stop-color="#9851DF"/></linearGradient><linearGradient id="paint14_linear" x1="80.094" y1="0" x2="-.745" y2="81.787" gradientUnits="userSpaceOnUse"><stop stop-color="#54D6BF"/><stop offset="1" stop-color="#9851DF"/></linearGradient></defs></svg>