<svg width="100" height="100" fill="none" xmlns="http://www.w3.org/2000/svg"><path d="M20.8 74.935a1.465 1.465 0 002.93 0v-15.66l.09.002a12.3 12.3 0 002.578-.284 1.663 1.663 0 001.307-1.652 1.664 1.664 0 00-1.367-1.604c-.73-.13-1.225-.443-1.56-.983-.714-1.151-.593-3.066-.366-4.367h7.802c4.961 0 8.997-4.036 8.997-8.997V23.25c0-4.96-4.036-8.996-8.997-8.996h-8.483v-2.34h7.454a1.465 1.465 0 000-2.93h-7.454v-1.66a4.4 4.4 0 014.394-4.394h43.75a4.4 4.4 0 014.394 4.394v1.66H37.435a1.465 1.465 0 100 2.93H76.27v6.836a1.465 1.465 0 002.93 0V7.324C79.2 3.285 75.914 0 71.875 0h-43.75c-4.039 0-7.324 3.285-7.324 7.324v6.93H8.997C4.036 14.254 0 18.29 0 23.251v18.14c0 4.96 4.036 8.996 8.997 8.996h6.008c.423 3.325 1.635 5.766 3.614 7.266.698.53 1.438.898 2.182 1.15v16.132zm-2.997-26.1a1.465 1.465 0 00-1.462-1.378H8.997A6.074 6.074 0 012.93 41.39V23.25a6.074 6.074 0 016.067-6.066h23.217a6.073 6.073 0 016.067 6.067v18.14a6.073 6.073 0 01-6.067 6.066h-8.972c-.65 0-1.221.428-1.404 1.05-.143.483-1.324 4.74.37 7.658a4.905 4.905 0 01-1.818-.846c-1.53-1.16-2.4-3.342-2.587-6.484z" fill="url(#paint0_linear)"/><path d="M46.094 95.508h7.812a1.465 1.465 0 000-2.93h-7.812a1.465 1.465 0 000 2.93z" fill="url(#paint1_linear)"/><path d="M30.273 29.8c0-3.405-2.423-6.073-5.517-6.073-1.844 0-3.204.759-4.053 1.44-.849-.681-2.209-1.44-4.053-1.44-3.093 0-5.517 2.668-5.517 6.073 0 2.162 1.103 6.369 8.494 10.263a2.302 2.302 0 002.153 0c7.39-3.894 8.493-8.101 8.493-10.263zm-16.21 0c0-1.524.907-3.144 2.587-3.144 1.217 0 2.057.593 2.547 1.09.394.4.942.628 1.506.628a2.13 2.13 0 001.506-.627c.49-.498 1.33-1.09 2.547-1.09 1.68 0 2.588 1.62 2.588 3.143 0 2.498-2.416 5.227-6.64 7.516-4.226-2.29-6.642-5.018-6.642-7.516z" fill="url(#paint2_linear)"/><path d="M91.003 38.082H79.2V24.934a1.465 1.465 0 00-2.93 0v13.148h-8.483c-4.961 0-8.997 4.036-8.997 8.997v18.139c0 4.961 4.036 8.997 8.997 8.997h7.8c.222 1.29.347 3.216-.362 4.363-.335.543-.831.856-1.562.987a1.664 1.664 0 00-1.367 1.603 1.664 1.664 0 001.306 1.653c.669.145 1.57.283 2.58.283h.088v4.982H23.73v-6.869a1.465 1.465 0 00-2.93 0v11.459c0 4.039 3.286 7.324 7.325 7.324h43.75c4.038 0 7.324-3.285 7.324-7.324V82.632a7.655 7.655 0 002.181-1.15c1.98-1.5 3.192-3.941 3.614-7.267h6.009c4.961 0 8.997-4.036 8.997-8.997v-18.14c0-4.96-4.036-8.996-8.997-8.996zM76.27 92.676a4.4 4.4 0 01-4.394 4.394h-43.75a4.4 4.4 0 01-4.395-4.394v-1.66h52.54v1.66zm20.8-27.458a6.073 6.073 0 01-6.067 6.067H83.66c-.776 0-1.416.605-1.462 1.378-.187 3.143-1.057 5.325-2.587 6.484a4.905 4.905 0 01-1.818.846c1.694-2.918.513-7.176.37-7.657a1.464 1.464 0 00-1.404-1.05h-8.972a6.073 6.073 0 01-6.067-6.068v-18.14a6.073 6.073 0 016.067-6.066h23.217a6.074 6.074 0 016.067 6.067v18.14z" fill="url(#paint3_linear)"/><path d="M83.726 53.697a5.536 5.536 0 001.235-3.491 5.573 5.573 0 00-5.567-5.566 5.573 5.573 0 00-5.566 5.566c0 1.321.463 2.535 1.235 3.491a7.427 7.427 0 00-3.97 6.566v.13a3.587 3.587 0 003.584 3.582h9.435a3.587 3.587 0 003.583-3.582v-.13a7.427 7.427 0 00-3.97-6.566zm-4.332-6.128a2.64 2.64 0 012.637 2.637 2.64 2.64 0 01-2.637 2.637 2.64 2.64 0 01-2.636-2.637 2.64 2.64 0 012.636-2.637zm5.372 12.824c0 .36-.293.653-.654.653h-9.435a.654.654 0 01-.654-.653v-.13a4.496 4.496 0 014.491-4.49h1.761a4.496 4.496 0 014.49 4.49v.13z" fill="url(#paint4_linear)"/><path d="M67.99 18.095H47.287a1.465 1.465 0 100 2.93H67.99a1.465 1.465 0 000-2.93z" fill="url(#paint5_linear)"/><path d="M67.99 23.955H47.287a1.465 1.465 0 100 2.93H67.99a1.465 1.465 0 000-2.93z" fill="url(#paint6_linear)"/><path d="M69.455 31.279c0-.809-.656-1.465-1.465-1.465H47.287a1.465 1.465 0 100 2.93H67.99c.809 0 1.465-.656 1.465-1.465z" fill="url(#paint7_linear)"/><path d="M53.533 60.904c0-.809-.656-1.465-1.465-1.465H31.365c-.81 0-1.465.656-1.465 1.465v5.86c0 .808.656 1.464 1.465 1.464h20.703c.809 0 1.465-.656 1.465-1.465v-5.86zm-2.93 4.395H32.83v-2.93h17.773v2.93z" fill="url(#paint8_linear)"/><path d="M52.068 71.158H31.365a1.465 1.465 0 100 2.93h20.703a1.465 1.465 0 000-2.93z" fill="url(#paint9_linear)"/><defs><linearGradient id="paint0_linear" x1="91.25" y1="0" x2="11.25" y2="92.5" gradientUnits="userSpaceOnUse"><stop stop-color="#54D6BF"/><stop offset="1" stop-color="#9851DF"/></linearGradient><linearGradient id="paint1_linear" x1="91.25" y1="0" x2="11.25" y2="92.5" gradientUnits="userSpaceOnUse"><stop stop-color="#54D6BF"/><stop offset="1" stop-color="#9851DF"/></linearGradient><linearGradient id="paint2_linear" x1="91.25" y1="0" x2="11.25" y2="92.5" gradientUnits="userSpaceOnUse"><stop stop-color="#54D6BF"/><stop offset="1" stop-color="#9851DF"/></linearGradient><linearGradient id="paint3_linear" x1="91.25" y1="0" x2="11.25" y2="92.5" gradientUnits="userSpaceOnUse"><stop stop-color="#54D6BF"/><stop offset="1" stop-color="#9851DF"/></linearGradient><linearGradient id="paint4_linear" x1="91.25" y1="0" x2="11.25" y2="92.5" gradientUnits="userSpaceOnUse"><stop stop-color="#54D6BF"/><stop offset="1" stop-color="#9851DF"/></linearGradient><linearGradient id="paint5_linear" x1="91.25" y1="0" x2="11.25" y2="92.5" gradientUnits="userSpaceOnUse"><stop stop-color="#54D6BF"/><stop offset="1" stop-color="#9851DF"/></linearGradient><linearGradient id="paint6_linear" x1="91.25" y1="0" x2="11.25" y2="92.5" gradientUnits="userSpaceOnUse"><stop stop-color="#54D6BF"/><stop offset="1" stop-color="#9851DF"/></linearGradient><linearGradient id="paint7_linear" x1="91.25" y1="0" x2="11.25" y2="92.5" gradientUnits="userSpaceOnUse"><stop stop-color="#54D6BF"/><stop offset="1" stop-color="#9851DF"/></linearGradient><linearGradient id="paint8_linear" x1="91.25" y1="0" x2="11.25" y2="92.5" gradientUnits="userSpaceOnUse"><stop stop-color="#54D6BF"/><stop offset="1" stop-color="#9851DF"/></linearGradient><linearGradient id="paint9_linear" x1="91.25" y1="0" x2="11.25" y2="92.5" gradientUnits="userSpaceOnUse"><stop stop-color="#54D6BF"/><stop offset="1" stop-color="#9851DF"/></linearGradient></defs></svg>