<svg width="104" height="104" fill="none" xmlns="http://www.w3.org/2000/svg"><g filter="url(#filter0_d)"><circle cx="52" cy="50" r="50" fill="url(#paint0_linear)"/></g><path d="M63.023 54.656c-.1-.016-.2-.02-.298-.01-.137-.005-4.631-.007-4.631-.007v-2.773c3.505-2.086 5.86-5.913 5.86-10.28v-9.34a7.932 7.932 0 00.976-3.822v-7.252c0-.647-.524-1.172-1.172-1.172H46.941c-4.512 0-8.183 3.671-8.183 8.184v2.382a5.81 5.81 0 001.289 3.654v7.367c0 4.366 2.354 8.193 5.86 10.279v2.773s-4.494.002-4.63.006c-.1-.01-.201-.005-.3.012-8.072.373-14.524 7.055-14.524 15.217v8.954c0 .647.525 1.172 1.172 1.172h48.75c.647 0 1.172-.525 1.172-1.172v-8.954c0-8.162-6.452-14.845-14.524-15.218zm-21.921-24.09v-2.382c0-3.22 2.62-5.84 5.84-5.84h15.644v2.343H53.7a1.172 1.172 0 000 2.344h8.888v1.393a5.646 5.646 0 01-5.64 5.639h-12.35a3.5 3.5 0 01-3.495-3.497zm1.289 11.02v-5.614a5.79 5.79 0 002.207.434h12.35c1.739 0 3.349-.56 4.661-1.508v6.689c0 5.298-4.31 9.609-9.61 9.609-5.298 0-9.608-4.31-9.608-9.61zm13.359 11.35v1.782a3.754 3.754 0 01-3.75 3.75 3.754 3.754 0 01-3.75-3.75v-1.781c1.18.39 2.44.603 3.75.603s2.57-.213 3.75-.603zm-9.405 4.047A6.102 6.102 0 0052 60.811a6.102 6.102 0 005.655-3.828h3.146L52 72.227l-8.8-15.244h3.145zm28.858 20.673h-4.219v-5.625a1.172 1.172 0 00-2.343 0v5.625H35.359v-9.353a1.172 1.172 0 00-2.343 0v9.353h-4.22v-7.782c0-6.716 5.163-12.247 11.727-12.838l10.462 18.12a1.172 1.172 0 002.03 0l10.461-18.12c6.565.59 11.727 6.122 11.727 12.838v7.782z" fill="#fff"/><path d="M48.869 40.456a1.18 1.18 0 00-.829-.343c-.308 0-.61.125-.828.343a1.18 1.18 0 00-.344.829c0 .308.126.61.344.828.218.218.52.344.828.344.308 0 .61-.126.829-.344a1.18 1.18 0 00.343-.828c0-.308-.125-.61-.343-.829zm7.951 0a1.18 1.18 0 00-.829-.343c-.308 0-.61.125-.828.343a1.18 1.18 0 00-.343.829c0 .308.125.61.343.828.219.218.52.344.828.344a1.176 1.176 0 001.172-1.172c0-.308-.124-.61-.343-.829zM49.987 25.03a1.18 1.18 0 00-.829-.343c-.308 0-.61.126-.828.344a1.18 1.18 0 00-.344.828c0 .309.126.61.344.829.218.218.52.343.828.343.308 0 .61-.125.829-.343a1.18 1.18 0 00.343-.829c0-.308-.125-.61-.343-.828zm3.803 20.067a1.172 1.172 0 00-1.657 0 .407.407 0 01-.578 0 1.172 1.172 0 00-1.658 1.658 2.745 2.745 0 001.947.805c.705 0 1.41-.269 1.947-.805.457-.458.457-1.2 0-1.658zM70.641 66.77a1.18 1.18 0 00-.829-.343c-.308 0-.61.126-.828.344a1.18 1.18 0 00-.343.828c0 .308.125.61.343.829.218.218.52.343.829.343.308 0 .61-.125.828-.343a1.18 1.18 0 00.343-.829c0-.308-.125-.61-.343-.828z" fill="#fff"/><defs><linearGradient id="paint0_linear" x1="93.25" y1="0" x2="13.25" y2="92.5" gradientUnits="userSpaceOnUse"><stop stop-color="#54D6BF"/><stop offset="1" stop-color="#9851DF"/></linearGradient><filter id="filter0_d" x="0" y="0" width="104" height="104" filterUnits="userSpaceOnUse" color-interpolation-filters="sRGB"><feFlood flood-opacity="0" result="BackgroundImageFix"/><feColorMatrix in="SourceAlpha" values="0 0 0 0 0 0 0 0 0 0 0 0 0 0 0 0 0 0 127 0"/><feOffset dy="2"/><feGaussianBlur stdDeviation="1"/><feColorMatrix values="0 0 0 0 0 0 0 0 0 0 0 0 0 0 0 0 0 0 0.15 0"/><feBlend in2="BackgroundImageFix" result="effect1_dropShadow"/><feBlend in="SourceGraphic" in2="effect1_dropShadow" result="shape"/></filter></defs></svg>