<svg width="104" height="104" fill="none" xmlns="http://www.w3.org/2000/svg"><g filter="url(#filter0_d)"><circle cx="52" cy="50" r="50" fill="url(#paint0_linear)"/></g><path d="M72.665 38.688c.582 0 1.055-.472 1.055-1.054v-11.47A3.168 3.168 0 0070.556 23H32.165a3.168 3.168 0 00-3.164 3.164v47.672A3.168 3.168 0 0032.165 77h38.39a3.168 3.168 0 003.165-3.164v-7.77a1.055 1.055 0 00-2.11 0v7.77c0 .582-.473 1.055-1.054 1.055H32.165a1.056 1.056 0 01-1.055-1.055V26.164c0-.582.474-1.055 1.055-1.055h38.39c.582 0 1.055.473 1.055 1.055v11.47c0 .582.473 1.054 1.055 1.054z" fill="#fff"/><path d="M51.36 28.695c-5.35 0-9.703 4.353-9.703 9.703a9.677 9.677 0 003.046 7.053c.035.038.073.073.113.105a9.666 9.666 0 006.544 2.546 9.67 9.67 0 006.657-2.651 9.676 9.676 0 003.046-7.053c0-5.35-4.352-9.703-9.703-9.703zm0 17.297a7.553 7.553 0 01-4.587-1.547 5.24 5.24 0 014.587-2.672 5.24 5.24 0 014.587 2.672 7.553 7.553 0 01-4.587 1.547zm-1.687-8.015v-.686c0-.93.757-1.688 1.687-1.688s1.688.758 1.688 1.688v.686a1.69 1.69 0 01-1.688 1.687 1.69 1.69 0 01-1.687-1.687zM57.47 42.9a7.316 7.316 0 00-3.107-2.605 3.777 3.777 0 00.793-2.318v-.686a3.801 3.801 0 00-3.797-3.797 3.801 3.801 0 00-3.797 3.797v.686c0 .872.297 1.676.794 2.318a7.316 7.316 0 00-3.108 2.605 7.552 7.552 0 01-1.483-4.502c0-4.187 3.407-7.593 7.594-7.593s7.594 3.406 7.594 7.593A7.552 7.552 0 0157.47 42.9zm-.414 26.295H51.36a1.055 1.055 0 000 2.11h5.696a1.055 1.055 0 000-2.11zm-.001-5.905H42.08a1.055 1.055 0 100 2.108h14.976a1.055 1.055 0 100-2.109zm0-5.907H42.08a1.055 1.055 0 000 2.11h14.976a1.055 1.055 0 000-2.11zM38.32 51.786a1.063 1.063 0 00-.747-.31c-.277 0-.55.113-.745.31a1.063 1.063 0 00-.31.745 1.06 1.06 0 001.055 1.055 1.062 1.062 0 001.057-1.055c0-.277-.114-.55-.31-.745zm0 5.906a1.065 1.065 0 00-.747-.31c-.277 0-.548.114-.745.31a1.063 1.063 0 00-.31.745 1.06 1.06 0 001.055 1.056c.279 0 .55-.114.747-.31.196-.196.31-.468.31-.745 0-.278-.114-.55-.31-.746zm0 5.906a1.065 1.065 0 00-.747-.309 1.06 1.06 0 00-.745.31 1.063 1.063 0 00-.31.745 1.057 1.057 0 001.802.745c.196-.196.31-.468.31-.745 0-.278-.114-.55-.31-.746zm18.735-12.121H42.08a1.055 1.055 0 100 2.109h14.976a1.055 1.055 0 100-2.11zm23.73-14.732a4.401 4.401 0 00-3.361-.443 4.4 4.4 0 00-2.69 2.064L61.462 61.354a1.056 1.056 0 00-.135.41l-.934 8.369a1.055 1.055 0 001.673.966l6.78-4.993a1.05 1.05 0 00.288-.322l13.273-22.988a4.435 4.435 0 00-1.622-6.051zM62.757 67.97l.488-4.37 3.052 1.763-3.54 2.607zm5.078-4.155l-4.019-2.32 10.65-18.448 4.02 2.32-10.651 18.448zM80.58 41.74l-1.04 1.8-4.019-2.32 1.04-1.8c.31-.537.81-.921 1.409-1.081a2.305 2.305 0 011.76.231c.537.31.921.81 1.082 1.41.16.598.078 1.223-.232 1.76z" fill="#fff"/><defs><linearGradient id="paint0_linear" x1="93.25" y1="0" x2="13.25" y2="92.5" gradientUnits="userSpaceOnUse"><stop stop-color="#54D6BF"/><stop offset="1" stop-color="#9851DF"/></linearGradient><filter id="filter0_d" x="0" y="0" width="104" height="104" filterUnits="userSpaceOnUse" color-interpolation-filters="sRGB"><feFlood flood-opacity="0" result="BackgroundImageFix"/><feColorMatrix in="SourceAlpha" values="0 0 0 0 0 0 0 0 0 0 0 0 0 0 0 0 0 0 127 0"/><feOffset dy="2"/><feGaussianBlur stdDeviation="1"/><feColorMatrix values="0 0 0 0 0 0 0 0 0 0 0 0 0 0 0 0 0 0 0.15 0"/><feBlend in2="BackgroundImageFix" result="effect1_dropShadow"/><feBlend in="SourceGraphic" in2="effect1_dropShadow" result="shape"/></filter></defs></svg>