<svg width="104" height="104" fill="none" xmlns="http://www.w3.org/2000/svg"><g filter="url(#filter0_d)"><circle cx="52" cy="50" r="50" fill="url(#paint0_linear)"/></g><path d="M57.86 29.727a1.172 1.172 0 100 2.344 1.172 1.172 0 000-2.344zm-11.72 0a1.172 1.172 0 10.001 2.344 1.172 1.172 0 000-2.344z" fill="#fff"/><path d="M77.444 55.025c1.006-1.51 1.51-3.393 1.51-5.025a8.14 8.14 0 00-2.97-6.297 7.922 7.922 0 00.625-3.078c0-3.264-1.905-6.305-4.737-7.725.43-3.564-1.893-6.831-5.334-7.664C65.19 22.122 62.192 20 59.03 20c-2.94 0-5.58 1.716-7.03 4.22-1.45-2.503-4.089-4.22-7.031-4.22-3.162 0-6.16 2.122-7.507 5.236-3.462.838-5.763 4.122-5.334 7.664-2.832 1.42-4.737 4.46-4.737 7.725 0 1.055.21 2.087.625 3.078A8.14 8.14 0 0025.046 50c0 1.64.508 3.522 1.51 5.025a8.13 8.13 0 00-1.51 4.702c0 2.181.885 4.26 2.45 5.803-.804 4.862 3.073 9.782 8.098 9.782l.107-.001C37.367 78.184 40.459 80 43.797 80c3.479 0 6.588-2.088 8.203-5.097C53.615 77.912 56.724 80 60.203 80c3.338 0 6.43-1.816 8.096-4.69.035.002.07.002.107.002 4.447 0 8.203-3.917 8.203-8.554 0-.395-.034-.801-.105-1.228a8.143 8.143 0 002.45-5.803 8.13 8.13 0 00-1.51-4.702zM50.828 37.74c-.69-.4-1.49-.63-2.344-.63a1.172 1.172 0 100 2.343 2.346 2.346 0 012.344 2.344v22.285a9.353 9.353 0 00-7.031-3.184 1.172 1.172 0 100 2.344 7.04 7.04 0 017.031 7.031c0 4.002-3.22 7.383-7.031 7.383-2.713 0-5.21-1.604-6.363-4.087a1.172 1.172 0 00-1.196-.671c-.082.01-.165.02-.247.032-3.335.456-7.091-3.321-6.075-7.546a1.172 1.172 0 00-.39-1.175c-1.357-1.13-2.135-2.763-2.135-4.482 0-1.063.3-2.104.86-3.016 1.405 1.152 3.153 1.844 4.999 1.844a1.172 1.172 0 000-2.344c-3.18 0-5.86-2.903-5.86-6.211a5.827 5.827 0 012.737-4.938c.528-.335.7-1.025.392-1.569-.52-.918-.785-1.883-.785-2.868 0-3.163 2.579-6.21 5.86-6.21 3.121 0 5.86 2.901 5.86 6.21a1.172 1.172 0 002.343 0c0-4.637-3.757-8.555-8.203-8.555-.393 0-.783.032-1.17.092l-.002-.092a4.686 4.686 0 014.687-4.687 4.66 4.66 0 013.316 1.373 1.172 1.172 0 001.656-1.658 6.983 6.983 0 00-3.887-1.975c1.034-1.534 2.753-2.78 4.775-2.78 3.121 0 5.86 2.903 5.86 6.212v9.185zM70.75 58.555c1.846 0 3.594-.692 5-1.844.559.913.86 1.953.86 3.016 0 1.719-.78 3.353-2.137 4.482a1.172 1.172 0 00-.39 1.175c.125.516.183.953.183 1.374 0 3.637-3.29 6.577-6.257 6.172a10.602 10.602 0 00-.247-.032 1.171 1.171 0 00-1.196.67c-1.152 2.484-3.65 4.088-6.363 4.088-3.811 0-7.031-3.38-7.031-7.383a7.04 7.04 0 017.031-7.03 1.172 1.172 0 000-2.345 9.353 9.353 0 00-7.031 3.184V41.797a2.346 2.346 0 012.344-2.344 1.172 1.172 0 000-2.344c-.854 0-1.654.23-2.344.631v-9.185c0-3.309 2.738-6.211 5.86-6.211 2.021 0 3.74 1.245 4.773 2.779a6.984 6.984 0 00-3.886 1.974 1.172 1.172 0 101.656 1.659 4.662 4.662 0 013.316-1.373 4.686 4.686 0 014.687 4.687c0 .031-.002.061-.003.092a7.601 7.601 0 00-1.169-.092c-4.446 0-8.203 3.918-8.203 8.555a1.172 1.172 0 002.344 0c0-3.309 2.738-6.21 5.86-6.21 3.278 0 5.859 3.046 5.859 6.21 0 .985-.265 1.95-.785 2.868a1.172 1.172 0 00.392 1.569A5.827 5.827 0 0176.609 50c0 3.32-2.688 6.21-5.859 6.21a1.172 1.172 0 000 2.345z" fill="#fff"/><path d="M48.186 45.084a1.172 1.172 0 00-1.655-.092c-3.758 3.362-9.765.675-9.765-4.367a1.172 1.172 0 10-2.344 0c0 4.068 2.977 7.453 6.867 8.093a3.522 3.522 0 01-3.352 2.454 1.172 1.172 0 100 2.344 5.868 5.868 0 005.755-4.758 8.19 8.19 0 004.402-2.019 1.172 1.172 0 00.092-1.655zM35.594 65.586a1.172 1.172 0 100 2.344c3.121 0 5.86 2.902 5.86 6.21a1.172 1.172 0 102.343 0c0-4.636-3.757-8.554-8.203-8.554zm9.375-9.376c-3.971 0-7.38 2.179-9.176 5.346a1.172 1.172 0 002.039 1.155 8.185 8.185 0 017.137-4.156 1.172 1.172 0 000-2.344zm21.094-5.038a3.522 3.522 0 01-3.352-2.454c3.89-.64 6.867-4.025 6.867-8.093a1.172 1.172 0 00-2.344 0c0 3.23-2.628 5.86-5.859 5.86-1.443 0-2.83-.53-3.906-1.493a1.172 1.172 0 10-1.563 1.747 8.19 8.19 0 004.402 2.019 5.868 5.868 0 005.755 4.758 1.172 1.172 0 000-2.344zm2.343 14.414c-4.446 0-8.203 3.918-8.203 8.555a1.172 1.172 0 002.344 0c0-3.309 2.738-6.211 5.86-6.211a1.172 1.172 0 000-2.344zm-.199-4.03a10.524 10.524 0 00-9.176-5.345 1.172 1.172 0 000 2.344 8.186 8.186 0 017.137 4.156 1.172 1.172 0 102.039-1.155z" fill="#fff"/><defs><linearGradient id="paint0_linear" x1="93.25" y1="0" x2="13.25" y2="92.5" gradientUnits="userSpaceOnUse"><stop stop-color="#54D6BF"/><stop offset="1" stop-color="#9851DF"/></linearGradient><filter id="filter0_d" x="0" y="0" width="104" height="104" filterUnits="userSpaceOnUse" color-interpolation-filters="sRGB"><feFlood flood-opacity="0" result="BackgroundImageFix"/><feColorMatrix in="SourceAlpha" values="0 0 0 0 0 0 0 0 0 0 0 0 0 0 0 0 0 0 127 0"/><feOffset dy="2"/><feGaussianBlur stdDeviation="1"/><feColorMatrix values="0 0 0 0 0 0 0 0 0 0 0 0 0 0 0 0 0 0 0.15 0"/><feBlend in2="BackgroundImageFix" result="effect1_dropShadow"/><feBlend in="SourceGraphic" in2="effect1_dropShadow" result="shape"/></filter></defs></svg>