<svg width="104" height="104" fill="none" xmlns="http://www.w3.org/2000/svg"><g filter="url(#filter0_d)"><circle cx="52" cy="50" r="50" fill="url(#paint0_linear)"/></g><path d="M75.719 22H36.78a3.285 3.285 0 00-3.281 3.281V29a1.094 1.094 0 002.188 0v-3.719c0-.603.49-1.093 1.093-1.093h38.94c.603 0 1.094.49 1.094 1.093V74.72c0 .603-.491 1.094-1.094 1.094H36.78a1.095 1.095 0 01-1.093-1.094v-3.537a1.094 1.094 0 00-2.188 0v3.537A3.285 3.285 0 0036.781 78H75.72A3.285 3.285 0 0079 74.719V25.28A3.285 3.285 0 0075.719 22z" fill="#fff"/><path d="M70.457 64.219h-26.25a1.094 1.094 0 100 2.187h26.25a1.094 1.094 0 100-2.187zm.773 6.008a1.1 1.1 0 00-.773-.32c-.288 0-.57.116-.774.32-.203.203-.32.485-.32.773 0 .288.117.57.32.773.204.204.486.32.774.32a1.1 1.1 0 00.773-.32c.203-.203.32-.485.32-.773 0-.288-.117-.57-.32-.773zm-5.246-.321H44.207a1.094 1.094 0 000 2.188h21.777a1.094 1.094 0 000-2.188zM51.872 31.6c-6.508 0-11.803 5.295-11.803 11.804 0 3.378 1.426 6.43 3.709 8.583.039.042.08.081.126.117a11.758 11.758 0 007.968 3.104c3.069 0 5.867-1.178 7.968-3.104.046-.035.088-.075.127-.117a11.772 11.772 0 003.71-8.583c0-6.51-5.296-11.805-11.805-11.805zm0 21.42a9.57 9.57 0 01-5.955-2.07 6.7 6.7 0 015.955-3.58 6.7 6.7 0 015.955 3.58 9.57 9.57 0 01-5.955 2.07zM49.57 42.881v-.849a2.305 2.305 0 012.302-2.302 2.305 2.305 0 012.302 2.302v.85a2.305 2.305 0 01-2.302 2.301 2.305 2.305 0 01-2.302-2.302zm9.857 6.466a8.853 8.853 0 00-4.18-3.509 4.47 4.47 0 001.115-2.957v-.849a4.495 4.495 0 00-4.49-4.49 4.495 4.495 0 00-4.49 4.49v.85a4.47 4.47 0 001.116 2.956 8.854 8.854 0 00-4.18 3.51 9.57 9.57 0 01-2.062-5.944c0-5.303 4.314-9.617 9.616-9.617 5.303 0 9.617 4.314 9.617 9.617a9.57 9.57 0 01-2.062 5.943z" fill="#fff"/><path d="M51.872 26.375c-9.39 0-17.028 7.639-17.028 17.029 0 5.428 2.553 10.272 6.522 13.392L28.672 69.49a2.043 2.043 0 01-3.485-1.443c0-.545.213-1.057.598-1.443l6.493-6.492a1.094 1.094 0 00-1.547-1.547l-6.492 6.492A4.2 4.2 0 0023 68.047a4.2 4.2 0 001.238 2.99 4.215 4.215 0 002.99 1.237 4.215 4.215 0 002.99-1.237l12.984-12.983a16.924 16.924 0 008.67 2.378c9.39 0 17.029-7.639 17.029-17.028 0-9.39-7.64-17.029-17.029-17.029zm0 31.87c-8.183 0-14.84-6.658-14.84-14.841 0-8.184 6.657-14.842 14.84-14.842 8.184 0 14.841 6.658 14.841 14.841 0 8.184-6.657 14.842-14.84 14.842z" fill="#fff"/><path d="M35.72 55.122a1.1 1.1 0 00-.773-.32c-.288 0-.57.117-.773.32a1.099 1.099 0 000 1.547c.203.203.485.32.773.32a1.097 1.097 0 001.094-1.094c0-.287-.116-.57-.32-.773z" fill="#fff"/><defs><linearGradient id="paint0_linear" x1="93.25" y1="0" x2="13.25" y2="92.5" gradientUnits="userSpaceOnUse"><stop stop-color="#54D6BF"/><stop offset="1" stop-color="#9851DF"/></linearGradient><filter id="filter0_d" x="0" y="0" width="104" height="104" filterUnits="userSpaceOnUse" color-interpolation-filters="sRGB"><feFlood flood-opacity="0" result="BackgroundImageFix"/><feColorMatrix in="SourceAlpha" values="0 0 0 0 0 0 0 0 0 0 0 0 0 0 0 0 0 0 127 0"/><feOffset dy="2"/><feGaussianBlur stdDeviation="1"/><feColorMatrix values="0 0 0 0 0 0 0 0 0 0 0 0 0 0 0 0 0 0 0.15 0"/><feBlend in2="BackgroundImageFix" result="effect1_dropShadow"/><feBlend in="SourceGraphic" in2="effect1_dropShadow" result="shape"/></filter></defs></svg>