<svg width="104" height="104" fill="none" xmlns="http://www.w3.org/2000/svg"><g filter="url(#filter0_d)"><circle cx="52" cy="50" r="50" fill="url(#paint0_linear)"/></g><path d="M63.423 29.844a1.159 1.159 0 01-.448-.09 1.125 1.125 0 01-.381-.254 1.197 1.197 0 01-.147-.178 1.214 1.214 0 01-.196-.65 1.19 1.19 0 01.343-.829 1.197 1.197 0 01.38-.254 1.178 1.178 0 01.677-.067 1.178 1.178 0 01.943 1.15 1.166 1.166 0 01-.198.65 1.108 1.108 0 01-.323.323 1.142 1.142 0 01-.422.175 1.166 1.166 0 01-.228.024z" fill="#fff"/><path d="M65.453 20H38.735a4.318 4.318 0 00-4.313 4.313v51.374A4.318 4.318 0 0038.735 80h26.718a4.318 4.318 0 004.313-4.313V24.313A4.318 4.318 0 0065.453 20zm1.97 55.687c0 1.086-.884 1.97-1.97 1.97H38.735a1.972 1.972 0 01-1.97-1.97V29.843h21.697a1.172 1.172 0 000-2.343H36.766v-3.187c0-1.086.883-1.97 1.969-1.97h26.718c1.086 0 1.97.884 1.97 1.97v42.328H43.305a1.172 1.172 0 100 2.343h24.117v6.703z" fill="#fff"/><path d="M52.094 76.836a3.52 3.52 0 01-3.516-3.516 3.52 3.52 0 013.516-3.515 3.52 3.52 0 013.515 3.515 3.52 3.52 0 01-3.515 3.516zm0-4.688c-.646 0-1.172.526-1.172 1.172a1.173 1.173 0 101.172-1.172zM49.75 47.195h-9.39a1.172 1.172 0 01-1.172-1.172v-9.39c0-.647.524-1.172 1.171-1.172h9.391c.647 0 1.172.525 1.172 1.172v9.39c0 .648-.525 1.172-1.172 1.172zm-8.219-2.343h7.047v-7.047h-7.047v7.047zm22.297 2.343h-9.39a1.172 1.172 0 01-1.172-1.172v-9.39c0-.647.525-1.172 1.172-1.172h9.39c.647 0 1.172.525 1.172 1.172v9.39c0 .648-.525 1.172-1.172 1.172zm-8.218-2.343h7.046v-7.047H55.61v7.047zm-5.86 16.422h-9.39a1.172 1.172 0 01-1.172-1.172v-9.39c0-.648.524-1.173 1.171-1.173h9.391c.647 0 1.172.525 1.172 1.172v9.39c0 .648-.525 1.173-1.172 1.173zm-8.219-2.344h7.047v-7.047h-7.047v7.047zm22.297 2.344h-9.39a1.172 1.172 0 01-1.172-1.172v-9.39c0-.648.525-1.173 1.172-1.173h9.39c.647 0 1.172.525 1.172 1.172v4.696a1.172 1.172 0 11-2.344 0v-3.524H55.61v7.047h8.218a1.172 1.172 0 110 2.344z" fill="#fff"/><defs><linearGradient id="paint0_linear" x1="93.25" y1="0" x2="13.25" y2="92.5" gradientUnits="userSpaceOnUse"><stop stop-color="#54D6BF"/><stop offset="1" stop-color="#9851DF"/></linearGradient><filter id="filter0_d" x="0" y="0" width="104" height="104" filterUnits="userSpaceOnUse" color-interpolation-filters="sRGB"><feFlood flood-opacity="0" result="BackgroundImageFix"/><feColorMatrix in="SourceAlpha" values="0 0 0 0 0 0 0 0 0 0 0 0 0 0 0 0 0 0 127 0"/><feOffset dy="2"/><feGaussianBlur stdDeviation="1"/><feColorMatrix values="0 0 0 0 0 0 0 0 0 0 0 0 0 0 0 0 0 0 0.15 0"/><feBlend in2="BackgroundImageFix" result="effect1_dropShadow"/><feBlend in="SourceGraphic" in2="effect1_dropShadow" result="shape"/></filter></defs></svg>