<svg width="104" height="104" fill="none" xmlns="http://www.w3.org/2000/svg"><g filter="url(#filter0_d)"><circle cx="52" cy="50" r="50" fill="url(#paint0_linear)"/></g><path d="M72.7 48.633a1.14 1.14 0 00-.802-.332 1.133 1.133 0 10.801.332zm-7.372-10.414H54.643a1.133 1.133 0 000 2.265h10.685a1.133 1.133 0 000-2.265zm-15.512.331a1.14 1.14 0 00-.8-.331 1.137 1.137 0 00-1.133 1.132 1.135 1.135 0 001.132 1.133 1.135 1.135 0 001.133-1.132c0-.298-.12-.59-.332-.801zm-.001-12.347a1.14 1.14 0 00-.8-.332c-.298 0-.59.121-.801.332a1.133 1.133 0 101.601.001zm15.4 17.453h-16.2a1.133 1.133 0 000 2.266h16.2a1.133 1.133 0 000-2.266zm-3.361 6.797H49.016a1.133 1.133 0 000 2.266h12.838a1.133 1.133 0 000-2.266zm0 5.437H49.016a1.133 1.133 0 000 2.266h12.838a1.133 1.133 0 000-2.265zm0 6.797H49.016a1.133 1.133 0 000 2.266h12.838a1.133 1.133 0 000-2.266zm0 5.438H49.016a1.133 1.133 0 000 2.265h12.838a1.133 1.133 0 000-2.265zM41.812 50.577a1.133 1.133 0 00-1.602 0l-4.844 4.844-1.492-1.492a1.133 1.133 0 00-1.603 1.602l2.294 2.294a1.133 1.133 0 001.602 0l5.645-5.646a1.133 1.133 0 000-1.602zm0-12.585a1.133 1.133 0 00-1.602 0l-4.844 4.844-1.492-1.492a1.133 1.133 0 00-1.603 1.602l2.294 2.293a1.13 1.13 0 001.602 0l5.645-5.645a1.133 1.133 0 000-1.602zm-2.765 24.695h-5.438c-.625 0-1.132.508-1.132 1.133v5.438c0 .625.507 1.132 1.133 1.132h5.437c.626 0 1.133-.507 1.133-1.132V63.82c0-.625-.508-1.133-1.133-1.133zm-1.133 5.438h-3.172v-3.172h3.172v3.172z" fill="#fff"/><path d="M81.868 76.734h-.963v-4.332a7.221 7.221 0 00-3.347-6.09 7.221 7.221 0 003.347-6.089v-4.332h.963a1.133 1.133 0 000-2.266h-16.37a1.133 1.133 0 000 2.266h.962v4.332a7.221 7.221 0 003.347 6.09 7.222 7.222 0 00-3.347 6.09v4.331h-36.7a2.495 2.495 0 01-2.492-2.492V30.176a2.495 2.495 0 012.492-2.492h7.25v3.511c0 .626.507 1.133 1.133 1.133H59.89c.626 0 1.133-.507 1.133-1.133v-3.511h7.252a2.495 2.495 0 012.492 2.492v14.613a1.133 1.133 0 002.266 0V30.176a4.763 4.763 0 00-4.758-4.758h-7.3a2.411 2.411 0 00-2.36-1.926h-5.551A4.546 4.546 0 0049.016 21c-1.729 0-3.287.99-4.046 2.492h-5.554a2.411 2.411 0 00-2.359 1.926H29.76A4.763 4.763 0 0025 30.176v44.066A4.763 4.763 0 0029.759 79h52.109a1.133 1.133 0 000-2.266zM39.274 25.9c0-.078.064-.142.142-.142h6.325c.51 0 .956-.34 1.092-.831a2.27 2.27 0 012.184-1.661 2.27 2.27 0 012.183 1.66c.135.492.582.832 1.092.832h6.323c.078 0 .141.064.141.142v4.163H39.274V25.9zm29.452 29.99h9.913v2.316h-9.913v-2.315zm.006 4.582h9.901a4.963 4.963 0 01-4.95 4.708c-2.65 0-4.82-2.09-4.95-4.708zm4.95 6.973c2.65 0 4.82 2.09 4.951 4.708h-9.9a4.963 4.963 0 014.95-4.708zm4.957 9.29h-9.913v-2.316h9.913v2.315z" fill="#fff"/><defs><linearGradient id="paint0_linear" x1="93.25" y1="0" x2="13.25" y2="92.5" gradientUnits="userSpaceOnUse"><stop stop-color="#54D6BF"/><stop offset="1" stop-color="#9851DF"/></linearGradient><filter id="filter0_d" x="0" y="0" width="104" height="104" filterUnits="userSpaceOnUse" color-interpolation-filters="sRGB"><feFlood flood-opacity="0" result="BackgroundImageFix"/><feColorMatrix in="SourceAlpha" values="0 0 0 0 0 0 0 0 0 0 0 0 0 0 0 0 0 0 127 0"/><feOffset dy="2"/><feGaussianBlur stdDeviation="1"/><feColorMatrix values="0 0 0 0 0 0 0 0 0 0 0 0 0 0 0 0 0 0 0.15 0"/><feBlend in2="BackgroundImageFix" result="effect1_dropShadow"/><feBlend in="SourceGraphic" in2="effect1_dropShadow" result="shape"/></filter></defs></svg>