<svg width="104" height="104" fill="none" xmlns="http://www.w3.org/2000/svg"><g filter="url(#filter0_d)"><circle cx="52" cy="50" r="50" fill="url(#paint0_linear)"/></g><path d="M73.251 32.809c.583 0 1.055-.473 1.055-1.055v-5.59A3.168 3.168 0 0071.142 23H29.165a3.168 3.168 0 00-3.164 3.164v47.672A3.168 3.168 0 0029.165 77h41.977a3.168 3.168 0 003.164-3.164v-2.953a1.055 1.055 0 10-2.11 0v2.953c0 .582-.473 1.055-1.054 1.055H29.165a1.056 1.056 0 01-1.054-1.055V26.164c0-.582.473-1.055 1.054-1.055h41.977c.581 0 1.055.473 1.055 1.055v5.59c0 .582.472 1.055 1.054 1.055z" fill="#fff"/><path d="M68.189 28.063H32.117c-.583 0-1.055.472-1.055 1.054V51.16a1.055 1.055 0 002.11 0V30.172h33.962v1.687a1.055 1.055 0 002.11 0v-2.742c0-.582-.473-1.055-1.055-1.055zM32.862 54.317a1.061 1.061 0 00-.746-.31c-.277 0-.55.114-.745.31a1.063 1.063 0 00-.31.745c0 .278.114.55.31.746.196.196.468.31.745.31a1.058 1.058 0 00.746-1.8zm35.327 13.191c-.583 0-1.055.472-1.055 1.055v1.265H33.172V59.123a1.055 1.055 0 00-2.11 0v11.76c0 .582.472 1.055 1.055 1.055h36.072c.582 0 1.054-.473 1.054-1.055v-2.32c0-.583-.472-1.055-1.054-1.055z" fill="#fff"/><path d="M58.685 60.266a1.054 1.054 0 00-1.491 0l-2.085 2.084-1.295-1.295a2.1 2.1 0 00-2.967 0l-.843.843a1.055 1.055 0 101.491 1.491l.835-.835 1.296 1.296c.409.41.946.614 1.483.614.538 0 1.075-.205 1.484-.614l2.092-2.092a1.055 1.055 0 000-1.492z" fill="#fff"/><path d="M79.515 45.125a3.075 3.075 0 00.38-2.45 3.075 3.075 0 00-1.554-1.931.961.961 0 01-.518-.897 3.076 3.076 0 00-.895-2.312 3.072 3.072 0 00-2.312-.895.958.958 0 01-.897-.518 3.075 3.075 0 00-1.931-1.554 3.074 3.074 0 00-2.45.38.961.961 0 01-1.035 0 3.074 3.074 0 00-2.45-.38 3.075 3.075 0 00-1.932 1.554.963.963 0 01-.896.518 3.073 3.073 0 00-2.312.895 3.075 3.075 0 00-.896 2.312.961.961 0 01-.517.897 3.065 3.065 0 00-1.63 3.139H39.266a1.055 1.055 0 100 2.11h18.943a.944.944 0 01-.083.167 3.075 3.075 0 00-.27 2.785h-18.59a1.055 1.055 0 100 2.11h20.489c.045.12.068.25.062.383-.04.86.286 1.704.895 2.313a3.072 3.072 0 002.313.895.96.96 0 01.896.517c.127.246.285.47.47.67v9.85a1.055 1.055 0 001.798.747l2.631-2.617 2.631 2.617a1.054 1.054 0 001.799-.747v-9.85c.184-.2.343-.425.47-.67a.962.962 0 01.896-.517 3.07 3.07 0 003.207-3.208.961.961 0 01.518-.896 3.075 3.075 0 001.554-1.931 3.075 3.075 0 00-.38-2.45.96.96 0 010-1.036zm-8.375 18.02l-1.576-1.568a1.055 1.055 0 00-1.488 0l-1.576 1.57V56.82a3.077 3.077 0 001.803-.481.961.961 0 011.035 0 3.075 3.075 0 001.802.48v6.328zm6.718-15.08a.948.948 0 01-.486.603 3.077 3.077 0 00-1.656 2.869.948.948 0 01-.28.722.949.949 0 01-.722.28 3.076 3.076 0 00-2.869 1.656.948.948 0 01-.603.486.948.948 0 01-.766-.12 3.067 3.067 0 00-1.656-.483c-.576 0-1.153.161-1.656.484a.949.949 0 01-.766.119.948.948 0 01-.603-.486 3.075 3.075 0 00-2.869-1.656.95.95 0 01-.722-.28.947.947 0 01-.28-.723 3.076 3.076 0 00-1.656-2.868.948.948 0 01-.486-.603.948.948 0 01.12-.766 3.077 3.077 0 000-3.312.948.948 0 01-.12-.766.948.948 0 01.486-.603 3.077 3.077 0 001.656-2.869.948.948 0 01.28-.722.95.95 0 01.722-.28 3.076 3.076 0 002.869-1.656.948.948 0 01.603-.486.949.949 0 01.766.12 3.076 3.076 0 003.312 0 .949.949 0 01.766-.12c.264.07.478.244.603.486a3.076 3.076 0 002.869 1.656.949.949 0 01.722.28c.193.193.293.45.28.722a3.076 3.076 0 001.656 2.869c.243.125.415.34.486.603a.948.948 0 01-.12.766 3.076 3.076 0 000 3.312.95.95 0 01.12.766z" fill="#fff"/><path d="M73.836 42.774a1.055 1.055 0 00-1.492 0l-3.5 3.5-1.394-1.393a1.055 1.055 0 00-1.492 1.492l2.14 2.14a1.051 1.051 0 001.491 0l4.247-4.247a1.055 1.055 0 000-1.492zm-34.961-7.02a1.063 1.063 0 00-.746-.309c-.277 0-.55.113-.745.31a1.063 1.063 0 00-.31.745c0 .277.113.55.31.746.196.196.468.309.745.309a1.06 1.06 0 001.055-1.055c0-.277-.113-.55-.31-.746zm8.324-.309h-5.133a1.055 1.055 0 100 2.11h5.133a1.055 1.055 0 100-2.11zM57.94 54.008H45.882a1.055 1.055 0 100 2.11H57.94a1.055 1.055 0 000-2.11z" fill="#fff"/><defs><linearGradient id="paint0_linear" x1="93.25" y1="0" x2="13.25" y2="92.5" gradientUnits="userSpaceOnUse"><stop stop-color="#54D6BF"/><stop offset="1" stop-color="#9851DF"/></linearGradient><filter id="filter0_d" x="0" y="0" width="104" height="104" filterUnits="userSpaceOnUse" color-interpolation-filters="sRGB"><feFlood flood-opacity="0" result="BackgroundImageFix"/><feColorMatrix in="SourceAlpha" values="0 0 0 0 0 0 0 0 0 0 0 0 0 0 0 0 0 0 127 0"/><feOffset dy="2"/><feGaussianBlur stdDeviation="1"/><feColorMatrix values="0 0 0 0 0 0 0 0 0 0 0 0 0 0 0 0 0 0 0.15 0"/><feBlend in2="BackgroundImageFix" result="effect1_dropShadow"/><feBlend in="SourceGraphic" in2="effect1_dropShadow" result="shape"/></filter></defs></svg>