<svg width="104" height="104" fill="none" xmlns="http://www.w3.org/2000/svg"><g filter="url(#filter0_d)"><circle cx="52" cy="50" r="50" fill="url(#paint0_linear)"/></g><path d="M71.8 30.201C66.51 24.912 59.48 22 52 22s-14.51 2.912-19.8 8.201C26.913 35.489 24 42.521 24 50c0 7.48 2.913 14.51 8.2 19.799C37.49 75.088 44.52 78 52 78s14.51-2.912 19.8-8.201C77.087 64.51 80 57.479 80 50c0-7.48-2.912-14.51-8.2-19.799zM52 75.812c-14.233 0-25.813-11.579-25.813-25.812S37.767 24.187 52 24.187c14.233 0 25.813 11.58 25.813 25.813 0 14.233-11.58 25.813-25.813 25.813z" fill="#fff"/><path d="M75.199 45.51a23.601 23.601 0 00-13.819-17.2 1.094 1.094 0 00-.869 2.008 21.415 21.415 0 0112.54 15.606 1.094 1.094 0 002.148-.413zM57.078 26.922l-.028-.006a1.094 1.094 0 10-.46 2.139l.012.002a1.093 1.093 0 10.476-2.135zM43.736 69.787a21.38 21.38 0 01-12.787-15.71 1.093 1.093 0 10-2.148.413 23.626 23.626 0 004.915 10.472 23.762 23.762 0 009.176 6.843 1.092 1.092 0 001.431-.587 1.093 1.093 0 00-.587-1.43zm3.677 1.159l-.067-.015a1.094 1.094 0 00-.475 2.136l.077.016a1.094 1.094 0 00.466-2.137zM74.247 53.75a1.094 1.094 0 00-1.301.837 21.382 21.382 0 01-16.87 16.464 1.094 1.094 0 10.413 2.148 23.517 23.517 0 0012.02-6.3 23.53 23.53 0 006.574-11.847 1.094 1.094 0 00-.836-1.301zM48.791 27.669a1.093 1.093 0 00-1.28-.868 23.515 23.515 0 00-12.02 6.3 23.528 23.528 0 00-6.574 11.847 1.094 1.094 0 002.137.465 21.382 21.382 0 0116.87-16.464c.593-.114.981-.687.867-1.28zM52 46.281A3.723 3.723 0 0048.281 50 3.723 3.723 0 0052 53.719 3.723 3.723 0 0055.719 50 3.723 3.723 0 0052 46.281zm0 5.25A1.533 1.533 0 0150.469 50c0-.844.687-1.531 1.531-1.531.844 0 1.531.687 1.531 1.531 0 .844-.687 1.531-1.531 1.531zm.017-25.156c-.604 0-1.094.49-1.094 1.094v2.45a1.094 1.094 0 002.187 0v-2.45c0-.604-.49-1.094-1.093-1.094zm-.034 41.832c-.603 0-1.093.49-1.093 1.094v3.23a1.094 1.094 0 002.187 0v-3.23c0-.604-.49-1.094-1.093-1.094zm22.548-19.284h-2.953a1.094 1.094 0 000 2.187h2.953a1.094 1.094 0 000-2.187zM32.64 48.89h-3.17a1.094 1.094 0 000 2.187h3.172a1.094 1.094 0 000-2.187z" fill="#fff"/><path d="M49.375 48.906H44.38a1.094 1.094 0 000 2.188h4.995a1.094 1.094 0 000-2.188zM52 36.036c-.604 0-1.094.49-1.094 1.094v10.245a1.094 1.094 0 002.188 0V37.13c0-.604-.49-1.094-1.094-1.094z" fill="#fff"/><defs><linearGradient id="paint0_linear" x1="93.25" y1="0" x2="13.25" y2="92.5" gradientUnits="userSpaceOnUse"><stop stop-color="#54D6BF"/><stop offset="1" stop-color="#9851DF"/></linearGradient><filter id="filter0_d" x="0" y="0" width="104" height="104" filterUnits="userSpaceOnUse" color-interpolation-filters="sRGB"><feFlood flood-opacity="0" result="BackgroundImageFix"/><feColorMatrix in="SourceAlpha" values="0 0 0 0 0 0 0 0 0 0 0 0 0 0 0 0 0 0 127 0"/><feOffset dy="2"/><feGaussianBlur stdDeviation="1"/><feColorMatrix values="0 0 0 0 0 0 0 0 0 0 0 0 0 0 0 0 0 0 0.15 0"/><feBlend in2="BackgroundImageFix" result="effect1_dropShadow"/><feBlend in="SourceGraphic" in2="effect1_dropShadow" result="shape"/></filter></defs></svg>