<svg width="104" height="104" fill="none" xmlns="http://www.w3.org/2000/svg"><g filter="url(#filter0_d)"><circle cx="52" cy="50" r="50" fill="url(#paint0_linear)"/></g><path d="M77.813 48.906h-.326v-3.31c0-4.838-3.714-8.823-8.44-9.259l-.034-.008a6.43 6.43 0 001.648-4.303v-8.932c0-.604-.49-1.094-1.094-1.094h-6.644a5.183 5.183 0 00-5.177 5.177v4.85a6.43 6.43 0 001.648 4.302l-.033.008a9.315 9.315 0 00-7.354 4.903 9.315 9.315 0 00-7.354-4.903l-.033-.008a6.43 6.43 0 001.648-4.303v-8.932c0-.604-.49-1.094-1.094-1.094H38.53a5.183 5.183 0 00-5.177 5.177v4.85a6.43 6.43 0 001.648 4.302l-.033.008c-4.727.436-8.44 4.42-8.44 9.26v3.31h-.34A2.19 2.19 0 0024 51.093v3.937a2.19 2.19 0 002.188 2.188h.875v3.235a1.094 1.094 0 002.187 0v-3.235h45.5v3.062H62.755a1.094 1.094 0 000 2.188H74.75v13.343h-45.5v-6.124a1.094 1.094 0 00-2.188 0v7.218c0 .604.49 1.094 1.094 1.094h47.688c.604 0 1.094-.49 1.094-1.094V57.22h.874A2.19 2.19 0 0080 55.03v-3.937a2.19 2.19 0 00-2.188-2.188zm-13.61-12.61a4.275 4.275 0 01-4.27-4.27v-1.445h6.538c.724 0 1.407-.185 2.002-.51v1.955a4.275 4.275 0 01-4.27 4.27zm1.907 2.188l-1.907 1.906-1.906-1.907h3.813zm-6.176-11.307a2.993 2.993 0 012.99-2.99h5.55v2.204a2.005 2.005 0 01-2.004 2.002h-6.536v-1.216zm-6.826 18.42c0-3.6 2.687-6.581 6.16-7.048l4.162 4.161a1.09 1.09 0 001.547 0l4.161-4.161c3.474.467 6.161 3.448 6.161 7.047v3.31H53.108v-3.31zM39.81 36.295a4.275 4.275 0 01-4.27-4.27V30.58h6.537c.724 0 1.407-.185 2.002-.51v1.955a4.275 4.275 0 01-4.27 4.27zm1.906 2.188L39.81 40.39l-1.906-1.907h3.813zM35.54 27.176a2.993 2.993 0 012.99-2.99h5.55v2.204a2.005 2.005 0 01-2.004 2.002H35.54v-1.216zm-6.826 18.42c0-3.6 2.687-6.581 6.16-7.048l4.162 4.161a1.09 1.09 0 001.547 0l4.161-4.16c3.473.466 6.161 3.447 6.161 7.046v3.31h-22.19v-3.31zm49.097 9.434H26.188v-3.937h51.624l.002 3.937h-.001z" fill="#fff"/><path d="M28.93 64.131a1.097 1.097 0 00-.774-.32 1.097 1.097 0 00-1.093 1.093c0 .288.116.57.32.774.204.203.486.32.773.32a1.1 1.1 0 00.773-.32c.204-.204.321-.486.321-.773 0-.29-.117-.57-.32-.774zm29.53-3.529a1.102 1.102 0 00-.773-.32c-.287 0-.57.116-.773.32-.203.203-.32.485-.32.773 0 .288.117.57.32.773a1.1 1.1 0 00.773.32c.288 0 .57-.116.774-.32.203-.203.32-.485.32-.773 0-.288-.117-.57-.32-.773z" fill="#fff"/><defs><linearGradient id="paint0_linear" x1="93.25" y1="0" x2="13.25" y2="92.5" gradientUnits="userSpaceOnUse"><stop stop-color="#54D6BF"/><stop offset="1" stop-color="#9851DF"/></linearGradient><filter id="filter0_d" x="0" y="0" width="104" height="104" filterUnits="userSpaceOnUse" color-interpolation-filters="sRGB"><feFlood flood-opacity="0" result="BackgroundImageFix"/><feColorMatrix in="SourceAlpha" values="0 0 0 0 0 0 0 0 0 0 0 0 0 0 0 0 0 0 127 0"/><feOffset dy="2"/><feGaussianBlur stdDeviation="1"/><feColorMatrix values="0 0 0 0 0 0 0 0 0 0 0 0 0 0 0 0 0 0 0.15 0"/><feBlend in2="BackgroundImageFix" result="effect1_dropShadow"/><feBlend in="SourceGraphic" in2="effect1_dropShadow" result="shape"/></filter></defs></svg>