<svg width="150" height="150" fill="none" xmlns="http://www.w3.org/2000/svg"><g filter="url(#filter0_i)"><circle cx="75" cy="75" r="75" fill="#9851DF"/></g><g clip-path="url(#clip0)" fill="#fff"><path d="M40.267 93.667H42.9V91h-2.633c-1.455 0-2.634-1.194-2.634-2.667v-48c0-1.473 1.18-2.666 2.634-2.666H98.2c1.455 0 2.633 1.193 2.633 2.666V43h2.634v-2.667c0-2.945-2.358-5.333-5.267-5.333H40.267C37.358 35 35 37.388 35 40.333v48c0 2.946 2.358 5.334 5.267 5.334z"/><path d="M40.267 40.334H42.9V43h-2.633v-2.666zm5.266 0h2.634V43h-2.634v-2.666zm5.267 0h2.633V43H50.8v-2.666zm57.933 5.333H50.8c-2.908 0-5.267 2.388-5.267 5.333v48c0 2.945 2.358 5.333 5.267 5.333h57.933c2.909 0 5.267-2.388 5.267-5.333V51c0-2.945-2.358-5.333-5.267-5.333zM111.367 99c0 1.473-1.179 2.667-2.634 2.667H50.8c-1.455 0-2.633-1.194-2.633-2.667V51c0-1.473 1.178-2.667 2.633-2.667h57.933c1.455 0 2.634 1.194 2.634 2.667v48z"/><path d="M50.8 51h2.633v2.667H50.8V51zm5.267 0H58.7v2.667h-2.633V51zm5.266 0h2.634v2.667h-2.634V51zM50.8 56.333h57.933V59H50.8v-2.667zM53.433 79h7.9v2.667h-7.9V79zm0 6.667h27.65v2.666h-27.65v-2.666zm0 6.666h14.484V95H53.433v-2.667zm23.7-20H90.3V75H77.133v-2.667zm19.75 13.334h9.217v2.666h-9.217v-2.666zm-11.85 6.666H106.1V95H85.033v-2.667zM65.283 79h19.75v2.667h-19.75V79zm11.85-13.333h9.217v2.666h-9.217v-2.666zm11.85 0H106.1v2.666H88.983v-2.666zM70.55 92.333H82.4V95H70.55v-2.667zM87.667 79H106.1v2.667H87.667V79zm5.266-6.667H106.1V75H92.933v-2.667zm-9.216 13.334H94.25v2.666H83.717v-2.666zM57.77 64.724l-3.95 4a1.346 1.346 0 000 1.885l3.95 4 1.86-1.885-3.018-3.057 3.019-3.058-1.862-1.885zm12.394 9.886l3.95-4a1.346 1.346 0 000-1.886l-3.95-4-1.862 1.885 3.02 3.058-3.02 3.057 1.862 1.885zm-8.792.067l2.635-10.667 2.554.647-2.635 10.666-2.554-.646zM94.25 107H65.283c-.349 0-.684.141-.93.391l-2.634 2.666a1.346 1.346 0 000 1.886l2.633 2.666c.247.25.582.391.931.391H94.25c2.181 0 3.95-1.791 3.95-4s-1.769-4-3.95-4zm-3.95 5.333H65.828L64.512 111l1.316-1.333H90.3v2.666zm3.95 0h-1.317v-2.666h1.317c.728 0 1.317.596 1.317 1.333s-.59 1.333-1.317 1.333z"/></g><defs><clipPath id="clip0"><path fill="#fff" transform="translate(35 35)" d="M0 0h79v80H0z"/></clipPath><filter id="filter0_i" x="0" y="0" width="150" height="156" filterUnits="userSpaceOnUse" color-interpolation-filters="sRGB"><feFlood flood-opacity="0" result="BackgroundImageFix"/><feBlend in="SourceGraphic" in2="BackgroundImageFix" result="shape"/><feColorMatrix in="SourceAlpha" values="0 0 0 0 0 0 0 0 0 0 0 0 0 0 0 0 0 0 127 0" result="hardAlpha"/><feOffset dy="6"/><feGaussianBlur stdDeviation="3"/><feComposite in2="hardAlpha" operator="arithmetic" k2="-1" k3="1"/><feColorMatrix values="0 0 0 0 0 0 0 0 0 0 0 0 0 0 0 0 0 0 0.2 0"/><feBlend in2="shape" result="effect1_innerShadow"/></filter></defs></svg>