<svg width="150" height="150" fill="none" xmlns="http://www.w3.org/2000/svg"><g filter="url(#filter0_i)"><circle cx="75" cy="75" r="75" fill="#9851DF"/></g><g clip-path="url(#clip0)" fill="#fff"><path d="M74 36.003h-6.833c-14.145.016-25.608 11.479-25.624 25.624v2.872l-8.33 15.094a1.72 1.72 0 00-.211.825 4.981 4.981 0 005.125 5.125 6.118 6.118 0 013.416 1.28v5.553a6.64 6.64 0 006.833 6.833h10.25a4.981 4.981 0 005.125-5.125v-10.25h-3.417v10.25a1.563 1.563 0 01-1.708 1.708h-10.25a3.218 3.218 0 01-3.417-3.416v-6.368c0-.49-.209-.956-.575-1.28a9.868 9.868 0 00-6.258-2.601l-.022.002a1.5 1.5 0 01-1.65-1.333l8.294-15.033a1.72 1.72 0 00.212-.825v-3.311c.014-12.26 9.948-22.194 22.208-22.208h6.812a1.57 1.57 0 011.729 1.708v8.542h3.417v-8.541A4.981 4.981 0 0074 36.002zm29.042 51.247H84.251v3.417h18.791a1.563 1.563 0 011.708 1.708v3.23c-.246 1.02-1.893 7.02-6.833 7.02-.944 0-1.708.765-1.708 1.709v10.249H63.75v-5.125h-3.416v6.834c0 .943.765 1.708 1.708 1.708h35.874c.944 0 1.708-.765 1.708-1.708v-10.4c5.341-1.01 7.886-6.644 8.508-9.758a1.71 1.71 0 00.034-.342v-3.416a4.982 4.982 0 00-5.125-5.125zm10.25-30.748h-4.307a15.72 15.72 0 00-.62-1.492l3.047-3.047a1.708 1.708 0 000-2.416l-4.832-4.832a1.709 1.709 0 00-2.416 0l-3.047 3.047a15.846 15.846 0 00-1.492-.618v-4.309c0-.943-.765-1.708-1.708-1.708h-6.833c-.944 0-1.709.765-1.709 1.708v4.309c-.93.328-1.826.746-2.675 1.248l1.736 2.942c.96-.566 1.996-.994 3.075-1.273a1.708 1.708 0 001.281-1.653v-3.864h3.417v3.864a1.708 1.708 0 001.277 1.655c1.08.279 2.115.707 3.075 1.273a1.71 1.71 0 002.078-.263l2.733-2.734 2.417 2.412-2.733 2.734a1.709 1.709 0 00-.265 2.077c.567.96.996 1.996 1.276 3.075.195.754.874 1.28 1.652 1.281h3.864v3.415h-3.86a1.707 1.707 0 00-1.652 1.281c-.28 1.08-.71 2.115-1.277 3.075a1.709 1.709 0 00.265 2.078l2.734 2.733-2.416 2.415-2.733-2.733a1.71 1.71 0 00-2.078-.263c-.96.566-1.995.994-3.075 1.273a1.708 1.708 0 00-1.28 1.653v3.865h-3.417v-3.863c0-.779-.527-1.459-1.282-1.653a11.956 11.956 0 01-3.075-1.273 1.708 1.708 0 00-2.077.263l-2.733 2.733-2.415-2.416 2.733-2.733c.552-.55.661-1.406.265-2.077a11.96 11.96 0 01-1.276-3.075 1.708 1.708 0 00-1.652-1.281h-5.573v3.416h4.308c.18.508.387 1.005.619 1.491l-3.048 3.048a1.708 1.708 0 000 2.415l4.833 4.833a1.709 1.709 0 002.416 0l3.047-3.047c.486.231.984.437 1.492.618v4.308c0 .944.764 1.709 1.708 1.709h6.833c.944 0 1.708-.765 1.708-1.709v-4.306a15.67 15.67 0 001.492-.619l3.047 3.046a1.709 1.709 0 002.416 0l4.833-4.832a1.71 1.71 0 000-2.416l-3.05-3.048c.233-.486.44-.983.62-1.49h4.309a1.71 1.71 0 001.708-1.71V58.21c0-.944-.765-1.708-1.708-1.708z"/><path d="M94.5 54.794a6.833 6.833 0 100 13.666 6.833 6.833 0 000-13.666zm0 10.25a3.416 3.416 0 110-6.834 3.416 3.416 0 010 6.833zm-35.874-1.709v1.708h-5.124v-1.708h-3.417v1.708a3.347 3.347 0 003.416 3.416h5.267a3.346 3.346 0 003.275-3.416v-1.708h-3.417zm22.208 20.499a5.125 5.125 0 100 10.25 5.125 5.125 0 000-10.25zm0 6.833a1.708 1.708 0 110-3.417 1.708 1.708 0 010 3.417zM62.043 75.293a5.125 5.125 0 100 10.25 5.125 5.125 0 000-10.25zm0 6.833a1.708 1.708 0 110-3.417 1.708 1.708 0 010 3.417zM77.418 47.96a5.125 5.125 0 100 10.25 5.125 5.125 0 000-10.25zm0 6.833a1.708 1.708 0 110-3.416 1.708 1.708 0 010 3.416zm-5.125 8.542h-3.417v3.416h3.417v-3.416zm0 6.833h-3.417v3.416h3.417v-3.416zm-8.542 32.457h-3.416v3.417h3.416v-3.417z"/></g><defs><clipPath id="clip0"><path fill="#fff" transform="translate(33 36)" d="M0 0h82v82H0z"/></clipPath><filter id="filter0_i" x="0" y="0" width="150" height="156" filterUnits="userSpaceOnUse" color-interpolation-filters="sRGB"><feFlood flood-opacity="0" result="BackgroundImageFix"/><feBlend in="SourceGraphic" in2="BackgroundImageFix" result="shape"/><feColorMatrix in="SourceAlpha" values="0 0 0 0 0 0 0 0 0 0 0 0 0 0 0 0 0 0 127 0" result="hardAlpha"/><feOffset dy="6"/><feGaussianBlur stdDeviation="3"/><feComposite in2="hardAlpha" operator="arithmetic" k2="-1" k3="1"/><feColorMatrix values="0 0 0 0 0 0 0 0 0 0 0 0 0 0 0 0 0 0 0.2 0"/><feBlend in2="shape" result="effect1_innerShadow"/></filter></defs></svg>