<svg width="150" height="150" fill="none" xmlns="http://www.w3.org/2000/svg"><g filter="url(#filter0_i)"><circle cx="75" cy="75" r="75" fill="#9851DF"/></g><path d="M110.933 67.56c-3.199-1.6-9.196-1.618-9.449-1.618a1.377 1.377 0 100 2.754c1.547 0 6.04.238 8.217 1.327a1.378 1.378 0 001.232-2.463z" fill="#fff"/><path d="M117.798 87.164l-5.687-1.625a.578.578 0 01-.417-.553v-1.898c.463-.32.904-.68 1.317-1.08a10.13 10.13 0 003.1-7.328v-2.62l.55-1.099a8.79 8.79 0 00.922-3.908v-7.095c0-.761-.616-1.377-1.377-1.377h-13.25c-4.818 0-8.739 3.92-8.739 8.738v.082c0 1.122.266 2.246.767 3.25l.706 1.41v2.249a10.74 10.74 0 004.417 8.686v1.99c0 .307 0 .434-1.137.759l-2.775.792-8.027-2.918a1.375 1.375 0 00-.375-1.055l-2.565-2.694v-4.524c.271-.224.538-.453.797-.696a16.16 16.16 0 005.092-11.748v-3.613a15.916 15.916 0 001.472-6.693V37.874c0-.76-.616-1.377-1.377-1.377H70.6c-7.253 0-13.154 5.901-13.154 13.155v2.944c0 2.317.495 4.567 1.472 6.694v3.108c0 5.147 2.288 9.784 5.889 12.842v4.63l-2.565 2.695c-.276.29-.404.675-.375 1.054l-8.472 3.08a7.218 7.218 0 00-1.703.892l-1.33-.665c3.96-1.724 5.215-4.148 5.275-4.268a1.377 1.377 0 000-1.232c-.993-1.985-1.113-5.624-1.21-8.548a74.421 74.421 0 00-.12-2.712c-.47-6.605-5.49-11.585-11.68-11.585-6.189 0-11.21 4.98-11.679 11.585a72.594 72.594 0 00-.12 2.712c-.097 2.924-.218 6.562-1.21 8.548a1.377 1.377 0 000 1.231c.06.12 1.312 2.54 5.28 4.266l-3.695 1.847A5.764 5.764 0 0028 93.953v10.173a1.377 1.377 0 002.754 0V93.953c0-1.159.644-2.2 1.68-2.719l4.602-2.3 1.6 1.52a5.777 5.777 0 003.991 1.596 5.778 5.778 0 003.991-1.596l1.6-1.52 1.501.75a7.251 7.251 0 00-1.107 3.844v10.598a1.377 1.377 0 102.754 0V93.528a4.526 4.526 0 012.97-4.24l8.932-3.248 3.718 5.578a2.839 2.839 0 002.374 1.268 2.84 2.84 0 002.012-.834l2.268-2.269v14.343a1.377 1.377 0 102.754 0V89.783l2.269 2.269a2.837 2.837 0 002.295.82 2.839 2.839 0 002.09-1.254l3.719-5.578 8.932 3.248a4.526 4.526 0 012.97 4.24v10.598a1.377 1.377 0 102.754 0V93.528a7.28 7.28 0 00-2.037-5.038l.34-.097c.344-.098.812-.232 1.282-.462l3.515 3.515v12.68a1.377 1.377 0 102.754 0v-12.68l3.491-3.49c.186.093.381.173.586.232l5.687 1.625a3.053 3.053 0 012.205 2.923v11.39a1.377 1.377 0 102.754 0v-11.39a5.82 5.82 0 00-4.202-5.572zm-80.964-2.432c-2.576-.927-3.868-2.163-4.42-2.837.377-.983.62-2.109.785-3.297a10.268 10.268 0 003.635 4.484v1.65zm7.888 3.726a3.038 3.038 0 01-4.189 0l-1.28-1.217c.216-.404.335-.864.335-1.344v-1.468a10.243 10.243 0 006.08 0v1.468c0 .48.118.94.334 1.345l-1.28 1.216zm-2.094-6.32c-4.112 0-7.457-3.346-7.457-7.457a1.377 1.377 0 00-1.603-1.357l.012-.355c.031-.946.06-1.84.115-2.608.176-2.474 1.165-4.754 2.784-6.42a8.51 8.51 0 016.149-2.606 8.51 8.51 0 016.148 2.606c1.62 1.666 2.608 3.946 2.784 6.42.055.767.084 1.661.115 2.608l.009.246c-1.498-2.309-3.812-4.01-6.801-4.97-2.762-.887-5.138-.833-5.238-.83a1.38 1.38 0 00-.953.42l-2.484 2.577a1.377 1.377 0 001.982 1.912l2.068-2.144c1.78.087 7.507.753 9.735 5.658a7.439 7.439 0 01-7.365 6.3zm5.793 2.598v-1.642a10.185 10.185 0 003.636-4.488c.164 1.185.408 2.308.783 3.29-.548.667-1.846 1.914-4.42 2.84zm13.25-22.338V58.98c0-.207-.046-.412-.136-.598a13.208 13.208 0 01-1.336-5.787v-2.944c0-5.736 4.666-10.401 10.401-10.401h19.236v13.346c0 2.004-.45 3.951-1.336 5.786a1.38 1.38 0 00-.137.599v3.92c0 3.73-1.499 7.188-4.22 9.74-.34.318-.693.616-1.058.894l-.024.018c-2.55 1.936-5.673 2.877-8.935 2.665-6.984-.452-12.454-6.523-12.454-13.821zm7.754 27.706c-.01.01-.032.032-.077.028a.088.088 0 01-.07-.043l-4.282-6.423 1.378-1.448 6.496 4.44-3.445 3.446zm5.592-5.314l-7.456-5.097v-2.57a15.503 15.503 0 006.387 1.844c.363.024.724.035 1.084.035 2.633 0 5.166-.63 7.442-1.824v2.515l-7.457 5.097zm5.74 5.3a.087.087 0 01-.07.042c-.045.005-.067-.018-.077-.028l-3.445-3.445 6.496-4.44 1.379 1.447-4.283 6.424zm25.143-1.162l-3.124-3.125a3.81 3.81 0 00.085-.817v-.582a9.657 9.657 0 003.043.487c1.045 0 2.065-.158 3.036-.46v.555c0 .275.035.544.1.803l-3.14 3.139zm5.193-8.896a7.401 7.401 0 01-5.423 2.102c-3.985-.12-7.226-3.63-7.226-7.824v-2.574c0-.214-.05-.425-.146-.616l-.85-1.701a4.537 4.537 0 01-.477-2.018v-.082c0-3.3 2.685-5.984 5.985-5.984h11.873v5.719c0 .924-.218 1.85-.631 2.676l-.695 1.39a1.372 1.372 0 00-.146.616v2.944a7.398 7.398 0 01-2.264 5.352z" fill="#fff"/><path d="M114.734 93.915c-.761 0-1.377.616-1.377 1.377v8.834a1.377 1.377 0 102.754 0v-8.834c0-.76-.617-1.377-1.377-1.377zm-79.468 1.82c-.76 0-1.377.617-1.377 1.377v7.014a1.376 1.376 0 002.754 0v-7.014c0-.76-.617-1.377-1.377-1.377zm51.031-42.64c-5.208-5.208-16.104-4.212-20.547-3.542a2.827 2.827 0 00-2.416 2.816v3.172a1.377 1.377 0 002.754 0v-3.172c0-.047.031-.087.072-.094 1.775-.267 5.297-.68 8.946-.437 4.294.286 7.404 1.364 9.244 3.204a1.377 1.377 0 101.947-1.947zM58.822 96.86c-.76 0-1.377.616-1.377 1.377v5.889a1.377 1.377 0 002.754 0v-5.89c0-.76-.616-1.376-1.377-1.376zm32.39 0c-.76 0-1.377.616-1.377 1.377v5.889a1.377 1.377 0 002.754 0v-5.89c0-.76-.616-1.376-1.377-1.376z" fill="#fff"/><defs><filter id="filter0_i" x="0" y="0" width="150" height="156" filterUnits="userSpaceOnUse" color-interpolation-filters="sRGB"><feFlood flood-opacity="0" result="BackgroundImageFix"/><feBlend in="SourceGraphic" in2="BackgroundImageFix" result="shape"/><feColorMatrix in="SourceAlpha" values="0 0 0 0 0 0 0 0 0 0 0 0 0 0 0 0 0 0 127 0" result="hardAlpha"/><feOffset dy="6"/><feGaussianBlur stdDeviation="3"/><feComposite in2="hardAlpha" operator="arithmetic" k2="-1" k3="1"/><feColorMatrix values="0 0 0 0 0 0 0 0 0 0 0 0 0 0 0 0 0 0 0.2 0"/><feBlend in2="shape" result="effect1_innerShadow"/></filter></defs></svg>