<svg width="32" height="26" fill="none" xmlns="http://www.w3.org/2000/svg"><path d="M.565 22.35a17.987 17.987 0 009.665 2.799c9.985 0 18.08-8.096 18.08-18.08 0-.25-.005-.497-.015-.743.361-.285 2.595-2.075 3.142-3.226 0 0-1.814.754-3.589.931l-.011.001.01-.006c.163-.11 2.45-1.666 2.76-3.521 0 0-1.283.685-3.08 1.284-.297.099-.609.196-.93.286a6.326 6.326 0 00-4.63-2.007 6.342 6.342 0 00-6.18 7.778c-.49-.02-7.948-.439-13.022-6.583 0 0-3.032 4.14 1.807 8.396 0 0-1.47-.058-2.74-.816 0 0-.466 5.014 5.014 6.297 0 0-1.078.408-2.799.117 0 0 .963 4.052 5.832 4.43 0 0-3.85 3.479-9.316 2.663h.002z" fill="#fff"/></svg>