<svg width="23" height="22" fill="none" xmlns="http://www.w3.org/2000/svg"><circle cx="11.261" cy="10.979" r="10.979" fill="#C4C4C4"/><path d="M5.301 14.634a7.093 7.093 0 003.732 1.05c3.855 0 6.98-3.037 6.98-6.783 0-.094-.002-.187-.006-.28.14-.106 1.002-.778 1.213-1.21 0 0-.7.284-1.385.35h-.005l.004-.002c.063-.04.946-.625 1.066-1.321 0 0-.496.257-1.19.482a8.135 8.135 0 01-.358.107 2.476 2.476 0 00-1.788-.753c-1.353 0-2.45 1.065-2.45 2.38 0 .184.022.365.064.538-.19-.007-3.069-.164-5.027-2.47 0 0-1.171 1.554.697 3.15 0 0-.568-.021-1.058-.306 0 0-.18 1.882 1.936 2.363 0 0-.416.153-1.08.044 0 0 .371 1.52 2.251 1.662 0 0-1.487 1.306-3.597 1h.001z" fill="#292929"/></svg>