<svg width="38" height="22" fill="none" xmlns="http://www.w3.org/2000/svg"><path d="M8.88 2.782c1.007 2.485 2.283 4.829 3.963 6.933.223.28.504.529.8.732.432.296.84.192 1.015-.302.186-.52.357-1.57.367-2.116.028-1.423-.004-2.356-.08-3.778-.05-.911-.374-1.71-1.714-1.952-.413-.075-.452-.415-.186-.755.553-.707 1.324-.82 2.16-.865 1.355-.073 2.714-.013 4.07 0 .553.005 1.11.05 1.653.168.71.155 1.09.653 1.207 1.346.06.357.092.725.083 1.086-.035 1.554-.11 3.108-.128 4.66-.007.61.037 1.235.168 1.829.182.827.745 1.035 1.322.437.731-.76 1.376-1.614 1.982-2.481 1.1-1.579 1.921-3.311 2.628-5.097.366-.922.646-1.122 1.637-1.124 1.864-.005 3.727-.006 5.59 0 .331.001.677.033.989.132.506.161.707.574.589 1.098-.277 1.228-.94 2.271-1.651 3.275-1.14 1.61-2.335 3.18-3.502 4.77-.15.204-.28.42-.402.64-.437.788-.407 1.23.23 1.887 1.013 1.045 2.098 2.023 3.08 3.097a18.257 18.257 0 011.938 2.52c.715 1.13.273 2.192-1.062 2.381-.84.12-4.944.001-5.156 0-1.103-.005-2.07-.387-2.849-1.136-.866-.835-1.653-1.75-2.485-2.62a6.937 6.937 0 00-.806-.733c-.68-.519-1.348-.404-1.666.395-.272.686-.506 2.488-.517 2.642-.057.805-.57 1.318-1.471 1.367-2.603.142-5.125-.148-7.474-1.407-1.991-1.066-3.582-2.574-4.959-4.332-2.188-2.793-3.916-5.863-5.494-9.023-.08-.162-1.679-3.562-1.722-3.723-.143-.538-.01-1.052.445-1.229.283-.11 5.552 0 5.64.005.84.045 1.414.4 1.768 1.273z" fill="#fff"/></svg>