<svg width="22" height="22" fill="none" xmlns="http://www.w3.org/2000/svg"><circle cx="10.979" cy="10.979" r="10.979" fill="#C4C4C4"/><path d="M6.791 7.743c.386.979.874 1.902 1.517 2.73.086.11.193.209.306.288.166.117.322.076.39-.118.07-.205.136-.619.14-.833.01-.561-.002-.928-.031-1.488-.02-.359-.143-.674-.656-.769-.158-.03-.173-.163-.071-.297.211-.279.507-.323.827-.34.518-.03 1.039-.006 1.558 0 .211.001.424.019.632.066.272.06.418.257.462.53.024.14.035.285.032.427-.013.612-.042 1.224-.049 1.835-.003.24.014.486.064.72.07.326.286.408.506.172.28-.299.527-.635.76-.977.42-.621.735-1.303 1.005-2.007.14-.363.248-.441.627-.442.714-.002 1.427-.003 2.14 0 .127 0 .26.013.378.052.194.063.271.226.226.432-.106.484-.36.894-.632 1.29-.437.633-.894 1.252-1.34 1.878a2.24 2.24 0 00-.155.252c-.167.31-.155.484.088.743.388.412.804.796 1.18 1.22.272.307.525.64.741.992.274.444.105.863-.406.937-.322.047-1.893 0-1.974 0a1.515 1.515 0 01-1.09-.447c-.332-.329-.633-.689-.952-1.032a2.68 2.68 0 00-.308-.288c-.26-.205-.516-.16-.638.155-.104.27-.194.98-.198 1.04-.022.317-.218.52-.563.539-.996.056-1.962-.059-2.861-.554-.762-.42-1.371-1.014-1.899-1.706-.837-1.1-1.499-2.309-2.103-3.553a66.194 66.194 0 01-.659-1.466c-.054-.212-.004-.414.17-.484.109-.043 2.126 0 2.16.002.321.018.54.158.676.501z" fill="#292929"/></svg>