<svg width="11" height="6" viewBox="0 0 11 6" fill="none" xmlns="http://www.w3.org/2000/svg">
<path d="M5.5 6C5.43426 6.00009 5.36914 5.98718 5.30841 5.96201C5.24767 5.93684 5.19251 5.89991 5.1461 5.85335L0.140513 0.848224C0.049332 0.753827 -0.00112156 0.627396 1.89224e-05 0.496163C0.00115941 0.364931 0.0538027 0.239396 0.14661 0.146597C0.239418 0.0537977 0.364965 0.0011593 0.49621 1.89207e-05C0.627455 -0.00112146 0.753897 0.0493274 0.848303 0.1405L5.5 4.79176L10.1517 0.1405C10.2461 0.0493274 10.3725 -0.00112146 10.5038 1.89207e-05C10.635 0.0011593 10.7606 0.0537977 10.8534 0.146597C10.9462 0.239396 10.9988 0.364931 11 0.496163C11.0011 0.627396 10.9507 0.753827 10.8595 0.848224L5.8539 5.85335C5.80749 5.89991 5.75233 5.93684 5.69159 5.96201C5.63086 5.98718 5.56574 6.00009 5.5 6Z" fill="#B3B3B3"/>
</svg>
