<svg width="100" height="87" viewBox="0 0 100 87" fill="none" xmlns="http://www.w3.org/2000/svg">
<path d="M94.6605 0H32.0914C31.2822 0 30.6266 0.65586 30.6266 1.46484C30.6266 2.27383 31.2822 2.92969 32.0914 2.92969H94.6607C95.9895 2.92969 97.0705 4.01074 97.0705 5.33945V14.6311H2.92969V5.33945C2.92969 4.01074 4.01074 2.92969 5.33945 2.92969H26.1113C26.9205 2.92969 27.5762 2.27383 27.5762 1.46484C27.5762 0.65586 26.9205 0 26.1113 0H5.33945C2.39531 0 0 2.39531 0 5.33945V83.1031C0 84.8873 1.45156 86.3389 3.23574 86.3389H34.4445C35.2537 86.3389 35.9094 85.683 35.9094 84.874C35.9094 84.0651 35.2537 83.4092 34.4445 83.4092H27.4682V50.0365L30.3172 43.259C30.4379 42.9717 30.4639 42.6535 30.3914 42.3504L27.4502 30.0592C27.2924 29.4 26.7033 28.9354 26.0256 28.9354H20.1434C19.4656 28.9354 18.8766 29.4002 18.7188 30.0592L15.7773 42.3502C15.7049 42.6533 15.7309 42.9715 15.8516 43.2588L18.6783 49.9832V83.409H3.23574C3.06699 83.409 2.92969 83.2717 2.92969 83.103V17.5607H97.0703V23.968C97.0703 24.777 97.726 25.4328 98.5352 25.4328C99.3443 25.4328 100 24.777 100 23.968V5.33945C100 2.39531 97.6047 0 94.6605 0ZM21.299 31.865H24.8699L27.4305 42.566L24.767 48.902C24.6223 49.1291 24.5383 49.3988 24.5383 49.6881V83.4092H21.608V49.6881C21.6082 49.4932 21.5693 49.3002 21.4937 49.1205L18.7385 42.566L21.299 31.865Z" fill="url(#paint0_linear)"/>
<path d="M98.5351 28.4832C97.7259 28.4832 97.0703 29.1391 97.0703 29.948V83.1031C97.0703 83.2719 96.933 83.4092 96.7642 83.4092H70.1113V75.5826C77.6386 72.1203 82.4486 64.66 82.4486 56.3078C82.4486 52.5902 81.4728 48.932 79.6269 45.7281C77.8369 42.6219 75.2689 39.9986 72.2007 38.142C71.3244 37.6115 70.2265 37.5938 69.3355 38.0959C68.4365 38.6027 67.8998 39.5219 67.8998 40.5547V52.0033H54.5609V40.5547C54.5609 39.5217 54.0242 38.6025 53.1252 38.0959C52.2343 37.5939 51.1365 37.6115 50.2599 38.142C47.1916 39.9986 44.6238 42.6219 42.8338 45.7281C40.9879 48.9316 40.0121 52.59 40.0121 56.3078C40.0121 64.66 44.8218 72.1203 52.3494 75.5826V83.4094H40.4252C39.616 83.4094 38.9603 84.0652 38.9603 84.8742C38.9603 85.6832 39.616 86.3391 40.4252 86.3391H96.7644C98.5488 86.3391 100 84.8875 100 83.1033V29.948C100 29.1391 99.3443 28.4832 98.5351 28.4832ZM67.1816 74.6203V83.4094H62.6951V68.9252C62.6951 68.1162 62.0394 67.4604 61.2302 67.4604C60.4211 67.4604 59.7654 68.1162 59.7654 68.9252V83.4094H55.2787V74.6203C55.2787 74.0236 54.9172 73.4867 54.3642 73.2627C47.4254 70.4498 42.9416 63.7943 42.9416 56.3076C42.9416 49.9068 46.1863 44.099 51.6312 40.7373V53.4682C51.6312 54.2771 52.2869 54.933 53.0961 54.933H69.3646C70.1738 54.933 70.8295 54.2771 70.8295 53.4682V40.7373C76.2742 44.099 79.5189 49.9068 79.5189 56.3076C79.5189 63.7943 75.0353 70.4498 68.0963 73.2627C67.5433 73.4867 67.1816 74.0236 67.1816 74.6203Z" fill="url(#paint1_linear)"/>
<path d="M66.737 7.58594H14.4842C13.6752 7.58594 13.0194 8.2416 13.0194 9.05078C13.0194 9.85976 13.675 10.5156 14.4842 10.5156H66.737C67.5461 10.5156 68.2018 9.85976 68.2018 9.05078C68.2018 8.2418 67.5461 7.58594 66.737 7.58594Z" fill="url(#paint2_linear)"/>
<path d="M73.8212 7.18809C73.012 7.18809 72.3563 7.84395 72.3563 8.65294V8.90743C72.3563 9.71641 73.012 10.3723 73.8212 10.3723C74.6304 10.3723 75.286 9.71641 75.286 8.90743V8.65294C75.2862 7.84395 74.6304 7.18809 73.8212 7.18809Z" fill="url(#paint3_linear)"/>
<path d="M79.6683 7.18809C78.8591 7.18809 78.2034 7.84395 78.2034 8.65294V8.90743C78.2034 9.71641 78.8591 10.3723 79.6683 10.3723C80.4775 10.3723 81.1331 9.71641 81.1331 8.90743V8.65294C81.1331 7.84395 80.4775 7.18809 79.6683 7.18809Z" fill="url(#paint4_linear)"/>
<path d="M85.5158 7.18809C84.7066 7.18809 84.0509 7.84395 84.0509 8.65294V8.90743C84.0509 9.71641 84.7066 10.3723 85.5158 10.3723C86.325 10.3723 86.9806 9.71641 86.9806 8.90743V8.65294C86.9806 7.84395 86.325 7.18809 85.5158 7.18809Z" fill="url(#paint5_linear)"/>
<path d="M40.3768 33.1088H39.36V32.092C39.36 31.283 38.7044 30.6271 37.8952 30.6271C37.086 30.6271 36.4304 31.283 36.4304 32.092V33.1088H35.4136C34.6044 33.1088 33.9487 33.7646 33.9487 34.5736C33.9487 35.3826 34.6044 36.0385 35.4136 36.0385H36.4304V37.0553C36.4304 37.8642 37.086 38.5201 37.8952 38.5201C38.7044 38.5201 39.36 37.8642 39.36 37.0553V36.0385H40.3768C41.186 36.0385 41.8417 35.3826 41.8417 34.5736C41.8417 33.7646 41.186 33.1088 40.3768 33.1088Z" fill="url(#paint6_linear)"/>
<path d="M83.0725 33.2385H82.0559V32.2217C82.0559 31.4127 81.4003 30.7568 80.5911 30.7568C79.7819 30.7568 79.1262 31.4127 79.1262 32.2217V33.2385H78.1095C77.3003 33.2385 76.6446 33.8943 76.6446 34.7033C76.6446 35.5123 77.3003 36.1682 78.1095 36.1682H79.1262V37.1849C79.1262 37.9939 79.7819 38.6498 80.5911 38.6498C81.4003 38.6498 82.0559 37.9939 82.0559 37.1849V36.1682H83.0725C83.8817 36.1682 84.5374 35.5123 84.5374 34.7033C84.5374 33.8943 83.8817 33.2385 83.0725 33.2385Z" fill="url(#paint7_linear)"/>
<defs>
<linearGradient id="paint0_linear" x1="91.2502" y1="2.9253e-06" x2="24.3246" y2="89.6266" gradientUnits="userSpaceOnUse">
<stop stop-color="#54D6BF"/>
<stop offset="1" stop-color="#9851DF"/>
</linearGradient>
<linearGradient id="paint1_linear" x1="91.2502" y1="2.9253e-06" x2="24.3246" y2="89.6266" gradientUnits="userSpaceOnUse">
<stop stop-color="#54D6BF"/>
<stop offset="1" stop-color="#9851DF"/>
</linearGradient>
<linearGradient id="paint2_linear" x1="91.2502" y1="2.9253e-06" x2="24.3246" y2="89.6266" gradientUnits="userSpaceOnUse">
<stop stop-color="#54D6BF"/>
<stop offset="1" stop-color="#9851DF"/>
</linearGradient>
<linearGradient id="paint3_linear" x1="91.2502" y1="2.9253e-06" x2="24.3246" y2="89.6266" gradientUnits="userSpaceOnUse">
<stop stop-color="#54D6BF"/>
<stop offset="1" stop-color="#9851DF"/>
</linearGradient>
<linearGradient id="paint4_linear" x1="91.2502" y1="2.9253e-06" x2="24.3246" y2="89.6266" gradientUnits="userSpaceOnUse">
<stop stop-color="#54D6BF"/>
<stop offset="1" stop-color="#9851DF"/>
</linearGradient>
<linearGradient id="paint5_linear" x1="91.2502" y1="2.9253e-06" x2="24.3246" y2="89.6266" gradientUnits="userSpaceOnUse">
<stop stop-color="#54D6BF"/>
<stop offset="1" stop-color="#9851DF"/>
</linearGradient>
<linearGradient id="paint6_linear" x1="91.2502" y1="2.9253e-06" x2="24.3246" y2="89.6266" gradientUnits="userSpaceOnUse">
<stop stop-color="#54D6BF"/>
<stop offset="1" stop-color="#9851DF"/>
</linearGradient>
<linearGradient id="paint7_linear" x1="91.2502" y1="2.9253e-06" x2="24.3246" y2="89.6266" gradientUnits="userSpaceOnUse">
<stop stop-color="#54D6BF"/>
<stop offset="1" stop-color="#9851DF"/>
</linearGradient>
</defs>
</svg>
