<svg width="112" height="112" viewBox="0 0 112 112" fill="none" xmlns="http://www.w3.org/2000/svg">
<path d="M75.1283 68.5367C79.0032 68.0745 82.145 65.191 82.9142 61.4194H112V0H0V61.4194H29.0858C29.855 65.1928 32.9968 68.0762 36.8717 68.5367C38.1789 73.2424 41.1691 77.2479 45.1613 79.8579V83.6004L26.7104 89.7519C21.5398 91.4754 18.0645 96.2967 18.0645 101.747V112H93.9355V101.747C93.9355 96.295 90.4602 91.4737 85.2896 89.7519L66.8387 83.6004V79.8579C70.8309 77.2479 73.8184 73.2424 75.1283 68.5367ZM55.8104 44.3542L54.8419 42.419L53.1095 43.7165C49.1394 46.6917 44.5544 48.888 39.7419 50.1273V45.1613H36.129V50.7632C34.7865 51.0375 33.5711 51.6338 32.5161 52.4321V43.4034C32.5161 31.425 42.2637 21.6774 54.2421 21.6774C61.5243 21.6774 68.2818 25.2938 72.3216 31.3509L72.9496 32.2921L73.627 32.4623C77.0759 33.3232 79.4839 36.4086 79.4839 39.9642V52.4338C78.4289 51.6356 77.2135 51.0375 75.871 50.765V41.5484L72.9805 43.7165C68.4952 47.0798 63.1896 49.2761 57.6406 50.069L56.7462 50.1978C57.0294 48.2194 56.7171 46.1712 55.8104 44.3542ZM29.9979 36.0567C27.3482 35.7048 25.2903 33.4538 25.2903 30.7097C25.2903 27.7222 27.7222 25.2903 30.7097 25.2903C32.3062 25.2903 33.7881 25.9968 34.8051 27.1762C32.6502 29.7544 30.999 32.764 29.9979 36.0567ZM37.3374 24.582C35.6501 22.7579 33.2676 21.6774 30.7097 21.6774C28.8724 21.6774 27.1656 22.2358 25.7366 23.1822L18.0028 15.4483C21.4516 12.5746 25.8813 10.8387 30.7097 10.8387C37.1699 10.8387 43.1581 13.9877 46.8645 19.168C43.2843 20.2591 40.0542 22.1396 37.3374 24.582ZM15.4483 18.0028L23.1822 25.7366C22.2358 27.1656 21.6774 28.8724 21.6774 30.7097C21.6774 32.547 22.2358 34.2538 23.1822 35.6827L15.4483 43.4166C12.5746 39.9677 10.8387 35.5381 10.8387 30.7097C10.8387 25.8813 12.5746 21.4516 15.4483 18.0028ZM25.7366 38.2371C26.7678 38.9216 27.9533 39.3785 29.2208 39.592C29.0329 40.8383 28.9032 42.105 28.9032 43.4034V50.4889C24.7787 50.1149 21.0159 48.4813 18.0028 45.971L25.7366 38.2371ZM75.7951 64.7235C75.833 64.2269 75.871 63.7312 75.871 63.2258V54.5261C77.9685 55.2741 79.4839 57.2613 79.4839 59.6129C79.4839 61.9918 77.9323 63.9967 75.7951 64.7235ZM3.6129 3.6129H108.387V57.8064H83.0968V39.9642C83.0968 34.9912 79.8834 30.6444 75.1971 29.1546C70.4737 22.2049 62.6586 18.0645 54.2421 18.0645C53.0266 18.0645 51.8393 18.1801 50.6688 18.3459C46.397 11.4579 38.8661 7.22581 30.7097 7.22581C17.7611 7.22581 7.22581 17.7611 7.22581 30.7097C7.22581 43.0479 16.7979 53.173 28.9032 54.1018V57.8064H3.6129V3.6129ZM32.5161 59.6129C32.5161 57.2613 34.0315 55.2741 36.129 54.5261V63.2258C36.129 63.7312 36.167 64.2269 36.2049 64.7235C34.0677 63.9967 32.5161 61.9918 32.5161 59.6129ZM39.7419 63.2258V53.8469C44.513 52.7337 49.1032 50.7597 53.1968 48.0677C53.33 49.262 53.1245 50.4871 52.5767 51.58L51.034 54.6628L58.1513 53.6484C63.1464 52.9322 67.9624 51.1946 72.2581 48.5687V63.2258C72.2581 72.191 64.9652 79.4839 56 79.4839C47.0348 79.4839 39.7419 72.191 39.7419 63.2258ZM46.48 86.9699L53.4456 93.9355L47.2967 100.084L40.3726 89.0057L46.48 86.9699ZM21.6774 101.747C21.6774 97.8536 24.1595 94.4091 27.8536 93.1787L36.8461 90.1814L46.6387 105.851L54.1935 98.2964V108.387H36.129V101.161H32.5161V108.387H21.6774V101.747ZM90.3226 101.747V108.387H79.4839V101.161H75.871V108.387H57.8064V98.2964L65.3613 105.851L75.1539 90.1814L84.1464 93.1787C87.8405 94.4109 90.3226 97.8536 90.3226 101.747ZM71.6274 89.0057L64.7032 100.084L58.5544 93.9355L65.52 86.9699L71.6274 89.0057ZM63.2258 84.1552L56 91.381L48.7742 84.1552V81.7164C51.0181 82.5966 53.4491 83.0968 56 83.0968C58.5509 83.0968 60.9819 82.5966 63.2258 81.7164V84.1552Z" fill="#9851DF"/>
<path d="M66.8385 57.8065C66.8385 58.8041 66.0296 59.6129 65.032 59.6129C64.0344 59.6129 63.2256 58.8041 63.2256 57.8065C63.2256 56.8088 64.0344 56 65.032 56C66.0296 56 66.8385 56.8088 66.8385 57.8065Z" fill="#9851DF"/>
<path d="M48.774 57.8065C48.774 58.8041 47.9652 59.6129 46.9676 59.6129C45.97 59.6129 45.1611 58.8041 45.1611 57.8065C45.1611 56.8088 45.97 56 46.9676 56C47.9652 56 48.774 56.8088 48.774 57.8065Z" fill="#9851DF"/>
<path d="M63.226 66.8387H59.6131C59.6131 68.8313 57.9928 70.4516 56.0002 70.4516C54.0077 70.4516 52.3873 68.8313 52.3873 66.8387H48.7744C48.7744 70.8238 52.0151 74.0645 56.0002 74.0645C59.9853 74.0645 63.226 70.8238 63.226 66.8387Z" fill="#9851DF"/>
<path d="M101.161 7.2258H104.774V10.8387H101.161V7.2258Z" fill="#9851DF"/>
<path d="M57.8066 7.2258H97.5486V10.8387H57.8066V7.2258Z" fill="#9851DF"/>
<path d="M68.6455 14.4516H104.775V18.0645H68.6455V14.4516Z" fill="#9851DF"/>
<path d="M79.4834 21.6774H104.774V25.2903H79.4834V21.6774Z" fill="#9851DF"/>
<path d="M86.71 28.9032H104.774V32.5161H86.71V28.9032Z" fill="#9851DF"/>
<path d="M86.71 36.129H104.774V39.7419H86.71V36.129Z" fill="#9851DF"/>
<path d="M86.71 43.3548H104.774V46.9677H86.71V43.3548Z" fill="#9851DF"/>
<path d="M86.71 50.5806H104.774V54.1935H86.71V50.5806Z" fill="#9851DF"/>
</svg>
