<svg width="106" height="106" viewBox="0 0 106 106" fill="none" xmlns="http://www.w3.org/2000/svg">
<path d="M100.7 0H5.3C2.37423 0.00310547 0.00310547 2.37423 0 5.3V100.7C0.00310547 103.626 2.37423 105.997 5.3 106H100.7C103.626 105.997 105.997 103.626 106 100.7V5.3C105.997 2.37423 103.626 0.00310547 100.7 0ZM102.467 100.7C102.466 101.675 101.675 102.466 100.7 102.467H5.3C4.32488 102.465 3.53464 101.675 3.5334 100.7V17.6666H102.467V100.7H102.467ZM102.467 14.1334H3.5334V5.3C3.53464 4.32488 4.32488 3.53464 5.3 3.5334H100.7C101.675 3.53444 102.466 4.32468 102.467 5.3V14.1334Z" fill="#9851DF"/>
<path d="M7.57881 7.57901C6.89561 8.27567 6.89561 9.39115 7.57881 10.0876C8.27547 10.7708 9.39095 10.7708 10.0874 10.0876C10.7706 9.39095 10.7706 8.27567 10.0874 7.57901C9.37915 6.925 8.28706 6.925 7.57881 7.57901Z" fill="#9851DF"/>
<path d="M16.889 7.3668C16.7905 7.29972 16.6834 7.2461 16.5706 7.20717C16.4704 7.15624 16.3632 7.12084 16.2524 7.102C15.9081 7.02996 15.5499 7.0666 15.2276 7.20717C15.0137 7.29703 14.8168 7.42269 14.6452 7.579C13.962 8.27566 13.962 9.39115 14.6452 10.0876C14.8171 10.2433 15.0139 10.3687 15.2276 10.4586C15.4402 10.5493 15.6686 10.5973 15.8996 10.6C16.0178 10.5967 16.1358 10.5849 16.2524 10.5646C16.3632 10.5449 16.4704 10.5091 16.5706 10.4584C16.6832 10.4195 16.7905 10.3658 16.889 10.2988C16.977 10.2288 17.065 10.1582 17.1538 10.0874C17.2244 9.99857 17.2952 9.91059 17.3652 9.80438C17.4356 9.71432 17.4896 9.61288 17.5248 9.50418C17.5755 9.40377 17.6114 9.29653 17.6308 9.18577C17.6511 9.06921 17.6629 8.9512 17.6662 8.83299C17.6594 8.36531 17.4764 7.9175 17.1538 7.57859C17.065 7.5084 16.977 7.4376 16.889 7.3668Z" fill="#9851DF"/>
<path d="M24.5922 8.16138C24.5533 8.04896 24.4995 7.94234 24.4326 7.844C24.368 7.75125 24.2974 7.66264 24.2212 7.579C23.7159 7.0695 22.9523 6.91629 22.2894 7.19144C21.6265 7.46658 21.1961 8.11563 21.2002 8.8334C21.2031 9.54766 21.6342 10.1907 22.2938 10.4646C22.9536 10.7385 23.7132 10.5901 24.2212 10.0878C24.297 10.004 24.3676 9.91535 24.4326 9.82301C24.4997 9.72446 24.5533 9.61743 24.5922 9.5046C24.6429 9.40419 24.6788 9.29694 24.6982 9.18618C24.7185 9.06962 24.7303 8.95162 24.7336 8.8334C24.7295 8.71477 24.7177 8.59677 24.6982 8.47979C24.6788 8.36903 24.6429 8.26179 24.5922 8.16138Z" fill="#9851DF"/>
<path d="M65.367 7.06659H40.6338C39.658 7.06659 38.8672 7.85745 38.8672 8.83319C38.8672 9.80893 39.658 10.5998 40.6338 10.5998H65.3672C66.3429 10.5998 67.1338 9.80893 67.1338 8.83319C67.1338 7.85745 66.3427 7.06659 65.367 7.06659Z" fill="#9851DF"/>
<path d="M97.167 7.06659H95.4004C94.4246 7.06659 93.6338 7.85745 93.6338 8.83319C93.6338 9.80893 94.4249 10.5998 95.4004 10.5998H97.167C98.1427 10.5998 98.9336 9.80893 98.9336 8.83319C98.9336 7.85745 98.1427 7.06659 97.167 7.06659Z" fill="#9851DF"/>
<path d="M88.334 7.06659H86.5674C85.5916 7.06659 84.8008 7.85745 84.8008 8.83319C84.8008 9.80893 85.5916 10.5998 86.5674 10.5998H88.334C89.3097 10.5998 90.1006 9.80893 90.1006 8.83319C90.1006 7.85745 89.3097 7.06659 88.334 7.06659Z" fill="#9851DF"/>
<path d="M15.9001 40.6334C20.0956 40.6276 23.7102 37.6764 24.5548 33.5668H31.0685L28.7841 35.8512C28.3336 36.2965 28.1561 36.9491 28.3189 37.5612C28.4816 38.1734 28.9598 38.6517 29.572 38.8144C30.1842 38.9771 30.8368 38.7997 31.2821 38.3492L36.0645 33.5668H42.3997V37.1C42.4016 39.0506 43.9824 40.6313 45.9331 40.6334H74.2001C76.1507 40.6315 77.7314 39.0506 77.7335 37.1V33.5666H95.4001V54.7666H62.5649L64.8493 52.4822C65.3002 52.0369 65.4781 51.3841 65.3153 50.7717C65.1526 50.1593 64.6742 49.6809 64.0618 49.5181C63.4494 49.3554 62.7966 49.5332 62.3513 49.9842L57.5689 54.7666H53.0001V51.2332C52.9982 49.2825 51.4174 47.7018 49.4667 47.6998H21.2001C19.2495 47.7016 17.6688 49.2825 17.6667 51.2332V61.8332C17.6686 63.7838 19.2495 65.3645 21.2001 65.3666H33.5667V71.7017L31.2825 69.4176C30.5915 68.7352 29.4791 68.7387 28.7921 69.4254C28.1054 70.1122 28.1019 71.2245 28.7843 71.9158L33.5667 76.6982V79.5H26.5001C25.831 79.4998 25.219 79.8778 24.9198 80.4765L17.8532 94.6099C17.5795 95.1575 17.6087 95.808 17.9307 96.3289C18.2526 96.8498 18.8213 97.1668 19.4335 97.1668H44.1669C44.836 97.167 45.448 96.789 45.7472 96.1902L48.7922 90.1H73.4687L71.1843 92.3844C70.7334 92.8297 70.5555 93.4825 70.7182 94.0949C70.881 94.7073 71.3594 95.1857 71.9718 95.3484C72.5842 95.5112 73.237 95.3333 73.6823 94.8824L78.4647 90.1H81.4452C82.3522 94.5431 86.476 97.5777 90.9878 97.1219C95.4997 96.6662 98.9333 92.868 98.9333 88.3332C98.9333 83.7984 95.4995 80.0004 90.9878 79.5445C86.476 79.0888 82.3522 82.1233 81.4452 86.5664H78.4649L73.6825 81.784C72.9914 81.1016 71.8791 81.1049 71.1921 81.7918C70.5054 82.4785 70.5019 83.5909 71.1843 84.2822L73.4684 86.5666H50.5588L52.8138 82.0568C53.0877 81.5092 53.0583 80.8587 52.7363 80.3378C52.4144 79.8169 51.8457 79.5 51.2335 79.5H37.1001V76.6982L41.8825 71.9158C42.5649 71.2247 42.5616 70.1124 41.8747 69.4254C41.1877 68.7385 40.0756 68.7352 39.3843 69.4176L37.1001 71.7017V65.3666H49.4667C51.4174 65.3647 52.998 63.7838 53.0001 61.8332V58.3H57.5687L62.3511 63.0824C63.0421 63.7648 64.1545 63.7615 64.8415 63.0745C65.5282 62.3878 65.5317 61.2754 64.8493 60.5842L62.5649 58.3H97.1667C97.6352 58.3002 98.0847 58.1141 98.4161 57.7826C98.7474 57.4514 98.9335 57.0019 98.9335 56.5332V31.8C98.9337 31.3315 98.7476 30.882 98.4161 30.5505C98.0849 30.2193 97.6354 30.0332 97.1667 30.0332H77.7333V26.5C77.7314 24.5493 76.1505 22.9686 74.1999 22.9666H45.9335C43.9829 22.9684 42.4022 24.5493 42.4001 26.5V30.0334H36.0649L31.2825 25.251C30.5915 24.5686 29.4791 24.5719 28.7921 25.2588C28.1054 25.9456 28.1019 27.0579 28.7843 27.7492L31.0685 30.0336H24.5548C23.6251 25.4789 19.3244 22.4242 14.7178 23.0465C10.1111 23.6686 6.77479 27.7548 7.08658 32.3929C7.39837 37.031 11.2516 40.6334 15.9001 40.6334ZM90.1001 83.0334C93.0271 83.0334 95.4001 85.4062 95.4001 88.3334C95.4001 91.2606 93.0271 93.6334 90.1001 93.6334C87.1731 93.6334 84.8001 91.2606 84.8001 88.3334C84.8032 85.4076 87.1743 83.0365 90.1001 83.0334ZM48.3746 83.0334L43.0746 93.6334H22.2922L27.5922 83.0334H48.3746ZM21.2001 61.8334V51.2334H49.4667L49.4679 56.527L49.4667 56.5334L49.4679 56.5398L49.4692 61.8334H21.2001ZM45.9335 26.5H74.2001L74.2013 31.7936L74.2001 31.8L74.2013 31.8064L74.2026 37.1H45.9335V26.5ZM15.9001 26.5C18.8271 26.5 21.2001 28.8728 21.2001 31.8C21.2001 34.727 18.8271 37.1 15.9001 37.1C12.9731 37.1 10.6001 34.7272 10.6001 31.8C10.6032 28.8742 12.9743 26.5031 15.9001 26.5Z" fill="#9851DF"/>
</svg>
