<svg width="122" height="122" viewBox="0 0 122 122" fill="none" xmlns="http://www.w3.org/2000/svg">
<path d="M99.6335 0H22.3669C16.7549 0.00660833 12.2068 4.55467 12.2002 10.1667V65.0667C12.2068 70.6787 16.7549 75.2267 22.3669 75.2333H50.1707L47.2671 85.4H40.6669V89.4667H81.3335V85.4H74.7333L71.8297 75.2333H99.6335C105.246 75.2267 109.794 70.6787 109.8 65.0667V10.1667C109.794 4.55467 105.246 0.00660833 99.6335 0ZM51.4964 85.4L54.4 75.2333H67.6004L70.504 85.4H51.4964ZM105.734 65.0667C105.734 68.4356 103.003 71.1667 99.6335 71.1667H22.3669C18.9979 71.1667 16.2669 68.4356 16.2669 65.0667V61H105.734V65.0667ZM105.734 56.9333H16.2669V10.1667C16.2669 6.79769 18.9979 4.06667 22.3669 4.06667H99.6335C103.003 4.06667 105.734 6.79769 105.734 10.1667V56.9333Z" fill="#9851DF"/>
<path d="M77.2665 93.5333H20.3331C19.2102 93.5333 18.2998 94.4438 18.2998 95.5667V119.967C18.2998 121.09 19.2102 122 20.3331 122H77.2665C78.3894 122 79.2998 121.09 79.2998 119.967V95.5667C79.2998 94.4438 78.3894 93.5333 77.2665 93.5333ZM75.2331 117.933H22.3665V97.6H75.2331V117.933Z" fill="#9851DF"/>
<path d="M30.4998 109.8H26.4331V113.867H30.4998V109.8Z" fill="#9851DF"/>
<path d="M30.4998 101.667H26.4331V105.733H30.4998V101.667Z" fill="#9851DF"/>
<path d="M38.6336 101.667H34.5669V105.733H38.6336V101.667Z" fill="#9851DF"/>
<path d="M46.7669 101.667H42.7002V105.733H46.7669V101.667Z" fill="#9851DF"/>
<path d="M63.0335 101.667H58.9668V105.733H63.0335V101.667Z" fill="#9851DF"/>
<path d="M54.8997 101.667H50.833V105.733H54.8997V101.667Z" fill="#9851DF"/>
<path d="M71.1668 109.8H67.1001V113.867H71.1668V109.8Z" fill="#9851DF"/>
<path d="M71.1668 101.667H67.1001V105.733H71.1668V101.667Z" fill="#9851DF"/>
<path d="M63.0336 109.8H34.5669V113.867H63.0336V109.8Z" fill="#9851DF"/>
<path d="M93.5334 93.5333C87.9186 93.5333 83.3667 98.0852 83.3667 103.7V111.833C83.3667 117.448 87.9186 122 93.5334 122C99.1482 122 103.7 117.448 103.7 111.833V103.7C103.7 98.0852 99.1482 93.5333 93.5334 93.5333ZM99.6334 111.833C99.6334 115.202 96.9023 117.933 93.5334 117.933C90.1644 117.933 87.4334 115.202 87.4334 111.833V103.7C87.4334 100.331 90.1644 97.6 93.5334 97.6C96.9023 97.6 99.6334 100.331 99.6334 103.7V111.833Z" fill="#9851DF"/>
<path d="M95.5667 101.667H91.5V105.733H95.5667V101.667Z" fill="#9851DF"/>
<path d="M63.1028 17.7837L54.9619 46.234L58.8699 47.3523L67.0108 18.9019L63.1028 17.7837Z" fill="#9851DF"/>
<path d="M50.1006 23.9283L47.498 20.8051L35.298 30.9717C34.4356 31.691 34.3194 32.973 35.0387 33.8357C35.1173 33.9297 35.2039 34.0166 35.298 34.0949L47.498 44.2616L50.1006 41.1384L39.7754 32.5333L50.1006 23.9283Z" fill="#9851DF"/>
<path d="M86.9608 31.231C86.8823 31.1369 86.7956 31.05 86.7016 30.9717L74.5016 20.8051L71.8989 23.9283L82.2242 32.5333L71.8989 41.1384L74.5016 44.2616L86.7016 34.0949C87.564 33.3756 87.6801 32.0936 86.9608 31.231Z" fill="#9851DF"/>
</svg>
