<svg width="150" height="150" viewBox="0 0 150 150" fill="none" xmlns="http://www.w3.org/2000/svg">
<g filter="url(#filter0_i)">
<circle cx="75" cy="75" r="75" fill="#9851DF"/>
</g>
<path d="M113.375 36H38.625C37.7268 36 37 36.7268 37 37.625V63.625C37 64.5231 37.7268 65.2499 38.625 65.2499H46.75V83.1248C46.75 84.023 47.4768 84.7498 48.375 84.7498C49.2732 84.7498 50.0001 84.023 50.0001 83.1248V74.9998H74.375C75.2732 74.9998 76 74.273 76 73.3748C76 72.4766 75.2732 71.7498 74.375 71.7498H50.0001V65.2499H58.125C59.0232 65.2499 59.75 64.5231 59.75 63.6248V57.1248C59.75 56.2266 59.0232 55.4998 58.125 55.4998C57.2268 55.4998 56.4999 56.2266 56.4999 57.1248V61.9998H40.2499V39.2499H92.2497V44.1249C92.2497 45.0231 92.9765 45.75 93.8747 45.75C94.7729 45.75 95.4998 45.0231 95.4998 44.1249V39.2499H111.75V102.625C111.75 103.523 112.477 104.25 113.375 104.25C114.273 104.25 115 103.523 115 102.625V37.625C115 36.7268 114.273 36 113.375 36Z" fill="white"/>
<path d="M113.375 110.75H105.25V92.8748C105.25 91.9766 104.523 91.2497 103.625 91.2497H95.4999V74.9999H102V83.1248C102 84.023 102.727 84.7498 103.625 84.7498C104.523 84.7498 105.25 84.023 105.25 83.1248V47.375C105.25 46.4768 104.523 45.75 103.625 45.75C102.727 45.75 102 46.4768 102 47.375V52.25H87.3749C86.4766 52.25 85.7498 52.9769 85.7498 53.8751C85.7498 54.7733 86.4766 55.5001 87.3749 55.5001H102V71.7501H93.8749C92.9767 71.7501 92.2498 72.4769 92.2498 73.3751V92.8751C92.2498 93.7733 92.9767 94.5001 93.8749 94.5001H102V110.75H40.2501V94.4998H58.125C59.0232 94.4998 59.75 93.773 59.75 92.8748V84.7498H66.25V101H51.6251C50.7269 101 50.0001 101.727 50.0001 102.625C50.0001 103.523 50.7269 104.25 51.6251 104.25H74.375C75.2732 104.25 76 103.523 76 102.625C76 101.727 75.2732 101 74.375 101H69.5V83.1248C69.5 82.2266 68.7731 81.4998 67.8749 81.4998H58.125C57.2268 81.4998 56.4999 82.2266 56.4999 83.1248V91.2497H40.2501V73.3748C40.2501 72.4766 39.5233 71.7498 38.625 71.7498C37.727 71.7499 37.0002 72.4768 37.0002 73.3748V112.375C37.0002 113.273 37.727 114 38.6252 114H113.375C114.273 114 115 113.273 115 112.375C115 111.477 114.273 110.75 113.375 110.75Z" fill="white"/>
<path d="M77.6251 91.2499C76.7268 91.2499 76 91.9767 76 92.8749C76 93.7731 76.7268 94.5 77.6251 94.5H82.5V102.625C82.5 103.523 83.2269 104.25 84.1251 104.25H93.875C94.7733 104.25 95.5001 103.523 95.5001 102.625C95.5001 101.727 94.7733 101 93.875 101H85.75V65.2499H93.8749C94.7731 65.2499 95.4999 64.5231 95.4999 63.6249C95.4999 62.7267 94.7731 61.9998 93.8749 61.9998H69.5V48.9999H74.375C75.2732 48.9999 76 48.2731 76 47.3749C76 46.4768 75.2732 45.75 74.375 45.75H48.3752C47.477 45.75 46.7501 46.4768 46.7501 47.375V53.8751C46.7501 54.7731 47.477 55.5 48.3752 55.5C49.2734 55.5 50.0002 54.7731 50.0002 53.8749V48.9999H66.25V63.6249C66.25 64.5231 66.9769 65.2499 67.8751 65.2499H82.5V91.2499H77.6251Z" fill="white"/>
<defs>
<filter id="filter0_i" x="0" y="0" width="150" height="156" filterUnits="userSpaceOnUse" color-interpolation-filters="sRGB">
<feFlood flood-opacity="0" result="BackgroundImageFix"/>
<feBlend mode="normal" in="SourceGraphic" in2="BackgroundImageFix" result="shape"/>
<feColorMatrix in="SourceAlpha" type="matrix" values="0 0 0 0 0 0 0 0 0 0 0 0 0 0 0 0 0 0 127 0" result="hardAlpha"/>
<feOffset dy="6"/>
<feGaussianBlur stdDeviation="3"/>
<feComposite in2="hardAlpha" operator="arithmetic" k2="-1" k3="1"/>
<feColorMatrix type="matrix" values="0 0 0 0 0 0 0 0 0 0 0 0 0 0 0 0 0 0 0.2 0"/>
<feBlend mode="normal" in2="shape" result="effect1_innerShadow"/>
</filter>
</defs>
</svg>
