<svg width="100" height="100" viewBox="0 0 100 100" fill="none" xmlns="http://www.w3.org/2000/svg">
<path d="M42.16 17.9129L39.246 16.6277C39.1139 16.1384 38.9705 15.6753 38.8106 15.2286L40.4299 12.4402C40.725 11.9303 40.73 11.3028 40.443 10.7883C39.6453 9.36416 38.6926 8.03247 37.6025 6.81746C37.1984 6.36223 36.5774 6.16519 35.9848 6.30378L32.9192 7.00511C32.5621 6.71978 32.1893 6.44467 31.8006 6.18001L31.5038 2.9349C31.4487 2.3419 31.0822 1.82321 30.5418 1.57337C29.0805 0.888944 27.5459 0.373593 25.9677 0.0373313C25.3724 -0.089367 24.7556 0.11957 24.3599 0.581904L22.2204 3.06557H20.9355L18.7956 0.581696C18.4003 0.118944 17.7831 -0.0902019 17.1878 0.0371226C15.6096 0.373593 14.075 0.888944 12.6137 1.57316C12.0727 1.82342 11.7061 2.34295 11.6516 2.93636L11.3548 6.1798C10.9683 6.44405 10.5934 6.71957 10.2363 7.0049L7.17025 6.30378C6.57766 6.16477 5.95649 6.36202 5.5526 6.81746C4.4622 8.03226 3.50956 9.36395 2.71201 10.7883C2.42501 11.3028 2.43002 11.9303 2.72516 12.4402L4.34448 15.2286C4.18459 15.6755 4.04119 16.1384 3.90907 16.6277L0.994801 17.9126C0.389905 18.18 -0.000208394 18.7791 3.34706e-07 19.4405V23.977C-0.000417123 24.6385 0.389697 25.2376 0.994801 25.5049L3.90886 26.7901C4.04099 27.2793 4.18438 27.7425 4.34427 28.1892L2.72495 30.9776C2.42981 31.4875 2.4248 32.115 2.7118 32.6295C3.50956 34.0536 4.4622 35.3853 5.55239 36.6003C5.95711 37.0545 6.57746 37.2516 7.17004 37.114L10.2356 36.4127C10.5928 36.698 10.9656 36.9731 11.3542 37.2378L11.651 40.4829C11.7061 41.0759 12.0727 41.5946 12.6131 41.8444C14.0744 42.5288 15.6089 43.0442 17.1871 43.3805C17.7824 43.5063 18.3988 43.2976 18.795 42.8359L20.9344 40.3524H22.2194L24.3588 42.8359C24.6759 43.2047 25.138 43.4168 25.6244 43.4164C25.7394 43.4166 25.8542 43.4045 25.9669 43.3805C27.5451 43.044 29.0797 42.5286 30.541 41.8444C31.082 41.5942 31.4485 41.0746 31.503 40.4812L31.7998 37.2378C32.1864 36.9735 32.5612 36.698 32.9184 36.4127L35.9842 37.1138C36.5768 37.252 37.1975 37.0547 37.6018 36.6001C38.6922 35.3853 39.6449 34.0536 40.4424 32.6293C40.7294 32.1147 40.7244 31.4873 40.4293 30.9774L38.81 28.189C38.9698 27.7421 39.1132 27.2791 39.2454 26.7899L42.1594 25.5049C42.7643 25.2376 43.1544 24.6385 43.1542 23.977V19.4407C43.1551 18.7793 42.7649 18.18 42.16 17.9129ZM39.8154 22.8896L37.1493 24.0653C36.6678 24.2787 36.3148 24.7065 36.1969 25.2198C36.0096 26.0658 35.751 26.8944 35.424 27.6968C35.2248 28.1777 35.2609 28.7237 35.5218 29.1742L37.0497 31.8077C36.6509 32.4412 36.2146 33.0505 35.7435 33.6324L32.8572 32.972C32.3325 32.8488 31.7808 32.9887 31.3782 33.3471C30.7388 33.9084 30.0538 34.4151 29.3299 34.862C28.8845 35.138 28.5946 35.6072 28.5472 36.129L28.2667 39.1932C27.6002 39.4637 26.9185 39.6951 26.2251 39.8861L24.2503 37.5935C23.933 37.2251 23.4711 37.0132 22.9848 37.013H20.1701C19.6839 37.0132 19.222 37.2251 18.9045 37.5935L16.9298 39.8861C16.2357 39.6951 15.5536 39.4637 14.8865 39.1932L14.606 36.1259C14.5576 35.6049 14.2679 35.1365 13.8233 34.8606C13.0996 34.4149 12.415 33.9086 11.7767 33.3473C11.374 32.9891 10.8224 32.8493 10.2976 32.9722L7.41133 33.6326C6.94023 33.0507 6.50419 32.4414 6.1051 31.8079L7.633 29.1744C7.8937 28.724 7.93002 28.1779 7.73089 27.697C7.40381 26.8947 7.1452 26.066 6.95797 25.22C6.84004 24.7068 6.48729 24.2789 6.00554 24.0655L3.33945 22.8898V20.5284L6.00575 19.3527C6.48729 19.1393 6.84025 18.7114 6.95818 18.1982C7.14541 17.3522 7.40402 16.5236 7.7311 15.7212C7.93023 15.2403 7.89412 14.6943 7.63321 14.2438L6.10531 11.6103C6.50419 10.9768 6.94023 10.3675 7.41133 9.78558L10.2976 10.446C10.8224 10.5681 11.3736 10.4283 11.7767 10.0709C12.416 9.50965 13.1011 9.00285 13.8249 8.55596C14.2704 8.28003 14.5603 7.8108 14.6077 7.28898L14.8882 4.22484C15.5547 3.95433 16.2364 3.72285 16.9298 3.53187L18.9045 5.82454C19.2218 6.19295 19.6837 6.40481 20.1701 6.40502H22.9846C23.4707 6.40481 23.9326 6.19274 24.2501 5.82454L26.2249 3.53187C26.9189 3.72285 27.601 3.95433 28.2681 4.22484L28.5486 7.29211C28.5971 7.8131 28.8868 8.28149 29.3314 8.55743C30.055 9.00306 30.7397 9.50944 31.378 10.0707C31.7808 10.4283 32.3323 10.5681 32.857 10.4458L35.7433 9.78538C36.2144 10.3673 36.6507 10.9766 37.0495 11.6101L35.5216 14.2436C35.2609 14.694 35.2246 15.2401 35.4237 15.721C35.7508 16.5233 36.0094 17.352 36.1967 18.198C36.3146 18.7112 36.6674 19.1391 37.1491 19.3525L39.8152 20.5282L39.8154 22.8896Z" fill="url(#paint0_linear)"/>
<path d="M21.5775 10.0202C15.122 10.0202 9.88875 15.2534 9.88875 21.709C9.89647 28.1612 15.1253 33.3901 21.5775 33.3978C28.0331 33.3978 33.2663 28.1646 33.2663 21.709C33.2663 15.2534 28.0331 10.0202 21.5775 10.0202ZM21.5775 30.0581C16.9665 30.0581 13.2284 26.32 13.2284 21.709C13.2338 17.1001 16.9686 13.3653 21.5775 13.3599C26.1886 13.3599 29.9267 17.098 29.9267 21.709C29.9267 26.32 26.1886 30.0581 21.5775 30.0581Z" fill="url(#paint1_linear)"/>
<path d="M98.9554 14.9514L96.6496 13.9339C96.5599 13.6109 96.4622 13.3012 96.3578 12.9994L97.6427 10.785C97.9379 10.2744 97.9429 9.64657 97.6559 9.13143C96.9798 7.92769 96.1739 6.80181 95.2522 5.77382C94.8483 5.31942 94.2284 5.12217 93.6362 5.26014L91.2097 5.81452C90.9716 5.62854 90.7269 5.4482 90.4758 5.27308L90.241 2.69987C90.1872 2.10625 89.8204 1.58631 89.279 1.33667C88.0412 0.758488 86.7421 0.322454 85.406 0.0369135C84.8107 -0.0902022 84.1935 0.118735 83.7982 0.581486L82.0989 2.5546H81.2836L79.5844 0.581486C79.1893 0.118318 78.5718 -0.0908284 77.9765 0.0369135C76.6407 0.322454 75.3414 0.758279 74.1036 1.33667C73.5621 1.58631 73.1954 2.10625 73.1416 2.69987L72.9067 5.27308C72.6556 5.44758 72.411 5.62813 72.1729 5.81452L69.7464 5.26014C69.1542 5.123 68.5347 5.32004 68.1304 5.77382C67.2085 6.8016 66.403 7.92832 65.7284 9.1331C65.4414 9.64761 65.4462 10.275 65.7413 10.785L67.0248 12.9977C66.9204 13.2993 66.8231 13.6114 66.733 13.9336L64.4271 14.9514C63.8214 15.2179 63.4305 15.8174 63.4309 16.4793V20.2592C63.4305 20.921 63.8214 21.5205 64.4271 21.7871L66.733 22.8046C66.8227 23.1275 66.9204 23.4373 67.0248 23.7391L65.7398 25.9537C65.4447 26.4642 65.4397 27.0921 65.7267 27.6072C66.4025 28.811 67.2087 29.9369 68.1304 30.9649C68.5347 31.4195 69.1555 31.6167 69.748 31.4785L72.1712 30.9225C72.4093 31.1099 72.6554 31.2911 72.9065 31.4656L73.1413 34.0388C73.1952 34.6326 73.5621 35.1524 74.1034 35.402C75.3411 35.9802 76.6403 36.4162 77.9763 36.7018C78.5716 36.8278 79.1882 36.6191 79.5842 36.1572L81.2834 34.1841H82.0987L83.798 36.1572C84.1151 36.526 84.5772 36.7381 85.0635 36.7377C85.1785 36.7379 85.2933 36.7258 85.406 36.7018C86.7421 36.4162 88.0412 35.9804 89.279 35.402C89.8204 35.1524 90.1872 34.6324 90.241 34.0388L90.4758 31.4656C90.7269 31.2911 90.9716 31.1105 91.2097 30.9242L93.6362 31.4785C94.2284 31.6159 94.8481 31.4188 95.2522 30.9649C96.1737 29.9371 96.9798 28.811 97.6559 27.6072C97.9429 27.0921 97.9379 26.4642 97.6427 25.9537L96.3578 23.7393C96.4622 23.4377 96.5601 23.1277 96.6496 22.8048L98.9554 21.7873C99.5612 21.5207 99.9521 20.9212 99.9517 20.2594V16.4793C99.9521 15.8174 99.5612 15.2179 98.9554 14.9514ZM96.612 19.1717L94.5556 20.0784C94.0718 20.2911 93.7178 20.7207 93.6018 21.2362C93.4492 21.9242 93.2386 22.5978 92.9722 23.25C92.7731 23.7314 92.8092 24.278 93.0701 24.7291L94.2588 26.7773C93.9898 27.1948 93.6994 27.6014 93.388 27.9971L91.1507 27.4851C90.627 27.3626 90.0765 27.5025 89.6749 27.8602C89.1548 28.3165 88.5975 28.7283 88.0085 29.0913C87.5618 29.3672 87.2706 29.8371 87.2224 30.36L87.0055 32.7441C86.5572 32.9202 86.1069 33.0734 85.6586 33.2008L84.129 31.4249C83.8118 31.0565 83.3498 30.8446 82.8637 30.8444H80.5189C80.0327 30.8446 79.5708 31.0567 79.2535 31.4249L77.724 33.2008C77.2756 33.0736 76.8254 32.9202 76.3771 32.7441L76.1602 30.36C76.112 29.8371 75.821 29.3672 75.3741 29.0913C74.7853 28.7287 74.2284 28.3167 73.7091 27.8602C73.3048 27.505 72.755 27.3649 72.23 27.4835L69.9943 27.9955C69.6829 27.6024 69.3926 27.1948 69.1235 26.7773L70.3122 24.7291C70.5729 24.278 70.6093 23.7314 70.4101 23.25C70.1438 22.5978 69.9332 21.924 69.7806 21.2362C69.6643 20.7207 69.3103 20.2911 68.8267 20.0784L66.7703 19.1717V17.5672L68.8267 16.6605C69.3106 16.4478 69.6646 16.0182 69.7806 15.5027C69.9334 14.8139 70.144 14.139 70.4101 13.4855C70.6093 13.0046 70.5732 12.4586 70.3122 12.0081L69.125 9.95987C69.3924 9.54408 69.6827 9.13644 69.9941 8.74173L72.2315 9.25374C72.7552 9.3748 73.305 9.23516 73.7072 8.87866C74.2274 8.42237 74.7847 8.01055 75.3737 7.64757C75.8204 7.37164 76.1115 6.90179 76.1598 6.37892L76.3766 3.99482C76.825 3.81866 77.2752 3.66545 77.7236 3.53813L79.2531 5.31399C79.5704 5.68239 80.0323 5.89425 80.5186 5.89446H82.8635C83.3496 5.89425 83.8118 5.68239 84.129 5.31399L85.6586 3.53813C86.1069 3.66524 86.5572 3.81866 87.0055 3.99482L87.2224 6.37892C87.2706 6.90179 87.5616 7.37164 88.0085 7.64757C88.5975 8.01055 89.1548 8.42237 89.6749 8.87866C90.077 9.23558 90.6272 9.37543 91.1507 9.25374L93.388 8.74173C93.6994 9.13644 93.9898 9.54283 94.2588 9.96154L93.0701 12.0098C92.8094 12.4609 92.7731 13.0075 92.9722 13.4888C93.2386 14.1411 93.4492 14.8149 93.6018 15.5027C93.718 16.0182 94.072 16.4478 94.5556 16.6605L96.612 17.5672V19.1717Z" fill="url(#paint2_linear)"/>
<path d="M81.6914 10.0202C77.0804 10.0202 73.3422 13.7583 73.3422 18.3693C73.3477 22.9783 77.0825 26.7131 81.6914 26.7185C86.3024 26.7185 90.0405 22.9804 90.0405 18.3693C90.0405 13.7583 86.3024 10.0202 81.6914 10.0202ZM81.6914 23.3788C78.9247 23.3788 76.6819 21.136 76.6819 18.3693C76.6848 15.6039 78.9259 13.3628 81.6914 13.3599C84.4581 13.3599 86.7009 15.6026 86.7009 18.3693C86.7009 21.136 84.4579 23.3788 81.6914 23.3788Z" fill="url(#paint3_linear)"/>
<path d="M98.5428 70.6623L96.1228 70.1534C96.0232 69.7343 95.9107 69.3152 95.7853 68.8994L97.6411 67.236C98.174 66.7591 98.3439 65.9958 98.0633 65.3379C97.2579 63.4685 96.2278 61.7043 94.9961 60.0837C94.5648 59.5139 93.8199 59.2801 93.1403 59.5016L90.8067 60.2681C90.5099 59.9533 90.2018 59.6452 89.887 59.3484L90.6535 57.0165C90.8766 56.3379 90.6432 55.5925 90.073 55.1623C88.4526 53.9285 86.6878 52.8972 84.8172 52.0917C84.1591 51.8141 83.3974 51.9836 82.919 52.514L81.2557 54.3713C80.8399 54.2441 80.4208 54.1316 80.0016 54.0321L79.4928 51.6121C79.3299 50.8396 78.6484 50.2864 77.8588 50.2862H72.1647C71.3751 50.2864 70.6936 50.8394 70.5308 51.6121L70.0219 54.0321C69.6028 54.1316 69.1836 54.2441 68.7679 54.3696L67.1045 52.5138C66.6263 51.9832 65.8644 51.8137 65.2063 52.0915C63.3369 52.897 61.5728 53.9271 59.9522 55.1588C59.3809 55.589 59.1469 56.335 59.3701 57.0146L60.1365 59.3482C59.8217 59.645 59.5137 59.9531 59.2168 60.2678L56.8849 59.5014C56.2063 59.2816 55.4629 59.5143 55.0308 60.0819C53.797 61.7022 52.7657 63.467 51.9602 65.3376C51.6796 65.9956 51.8496 66.7589 52.3824 67.2358L54.2397 68.8992C54.1126 69.315 54.0001 69.7341 53.9005 70.1532L51.4805 70.6621C50.708 70.8249 50.1549 71.5064 50.1547 72.296V77.9904C50.1549 78.78 50.7078 79.4615 51.4805 79.6243L53.9005 80.1332C54.0001 80.5523 54.1126 80.9714 54.238 81.3872L52.3822 83.0506C51.8493 83.5275 51.6794 84.2908 51.96 84.9487C52.7655 86.8181 53.7955 88.5823 55.0272 90.2029C55.4585 90.7727 56.2034 91.0064 56.883 90.785L59.2166 90.0185C59.5134 90.3333 59.8215 90.6414 60.1363 90.9382L59.3698 93.2701C59.1467 93.9487 59.3801 94.6941 59.9503 95.1243C61.5707 96.358 63.3355 97.3894 65.2061 98.1949C65.8638 98.4768 66.6282 98.3067 67.1043 97.7726L68.7676 95.9153C69.1834 96.0424 69.6026 96.155 70.0217 96.2545L70.5306 98.6745C70.6934 99.447 71.3749 100 72.1645 100H77.8588C78.6484 100 79.3299 99.4472 79.4928 98.6745L80.0016 96.2545C80.4208 96.155 80.8399 96.0424 81.2557 95.917L82.919 97.7728C83.3951 98.3069 84.1595 98.4769 84.8172 98.1951C86.6866 97.3896 88.4508 96.3595 90.0713 95.1278C90.6426 94.6976 90.8766 93.9514 90.6535 93.272L89.887 90.9384C90.2018 90.6416 90.5099 90.3335 90.8067 90.0188L93.1386 90.7852C93.8172 91.0067 94.5615 90.7735 94.9927 90.2047C96.2265 88.5844 97.2579 86.8196 98.0633 84.9489C98.3439 84.291 98.174 83.5277 97.6411 83.0508L95.7838 81.3874C95.9109 80.9716 96.0234 80.5525 96.123 80.1334L98.543 79.6245C99.3155 79.4617 99.8686 78.7802 99.8688 77.9906V72.2962C99.8684 71.5068 99.3155 70.8251 98.5428 70.6623ZM96.5288 76.6355L94.3682 77.0905C93.7032 77.2304 93.1893 77.7591 93.0685 78.4276C92.8881 79.4181 92.6257 80.3916 92.2841 81.3386C92.054 81.9785 92.2354 82.6938 92.7422 83.147L94.4937 84.7158C94.058 85.5858 93.565 86.4259 93.018 87.2303L90.8117 86.5046C90.1653 86.2936 89.4554 86.494 89.0147 87.0118C88.3631 87.7822 87.6486 88.4973 86.8786 89.1496C86.3612 89.59 86.1614 90.2995 86.3731 90.9451L87.0988 93.1497C86.2944 93.6972 85.4545 94.1902 84.5843 94.6254L83.014 92.874C82.5592 92.3686 81.8443 92.1877 81.2039 92.4158C80.2584 92.7581 79.2857 93.0205 78.2963 93.2002C77.6278 93.3211 77.0988 93.8349 76.9592 94.4999L76.5042 96.6607H73.52L73.0649 94.4999C72.9251 93.8349 72.3964 93.3211 71.7278 93.2002C70.7374 93.0199 69.7639 92.7575 68.8169 92.4158C68.1769 92.1895 67.4637 92.3703 67.0087 92.874L65.4399 94.6254C64.5699 94.1898 63.7298 93.6968 62.9253 93.1497L63.6511 90.9434C63.8631 90.297 63.6626 89.5865 63.1439 89.1465C62.3734 88.4948 61.6583 87.7803 61.0061 87.0103C60.565 86.4939 59.8564 86.2944 59.2106 86.5048L57.0058 87.2306C56.4583 86.4261 55.9653 85.5862 55.5301 84.716L57.2815 83.1457C57.7885 82.692 57.9697 81.976 57.7397 81.3356C57.3974 80.3901 57.135 79.4174 56.9553 78.4281C56.8344 77.7595 56.3205 77.2306 55.6555 77.0909L53.4948 76.6359V73.6517L55.6555 73.1967C56.3205 73.0568 56.8344 72.5281 56.9553 71.8596C57.1356 70.8692 57.398 69.8956 57.7397 68.9486C57.9697 68.3087 57.7883 67.5934 57.2815 67.1402L55.5301 65.5716C55.9657 64.7017 56.4587 63.8615 57.0058 63.0571L59.212 63.7828C59.8585 63.9939 60.5684 63.7935 61.009 63.2756C61.6606 62.5052 62.3751 61.7901 63.1451 61.1378C63.6626 60.6974 63.8623 59.9879 63.6507 59.3423L62.9249 57.1377C63.7294 56.5902 64.5693 56.0972 65.4395 55.662L67.0097 57.4135C67.4641 57.9194 68.1794 58.1004 68.8198 57.8716C69.7654 57.5293 70.738 57.2669 71.7274 57.0872C72.396 56.9664 72.9249 56.4525 73.0645 55.7875L73.5196 53.6267H76.5038L76.9588 55.7875C77.0986 56.4525 77.6273 56.9664 78.2959 57.0872C79.2863 57.2676 80.2598 57.5299 81.2066 57.8716C81.8466 58.1008 82.5615 57.9196 83.015 57.4135L84.5838 55.662C85.4538 56.0976 86.294 56.5907 87.0984 57.1377L86.3727 59.344C86.1606 59.9904 86.3612 60.701 86.8799 61.141C87.6503 61.7926 88.3654 62.5071 89.0177 63.2771C89.4595 63.7918 90.1673 63.9911 90.8131 63.7826L93.0177 63.0569C93.5652 63.8613 94.0583 64.7012 94.4935 65.5714L92.742 67.1417C92.235 67.5955 92.0538 68.3114 92.2839 68.9518C92.6262 69.8973 92.8885 70.87 93.0683 71.8594C93.1891 72.5279 93.703 73.0568 94.368 73.1965L96.5288 73.6515V76.6355Z" fill="url(#paint4_linear)"/>
<path d="M75.0121 60.1151C66.7122 60.1151 59.9836 66.8434 59.9836 75.1435C59.9836 83.4434 66.7122 90.172 75.0121 90.172C83.3084 90.163 90.0316 83.4399 90.0405 75.1435C90.0405 66.8434 83.312 60.1151 75.0121 60.1151ZM75.0121 86.8323C68.5599 86.8246 63.331 81.5957 63.3233 75.1435C63.3233 68.688 68.5565 63.4547 75.0121 63.4547C81.4676 63.4547 86.7009 68.688 86.7009 75.1435C86.7009 81.5991 81.4676 86.8323 75.0121 86.8323Z" fill="url(#paint5_linear)"/>
<path d="M59.9836 18.3693H46.625V21.709H59.9836V18.3693Z" fill="url(#paint6_linear)"/>
<path d="M46.4906 72.8174C46.3217 72.4225 46.0071 72.108 45.6122 71.9391L33.9234 66.9296C33.0766 66.566 32.0954 66.9578 31.7318 67.8046C31.6424 68.0129 31.5963 68.2373 31.5965 68.464V71.8036H11.5586V45.0864H8.21892V73.4735C8.21829 74.3952 8.96512 75.1427 9.88687 75.1433C9.8875 75.1433 9.88812 75.1433 9.88875 75.1433H31.5965V78.483C31.5959 79.4045 32.3425 80.1522 33.2641 80.1528C33.2649 80.1528 33.2655 80.1528 33.2664 80.1528C33.4924 80.1532 33.7162 80.1073 33.9234 80.0175L45.6122 75.008C46.4597 74.6459 46.8529 73.6649 46.4906 72.8174ZM34.9362 75.9507V70.9967L40.7155 73.4737L34.9362 75.9507Z" fill="url(#paint7_linear)"/>
<path d="M80.4079 69.0643L73.2295 77.6792L69.5131 73.963L67.152 76.3241L72.1615 81.3336C72.4741 81.6473 72.8991 81.8233 73.342 81.8228C73.3665 81.8228 73.3925 81.8228 73.417 81.8212C73.886 81.8001 74.3243 81.583 74.6253 81.2227L82.9744 71.2038L80.4079 69.0643Z" fill="url(#paint8_linear)"/>
<defs>
<linearGradient id="paint0_linear" x1="91.2059" y1="3.38816e-06" x2="11.2" y2="92.4618" gradientUnits="userSpaceOnUse">
<stop stop-color="#54D6BF"/>
<stop offset="1" stop-color="#9851DF"/>
</linearGradient>
<linearGradient id="paint1_linear" x1="91.2059" y1="3.38816e-06" x2="11.2" y2="92.4618" gradientUnits="userSpaceOnUse">
<stop stop-color="#54D6BF"/>
<stop offset="1" stop-color="#9851DF"/>
</linearGradient>
<linearGradient id="paint2_linear" x1="91.2059" y1="3.38816e-06" x2="11.2" y2="92.4618" gradientUnits="userSpaceOnUse">
<stop stop-color="#54D6BF"/>
<stop offset="1" stop-color="#9851DF"/>
</linearGradient>
<linearGradient id="paint3_linear" x1="91.2059" y1="3.38816e-06" x2="11.2" y2="92.4618" gradientUnits="userSpaceOnUse">
<stop stop-color="#54D6BF"/>
<stop offset="1" stop-color="#9851DF"/>
</linearGradient>
<linearGradient id="paint4_linear" x1="91.2059" y1="3.38816e-06" x2="11.2" y2="92.4618" gradientUnits="userSpaceOnUse">
<stop stop-color="#54D6BF"/>
<stop offset="1" stop-color="#9851DF"/>
</linearGradient>
<linearGradient id="paint5_linear" x1="91.2059" y1="3.38816e-06" x2="11.2" y2="92.4618" gradientUnits="userSpaceOnUse">
<stop stop-color="#54D6BF"/>
<stop offset="1" stop-color="#9851DF"/>
</linearGradient>
<linearGradient id="paint6_linear" x1="91.2059" y1="3.38816e-06" x2="11.2" y2="92.4618" gradientUnits="userSpaceOnUse">
<stop stop-color="#54D6BF"/>
<stop offset="1" stop-color="#9851DF"/>
</linearGradient>
<linearGradient id="paint7_linear" x1="91.2059" y1="3.38816e-06" x2="11.2" y2="92.4618" gradientUnits="userSpaceOnUse">
<stop stop-color="#54D6BF"/>
<stop offset="1" stop-color="#9851DF"/>
</linearGradient>
<linearGradient id="paint8_linear" x1="91.2059" y1="3.38816e-06" x2="11.2" y2="92.4618" gradientUnits="userSpaceOnUse">
<stop stop-color="#54D6BF"/>
<stop offset="1" stop-color="#9851DF"/>
</linearGradient>
</defs>
</svg>
