<svg width="27" height="27" viewBox="0 0 27 27" fill="none" xmlns="http://www.w3.org/2000/svg">
<path d="M18.668 3.16406C18.668 1.4193 17.2487 0 15.5039 0H3.16406C1.4193 0 0 1.4193 0 3.16406V15.5039C0 17.2487 1.4193 18.668 3.16406 18.668H8.22656V20.7773H10.3359V18.668H15.5039C17.2487 18.668 18.668 17.2487 18.668 15.5039V10.4414H20.7246V8.33203H18.668V3.16406ZM16.5586 15.5039C16.5586 16.0854 16.0854 16.5586 15.5039 16.5586H3.16406C2.58254 16.5586 2.10938 16.0854 2.10938 15.5039V3.16406C2.10938 2.58254 2.58254 2.10938 3.16406 2.10938H15.5039C16.0854 2.10938 16.5586 2.58254 16.5586 3.16406V15.5039ZM24.8906 22.7812H27V24.8906C27 26.0555 26.0555 27 24.8906 27H22.834V24.8906H24.8906V22.7812ZM14.3965 24.8906H16.5059V27H14.3965V24.8906ZM18.6152 24.8906H20.7246V27H18.6152V24.8906ZM27 10.4414V12.5508H24.8906V10.4414H22.834V8.33203H24.8906C26.0555 8.33203 27 9.27651 27 10.4414ZM24.8906 14.5547H27V16.6641H24.8906V14.5547ZM24.8906 18.668H27V20.7773H24.8906V18.668ZM10.3359 24.8906H12.3926V27H10.3359C9.17104 27 8.22656 26.0555 8.22656 24.8906V22.7812H10.3359V24.8906ZM12.2871 8.12109H14.3965V14.4492H8.06836V12.3398H10.7955L7.03242 8.57675L8.52402 7.08536L12.2871 10.8482V8.12109Z" fill="#BDBDBD"/>
</svg>
