<svg width="22" height="22" viewBox="0 0 22 22" fill="none" xmlns="http://www.w3.org/2000/svg">
<circle cx="11.0209" cy="10.9791" r="10.9791" fill="#C4C4C4"/>
<path fill-rule="evenodd" clip-rule="evenodd" d="M10.9988 3.76416C7.02737 3.76416 3.80607 6.93132 3.80607 10.836C3.80607 13.9598 5.88006 16.6063 8.70421 17.5608C9.05723 17.6042 9.18961 17.3873 9.18961 17.2137C9.18961 17.0402 9.18961 16.6063 9.18961 15.9989C7.20388 16.4328 6.7626 15.0445 6.7626 15.0445C6.45371 14.2201 5.96831 14.0032 5.96831 14.0032C5.3064 13.5693 6.01244 13.5693 6.01244 13.5693C6.71848 13.6127 7.11562 14.3069 7.11562 14.3069C7.77753 15.3915 8.79246 15.0878 9.18961 14.9143C9.23374 14.4371 9.45437 14.1334 9.63088 13.9598C8.0423 13.7863 6.36546 13.1789 6.36546 10.4456C6.36546 9.66462 6.63022 9.05722 7.11562 8.53659C7.0715 8.40644 6.80673 7.66888 7.20388 6.71439C7.20388 6.71439 7.82166 6.54085 9.18961 7.45195C9.76327 7.27841 10.381 7.23502 10.9988 7.23502C11.6166 7.23502 12.2344 7.32179 12.8081 7.45195C14.176 6.54085 14.7938 6.71439 14.7938 6.71439C15.1909 7.66888 14.9262 8.40644 14.882 8.57998C15.3233 9.05722 15.6322 9.70801 15.6322 10.489C15.6322 13.2223 13.9554 13.7863 12.3668 13.9598C12.6315 14.1767 12.8522 14.6106 12.8522 15.2614C12.8522 16.2159 12.8522 16.9534 12.8522 17.2137C12.8522 17.3873 12.9846 17.6042 13.3376 17.5608C16.2059 16.6063 18.2357 13.9598 18.2357 10.836C18.1916 6.93132 14.9703 3.76416 10.9988 3.76416Z" fill="#292929"/>
</svg>
