<svg viewBox="0 0 28 28" fill="none" xmlns="http://www.w3.org/2000/svg">
<path d="M7.06317 28H20.9368C24.8302 28 28 24.8302 28 20.9368V7.06317C28 3.16981 24.8302 0 20.9368 0H7.06317C3.16981 0 0 3.16981 0 7.06317V20.9368C0 24.8302 3.16981 28 7.06317 28ZM3.04348 7.06317C3.04348 4.8466 4.8466 3.04348 7.06317 3.04348H20.9368C23.1534 3.04348 24.9565 4.8466 24.9565 7.06317V20.9368C24.9565 23.1534 23.1534 24.9565 20.9368 24.9565H7.06317C4.8466 24.9565 3.04348 23.1534 3.04348 20.9368V7.06317Z" fill="white"/>
<path d="M14 21.2125C17.9737 21.2125 21.2125 17.9737 21.2125 14C21.2125 10.0263 17.9737 6.78753 14 6.78753C10.0263 6.78753 6.78753 10.0263 6.78753 14C6.78753 17.9737 10.0263 21.2125 14 21.2125ZM14 9.83101C16.297 9.83101 18.169 11.703 18.169 14C18.169 16.297 16.297 18.169 14 18.169C11.703 18.169 9.83101 16.297 9.83101 14C9.83101 11.703 11.703 9.83101 14 9.83101Z" fill="white"/>
<path d="M21.4422 8.28056C22.3839 8.28056 23.1534 7.51108 23.1534 6.56932C23.1534 5.62756 22.3839 4.85808 21.4422 4.85808C20.5004 4.85808 19.7309 5.62756 19.7309 6.56932C19.7309 7.51108 20.5004 8.28056 21.4422 8.28056Z" fill="white"/>
</svg>
