<svg width="23" height="22" viewBox="0 0 23 22" fill="none" xmlns="http://www.w3.org/2000/svg">
<circle cx="11.5" cy="10.9791" r="10.9791" fill="#C4C4C4"/>
<path d="M8.54688 16.9392H14.4532C16.1106 16.9392 17.4601 15.5897 17.4601 13.9323V8.02597C17.4601 6.36849 16.1106 5.01904 14.4532 5.01904H8.54688C6.8894 5.01904 5.53995 6.36849 5.53995 8.02597V13.9323C5.53995 15.5897 6.8894 16.9392 8.54688 16.9392ZM6.83562 8.02597C6.83562 7.08233 7.60324 6.31471 8.54688 6.31471H14.4532C15.3968 6.31471 16.1644 7.08233 16.1644 8.02597V13.9323C16.1644 14.8759 15.3968 15.6435 14.4532 15.6435H8.54688C7.60324 15.6435 6.83562 14.8759 6.83562 13.9323V8.02597Z" fill="#292929"/>
<path d="M11.5 14.0496C13.1917 14.0496 14.5705 12.6708 14.5705 10.9791C14.5705 9.28742 13.1917 7.90863 11.5 7.90863C9.80832 7.90863 8.42953 9.28742 8.42953 10.9791C8.42953 12.6708 9.80832 14.0496 11.5 14.0496ZM11.5 9.2043C12.4779 9.2043 13.2748 10.0013 13.2748 10.9791C13.2748 11.957 12.4779 12.7539 11.5 12.7539C10.5222 12.7539 9.7252 11.957 9.7252 10.9791C9.7252 10.0013 10.5222 9.2043 11.5 9.2043Z" fill="#292929"/>
<path d="M14.6683 8.54424C15.0692 8.54424 15.3968 8.21666 15.3968 7.81573C15.3968 7.41481 15.0692 7.08722 14.6683 7.08722C14.2674 7.08722 13.9398 7.41481 13.9398 7.81573C13.9398 8.21666 14.2674 8.54424 14.6683 8.54424Z" fill="#292929"/>
</svg>
