<svg viewBox="0 0 195 248" fill="none" xmlns="http://www.w3.org/2000/svg">
<path fill-rule="evenodd" clip-rule="evenodd" d="M37.8 82.4989C40.3411 83.339 43.0809 81.9615 43.9191 79.4205C51.5234 56.4221 72.9172 40.9713 97.1568 40.9713C128.068 40.9713 153.218 66.1191 153.218 97.032C153.218 120.923 142.516 135.197 133.918 146.667C127.663 155.009 122.261 162.216 122.261 170.956C122.261 171.531 122.253 172.101 122.24 172.666H102.001V161.539C102.001 158.864 99.8322 156.695 97.1568 156.695C94.4814 156.695 92.313 158.864 92.313 161.539V172.666H72.0715C72.0582 172.101 72.0507 171.531 72.0507 170.956C72.0507 162.215 66.6487 155.009 60.3935 146.665C54.0607 138.217 46.884 128.641 43.3249 115.035C42.6476 112.447 39.9986 110.897 37.4122 111.575C34.8257 112.25 33.2761 114.899 33.9534 117.486C37.993 132.931 46.1158 143.769 52.6435 152.476C58.0738 159.721 62.3632 165.442 62.3632 170.956C62.3632 173.276 62.4615 175.539 62.6526 177.698V218.669C62.6526 218.799 62.6621 218.926 62.6716 219.053C62.6753 219.083 62.6735 219.115 62.6772 219.146C62.6943 219.325 62.7227 219.499 62.7586 219.674V219.677C64.4407 227.567 68.7471 234.742 74.8888 239.879C81.1478 245.116 89.0568 248 97.1568 248C105.257 248 113.164 245.116 119.425 239.879C125.565 234.742 129.873 227.567 131.553 219.677C131.553 219.675 131.555 219.674 131.555 219.672C131.591 219.499 131.617 219.325 131.636 219.146C131.638 219.115 131.638 219.083 131.64 219.053C131.65 218.924 131.659 218.797 131.659 218.667V177.698C131.85 175.539 131.95 173.276 131.95 170.956C131.95 165.442 136.24 159.721 141.67 152.476C150.631 140.522 162.905 124.151 162.905 97.032C162.905 60.7777 133.409 31.2838 97.1568 31.2838C68.73 31.2838 43.6409 49.4062 34.7216 76.3799C33.8815 78.9191 35.2609 81.6588 37.8 82.4989ZM97.1568 238.312C87.3085 238.312 78.427 232.356 74.219 223.511H120.095C115.885 232.356 107.003 238.312 97.1568 238.312ZM121.973 213.823H72.3401V202.932H121.973V213.823ZM121.973 193.245H72.3401V182.354H121.973V193.245Z" fill="white"/>
<path fill-rule="evenodd" clip-rule="evenodd" d="M97.1572 22.5934C99.8326 22.5934 102.001 20.4251 102.001 17.7497V4.84375C102.001 2.16833 99.8326 0 97.1572 0C94.4818 0 92.3135 2.16833 92.3135 4.84375V17.7497C92.3135 20.4251 94.4818 22.5934 97.1572 22.5934Z" fill="white"/>
<path fill-rule="evenodd" clip-rule="evenodd" d="M4.96875 101.876H17.8747C20.5501 101.876 22.7184 99.7075 22.7184 97.032C22.7184 94.3566 20.5501 92.1883 17.8747 92.1883H4.96875C2.29333 92.1883 0.125 94.3566 0.125 97.032C0.125 99.7075 2.29333 101.876 4.96875 101.876Z" fill="white"/>
<path fill-rule="evenodd" clip-rule="evenodd" d="M119.334 106.818C119.334 104.143 117.166 101.974 114.491 101.974H79.8237C77.1483 101.974 74.98 104.143 74.98 106.818C74.98 109.493 77.1483 111.662 79.8237 111.662H92.3134V122.789C92.3134 125.464 94.4817 127.633 97.1572 127.633C99.8326 127.633 102.001 125.464 102.001 122.789V111.662H114.491C117.166 111.662 119.334 109.493 119.334 106.818Z" fill="white"/>
<path fill-rule="evenodd" clip-rule="evenodd" d="M37.6716 44.396C38.6176 45.342 39.8569 45.8151 41.0962 45.8151C42.3356 45.8151 43.5749 45.342 44.5209 44.396C46.413 42.5039 46.413 39.4368 44.5209 37.5466L35.3954 28.4211C33.5033 26.529 30.4362 26.529 28.5441 28.4211C26.6539 30.3113 26.6539 33.3784 28.5441 35.2704L37.6716 44.396Z" fill="white"/>
<path fill-rule="evenodd" clip-rule="evenodd" d="M28.6294 170.404C29.8687 170.404 31.108 169.93 32.0541 168.984L41.1796 159.859C43.0717 157.967 43.0717 154.902 41.1796 153.01C39.2875 151.117 36.2204 151.117 34.3302 153.01L25.2028 162.135C23.3126 164.027 23.3126 167.094 25.2028 168.984C26.1488 169.93 27.3882 170.404 28.6294 170.404Z" fill="white"/>
<path fill-rule="evenodd" clip-rule="evenodd" d="M153.218 45.8151C154.457 45.8151 155.697 45.342 156.643 44.396L165.768 35.2704C167.66 33.3783 167.66 30.3113 165.768 28.4192C163.878 26.5271 160.811 26.529 158.919 28.4192L149.793 37.5447C147.901 39.4368 147.901 42.5039 149.791 44.396C150.737 45.342 151.979 45.8151 153.218 45.8151Z" fill="white"/>
<path fill-rule="evenodd" clip-rule="evenodd" d="M153.134 153.01C151.242 154.9 151.242 157.967 153.134 159.859L162.26 168.984C163.206 169.93 164.445 170.404 165.685 170.404C166.924 170.404 168.163 169.93 169.109 168.984C171.001 167.094 171.001 164.027 169.109 162.135L159.984 153.01C158.092 151.117 155.025 151.117 153.134 153.01Z" fill="white"/>
<path fill-rule="evenodd" clip-rule="evenodd" d="M176.439 101.876H189.345C192.021 101.876 194.189 99.7075 194.189 97.032C194.189 94.3566 192.021 92.1883 189.345 92.1883H176.439C173.764 92.1883 171.596 94.3566 171.596 97.032C171.596 99.7075 173.764 101.876 176.439 101.876Z" fill="white"/>
<path fill-rule="evenodd" clip-rule="evenodd" d="M97.1572 137.32C94.4894 137.32 92.3135 139.496 92.3135 142.164C92.3135 144.832 94.4894 147.008 97.1572 147.008C99.8251 147.008 102.001 144.832 102.001 142.164C102.001 139.496 99.8251 137.32 97.1572 137.32Z" fill="white"/>
<path fill-rule="evenodd" clip-rule="evenodd" d="M41.0962 97.032C41.0962 94.3642 38.9203 92.1883 36.2524 92.1883C33.5827 92.1883 31.4087 94.3642 31.4087 97.032C31.4087 99.6999 33.5827 101.876 36.2524 101.876C38.9203 101.876 41.0962 99.6999 41.0962 97.032Z" fill="white"/>
</svg>
