<svg viewBox="0 0 223 223" fill="none" xmlns="http://www.w3.org/2000/svg">
<path d="M219.283 0H52.0333C49.9808 0 48.3166 1.66413 48.3166 3.71666V59.4665H55.7499V7.43332H215.566V211.85C215.602 213.804 214.094 215.441 212.143 215.566C211.824 215.566 211.504 215.54 211.184 215.533C210.526 215.514 209.869 215.499 209.222 215.432C209.166 215.432 209.114 215.432 209.058 215.41C196.92 214.083 187.331 204.504 185.993 192.367C185.993 192.315 185.974 192.259 185.967 192.207C185.877 191.324 185.832 190.437 185.833 189.55V182.116C185.833 180.064 184.169 178.4 182.116 178.4H55.7499V111.5H48.3166V178.4H18.5834C16.5308 178.4 14.8667 180.064 14.8667 182.116V189.55C14.8871 208.015 29.8513 222.979 48.3166 223H212.221C218.252 222.842 223.046 217.883 223 211.85V3.71666C223 1.66413 221.335 0 219.283 0ZM48.3166 215.566C33.955 215.55 22.3163 203.911 22.3 189.55V185.833H178.4V189.55C178.405 190.775 178.475 192 178.612 193.218C178.645 193.541 178.708 193.854 178.753 194.173C178.875 195.073 179.024 195.968 179.221 196.849C179.288 197.158 179.373 197.462 179.452 197.771C179.678 198.667 179.935 199.547 180.232 200.417C180.317 200.666 180.407 200.911 180.5 201.16C180.838 202.082 181.221 202.982 181.641 203.87C181.73 204.052 181.812 204.242 181.901 204.409C182.367 205.351 182.878 206.266 183.436 207.155C183.51 207.274 183.577 207.397 183.651 207.527C184.257 208.476 184.911 209.394 185.61 210.277L185.729 210.437C186.54 211.456 187.409 212.428 188.331 213.347C189.131 214.14 189.961 214.884 190.821 215.577L48.3166 215.566Z" fill="white"/>
<path d="M122.65 104.066C123.636 104.066 124.581 103.674 125.277 102.977L140.144 88.1108C141.595 86.6595 141.595 84.3068 140.144 82.8555L125.277 67.9888C124.581 67.292 123.636 66.8999 122.65 66.8999H18.5833C8.3202 66.8999 0 75.2201 0 85.4832C0 95.7462 8.3202 104.066 18.5833 104.066H122.65ZM121.691 74.913L132.261 85.4832L121.691 96.0533L119.048 85.4832L121.691 74.913ZM29.7333 74.3332H114.176L112.317 81.7665H37.1666V89.1998H112.317L114.176 96.6331H29.7333V74.3332ZM7.43332 85.4832C7.43332 79.3251 12.4253 74.3332 18.5833 74.3332H22.2999V96.6331H18.5833C12.4253 96.6331 7.43332 91.6412 7.43332 85.4832Z" fill="white"/>
<path d="M85.4835 159.816H196.983C199.036 159.816 200.7 158.152 200.7 156.1V44.5999C200.699 42.5474 199.035 40.8837 196.982 40.8842C195.997 40.8842 195.052 41.2758 194.356 41.9722L82.8558 153.472C81.4044 154.924 81.4049 157.277 82.8567 158.728C83.5536 159.425 84.4981 159.816 85.4835 159.816ZM193.267 53.5719V63.1832H185.833V70.6165H193.267V78.0498H185.833V85.4832H193.267V92.9165H185.833V100.35H193.267V107.783H185.833V115.216H193.267V122.65H185.833V130.083H193.267V137.516H185.833V144.95H193.267V152.383H185.833V144.95H178.4V152.383H170.967V144.95H163.533V152.383H156.1V144.95H148.667V152.383H141.233V144.95H133.8V152.383H126.367V144.95H118.933V152.383H111.5V144.95H104.067V152.383H94.4555L193.267 53.5719Z" fill="white"/>
<path d="M139.319 137.516H174.683C176.735 137.516 178.4 135.852 178.4 133.8V98.4357C178.399 96.3832 176.735 94.7195 174.682 94.72C173.697 94.72 172.752 95.1116 172.055 95.808L136.691 131.172C135.24 132.624 135.24 134.977 136.692 136.428C137.389 137.125 138.334 137.516 139.319 137.516ZM170.966 107.411V130.083H148.295L170.966 107.411Z" fill="white"/>
<path d="M170.966 22.3H96.6333V29.7333H170.966V22.3Z" fill="white"/>
<path d="M182.117 37.1666H85.4834V44.5999H182.117V37.1666Z" fill="white"/>
<path d="M85.483 115.216H63.1831V122.65H85.483V115.216Z" fill="white"/>
<path d="M78.0497 130.083H63.1831V137.516H78.0497V130.083Z" fill="white"/>
</svg>
