<svg viewBox="0 0 224 224" fill="none" xmlns="http://www.w3.org/2000/svg">
<path d="M215.497 15.598H182.708V3.57447C182.708 1.59993 181.108 0 179.134 0H44.8662C42.8922 0 41.2918 1.59993 41.2918 3.57447V15.598H8.50294C3.8142 15.598 0 19.4117 0 24.1005V180.998C0 185.686 3.8142 189.501 8.50294 189.501H86.5727V216.851H52.8588C50.8847 216.851 49.2843 218.451 49.2843 220.426C49.2843 222.4 50.8847 224 52.8588 224H155.317C157.291 224 158.891 222.4 158.891 220.426C158.891 218.451 157.291 216.851 155.317 216.851H137.427V189.501H152.138C154.113 189.501 155.713 187.901 155.713 185.926C155.713 183.952 154.113 182.352 152.138 182.352H8.50294C7.76899 182.352 7.14894 181.732 7.14894 180.998V24.1005C7.14894 23.3665 7.76899 22.7465 8.50294 22.7465H41.2918V153.268H18.3599C16.3858 153.268 14.7854 154.868 14.7854 156.843C14.7854 158.817 16.3858 160.417 18.3599 160.417H152.139C154.113 160.417 155.713 158.817 155.713 156.843C155.713 154.868 154.113 153.268 152.139 153.268H124.075V124.055C124.075 122.08 122.475 120.481 120.501 120.481H63.9301C61.956 120.481 60.3556 122.08 60.3556 124.055V153.268H48.4407V19.1768C48.4407 19.1673 48.4407 7.14894 48.4407 7.14894H175.56V39.719C175.56 41.6936 177.16 43.2935 179.134 43.2935C181.109 43.2935 182.709 41.6936 182.709 39.719V22.747H215.498C216.231 22.747 216.852 23.367 216.852 24.101V180.998C216.852 181.732 216.231 182.352 215.498 182.352H206.128C204.153 182.352 202.553 183.952 202.553 185.927C202.553 187.901 204.153 189.501 206.128 189.501H215.497C220.186 189.501 224 185.687 224 180.998V24.1005C224 19.4117 220.186 15.598 215.497 15.598ZM130.279 216.851H93.7216V189.501H130.279V216.851ZM67.5045 127.63H116.926V153.269H67.5045V127.63Z" fill="white"/>
<path d="M195.36 85.1028C195.352 85.0514 195.347 84.9994 195.337 84.9484C195.322 84.8736 195.302 84.8007 195.283 84.7273C195.273 84.6901 195.265 84.6525 195.254 84.6153C195.231 84.539 195.204 84.4652 195.176 84.3913C195.166 84.3636 195.158 84.3351 195.147 84.3079L195.13 84.2636C195.126 84.2559 195.124 84.2483 195.121 84.2407L182.451 52.6848C181.907 51.3303 180.595 50.4424 179.134 50.4424C177.674 50.4424 176.361 51.3303 175.817 52.6848L163.146 84.2435C163.14 84.2574 163.12 84.3074 163.12 84.3074C163.108 84.3374 163.1 84.3689 163.088 84.3994C163.062 84.4704 163.035 84.5414 163.014 84.6143C163.002 84.6525 162.994 84.6915 162.984 84.7301C162.965 84.8026 162.946 84.8741 162.931 84.9484C162.921 84.9999 162.916 85.0518 162.908 85.1038C162.898 85.1658 162.887 85.2263 162.881 85.2892C162.869 85.4055 162.863 85.5223 162.863 85.6395V207.729C162.863 216.701 170.162 224 179.135 224C188.106 224 195.406 216.701 195.406 207.729V85.6395C195.406 85.5223 195.4 85.4055 195.388 85.2892C195.381 85.2258 195.369 85.1648 195.36 85.1028ZM170.012 89.2135H188.256V191.294H170.012V89.2135ZM179.134 63.6103L186.543 82.065H171.724L179.134 63.6103ZM179.134 216.851C174.104 216.851 170.011 212.759 170.011 207.729V198.443H188.256V207.729C188.256 212.759 184.164 216.851 179.134 216.851Z" fill="white"/>
<path d="M63.9299 51.3746H160.07C162.045 51.3746 163.645 49.7747 163.645 47.8002V22.6383C163.645 20.6638 162.045 19.0638 160.07 19.0638H63.9299C61.9559 19.0638 60.3555 20.6638 60.3555 22.6383V47.8002C60.3555 49.7747 61.9559 51.3746 63.9299 51.3746ZM67.5044 26.2128H156.496V44.2257H67.5044V26.2128Z" fill="white"/>
<path d="M160.07 58.5236H63.9299C61.9559 58.5236 60.3555 60.1235 60.3555 62.098C60.3555 64.0726 61.9559 65.6725 63.9299 65.6725H160.07C162.045 65.6725 163.645 64.0726 163.645 62.098C163.645 60.1235 162.044 58.5236 160.07 58.5236Z" fill="white"/>
<path d="M120.5 77.5874H63.9299C61.9559 77.5874 60.3555 79.1873 60.3555 81.1619C60.3555 83.1364 61.9559 84.7363 63.9299 84.7363H120.5C122.475 84.7363 124.075 83.1364 124.075 81.1619C124.075 79.1873 122.475 77.5874 120.5 77.5874Z" fill="white"/>
<path d="M152.827 77.5874H134.798C132.824 77.5874 131.224 79.1873 131.224 81.1619C131.224 83.1364 132.824 84.7363 134.798 84.7363H152.827C154.801 84.7363 156.401 83.1364 156.401 81.1619C156.401 79.1873 154.801 77.5874 152.827 77.5874Z" fill="white"/>
<path d="M120.5 91.8853H63.9299C61.9559 91.8853 60.3555 93.4852 60.3555 95.4597C60.3555 97.4343 61.9559 99.0342 63.9299 99.0342H120.5C122.475 99.0342 124.075 97.4343 124.075 95.4597C124.075 93.4852 122.475 91.8853 120.5 91.8853Z" fill="white"/>
<path d="M152.139 91.8853H134.798C132.824 91.8853 131.224 93.4852 131.224 95.4597C131.224 97.4343 132.824 99.0342 134.798 99.0342H152.139C154.113 99.0342 155.713 97.4343 155.713 95.4597C155.713 93.4852 154.113 91.8853 152.139 91.8853Z" fill="white"/>
<path d="M120.5 106.183H63.9299C61.9559 106.183 60.3555 107.783 60.3555 109.758C60.3555 111.732 61.9559 113.332 63.9299 113.332H120.5C122.475 113.332 124.075 111.732 124.075 109.758C124.075 107.783 122.475 106.183 120.5 106.183Z" fill="white"/>
<path d="M152.139 106.183H134.798C132.824 106.183 131.224 107.783 131.224 109.758C131.224 111.732 132.824 113.332 134.798 113.332H152.139C154.113 113.332 155.713 111.732 155.713 109.758C155.713 107.783 154.113 106.183 152.139 106.183Z" fill="white"/>
</svg>
