<svg width="242" height="233" viewBox="0 0 242 233" fill="none" xmlns="http://www.w3.org/2000/svg">
<path d="M236.1 154.901H233.725V144.473C243.121 134.965 242.052 118.001 241.874 115.849V98.0863C241.874 92.3671 237.221 87.7143 231.502 87.7143H231.104C229.296 87.7143 227.593 88.1794 226.111 88.9966C224.209 86.6087 221.277 85.0745 217.994 85.0745H217.596C215.845 85.0745 214.18 85.5046 212.716 86.2807C210.812 84.021 207.962 82.5827 204.782 82.5827H204.384C202.934 82.5827 201.539 82.8818 200.268 83.4306C198.411 80.6183 195.221 78.7589 191.606 78.7589H191.207C185.489 78.7589 180.836 83.4122 180.836 89.1313V99.1266C176.67 98.6799 173.415 99.4749 170.953 101.536C165.615 106.004 166.152 114.869 166.672 123.444C167.381 135.147 177.814 144.966 181.835 148.335V154.9H179.832C177.723 154.9 176.014 156.609 176.014 158.718V178.356V237.237C176.014 239.346 177.723 241.054 179.832 241.054H236.101C238.21 241.054 239.919 239.346 239.919 237.237V178.357V158.718C239.919 156.61 238.209 154.901 236.1 154.901ZM174.293 122.982C173.925 116.925 173.469 109.387 175.853 107.392C176.739 106.65 178.475 106.46 180.835 106.829V112.015C180.835 114.124 182.544 115.833 184.653 115.833C186.762 115.833 188.471 114.124 188.471 112.015V89.1323C188.471 87.6231 189.698 86.3951 191.207 86.3951H191.605C193.115 86.3951 194.343 87.6231 194.343 89.1323V90.9033V103.871C194.343 105.98 196.051 107.689 198.16 107.689C200.269 107.689 201.978 105.98 201.978 103.871V91.66C202.448 90.7842 203.363 90.2199 204.383 90.2199H204.782C206.291 90.2199 207.519 91.4478 207.519 92.957V93.4963V103.872C207.519 105.981 209.228 107.69 211.337 107.69C213.445 107.69 215.154 105.981 215.154 103.872V94.2081C215.613 93.2983 216.545 92.7126 217.595 92.7126H217.993C219.502 92.7126 220.73 93.9406 220.73 95.4493V98.0896V105.746C220.73 107.855 222.438 109.564 224.547 109.564C226.656 109.564 228.365 107.855 228.365 105.746V98.0896C228.365 96.5809 229.593 95.3529 231.103 95.3529H231.501C233.01 95.3529 234.238 96.5809 234.238 98.0896V116.019C234.238 116.141 234.244 116.264 234.255 116.386C234.696 120.949 234.329 134.069 227.44 139.9C226.583 140.626 226.09 141.691 226.09 142.815V154.904H189.469V146.505C189.469 145.298 188.896 144.16 187.931 143.441C187.801 143.343 174.938 133.627 174.293 122.982ZM232.283 233.42H183.649V182.175H232.283V233.42ZM232.283 174.54H183.649V162.536H185.651H229.908H232.283V174.54Z" fill="white"/>
<path d="M162.187 63.0411L179.652 70.4174C180.912 70.9492 182.238 71.2153 183.565 71.2153C184.847 71.2153 186.128 70.9676 187.35 70.4708C189.84 69.4598 191.787 67.5394 192.832 65.065L194.956 60.035C196.002 57.5602 196.021 54.8259 195.01 52.3364C193.999 49.8469 192.079 47.9005 189.598 46.8536L168.866 38.1396L169.824 34.6737C169.836 34.6283 169.849 34.5829 169.859 34.5375C170.499 31.8415 170.051 29.0585 168.598 26.7004C167.144 24.3414 164.859 22.6904 162.167 22.0509L161.776 21.9578C160.015 21.5395 158.252 21.599 156.622 22.0523C155.323 19.2887 152.825 17.1192 149.63 16.3596L149.244 16.2679C147.542 15.8638 145.824 15.8973 144.223 16.3133C144.089 16.0486 143.943 15.7891 143.786 15.5339C142.332 13.1748 140.048 11.5238 137.355 10.8843L136.964 10.7912C135.556 10.4561 134.132 10.4235 132.771 10.6646C132.532 10.0104 132.225 9.37609 131.851 8.7692C130.397 6.41017 128.113 4.7587 125.411 4.11731L125.029 4.02703C122.333 3.38658 119.549 3.83466 117.191 5.28808C114.85 6.73063 113.206 8.99182 112.556 11.6614L111.877 14.1863L84.9934 2.88934C84.9797 2.8832 84.9655 2.87989 84.9518 2.87422C84.88 2.84539 84.8072 2.82034 84.7339 2.79529C84.6852 2.77922 84.6366 2.76173 84.5879 2.74755C84.5255 2.72911 84.4621 2.71446 84.3983 2.69886C84.3345 2.68421 84.2712 2.66861 84.2069 2.65727C84.1559 2.64782 84.1048 2.6412 84.0528 2.63316C83.9748 2.62135 83.8964 2.61237 83.8189 2.60622C83.799 2.60481 83.7796 2.60055 83.7598 2.59913L58.1966 0.952868C56.5881 0.845575 55.113 1.75119 54.4635 3.20981C53.8141 4.6689 54.1407 6.37803 55.2836 7.49397L73.2535 25.0452C73.2597 25.0513 73.2654 25.0565 73.271 25.0626L73.28 25.0711C73.2904 25.082 73.3018 25.0901 73.3126 25.1C73.3868 25.1714 73.4648 25.2404 73.5457 25.3061C73.5849 25.3382 73.6255 25.3661 73.6657 25.3968C73.7092 25.4289 73.7503 25.463 73.7952 25.4937C73.8066 25.5017 73.8193 25.5074 73.8307 25.5154C73.8959 25.5594 73.963 25.5986 74.0306 25.6374C74.5174 25.9493 75.0265 26.2296 75.5573 26.4532L91.9065 33.3578C90.7007 36.898 89.9648 41.1037 89.3055 44.8916C87.2191 56.8602 95.7587 69.2731 98.6291 73.0388L98.6423 90.3966H95.4642C93.3552 90.3966 91.6465 92.1053 91.6465 94.2143V113.854V237.238C91.6465 239.347 93.3552 241.056 95.4642 241.056H151.734C153.843 241.056 155.552 239.347 155.552 237.238V141.703C155.552 139.594 153.843 137.885 151.734 137.885C149.625 137.885 147.916 139.594 147.916 141.703V233.42H99.2823V117.671H147.916V124.035V128.277C147.916 130.386 149.625 132.094 151.734 132.094C153.843 132.094 155.552 130.385 155.552 128.277V124.035V113.854V94.2143C155.552 92.1053 153.843 90.3962 151.734 90.3962H150.133L150.168 80.5337C156.616 76.2628 160.235 68.8444 162.187 63.0411ZM182.446 52.1312L186.634 53.8909C187.23 54.1419 187.692 54.6108 187.936 55.2097C188.18 55.8095 188.175 56.4679 187.923 57.0639L185.798 62.0949C185.547 62.6909 185.078 63.1531 184.478 63.3966C183.879 63.6405 183.22 63.6357 182.624 63.3838L178.159 61.4984L182.446 52.1312ZM164.217 54.9478L166.814 45.5608L175.404 49.1705L171.122 58.5263L164.115 55.5675C164.16 55.3094 164.194 55.1 164.217 54.9478ZM74.7911 15.8747L67.9933 9.23524L77.6493 9.85726L74.7911 15.8747ZM81.0543 20.4859L85.3975 11.3419L109.874 21.6283L107.208 31.531L81.0543 20.4859ZM147.916 110.036H99.2823V98.0324H147.916V110.036H147.916ZM144.63 74.9389C143.351 75.5873 142.544 76.8971 142.539 78.3306L142.498 90.0039H106.276L106.263 71.7087C106.262 70.8144 105.944 69.9443 105.37 69.258C105.267 69.1323 94.9958 56.708 96.8273 46.2032C97.4049 42.8903 98.0449 39.2253 98.9618 36.3374L105.865 39.2537C106.281 40.3706 107.21 41.2781 108.449 41.6118C110.481 42.1587 112.58 40.9534 113.127 38.9176L119.942 13.5993C119.952 13.5624 119.961 13.5256 119.97 13.4887C120.139 12.7783 120.574 12.1747 121.197 11.7909C121.819 11.4076 122.552 11.2899 123.27 11.46L123.652 11.5503C124.362 11.7195 124.966 12.1548 125.35 12.7778C125.733 13.4003 125.851 14.1343 125.682 14.8471L125.294 16.4801L120.797 32.0627C120.212 34.089 121.38 36.2051 123.406 36.7897C123.76 36.8914 124.116 36.9405 124.467 36.9405C126.125 36.9405 127.65 35.852 128.133 34.1807L132.478 19.1237C133.136 18.3405 134.182 17.9803 135.196 18.2223L135.587 18.3155C136.298 18.4847 136.901 18.92 137.285 19.5429C137.661 20.1541 137.779 20.8735 137.622 21.5744L133.623 35.083C133.024 37.105 134.178 39.2291 136.2 39.827C136.562 39.9339 136.927 39.9854 137.285 39.9854C138.933 39.9854 140.453 38.911 140.944 37.2501L144.647 24.7445C145.293 23.863 146.393 23.441 147.479 23.7L147.865 23.7917C149.333 24.141 150.244 25.6185 149.895 27.0875L149.317 29.525L146.062 39.8989C145.431 41.9105 146.55 44.0531 148.562 44.6845C148.942 44.8036 149.327 44.8608 149.705 44.8608C151.329 44.8608 152.835 43.8163 153.347 42.1847L156.643 31.6808C156.657 31.6345 156.666 31.5881 156.679 31.5418C156.69 31.5012 156.704 31.4619 156.714 31.4204C157.063 29.9523 158.54 29.0405 160.006 29.3898L160.398 29.4829C161.848 29.8275 162.754 31.2738 162.44 32.7239L156.794 53.1399C156.749 53.2992 156.715 53.4675 156.693 53.6305C156.67 53.7922 154.276 70.0473 144.63 74.9389Z" fill="white"/>
<path d="M75.5165 136.904V119.143C75.5165 113.423 70.8632 108.77 65.1441 108.77H64.7456C62.9372 108.77 61.2352 109.235 59.7534 110.053C57.8514 107.664 54.9191 106.13 51.636 106.13H51.2376C49.4868 106.13 47.8226 106.561 46.3588 107.338C44.4544 105.077 41.6039 103.639 38.4238 103.639H38.0254C36.5757 103.639 35.1814 103.938 33.9104 104.486C32.0533 101.674 28.8639 99.8148 25.2485 99.8148H24.85C19.1304 99.8148 14.4776 104.468 14.4776 110.187V120.183C10.3106 119.734 7.05829 120.531 4.59574 122.592C-0.742448 127.059 -0.205509 135.925 0.314414 144.5C1.02387 156.203 11.4559 166.022 15.4763 169.391V175.957H13.4737C11.3647 175.957 9.65601 177.665 9.65601 179.774V199.414V237.238C9.65601 239.347 11.3647 241.056 13.4737 241.056H69.744C71.853 241.056 73.5616 239.347 73.5616 237.238V199.414V179.774C73.5616 177.665 71.853 175.957 69.744 175.957H67.3689V165.529C76.7634 156.021 75.6943 139.056 75.5165 136.904ZM65.9254 233.42H17.2904V203.23H65.9254V233.42ZM65.9254 195.595H17.2904V183.592H19.2925H63.5498H65.9254V195.595ZM61.0835 160.953C60.2261 161.679 59.7326 162.744 59.7326 163.867V175.957H23.1102V175.957V167.557C23.1102 166.348 22.5378 165.211 21.5679 164.492C17.9582 161.813 8.47295 152.917 7.93507 144.038C7.56734 137.981 7.11075 130.442 9.49531 128.447C10.3801 127.706 12.1186 127.516 14.4766 127.884V133.07C14.4766 135.179 16.1853 136.888 18.2943 136.888C20.4033 136.888 22.1119 135.179 22.1119 133.07V110.186C22.1119 108.677 23.3399 107.449 24.8491 107.449H25.248C26.7572 107.449 27.9852 108.677 27.9852 110.186V111.957V124.925C27.9852 127.034 29.6938 128.742 31.8028 128.742C33.9118 128.742 35.6205 127.034 35.6205 124.925V112.714C36.0913 111.837 37.0049 111.273 38.0249 111.273H38.4233C39.9325 111.273 41.1605 112.501 41.1605 114.01V114.55V124.926C41.1605 127.035 42.8692 128.743 44.9782 128.743C47.0872 128.743 48.7958 127.035 48.7958 124.926V115.262C49.2552 114.351 50.1864 113.766 51.2366 113.766H51.6351C53.1443 113.766 54.3722 114.994 54.3722 116.502V119.143V126.8C54.3722 128.909 56.0809 130.617 58.1899 130.617C60.2989 130.617 62.0075 128.908 62.0075 126.8V119.143C62.0075 117.634 63.2355 116.406 64.7447 116.406H65.1431C66.6523 116.406 67.8803 117.634 67.8803 119.143V137.072C67.8803 137.193 67.8864 137.316 67.8978 137.438C68.3388 142.001 67.972 155.122 61.0835 160.953Z" fill="white"/>
</svg>
