<svg width="53" height="53" viewBox="0 0 53 53" fill="none" xmlns="http://www.w3.org/2000/svg">
<path d="M36.9394 0H14.9981C8.54918 0 2.98974 3.81224 0.444755 9.3078C0.222378 9.8029 0.568298 10.397 1.11189 10.397H31.4294C31.4541 10.397 31.4788 10.397 31.5282 10.397C34.765 10.397 38.0019 10.397 41.2387 10.397C41.5105 10.4218 41.7082 10.6446 41.7329 10.9169C41.7329 10.9664 41.7329 10.9911 41.7082 11.0406C41.5352 12.6497 40.7692 14.0855 39.4103 15.3727C38.2984 16.4124 36.9394 17.1798 35.3333 17.7244C34.2462 18.071 33.1343 18.269 31.9483 18.3433C31.8 18.3433 31.4294 18.3681 31.38 18.3681H9.14219H6.89371C6.869 18.3681 6.62191 18.3681 6.52308 18.3928C5.7324 18.4423 4.99114 18.5661 4.27459 18.7889C3.18741 19.1355 2.27319 19.6553 1.55664 20.3484C0.667133 21.1901 0.148252 22.1555 0.0247086 23.22C0.0247086 23.2447 0.0247086 23.2695 0.0247086 23.2943C0.0247086 23.4923 0.17296 23.6408 0.370629 23.6408C4.0028 23.6408 4.69464 23.6408 6.84429 23.6408C6.869 23.6408 6.89371 23.6408 6.91841 23.6408H9.04336H21.2494C21.2741 23.6408 21.2988 23.6408 21.3483 23.6408C24.5851 23.6408 27.8219 23.6408 31.0587 23.6408H31.1082C31.38 23.6656 31.5776 23.8884 31.5776 24.1607C31.5776 24.2102 31.5776 24.2349 31.5529 24.2844C31.38 25.8935 30.614 27.3293 29.255 28.6165C28.1431 29.6562 26.7841 30.4236 25.1781 30.9682C24.0909 31.3148 22.979 31.5128 21.793 31.5871C21.6448 31.5871 21.4965 31.6119 21.3483 31.6119C21.2988 31.6119 21.2494 31.6119 21.2247 31.6119H9.01865H6.77016C6.74545 31.6119 6.49837 31.6119 6.39953 31.6366C5.60886 31.6861 4.8676 31.8099 4.15105 32.0327C3.06387 32.3793 2.14965 32.8991 1.4331 33.5922C0.691842 34.2854 0.222378 35.0775 0 35.944V36.8104C0.0494172 36.8599 0.148252 36.9094 0.247086 36.9094H1.08718H3.68158H11.0448C11.0695 36.9094 11.0942 36.9094 11.1436 36.9094C14.3804 36.9094 17.6172 36.9094 20.8541 36.9094C21.1259 36.9094 21.373 37.1322 21.373 37.4292C21.373 37.4787 21.373 37.5035 21.3483 37.553C21.1753 39.1621 20.4093 40.5979 19.0503 41.8851C17.9385 42.9248 16.5795 43.6922 14.9734 44.2368C13.8862 44.5834 12.7744 44.7814 11.5883 44.8557C11.4401 44.8557 11.2918 44.8804 11.1436 44.8804C11.0942 44.8804 11.0448 44.8804 11.02 44.8804H10.3035C10.2788 44.8804 10.2541 44.8804 10.2047 44.8804C10.1552 44.8804 10.1058 44.8804 10.0811 44.8804H1.23543C0.741259 44.8804 0.444755 45.4498 0.741259 45.8459C3.731 50.1532 9.43869 53 14.9981 53H36.9641C45.8345 53 53 45.7964 53 36.9341V16.0659C53 7.20364 45.8098 0 36.9394 0Z" fill="url(#paint0_linear)"/>
<defs>
<linearGradient id="paint0_linear" x1="48.3625" y1="1.79572e-06" x2="5.9625" y2="49.025" gradientUnits="userSpaceOnUse">
<stop stop-color="#54D6BF"/>
<stop offset="1" stop-color="#9851DF"/>
</linearGradient>
</defs>
</svg>
