<svg width="210" height="42" viewBox="0 0 210 42" fill="none" xmlns="http://www.w3.org/2000/svg">
<path d="M0.00734134 24.3707C-0.0794622 23.0629 0.614966 22.3218 1.483 21.7333C2.50294 21.0358 3.67479 20.8396 4.89004 20.8396C7.86306 20.8396 10.8578 20.8614 13.8308 20.8396C15.9141 20.8396 17.8238 20.2947 19.2994 18.7689C19.8636 18.1804 20.276 17.4175 20.6015 16.6546C20.927 15.8481 20.7534 15.6737 19.8419 15.6737C13.7223 15.6737 7.58095 15.6737 1.4613 15.6737C1.4179 15.6737 1.3528 15.6737 1.30939 15.6737C0.875376 15.5865 0.441362 15.7609 0.00734444 15.6737C0.180951 15.1942 0.22435 14.4095 0.506461 14.0172C1.59151 12.5132 3.19737 12.1208 4.95514 12.1208C10.1634 12.1208 15.3716 12.099 20.5798 12.1208C22.012 12.1208 23.3792 11.8157 24.6378 11.1182C25.9399 10.3989 26.9381 9.39621 27.3504 7.91402C27.5892 7.06394 27.4806 6.91136 26.5692 6.91136C20.6015 6.91136 14.6337 6.91136 8.66599 6.91136C6.17039 6.91136 3.67479 6.91136 1.17919 6.91136C0.159248 6.91136 -0.0360604 6.628 0.46306 5.75612C2.50294 2.11604 5.58447 0.132525 9.72933 0.0453376C14.612 -0.04185 19.4947 0.0235407 24.3774 0.0235407C30.1716 0.0235407 34.924 4.68808 34.9674 10.5078C35.0109 15.1724 35.0109 19.8151 34.9674 24.4797C34.924 30.2994 30.1933 34.964 24.3774 34.9858C19.4947 34.9858 14.612 35.0294 9.72933 34.964C6.17039 34.9204 3.15397 33.5036 0.853675 30.7354C0.658368 30.4956 0.614966 30.1251 0.484761 29.8199C0.788573 29.7545 1.07068 29.6237 1.3745 29.6019C3.8484 29.5365 6.3223 29.6455 8.75279 29.384C10.9012 29.166 12.7024 28.0544 13.7006 25.9836C13.8091 25.7439 13.8959 25.4823 13.961 25.2208C14.1346 24.5886 13.9176 24.3489 13.2449 24.3489C9.07831 24.3707 4.89004 24.3707 0.72347 24.3707C0.506461 24.3707 0.311154 24.3707 0.00734134 24.3707Z" fill="white"/>
<path d="M50.216 30.24C48.6 30.24 47.36 29.72 46.496 28.68C45.632 27.64 45.168 26.256 45.104 24.528L45.08 23.736L45.104 22.968C45.152 21.288 45.608 19.92 46.472 18.864C47.352 17.808 48.6 17.28 50.216 17.28C51.768 17.28 53 17.808 53.912 18.864V13.536C53.912 13.36 53.968 13.224 54.08 13.128C54.192 13.016 54.328 12.96 54.488 12.96H56.528C56.704 12.96 56.84 13.016 56.936 13.128C57.048 13.224 57.104 13.36 57.104 13.536V29.424C57.104 29.584 57.048 29.72 56.936 29.832C56.84 29.944 56.704 30 56.528 30H54.632C54.472 30 54.336 29.944 54.224 29.832C54.112 29.72 54.056 29.584 54.056 29.424V28.536C53.144 29.672 51.864 30.24 50.216 30.24ZM51.104 27.672C52.032 27.672 52.72 27.376 53.168 26.784C53.616 26.192 53.864 25.464 53.912 24.6C53.928 24.408 53.936 24.096 53.936 23.664C53.936 23.248 53.928 22.944 53.912 22.752C53.88 21.952 53.624 21.272 53.144 20.712C52.68 20.136 52 19.848 51.104 19.848C49.376 19.848 48.456 20.912 48.344 23.04L48.32 23.76L48.344 24.48C48.456 26.608 49.376 27.672 51.104 27.672ZM60.0627 15.456C59.9027 15.456 59.7667 15.4 59.6547 15.288C59.5427 15.176 59.4867 15.04 59.4867 14.88V13.152C59.4867 12.992 59.5427 12.856 59.6547 12.744C59.7667 12.632 59.9027 12.576 60.0627 12.576H62.2467C62.4067 12.576 62.5427 12.632 62.6547 12.744C62.7827 12.856 62.8467 12.992 62.8467 13.152V14.88C62.8467 15.04 62.7907 15.176 62.6787 15.288C62.5667 15.4 62.4227 15.456 62.2467 15.456H60.0627ZM60.1587 30C59.9987 30 59.8627 29.944 59.7507 29.832C59.6387 29.72 59.5827 29.584 59.5827 29.424V18.096C59.5827 17.936 59.6387 17.8 59.7507 17.688C59.8627 17.576 59.9987 17.52 60.1587 17.52H62.1507C62.3268 17.52 62.4628 17.576 62.5588 17.688C62.6708 17.784 62.7268 17.92 62.7268 18.096V29.424C62.7268 29.584 62.6708 29.72 62.5588 29.832C62.4628 29.944 62.3268 30 62.1507 30H60.1587ZM70.8309 35.28C69.4069 35.28 68.2549 35.04 67.3749 34.56C66.4949 34.096 65.8709 33.56 65.5029 32.952C65.1349 32.344 64.9509 31.824 64.9509 31.392C64.9509 31.248 65.0069 31.12 65.1189 31.008C65.2469 30.896 65.3829 30.84 65.5269 30.84H67.6149C67.7589 30.84 67.8789 30.872 67.9749 30.936C68.0869 31.016 68.1749 31.152 68.2389 31.344C68.3989 31.776 68.6549 32.136 69.0069 32.424C69.3749 32.728 69.9429 32.88 70.7109 32.88C71.6709 32.88 72.3749 32.664 72.8229 32.232C73.2869 31.8 73.5189 31.056 73.5189 30V28.368C72.6389 29.408 71.4069 29.928 69.8229 29.928C68.1589 29.928 66.9029 29.416 66.0549 28.392C65.2229 27.368 64.7749 25.992 64.7109 24.264L64.6869 23.616L64.7109 22.968C64.7749 21.272 65.2309 19.904 66.0789 18.864C66.9269 17.808 68.1749 17.28 69.8229 17.28C70.6709 17.28 71.4149 17.44 72.0549 17.76C72.6949 18.08 73.2309 18.52 73.6629 19.08V18.12C73.6629 17.944 73.7189 17.8 73.8309 17.688C73.9429 17.576 74.0789 17.52 74.2389 17.52H76.1829C76.3429 17.52 76.4789 17.584 76.5909 17.712C76.7029 17.824 76.7589 17.96 76.7589 18.12L76.7829 29.688C76.7829 31.464 76.2869 32.84 75.2949 33.816C74.3029 34.792 72.8149 35.28 70.8309 35.28ZM70.7109 27.384C71.6229 27.384 72.3029 27.096 72.7509 26.52C73.2149 25.944 73.4709 25.24 73.5189 24.408C73.5349 24.28 73.5429 24.016 73.5429 23.616C73.5429 23.232 73.5349 22.976 73.5189 22.848C73.4709 22 73.2149 21.288 72.7509 20.712C72.3029 20.136 71.6229 19.848 70.7109 19.848C68.9829 19.848 68.0709 20.912 67.9749 23.04L67.9509 23.616C67.9509 24.752 68.1509 25.664 68.5509 26.352C68.9669 27.04 69.6869 27.384 70.7109 27.384ZM79.7399 15.456C79.5799 15.456 79.4439 15.4 79.3319 15.288C79.2199 15.176 79.1639 15.04 79.1639 14.88V13.152C79.1639 12.992 79.2199 12.856 79.3319 12.744C79.4439 12.632 79.5799 12.576 79.7399 12.576H81.9239C82.0839 12.576 82.2199 12.632 82.3319 12.744C82.4599 12.856 82.5239 12.992 82.5239 13.152V14.88C82.5239 15.04 82.4679 15.176 82.3559 15.288C82.2439 15.4 82.0999 15.456 81.9239 15.456H79.7399ZM79.8359 30C79.6759 30 79.5399 29.944 79.4279 29.832C79.3159 29.72 79.2599 29.584 79.2599 29.424V18.096C79.2599 17.936 79.3159 17.8 79.4279 17.688C79.5399 17.576 79.6759 17.52 79.8359 17.52H81.8279C82.0039 17.52 82.1399 17.576 82.2359 17.688C82.3479 17.784 82.4039 17.92 82.4039 18.096V29.424C82.4039 29.584 82.3479 29.72 82.2359 29.832C82.1399 29.944 82.0039 30 81.8279 30H79.8359ZM90.5081 30C89.0521 30 87.9561 29.624 87.2201 28.872C86.5001 28.104 86.1401 26.984 86.1401 25.512V20.064H84.2441C84.0841 20.064 83.9481 20.008 83.8361 19.896C83.7241 19.768 83.6681 19.624 83.6681 19.464V18.096C83.6681 17.936 83.7241 17.8 83.8361 17.688C83.9481 17.576 84.0841 17.52 84.2441 17.52H86.1401V13.536C86.1401 13.36 86.1961 13.224 86.3081 13.128C86.4201 13.016 86.5561 12.96 86.7161 12.96H88.6601C88.8361 12.96 88.9721 13.016 89.0681 13.128C89.1801 13.224 89.2361 13.36 89.2361 13.536V17.52H92.2361C92.4121 17.52 92.5481 17.576 92.6441 17.688C92.7561 17.784 92.8121 17.92 92.8121 18.096V19.464C92.8121 19.64 92.7561 19.784 92.6441 19.896C92.5321 20.008 92.3961 20.064 92.2361 20.064H89.2361V25.272C89.2361 25.96 89.3561 26.48 89.5961 26.832C89.8361 27.184 90.2361 27.36 90.7961 27.36H92.4521C92.6121 27.36 92.7481 27.416 92.8601 27.528C92.9721 27.64 93.0281 27.776 93.0281 27.936V29.424C93.0281 29.584 92.9721 29.72 92.8601 29.832C92.7641 29.944 92.6281 30 92.4521 30H90.5081ZM98.0611 30.24C97.2451 30.24 96.4931 30.08 95.8051 29.76C95.1331 29.424 94.5971 28.976 94.1971 28.416C93.8131 27.856 93.6211 27.24 93.6211 26.568C93.6211 25.48 94.0611 24.6 94.9411 23.928C95.8211 23.256 97.0291 22.8 98.5651 22.56L101.853 22.08V21.576C101.853 20.872 101.677 20.344 101.325 19.992C100.973 19.64 100.405 19.464 99.6211 19.464C99.0931 19.464 98.6611 19.568 98.3251 19.776C98.0051 19.968 97.7491 20.16 97.5571 20.352C97.3651 20.56 97.2371 20.696 97.1731 20.76C97.1091 20.952 96.9891 21.048 96.8131 21.048H94.9651C94.8211 21.048 94.6931 21 94.5811 20.904C94.4851 20.808 94.4371 20.68 94.4371 20.52C94.4531 20.12 94.6451 19.664 95.0131 19.152C95.3971 18.64 95.9811 18.2 96.7651 17.832C97.5491 17.464 98.5091 17.28 99.6451 17.28C101.533 17.28 102.909 17.704 103.773 18.552C104.637 19.4 105.069 20.512 105.069 21.888V29.424C105.069 29.584 105.013 29.72 104.901 29.832C104.805 29.944 104.669 30 104.493 30H102.549C102.389 30 102.253 29.944 102.141 29.832C102.029 29.72 101.973 29.584 101.973 29.424V28.488C101.621 29 101.117 29.424 100.461 29.76C99.8211 30.08 99.0211 30.24 98.0611 30.24ZM98.8771 27.96C99.7571 27.96 100.477 27.672 101.037 27.096C101.597 26.52 101.877 25.68 101.877 24.576V24.072L99.4771 24.456C98.5491 24.6 97.8451 24.832 97.3651 25.152C96.9011 25.472 96.6691 25.864 96.6691 26.328C96.6691 26.84 96.8851 27.24 97.3171 27.528C97.7491 27.816 98.2691 27.96 98.8771 27.96ZM108.028 30C107.868 30 107.732 29.944 107.62 29.832C107.508 29.72 107.452 29.584 107.452 29.424V13.536C107.452 13.36 107.508 13.224 107.62 13.128C107.732 13.016 107.868 12.96 108.028 12.96H110.02C110.196 12.96 110.332 13.016 110.428 13.128C110.54 13.224 110.596 13.36 110.596 13.536V29.424C110.596 29.584 110.54 29.72 110.428 29.832C110.332 29.944 110.196 30 110.02 30H108.028ZM116.468 30C116.26 30 116.092 29.952 115.964 29.856C115.852 29.744 115.756 29.592 115.676 29.4L112.244 18.264C112.228 18.216 112.22 18.144 112.22 18.048C112.22 17.904 112.268 17.784 112.364 17.688C112.476 17.576 112.596 17.52 112.724 17.52H114.5C114.676 17.52 114.82 17.568 114.932 17.664C115.044 17.76 115.116 17.864 115.148 17.976L117.5 25.92L119.996 18.048C120.044 17.904 120.124 17.784 120.236 17.688C120.364 17.576 120.524 17.52 120.716 17.52H121.916C122.108 17.52 122.26 17.576 122.372 17.688C122.5 17.784 122.588 17.904 122.636 18.048L125.132 25.92L127.484 17.976C127.5 17.864 127.564 17.76 127.676 17.664C127.804 17.568 127.948 17.52 128.108 17.52H129.884C130.028 17.52 130.148 17.576 130.244 17.688C130.356 17.784 130.412 17.904 130.412 18.048L130.364 18.264L126.932 29.4C126.868 29.592 126.772 29.744 126.644 29.856C126.532 29.952 126.372 30 126.164 30H124.604C124.188 30 123.924 29.8 123.812 29.4L121.316 21.816L118.82 29.4C118.692 29.8 118.42 30 118.004 30H116.468ZM132.507 15.456C132.347 15.456 132.211 15.4 132.099 15.288C131.987 15.176 131.931 15.04 131.931 14.88V13.152C131.931 12.992 131.987 12.856 132.099 12.744C132.211 12.632 132.347 12.576 132.507 12.576H134.691C134.851 12.576 134.987 12.632 135.099 12.744C135.227 12.856 135.291 12.992 135.291 13.152V14.88C135.291 15.04 135.235 15.176 135.123 15.288C135.011 15.4 134.867 15.456 134.691 15.456H132.507ZM132.603 30C132.443 30 132.307 29.944 132.195 29.832C132.083 29.72 132.027 29.584 132.027 29.424V18.096C132.027 17.936 132.083 17.8 132.195 17.688C132.307 17.576 132.443 17.52 132.603 17.52H134.595C134.771 17.52 134.907 17.576 135.003 17.688C135.115 17.784 135.171 17.92 135.171 18.096V29.424C135.171 29.584 135.115 29.72 135.003 29.832C134.907 29.944 134.771 30 134.595 30H132.603ZM138.211 30C138.051 30 137.915 29.944 137.803 29.832C137.691 29.72 137.635 29.584 137.635 29.424V18.096C137.635 17.936 137.691 17.8 137.803 17.688C137.915 17.576 138.051 17.52 138.211 17.52H140.179C140.339 17.52 140.475 17.576 140.587 17.688C140.699 17.8 140.755 17.936 140.755 18.096V19.08C141.699 17.88 143.035 17.28 144.763 17.28C146.235 17.28 147.403 17.768 148.267 18.744C149.131 19.704 149.563 21.016 149.563 22.68V29.424C149.563 29.584 149.507 29.72 149.395 29.832C149.299 29.944 149.163 30 148.987 30H146.875C146.715 30 146.579 29.944 146.467 29.832C146.355 29.72 146.299 29.584 146.299 29.424V22.824C146.299 21.88 146.067 21.152 145.603 20.64C145.155 20.112 144.499 19.848 143.635 19.848C142.787 19.848 142.115 20.112 141.619 20.64C141.139 21.168 140.899 21.896 140.899 22.824V29.424C140.899 29.584 140.843 29.72 140.731 29.832C140.635 29.944 140.499 30 140.323 30H138.211ZM157.532 35.28C156.108 35.28 154.956 35.04 154.076 34.56C153.196 34.096 152.572 33.56 152.204 32.952C151.836 32.344 151.652 31.824 151.652 31.392C151.652 31.248 151.708 31.12 151.82 31.008C151.948 30.896 152.084 30.84 152.228 30.84H154.316C154.46 30.84 154.58 30.872 154.676 30.936C154.788 31.016 154.876 31.152 154.94 31.344C155.1 31.776 155.356 32.136 155.708 32.424C156.076 32.728 156.644 32.88 157.412 32.88C158.372 32.88 159.076 32.664 159.524 32.232C159.988 31.8 160.22 31.056 160.22 30V28.368C159.34 29.408 158.108 29.928 156.524 29.928C154.86 29.928 153.604 29.416 152.756 28.392C151.924 27.368 151.476 25.992 151.412 24.264L151.388 23.616L151.412 22.968C151.476 21.272 151.932 19.904 152.78 18.864C153.628 17.808 154.876 17.28 156.524 17.28C157.372 17.28 158.116 17.44 158.756 17.76C159.396 18.08 159.932 18.52 160.364 19.08V18.12C160.364 17.944 160.42 17.8 160.532 17.688C160.644 17.576 160.78 17.52 160.94 17.52H162.884C163.044 17.52 163.18 17.584 163.292 17.712C163.404 17.824 163.46 17.96 163.46 18.12L163.484 29.688C163.484 31.464 162.988 32.84 161.996 33.816C161.004 34.792 159.516 35.28 157.532 35.28ZM157.412 27.384C158.324 27.384 159.004 27.096 159.452 26.52C159.916 25.944 160.172 25.24 160.22 24.408C160.236 24.28 160.244 24.016 160.244 23.616C160.244 23.232 160.236 22.976 160.22 22.848C160.172 22 159.916 21.288 159.452 20.712C159.004 20.136 158.324 19.848 157.412 19.848C155.684 19.848 154.772 20.912 154.676 23.04L154.652 23.616C154.652 24.752 154.852 25.664 155.252 26.352C155.668 27.04 156.388 27.384 157.412 27.384ZM166.393 30C166.233 30 166.097 29.944 165.985 29.832C165.873 29.72 165.817 29.584 165.817 29.424V27.048C165.817 26.888 165.873 26.752 165.985 26.64C166.097 26.512 166.233 26.448 166.393 26.448H168.793C168.953 26.448 169.089 26.512 169.201 26.64C169.313 26.752 169.369 26.888 169.369 27.048V29.424C169.369 29.584 169.313 29.72 169.201 29.832C169.089 29.944 168.953 30 168.793 30H166.393ZM176.899 30.24C175.139 30.24 173.731 29.752 172.675 28.776C171.635 27.8 171.083 26.448 171.019 24.72L170.995 23.76L171.019 22.8C171.083 21.072 171.635 19.72 172.675 18.744C173.731 17.768 175.139 17.28 176.899 17.28C178.147 17.28 179.203 17.504 180.067 17.952C180.947 18.4 181.595 18.952 182.011 19.608C182.443 20.248 182.675 20.856 182.707 21.432C182.723 21.592 182.667 21.728 182.539 21.84C182.427 21.952 182.291 22.008 182.131 22.008H180.019C179.859 22.008 179.731 21.976 179.635 21.912C179.555 21.832 179.475 21.704 179.395 21.528C179.155 20.904 178.835 20.456 178.435 20.184C178.051 19.912 177.555 19.776 176.947 19.776C176.131 19.776 175.491 20.04 175.027 20.568C174.563 21.08 174.315 21.864 174.283 22.92L174.259 23.808L174.283 24.6C174.347 26.696 175.235 27.744 176.947 27.744C177.571 27.744 178.075 27.608 178.459 27.336C178.843 27.064 179.155 26.616 179.395 25.992C179.475 25.816 179.555 25.696 179.635 25.632C179.731 25.552 179.859 25.512 180.019 25.512H182.131C182.291 25.512 182.427 25.568 182.539 25.68C182.667 25.792 182.723 25.928 182.707 26.088C182.675 26.648 182.451 27.248 182.035 27.888C181.619 28.528 180.979 29.08 180.115 29.544C179.251 30.008 178.179 30.24 176.899 30.24ZM190.01 30.24C188.138 30.24 186.69 29.76 185.666 28.8C184.642 27.824 184.09 26.496 184.01 24.816L183.986 23.76L184.01 22.704C184.09 21.04 184.65 19.72 185.69 18.744C186.73 17.768 188.17 17.28 190.01 17.28C191.85 17.28 193.29 17.768 194.33 18.744C195.37 19.72 195.93 21.04 196.01 22.704C196.026 22.896 196.034 23.248 196.034 23.76C196.034 24.272 196.026 24.624 196.01 24.816C195.93 26.496 195.378 27.824 194.354 28.8C193.33 29.76 191.882 30.24 190.01 30.24ZM190.01 27.864C190.858 27.864 191.514 27.6 191.978 27.072C192.442 26.528 192.698 25.736 192.746 24.696C192.762 24.536 192.77 24.224 192.77 23.76C192.77 23.296 192.762 22.984 192.746 22.824C192.698 21.784 192.442 21 191.978 20.472C191.514 19.928 190.858 19.656 190.01 19.656C189.162 19.656 188.506 19.928 188.042 20.472C187.578 21 187.322 21.784 187.274 22.824L187.25 23.76L187.274 24.696C187.322 25.736 187.578 26.528 188.042 27.072C188.506 27.6 189.162 27.864 190.01 27.864Z" fill="white"/>
</svg>
