<svg width="88" height="100" viewBox="0 0 88 100" fill="none" xmlns="http://www.w3.org/2000/svg">
<path d="M66.9166 18.75H61.6625C61.4422 18.1313 61.1904 17.5242 60.9084 16.9313L64.625 13.2146C65.4383 12.4012 65.4383 11.0824 64.625 10.2688L58.7313 4.375C57.9178 3.56172 56.599 3.56172 55.7854 4.375L52.0688 8.0916C51.4758 7.80937 50.8688 7.55781 50.25 7.3375V2.0834C50.25 0.932812 49.3172 0 48.1666 0H39.8332C38.6828 0 37.75 0.932812 37.75 2.0834V7.3375C37.1314 7.55703 36.5242 7.8082 35.9313 8.08965L32.2146 4.375C31.4012 3.56172 30.0824 3.56172 29.2688 4.375L23.375 10.2688C22.5617 11.0822 22.5617 12.401 23.375 13.2146L27.0916 16.9313C26.8094 17.5242 26.5578 18.1313 26.3375 18.75H21.0834C19.9328 18.75 19 19.6828 19 20.8334V29.1668C19 30.3174 19.9328 31.2502 21.0834 31.2502H26.3375C26.557 31.8688 26.8082 32.476 27.0896 33.0689L23.375 36.7854C22.5617 37.5988 22.5617 38.9176 23.375 39.7313L29.2688 45.625C30.0822 46.4383 31.401 46.4383 32.2146 45.625L35.9313 41.9084C36.5242 42.1906 37.1312 42.4422 37.75 42.6625V47.9166C37.75 49.0672 38.6828 50 39.8334 50H48.1668C49.3174 50 50.2502 49.0672 50.2502 47.9166V42.6645C50.8689 42.4441 51.476 42.1924 52.0689 41.9104L55.7855 45.625C56.599 46.4383 57.9178 46.4383 58.7314 45.625L64.6252 39.7313C65.4385 38.9178 65.4385 37.599 64.6252 36.7854L60.9086 33.0687C61.1908 32.4758 61.4424 31.8687 61.6627 31.25H66.9168C68.0674 31.25 69.0002 30.3172 69.0002 29.1666V20.8332C69 19.6828 68.0672 18.75 66.9166 18.75ZM64.8334 27.0813H60.123C59.1732 27.0814 58.3438 27.724 58.1064 28.6438C57.7664 29.96 57.2439 31.2223 56.5543 32.3937C56.0705 33.2125 56.2025 34.2549 56.8752 34.9271L60.2086 38.2605L57.2627 41.2064L53.9293 37.873C53.257 37.2004 52.2146 37.0684 51.3959 37.5521C50.2244 38.2418 48.9621 38.7643 47.6459 39.1043C46.7262 39.3418 46.0836 40.1711 46.0834 41.1209V45.8334H41.9168L41.9189 41.1271C41.9188 40.1773 41.2762 39.3479 40.3564 39.1105C39.0402 38.7705 37.7779 38.248 36.6064 37.5584C35.7877 37.0746 34.7453 37.2066 34.073 37.8793L30.7396 41.2127L27.7938 38.2668L31.1271 34.9334C31.7998 34.2611 31.9318 33.2188 31.448 32.4C30.7584 31.2285 30.2359 29.9662 29.8959 28.65C29.6584 27.7303 28.8291 27.0877 27.8793 27.0875H23.1668V22.9209H27.8814C28.8313 22.9207 29.6607 22.2781 29.898 21.3584C30.2381 20.0422 30.7605 18.7799 31.4502 17.6084C31.934 16.7896 31.802 15.7473 31.1293 15.075L27.7959 11.7416L30.7375 8.79375L34.0709 12.1271C34.7432 12.7998 35.7855 12.9318 36.6043 12.448C37.7758 11.7584 39.0381 11.2359 40.3543 10.8959C41.274 10.6584 41.9166 9.8291 41.9168 8.8793V4.1666H46.0834V8.8791C46.0822 9.82852 46.723 10.6586 47.6418 10.8979C48.958 11.2379 50.2203 11.7604 51.3918 12.45C52.2105 12.9338 53.2529 12.8018 53.9252 12.1291L57.2586 8.7957L60.2064 11.7373L56.873 15.0707C56.2004 15.743 56.0684 16.7854 56.5521 17.6041C57.2418 18.7756 57.7643 20.0379 58.1043 21.3541C58.3418 22.2738 59.1711 22.9164 60.1209 22.9166H64.8334V27.0813Z" fill="url(#paint0_linear)"/>
<path d="M44 16.6666C39.3976 16.6666 35.6666 20.3976 35.6666 25C35.6666 29.6023 39.3976 33.3334 44 33.3334C48.6023 33.3334 52.3334 29.6023 52.3334 25C52.3334 20.3976 48.6023 16.6666 44 16.6666ZM44 29.1666C41.6988 29.1666 39.8334 27.3012 39.8334 25C39.8334 22.6988 41.6988 20.8334 44 20.8334C46.3012 20.8334 48.1666 22.6988 48.1666 25C48.1666 27.3012 46.3012 29.1666 44 29.1666Z" fill="url(#paint1_linear)"/>
<path d="M29.4166 52.0834V56.1897C29.4166 63.125 25.6791 68.75 21.0832 68.75C16.4875 68.75 12.75 63.125 12.75 56.1897V52.3772C13.7813 48.5971 17.1666 45.9387 21.0834 45.8334V41.6668C15.1688 41.7645 10.0617 45.8336 8.6459 51.5772C8.6045 51.7428 8.5834 51.9127 8.5834 52.0834V56.1897C8.5834 65.5688 14.075 72.9168 21.0834 72.9168C28.0918 72.9168 33.5834 65.569 33.5834 56.1897V52.0834H29.4166Z" fill="url(#paint2_linear)"/>
<path d="M31.5001 72.9166C31.3323 72.9273 31.1641 72.9273 30.9963 72.9166C28.8342 72.7775 27.1942 70.9121 27.3335 68.75H23.1669C23.1622 68.9092 23.1622 69.0686 23.1669 69.2279C23.2989 73.6982 27.0297 77.2154 31.5003 77.0834C34.952 77.0834 37.7503 79.8816 37.7503 83.3334V100H41.9169V83.3334C41.9098 77.5832 37.2503 72.9236 31.5001 72.9166Z" fill="url(#paint3_linear)"/>
<path d="M19 68.75H14.8334C14.8439 68.9162 14.8439 69.083 14.8334 69.2492C14.6955 71.4125 12.8301 73.0545 10.6668 72.9166C4.9166 72.9236 0.256836 77.5832 0.25 83.3334V100H4.4166V83.3334C4.4166 79.8816 7.21484 77.0834 10.6666 77.0834C10.8258 77.0881 10.9852 77.0881 11.1445 77.0834C15.615 76.9514 19.132 73.2205 19 68.75Z" fill="url(#paint4_linear)"/>
<path d="M12.7506 85.416H8.58405V100H12.7506V85.416Z" fill="url(#paint5_linear)"/>
<path d="M33.5826 85.416H29.416V100H33.5826V85.416Z" fill="url(#paint6_linear)"/>
<path d="M79.3541 51.5772C77.9383 45.8336 72.8313 41.7643 66.9166 41.6668V45.8334C70.8324 45.9391 74.2174 48.5963 75.25 52.375V56.1897C75.25 63.125 71.5125 68.75 66.9166 68.75C62.3207 68.75 58.5832 63.125 58.5832 56.1897V52.0834H54.4166V56.1897C54.4166 65.5688 59.9082 72.9168 66.9166 72.9168C73.925 72.9168 79.4166 65.569 79.4166 56.1897V52.0834C79.4166 51.9127 79.3957 51.7426 79.3541 51.5772Z" fill="url(#paint7_linear)"/>
<path d="M77.3334 72.9166C77.1657 72.9273 76.9975 72.9273 76.8297 72.9166C74.6676 72.7775 73.0276 70.9121 73.1668 68.75H69.0001C68.9954 68.9092 68.9954 69.0686 69.0001 69.2279C69.1321 73.6982 72.8629 77.2154 77.3334 77.0834C80.7852 77.0834 83.5834 79.8816 83.5834 83.3334V100H87.75V83.3334C87.7432 77.5832 83.0834 72.9236 77.3334 72.9166Z" fill="url(#paint8_linear)"/>
<path d="M64.8334 68.75H60.6668C60.6774 68.9162 60.6774 69.083 60.6668 69.2492C60.5289 71.4125 58.6635 73.0545 56.5002 72.9166C50.75 72.9234 46.0905 77.5832 46.0836 83.3332V100H50.25V83.3334C50.25 79.8816 53.0483 77.0834 56.5 77.0834C56.6592 77.0881 56.8186 77.0881 56.978 77.0834C61.4483 76.9514 64.9653 73.2205 64.8334 68.75Z" fill="url(#paint9_linear)"/>
<path d="M58.5825 85.416H54.4159V100H58.5825V85.416Z" fill="url(#paint10_linear)"/>
<path d="M79.4166 85.416H75.25V100H79.4166V85.416Z" fill="url(#paint11_linear)"/>
<path d="M46.0825 54.166H41.916V58.3326H46.0825V54.166Z" fill="url(#paint12_linear)"/>
<path d="M46.0825 62.5H41.916V66.6666H46.0825V62.5Z" fill="url(#paint13_linear)"/>
<path d="M46.0825 70.834H41.916V75.0006H46.0825V70.834Z" fill="url(#paint14_linear)"/>
<defs>
<linearGradient id="paint0_linear" x1="80.0938" y1="3.38815e-06" x2="-0.745337" y2="81.7865" gradientUnits="userSpaceOnUse">
<stop stop-color="#54D6BF"/>
<stop offset="1" stop-color="#9851DF"/>
</linearGradient>
<linearGradient id="paint1_linear" x1="80.0938" y1="3.38815e-06" x2="-0.745337" y2="81.7865" gradientUnits="userSpaceOnUse">
<stop stop-color="#54D6BF"/>
<stop offset="1" stop-color="#9851DF"/>
</linearGradient>
<linearGradient id="paint2_linear" x1="80.0938" y1="3.38815e-06" x2="-0.745337" y2="81.7865" gradientUnits="userSpaceOnUse">
<stop stop-color="#54D6BF"/>
<stop offset="1" stop-color="#9851DF"/>
</linearGradient>
<linearGradient id="paint3_linear" x1="80.0938" y1="3.38815e-06" x2="-0.745337" y2="81.7865" gradientUnits="userSpaceOnUse">
<stop stop-color="#54D6BF"/>
<stop offset="1" stop-color="#9851DF"/>
</linearGradient>
<linearGradient id="paint4_linear" x1="80.0938" y1="3.38815e-06" x2="-0.745337" y2="81.7865" gradientUnits="userSpaceOnUse">
<stop stop-color="#54D6BF"/>
<stop offset="1" stop-color="#9851DF"/>
</linearGradient>
<linearGradient id="paint5_linear" x1="80.0938" y1="3.38815e-06" x2="-0.745337" y2="81.7865" gradientUnits="userSpaceOnUse">
<stop stop-color="#54D6BF"/>
<stop offset="1" stop-color="#9851DF"/>
</linearGradient>
<linearGradient id="paint6_linear" x1="80.0938" y1="3.38815e-06" x2="-0.745337" y2="81.7865" gradientUnits="userSpaceOnUse">
<stop stop-color="#54D6BF"/>
<stop offset="1" stop-color="#9851DF"/>
</linearGradient>
<linearGradient id="paint7_linear" x1="80.0938" y1="3.38815e-06" x2="-0.745337" y2="81.7865" gradientUnits="userSpaceOnUse">
<stop stop-color="#54D6BF"/>
<stop offset="1" stop-color="#9851DF"/>
</linearGradient>
<linearGradient id="paint8_linear" x1="80.0938" y1="3.38815e-06" x2="-0.745337" y2="81.7865" gradientUnits="userSpaceOnUse">
<stop stop-color="#54D6BF"/>
<stop offset="1" stop-color="#9851DF"/>
</linearGradient>
<linearGradient id="paint9_linear" x1="80.0938" y1="3.38815e-06" x2="-0.745337" y2="81.7865" gradientUnits="userSpaceOnUse">
<stop stop-color="#54D6BF"/>
<stop offset="1" stop-color="#9851DF"/>
</linearGradient>
<linearGradient id="paint10_linear" x1="80.0938" y1="3.38815e-06" x2="-0.745337" y2="81.7865" gradientUnits="userSpaceOnUse">
<stop stop-color="#54D6BF"/>
<stop offset="1" stop-color="#9851DF"/>
</linearGradient>
<linearGradient id="paint11_linear" x1="80.0938" y1="3.38815e-06" x2="-0.745337" y2="81.7865" gradientUnits="userSpaceOnUse">
<stop stop-color="#54D6BF"/>
<stop offset="1" stop-color="#9851DF"/>
</linearGradient>
<linearGradient id="paint12_linear" x1="80.0938" y1="3.38815e-06" x2="-0.745337" y2="81.7865" gradientUnits="userSpaceOnUse">
<stop stop-color="#54D6BF"/>
<stop offset="1" stop-color="#9851DF"/>
</linearGradient>
<linearGradient id="paint13_linear" x1="80.0938" y1="3.38815e-06" x2="-0.745337" y2="81.7865" gradientUnits="userSpaceOnUse">
<stop stop-color="#54D6BF"/>
<stop offset="1" stop-color="#9851DF"/>
</linearGradient>
<linearGradient id="paint14_linear" x1="80.0938" y1="3.38815e-06" x2="-0.745337" y2="81.7865" gradientUnits="userSpaceOnUse">
<stop stop-color="#54D6BF"/>
<stop offset="1" stop-color="#9851DF"/>
</linearGradient>
</defs>
</svg>
