<svg width="100" height="100" viewBox="0 0 100 100" fill="none" xmlns="http://www.w3.org/2000/svg">
<path d="M20.8008 74.9352C20.8008 75.7439 21.4569 76.4 22.2656 76.4C23.0743 76.4 23.7305 75.7439 23.7305 74.9352V59.2751C23.7602 59.2751 23.79 59.2766 23.8197 59.2766C24.8291 59.2766 25.7301 59.1377 26.3985 58.9928C27.1706 58.8249 27.7199 58.1306 27.7054 57.341C27.6909 56.5506 27.1156 55.8769 26.3382 55.7373C25.6088 55.6068 25.1129 55.294 24.778 54.7539C24.0639 53.6026 24.1852 51.6884 24.4118 50.3868H32.2144C37.175 50.3868 41.2109 46.3509 41.2109 41.3902V23.2506C41.2109 18.2899 37.175 14.254 32.2144 14.254H23.7305V11.9141H31.1852C31.9939 11.9141 32.65 11.2579 32.65 10.4492C32.65 9.6405 31.9939 8.98438 31.1852 8.98438H23.7305V7.32422C23.7305 4.90112 25.7019 2.92969 28.125 2.92969H71.875C74.2981 2.92969 76.2695 4.90112 76.2695 7.32422V8.98438H37.4352C36.6257 8.98438 35.9703 9.6405 35.9703 10.4492C35.9703 11.2579 36.6257 11.9141 37.4352 11.9141H76.2695V18.75C76.2695 19.5587 76.9257 20.2148 77.7344 20.2148C78.5431 20.2148 79.1992 19.5587 79.1992 18.75V7.32422C79.1992 3.28522 75.914 0 71.875 0H28.125C24.086 0 20.8008 3.28522 20.8008 7.32422V14.254H8.99658C4.03595 14.254 0 18.2899 0 23.2506V41.3902C0 46.3509 4.03595 50.3868 8.99658 50.3868H15.0055C15.4282 53.7125 16.6405 56.1531 18.6188 57.653C19.3169 58.1825 20.0569 58.551 20.8008 58.8036V74.9352ZM17.8032 48.835C17.7574 48.0614 17.1165 47.4571 16.3406 47.4571H8.99658C5.65109 47.4571 2.92969 44.7357 2.92969 41.3902V23.2506C2.92969 19.9051 5.65109 17.1837 8.99658 17.1837H32.2144C35.5598 17.1837 38.2812 19.9051 38.2812 23.2506V41.3902C38.2812 44.7357 35.5598 47.4571 32.2144 47.4571H23.2422C22.5929 47.4571 22.0207 47.8851 21.8376 48.5077C21.6949 48.9899 20.5139 53.2478 22.2084 56.1653C21.5782 56.0112 20.9534 55.7465 20.3896 55.3185C18.8599 54.1588 17.9893 51.9775 17.8032 48.835Z" fill="url(#paint0_linear)"/>
<path d="M46.0938 95.5078H53.9062C54.715 95.5078 55.3711 94.8517 55.3711 94.043C55.3711 93.2343 54.715 92.5781 53.9062 92.5781H46.0938C45.285 92.5781 44.6289 93.2343 44.6289 94.043C44.6289 94.8517 45.285 95.5078 46.0938 95.5078Z" fill="url(#paint1_linear)"/>
<path d="M30.2734 29.8004C30.2734 26.3947 27.8496 23.7267 24.7559 23.7267C22.9118 23.7267 21.5523 24.4858 20.7031 25.1663C19.854 24.4858 18.4944 23.7267 16.6504 23.7267C13.5567 23.7267 11.1328 26.3947 11.1328 29.8004C11.1328 31.9618 12.236 36.1687 19.6274 40.0627C19.9638 40.2405 20.3339 40.329 20.7031 40.329C21.0732 40.329 21.4424 40.2397 21.7796 40.0627C29.1702 36.1687 30.2734 31.9618 30.2734 29.8004ZM14.0625 29.8004C14.0625 28.2761 14.9696 26.6563 16.6504 26.6563C17.8673 26.6563 18.7073 27.2491 19.1971 27.7466C19.5908 28.1456 20.1393 28.3737 20.7031 28.3737C21.2669 28.3737 21.8155 28.1448 22.2092 27.7466C22.699 27.2491 23.539 26.6563 24.7559 26.6563C26.4366 26.6563 27.3438 28.2761 27.3438 29.8004C27.3438 32.2983 24.9283 35.0273 20.7031 37.3161C16.478 35.0266 14.0625 32.2983 14.0625 29.8004Z" fill="url(#paint2_linear)"/>
<path d="M91.0034 38.0821H79.1992V24.9344C79.1992 24.1257 78.5431 23.4695 77.7344 23.4695C76.9257 23.4695 76.2695 24.1257 76.2695 24.9344V38.0821H67.7856C62.825 38.0821 58.7891 42.1181 58.7891 47.0787V65.2176C58.7891 70.179 62.825 74.2149 67.7856 74.2149H75.5867C75.808 75.5043 75.9331 77.4315 75.2243 78.5782C74.8894 79.1206 74.3927 79.4342 73.6618 79.5654C72.8844 79.7043 72.3091 80.3787 72.2946 81.1684C72.2801 81.958 72.8294 82.653 73.6015 82.8209C74.2699 82.9659 75.1701 83.1039 76.1803 83.1039C76.2093 83.1039 76.2398 83.1032 76.2695 83.1032V88.0859H23.7305V81.2172C23.7305 80.4085 23.0743 79.7523 22.2656 79.7523C21.4561 79.7523 20.8008 80.4085 20.8008 81.2172V92.6758C20.8008 96.7148 24.086 100 28.125 100H71.875C75.9132 100 79.1992 96.7148 79.1992 92.6758V82.6317C79.9431 82.3792 80.6824 82.0107 81.3805 81.4812C83.3595 79.9812 84.5718 77.5406 84.9937 74.2149H91.0027C95.9641 74.2149 100 70.179 100 65.2184V47.0787C100 42.1181 95.9641 38.0821 91.0034 38.0821ZM76.2695 92.6758C76.2695 95.0989 74.2981 97.0703 71.875 97.0703H28.125C25.7019 97.0703 23.7305 95.0989 23.7305 92.6758V91.0156H76.2695V92.6758ZM97.0703 65.2184C97.0703 68.5638 94.3489 71.2852 91.0034 71.2852H83.6586C82.8835 71.2852 82.2426 71.8895 82.1968 72.6631C82.0099 75.8057 81.1401 77.9877 79.6104 79.1466C79.0466 79.5746 78.4218 79.8393 77.7916 79.9934C79.4861 77.0752 78.3051 72.8172 78.1624 72.3358C77.9793 71.7133 77.4071 71.2852 76.7578 71.2852H67.7856C64.4402 71.2852 61.7188 68.5638 61.7188 65.2184V47.0787C61.7188 43.7332 64.4402 41.0118 67.7856 41.0118H91.0034C94.3489 41.0118 97.0703 43.7332 97.0703 47.0787V65.2184Z" fill="url(#paint3_linear)"/>
<path d="M83.7257 53.6972C84.4978 52.742 84.9609 51.5274 84.9609 50.206C84.9609 47.1367 82.4638 44.6396 79.3945 44.6396C76.3252 44.6396 73.8281 47.1367 73.8281 50.206C73.8281 51.5274 74.2912 52.7412 75.0633 53.6972C72.7058 54.9416 71.0938 57.4173 71.0938 60.2631V60.3928C71.0938 62.368 72.7013 63.9755 74.6773 63.9755H84.1125C86.0878 63.9755 87.6953 62.368 87.6953 60.3928V60.2631C87.6953 57.4173 86.0832 54.9416 83.7257 53.6972ZM79.3945 47.5693C80.8487 47.5693 82.0312 48.7526 82.0312 50.206C82.0312 51.6602 80.8487 52.8427 79.3945 52.8427C77.9404 52.8427 76.7578 51.6602 76.7578 50.206C76.7578 48.7526 77.9404 47.5693 79.3945 47.5693ZM84.7656 60.3928C84.7656 60.7529 84.4727 61.0458 84.1118 61.0458H74.6765C74.3164 61.0458 74.0234 60.7529 74.0234 60.3928V60.2631C74.0234 57.7873 76.0376 55.7724 78.5141 55.7724H80.275C82.7515 55.7724 84.7656 57.7873 84.7656 60.2631V60.3928Z" fill="url(#paint4_linear)"/>
<path d="M67.9901 18.0954H47.287C46.4775 18.0954 45.8221 18.7515 45.8221 19.5602C45.8221 20.369 46.4775 21.0251 47.287 21.0251H67.9901C68.7988 21.0251 69.455 20.369 69.455 19.5602C69.455 18.7515 68.7988 18.0954 67.9901 18.0954Z" fill="url(#paint5_linear)"/>
<path d="M67.9901 23.9548H47.287C46.4775 23.9548 45.8221 24.6109 45.8221 25.4196C45.8221 26.2283 46.4775 26.8845 47.287 26.8845H67.9901C68.7988 26.8845 69.455 26.2283 69.455 25.4196C69.455 24.6109 68.7988 23.9548 67.9901 23.9548Z" fill="url(#paint6_linear)"/>
<path d="M69.455 31.279C69.455 30.4703 68.7988 29.8141 67.9901 29.8141H47.287C46.4775 29.8141 45.8221 30.4703 45.8221 31.279C45.8221 32.0877 46.4775 32.7438 47.287 32.7438H67.9901C68.7988 32.7438 69.455 32.0877 69.455 31.279Z" fill="url(#paint7_linear)"/>
<path d="M53.5331 60.9039C53.5331 60.0952 52.877 59.4391 52.0683 59.4391H31.3652C30.5557 59.4391 29.9003 60.0952 29.9003 60.9039V66.7633C29.9003 67.572 30.5557 68.2281 31.3652 68.2281H52.0683C52.877 68.2281 53.5331 67.572 53.5331 66.7633V60.9039ZM50.6034 65.2985H32.83V62.3688H50.6034V65.2985Z" fill="url(#paint8_linear)"/>
<path d="M52.0683 71.1578H31.3652C30.5557 71.1578 29.9003 71.814 29.9003 72.6227C29.9003 73.4314 30.5557 74.0875 31.3652 74.0875H52.0683C52.877 74.0875 53.5331 73.4314 53.5331 72.6227C53.5331 71.814 52.877 71.1578 52.0683 71.1578Z" fill="url(#paint9_linear)"/>
<defs>
<linearGradient id="paint0_linear" x1="91.25" y1="3.38815e-06" x2="11.25" y2="92.5" gradientUnits="userSpaceOnUse">
<stop stop-color="#54D6BF"/>
<stop offset="1" stop-color="#9851DF"/>
</linearGradient>
<linearGradient id="paint1_linear" x1="91.25" y1="3.38815e-06" x2="11.25" y2="92.5" gradientUnits="userSpaceOnUse">
<stop stop-color="#54D6BF"/>
<stop offset="1" stop-color="#9851DF"/>
</linearGradient>
<linearGradient id="paint2_linear" x1="91.25" y1="3.38815e-06" x2="11.25" y2="92.5" gradientUnits="userSpaceOnUse">
<stop stop-color="#54D6BF"/>
<stop offset="1" stop-color="#9851DF"/>
</linearGradient>
<linearGradient id="paint3_linear" x1="91.25" y1="3.38815e-06" x2="11.25" y2="92.5" gradientUnits="userSpaceOnUse">
<stop stop-color="#54D6BF"/>
<stop offset="1" stop-color="#9851DF"/>
</linearGradient>
<linearGradient id="paint4_linear" x1="91.25" y1="3.38815e-06" x2="11.25" y2="92.5" gradientUnits="userSpaceOnUse">
<stop stop-color="#54D6BF"/>
<stop offset="1" stop-color="#9851DF"/>
</linearGradient>
<linearGradient id="paint5_linear" x1="91.25" y1="3.38815e-06" x2="11.25" y2="92.5" gradientUnits="userSpaceOnUse">
<stop stop-color="#54D6BF"/>
<stop offset="1" stop-color="#9851DF"/>
</linearGradient>
<linearGradient id="paint6_linear" x1="91.25" y1="3.38815e-06" x2="11.25" y2="92.5" gradientUnits="userSpaceOnUse">
<stop stop-color="#54D6BF"/>
<stop offset="1" stop-color="#9851DF"/>
</linearGradient>
<linearGradient id="paint7_linear" x1="91.25" y1="3.38815e-06" x2="11.25" y2="92.5" gradientUnits="userSpaceOnUse">
<stop stop-color="#54D6BF"/>
<stop offset="1" stop-color="#9851DF"/>
</linearGradient>
<linearGradient id="paint8_linear" x1="91.25" y1="3.38815e-06" x2="11.25" y2="92.5" gradientUnits="userSpaceOnUse">
<stop stop-color="#54D6BF"/>
<stop offset="1" stop-color="#9851DF"/>
</linearGradient>
<linearGradient id="paint9_linear" x1="91.25" y1="3.38815e-06" x2="11.25" y2="92.5" gradientUnits="userSpaceOnUse">
<stop stop-color="#54D6BF"/>
<stop offset="1" stop-color="#9851DF"/>
</linearGradient>
</defs>
</svg>
