<svg width="104" height="104" viewBox="0 0 104 104" fill="none" xmlns="http://www.w3.org/2000/svg">
<g filter="url(#filter0_d)">
<circle cx="52" cy="50" r="50" fill="url(#paint0_linear)"/>
</g>
<path d="M57.8594 29.7266C57.2125 29.7266 56.6875 30.2516 56.6875 30.8984C56.6875 31.5453 57.2125 32.0703 57.8594 32.0703C58.5062 32.0703 59.0312 31.5453 59.0312 30.8984C59.0312 30.2516 58.5062 29.7266 57.8594 29.7266Z" fill="white"/>
<path d="M46.1406 29.7266C45.4937 29.7266 44.9688 30.2516 44.9688 30.8984C44.9688 31.5453 45.4937 32.0703 46.1406 32.0703C46.7875 32.0703 47.3125 31.5453 47.3125 30.8984C47.3125 30.2516 46.7875 29.7266 46.1406 29.7266Z" fill="white"/>
<path d="M77.4441 55.0252C78.4499 53.5156 78.9531 51.6321 78.9531 50C78.9531 47.5395 77.8601 45.2536 75.9845 43.7034C76.3996 42.7115 76.6094 41.6799 76.6094 40.625C76.6094 37.3607 74.7044 34.32 71.8721 32.9C72.3018 29.3359 69.9794 26.0689 66.5377 25.2356C65.1906 22.1216 62.1924 20 59.0312 20C56.0887 20 53.4495 21.7163 52 24.2206C50.5504 21.7163 47.9112 20 44.9688 20C41.8074 20 38.8091 22.1216 37.4623 25.2357C34 26.0743 31.6994 29.3575 32.1279 32.9C29.2957 34.3198 27.3906 37.3607 27.3906 40.625C27.3906 41.6799 27.6004 42.7115 28.0155 43.7034C26.1399 45.2537 25.0469 47.5395 25.0469 50C25.0469 51.6406 25.5543 53.5217 26.5559 55.0251C25.5771 56.4068 25.0469 58.0442 25.0469 59.7266C25.0469 61.9081 25.9314 63.9863 27.496 65.5295C26.6916 70.3918 30.5693 75.3125 35.5938 75.3125C35.6301 75.3125 35.6658 75.3119 35.7009 75.3109C37.3667 78.1845 40.4588 80 43.7969 80C47.2759 80 50.3847 77.9117 52 74.903C53.6153 77.9117 56.7241 80 60.2031 80C63.5412 80 66.6333 78.1845 68.2991 75.3109C68.3343 75.3119 68.3699 75.3125 68.4062 75.3125C72.8528 75.3125 76.6094 71.3949 76.6094 66.7578C76.6094 66.363 76.5747 65.957 76.504 65.5295C78.0686 63.9863 78.9531 61.9082 78.9531 59.7266C78.9531 58.0442 78.4228 56.4068 77.4441 55.0252ZM50.8281 37.74C50.1381 37.3398 49.3379 37.1094 48.4844 37.1094C47.8371 37.1094 47.3125 37.634 47.3125 38.2812C47.3125 38.9285 47.8371 39.4531 48.4844 39.4531C49.7767 39.4531 50.8281 40.5045 50.8281 41.7969V64.0823C49.1089 62.1322 46.595 60.8984 43.7969 60.8984C43.1496 60.8984 42.625 61.4231 42.625 62.0703C42.625 62.7175 43.1496 63.2422 43.7969 63.2422C47.6739 63.2422 50.8281 66.3964 50.8281 70.2734C50.8281 74.2753 47.6082 77.6562 43.7969 77.6562C41.0837 77.6562 38.5861 76.0518 37.4337 73.5687C37.2213 73.1111 36.7401 72.8413 36.2384 72.8977C36.1555 72.9072 36.0732 72.9182 35.9908 72.9295C32.6556 73.3856 28.8998 69.609 29.9165 65.3841C30.0209 64.9502 29.8697 64.4948 29.5267 64.2093C28.1692 63.0798 27.3906 61.4458 27.3906 59.7266C27.3906 58.6636 27.6912 57.6233 28.2505 56.7111C29.6561 57.863 31.4044 58.5547 33.25 58.5547C33.8972 58.5547 34.4219 58.03 34.4219 57.3828C34.4219 56.7356 33.8972 56.2109 33.25 56.2109C30.0696 56.2109 27.3906 53.3082 27.3906 50C27.3906 47.9932 28.4136 46.147 30.1272 45.0615C30.6551 44.727 30.8277 44.0371 30.5194 43.4935C29.9985 42.5749 29.7344 41.6097 29.7344 40.625C29.7344 37.4621 32.3127 34.4141 35.5938 34.4141C38.7152 34.4141 41.4531 37.3164 41.4531 40.625C41.4531 41.2722 41.9778 41.7969 42.625 41.7969C43.2722 41.7969 43.7969 41.2722 43.7969 40.625C43.7969 35.9879 40.0403 32.0703 35.5938 32.0703C35.2014 32.0703 34.8112 32.1021 34.4248 32.1622C34.4242 32.1314 34.4219 32.1014 34.4219 32.0703C34.4219 29.455 36.545 27.3828 39.1094 27.3828C40.3612 27.3828 41.5387 27.8704 42.4248 28.7557C42.8827 29.213 43.6246 29.2126 44.0821 28.7548C44.5395 28.2969 44.5391 27.555 44.0813 27.0976C43.0122 26.0296 41.66 25.3486 40.1945 25.1229C41.228 23.5887 42.9466 22.3438 44.9688 22.3438C48.0902 22.3438 50.8281 25.246 50.8281 28.5547V37.74ZM70.75 58.5547C72.5957 58.5547 74.344 57.8629 75.7496 56.7114C76.3088 57.6235 76.6094 58.6637 76.6094 59.7266C76.6094 61.4458 75.8308 63.0798 74.4734 64.2093C74.1303 64.4948 73.9792 64.9503 74.0836 65.3841C74.2079 65.9001 74.2656 66.3366 74.2656 66.7577C74.2656 70.3952 70.9756 73.335 68.0093 72.9295C67.927 72.9182 67.8445 72.9071 67.7616 72.8977C67.2592 72.8409 66.7786 73.1111 66.5664 73.5687C65.414 76.0518 62.9161 77.6562 60.2031 77.6562C56.3918 77.6562 53.1719 74.2753 53.1719 70.2734C53.1719 66.3964 56.3261 63.2422 60.2031 63.2422C60.8502 63.2422 61.375 62.7175 61.375 62.0703C61.375 61.4231 60.8502 60.8984 60.2031 60.8984C57.405 60.8984 54.8911 62.1322 53.1719 64.0823V41.7969C53.1719 40.5045 54.2233 39.4531 55.5156 39.4531C56.1627 39.4531 56.6875 38.9285 56.6875 38.2812C56.6875 37.634 56.1627 37.1094 55.5156 37.1094C54.6621 37.1094 53.8619 37.3398 53.1719 37.74V28.5547C53.1719 25.246 55.9098 22.3438 59.0312 22.3438C61.0534 22.3438 62.7719 23.5888 63.8054 25.1227C62.34 25.3484 60.9879 26.0295 59.9187 27.0975C59.4607 27.5548 59.4603 28.2968 59.9177 28.7547C60.375 29.2127 61.1172 29.213 61.5749 28.7557C62.4614 27.8704 63.6388 27.3828 64.8906 27.3828C67.4679 27.3828 69.5781 29.4672 69.5781 32.0703C69.5781 32.1012 69.5758 32.1314 69.5752 32.1622C69.1888 32.1021 68.7986 32.0703 68.4062 32.0703C63.9597 32.0703 60.2031 35.9879 60.2031 40.625C60.2031 41.2722 60.7279 41.7969 61.375 41.7969C62.0221 41.7969 62.5469 41.2722 62.5469 40.625C62.5469 37.3164 65.2848 34.4141 68.4062 34.4141C71.6854 34.4141 74.2656 37.4606 74.2656 40.625C74.2656 41.6097 74.0015 42.5749 73.4806 43.4935C73.1724 44.0371 73.345 44.727 73.8729 45.0615C75.5864 46.147 76.6094 47.9932 76.6094 50C76.6094 53.32 73.921 56.2109 70.75 56.2109C70.1029 56.2109 69.5781 56.7356 69.5781 57.3828C69.5781 58.03 70.1029 58.5547 70.75 58.5547Z" fill="white"/>
<path d="M48.1859 45.0843C47.7544 44.602 47.0137 44.5607 46.5312 44.9922C42.7732 48.3537 36.7656 45.6672 36.7656 40.625C36.7656 39.9778 36.241 39.4531 35.5937 39.4531C34.9465 39.4531 34.4219 39.9778 34.4219 40.625C34.4219 44.6932 37.3993 48.0775 41.2891 48.7176C40.8379 50.1389 39.5062 51.1719 37.9375 51.1719C37.2903 51.1719 36.7656 51.6965 36.7656 52.3438C36.7656 52.991 37.2903 53.5156 37.9375 53.5156C40.7918 53.5156 43.1746 51.4637 43.6916 48.7576C45.3214 48.5444 46.8552 47.847 48.0938 46.739C48.5761 46.3075 48.6174 45.5667 48.1859 45.0843Z" fill="white"/>
<path d="M35.5938 65.5859C34.9465 65.5859 34.4219 66.1106 34.4219 66.7578C34.4219 67.405 34.9465 67.9297 35.5938 67.9297C38.7152 67.9297 41.4531 70.8321 41.4531 74.1406C41.4531 74.7879 41.9778 75.3125 42.625 75.3125C43.2722 75.3125 43.7969 74.7879 43.7969 74.1406C43.7969 69.5035 40.0403 65.5859 35.5938 65.5859Z" fill="white"/>
<path d="M44.9688 56.2109C40.9978 56.2109 37.5883 58.3889 35.793 61.5556C35.4739 62.1187 35.6716 62.8339 36.2346 63.153C36.7976 63.4721 37.5127 63.2745 37.8319 62.7114C39.2306 60.2439 41.8844 58.5547 44.9688 58.5547C45.616 58.5547 46.1407 58.03 46.1407 57.3828C46.1407 56.7356 45.616 56.2109 44.9688 56.2109Z" fill="white"/>
<path d="M66.0625 51.1719C64.4938 51.1719 63.1621 50.1389 62.711 48.7176C66.6008 48.0775 69.5781 44.6932 69.5781 40.625C69.5781 39.9778 69.0534 39.4531 68.4063 39.4531C67.7592 39.4531 67.2344 39.9778 67.2344 40.625C67.2344 43.8559 64.6059 46.4844 61.375 46.4844C59.9317 46.4844 58.5446 45.9545 57.4688 44.9922C56.9866 44.5607 56.2456 44.6019 55.8141 45.0843C55.3825 45.5667 55.4239 46.3075 55.9062 46.739C57.1448 47.847 58.6788 48.5444 60.3084 48.7576C60.8254 51.4637 63.2082 53.5156 66.0625 53.5156C66.7096 53.5156 67.2344 52.991 67.2344 52.3438C67.2344 51.6965 66.7096 51.1719 66.0625 51.1719Z" fill="white"/>
<path d="M68.4062 65.5859C63.9597 65.5859 60.2031 69.5035 60.2031 74.1406C60.2031 74.7879 60.7279 75.3125 61.375 75.3125C62.0221 75.3125 62.5469 74.7879 62.5469 74.1406C62.5469 70.8321 65.2848 67.9297 68.4062 67.9297C69.0534 67.9297 69.5781 67.405 69.5781 66.7578C69.5781 66.1106 69.0534 65.5859 68.4062 65.5859Z" fill="white"/>
<path d="M68.207 61.5557C66.4162 58.3965 63.0114 56.2109 59.0312 56.2109C58.3841 56.2109 57.8594 56.7356 57.8594 57.3828C57.8594 58.03 58.3841 58.5547 59.0312 58.5547C62.1134 58.5547 64.7692 60.2435 66.1679 62.7114C66.4874 63.2752 67.2031 63.4719 67.7652 63.1531C68.3283 62.834 68.526 62.1188 68.207 61.5557Z" fill="white"/>
<defs>
<filter id="filter0_d" x="0" y="0" width="104" height="104" filterUnits="userSpaceOnUse" color-interpolation-filters="sRGB">
<feFlood flood-opacity="0" result="BackgroundImageFix"/>
<feColorMatrix in="SourceAlpha" type="matrix" values="0 0 0 0 0 0 0 0 0 0 0 0 0 0 0 0 0 0 127 0"/>
<feOffset dy="2"/>
<feGaussianBlur stdDeviation="1"/>
<feColorMatrix type="matrix" values="0 0 0 0 0 0 0 0 0 0 0 0 0 0 0 0 0 0 0.15 0"/>
<feBlend mode="normal" in2="BackgroundImageFix" result="effect1_dropShadow"/>
<feBlend mode="normal" in="SourceGraphic" in2="effect1_dropShadow" result="shape"/>
</filter>
<linearGradient id="paint0_linear" x1="93.25" y1="3.38815e-06" x2="13.25" y2="92.5" gradientUnits="userSpaceOnUse">
<stop stop-color="#54D6BF"/>
<stop offset="1" stop-color="#9851DF"/>
</linearGradient>
</defs>
</svg>
