<svg width="104" height="104" viewBox="0 0 104 104" fill="none" xmlns="http://www.w3.org/2000/svg">
<g filter="url(#filter0_d)">
<circle cx="52" cy="50" r="50" fill="url(#paint0_linear)"/>
</g>
<path d="M63.0234 54.6564C62.9239 54.6399 62.8237 54.6361 62.7248 54.6451C62.5878 54.6414 58.0938 54.6393 58.0938 54.6393V51.8659C61.5991 49.7799 63.9531 45.9533 63.9531 41.5866V32.2468C64.5756 31.1108 64.9302 29.808 64.9302 28.4238V21.1719C64.9302 20.5248 64.4056 20 63.7584 20H46.9414C42.4289 20 38.7578 23.6711 38.7578 28.1836V30.5664C38.7578 31.9484 39.2413 33.2191 40.0469 34.2202V41.5866C40.0469 45.9533 42.4009 49.7799 45.9062 51.8659V54.6393C45.9062 54.6393 41.4128 54.6414 41.2762 54.6451C41.1768 54.6359 41.076 54.6398 40.9761 54.6566C32.9048 55.0295 26.4531 61.712 26.4531 69.8737V78.8281C26.4531 79.4752 26.9778 80 27.625 80H76.375C77.0222 80 77.5469 79.4752 77.5469 78.8281V69.8737C77.5469 61.7117 71.0948 55.0291 63.0234 54.6564ZM41.1016 30.5664V28.1836C41.1016 24.9635 43.7213 22.3438 46.9414 22.3438H62.5864V24.6875H53.6992C53.052 24.6875 52.5273 25.2123 52.5273 25.8594C52.5273 26.5065 53.052 27.0312 53.6992 27.0312H62.5865V28.4238C62.5865 31.533 60.057 34.0625 56.9478 34.0625H44.5976C42.6699 34.0625 41.1016 32.4942 41.1016 30.5664ZM42.3906 41.5866V35.9718C43.072 36.2511 43.8169 36.4062 44.5976 36.4062H56.9477C58.6868 36.4062 60.2966 35.8455 61.6093 34.8976V41.5866C61.6093 46.8853 57.2985 51.196 51.9999 51.196C46.7012 51.196 42.3906 46.8853 42.3906 41.5866ZM55.75 52.9366V54.7175C55.75 56.7853 54.0678 58.4675 52 58.4675C49.9322 58.4675 48.25 56.7853 48.25 54.7175V52.9366C49.43 53.3274 50.6905 53.5398 52 53.5398C53.3095 53.5398 54.57 53.3274 55.75 52.9366ZM46.3448 56.9831C47.2458 59.2242 49.4404 60.8113 52 60.8113C54.5596 60.8113 56.7542 59.2242 57.6552 56.9831H60.8009L52 72.2266L43.1991 56.9831H46.3448ZM75.2031 77.6562H70.9844V72.0312C70.9844 71.3841 70.4597 70.8594 69.8125 70.8594C69.1653 70.8594 68.6406 71.3841 68.6406 72.0312V77.6562H35.3594V68.3026C35.3594 67.6555 34.8347 67.1307 34.1875 67.1307C33.5403 67.1307 33.0156 67.6555 33.0156 68.3026V77.6562H28.7969V69.8737C28.7969 63.1582 33.9591 57.6266 40.5235 57.0362L50.985 75.1563C51.1943 75.5189 51.5812 75.7422 51.9999 75.7422C52.4186 75.7422 52.8054 75.5189 53.0147 75.1563L63.4763 57.0362C70.0409 57.6266 75.2031 63.1582 75.2031 69.8737V77.6562Z" fill="white"/>
<path d="M48.8687 40.4563C48.6508 40.2384 48.3484 40.113 48.0402 40.113C47.732 40.113 47.4297 40.2384 47.2117 40.4563C46.9937 40.6743 46.8683 40.9767 46.8683 41.2849C46.8683 41.5931 46.9937 41.8954 47.2117 42.1134C47.4297 42.3312 47.732 42.4567 48.0402 42.4567C48.3484 42.4567 48.6508 42.3313 48.8687 42.1134C49.0867 41.8954 49.2121 41.5931 49.2121 41.2849C49.2121 40.9767 49.0867 40.6743 48.8687 40.4563Z" fill="white"/>
<path d="M56.8199 40.4563C56.6019 40.2385 56.3007 40.113 55.9914 40.113C55.6832 40.113 55.3808 40.2384 55.1628 40.4563C54.9449 40.6743 54.8195 40.9767 54.8195 41.2849C54.8195 41.5931 54.9449 41.8954 55.1628 42.1134C55.382 42.3313 55.6832 42.4567 55.9914 42.4567C56.3007 42.4567 56.6019 42.3313 56.8199 42.1134C57.039 41.8954 57.1632 41.5931 57.1632 41.2849C57.1632 40.9767 57.039 40.6743 56.8199 40.4563Z" fill="white"/>
<path d="M49.9867 25.0309C49.7688 24.8129 49.4664 24.6875 49.1582 24.6875C48.85 24.6875 48.5477 24.8128 48.3297 25.0309C48.1117 25.2488 47.9863 25.5512 47.9863 25.8594C47.9863 26.1676 48.1117 26.4699 48.3297 26.6878C48.5477 26.9059 48.85 27.0312 49.1582 27.0312C49.4664 27.0312 49.7688 26.9059 49.9867 26.6878C50.2047 26.4699 50.3301 26.1676 50.3301 25.8594C50.3301 25.5512 50.2047 25.2488 49.9867 25.0309Z" fill="white"/>
<path d="M53.7906 45.0972C53.333 44.6397 52.591 44.6397 52.1332 45.0972C52.029 45.2015 51.9073 45.217 51.844 45.217C51.7807 45.217 51.659 45.2014 51.5548 45.0972C51.0972 44.6397 50.3552 44.6397 49.8974 45.0972C49.4398 45.5549 49.4398 46.2969 49.8974 46.7546C50.4341 47.2912 51.139 47.5596 51.844 47.5596C52.549 47.5596 53.2539 47.2912 53.7906 46.7546C54.2483 46.2969 54.2483 45.5549 53.7906 45.0972Z" fill="white"/>
<path d="M70.641 66.7708C70.423 66.5528 70.1207 66.4274 69.8125 66.4274C69.5043 66.4274 69.202 66.5528 68.984 66.7708C68.766 66.9887 68.6406 67.2911 68.6406 67.5993C68.6406 67.9075 68.766 68.2098 68.984 68.4278C69.202 68.6456 69.5043 68.7711 69.8125 68.7711C70.1207 68.7711 70.423 68.6458 70.641 68.4278C70.859 68.2098 70.9844 67.9075 70.9844 67.5993C70.9844 67.2911 70.859 66.9887 70.641 66.7708Z" fill="white"/>
<defs>
<filter id="filter0_d" x="0" y="0" width="104" height="104" filterUnits="userSpaceOnUse" color-interpolation-filters="sRGB">
<feFlood flood-opacity="0" result="BackgroundImageFix"/>
<feColorMatrix in="SourceAlpha" type="matrix" values="0 0 0 0 0 0 0 0 0 0 0 0 0 0 0 0 0 0 127 0"/>
<feOffset dy="2"/>
<feGaussianBlur stdDeviation="1"/>
<feColorMatrix type="matrix" values="0 0 0 0 0 0 0 0 0 0 0 0 0 0 0 0 0 0 0.15 0"/>
<feBlend mode="normal" in2="BackgroundImageFix" result="effect1_dropShadow"/>
<feBlend mode="normal" in="SourceGraphic" in2="effect1_dropShadow" result="shape"/>
</filter>
<linearGradient id="paint0_linear" x1="93.25" y1="3.38815e-06" x2="13.25" y2="92.5" gradientUnits="userSpaceOnUse">
<stop stop-color="#54D6BF"/>
<stop offset="1" stop-color="#9851DF"/>
</linearGradient>
</defs>
</svg>
