<svg width="104" height="104" viewBox="0 0 104 104" fill="none" xmlns="http://www.w3.org/2000/svg">
<g filter="url(#filter0_d)">
<circle cx="52" cy="50" r="50" fill="url(#paint0_linear)"/>
</g>
<path d="M77.8125 48.9062H77.4868V45.5961C77.4868 40.7579 73.7726 36.7726 69.0462 36.3372C69.0352 36.3341 69.024 36.3318 69.0128 36.3291C70.0366 35.186 70.6606 33.6779 70.6606 32.0263V23.0938C70.6606 22.4898 70.1708 22 69.5668 22H62.9232C60.0686 22 57.7462 24.3224 57.7462 27.1769V32.0263C57.7462 33.6779 58.3703 35.186 59.394 36.3291C59.3828 36.3318 59.3717 36.3341 59.3606 36.3373C56.1713 36.6312 53.4441 38.5412 52.007 41.2396C50.5698 38.5412 47.8427 36.6311 44.6534 36.3373C44.6423 36.3343 44.6311 36.3318 44.62 36.3291C45.6438 35.186 46.2678 33.6779 46.2678 32.0263V23.0938C46.2678 22.4898 45.778 22 45.174 22H38.5304C35.6758 22 33.3534 24.3224 33.3534 27.1769V32.0263C33.3534 33.6779 33.9775 35.186 35.0012 36.3291C34.99 36.3318 34.9788 36.3341 34.9678 36.3372C30.2413 36.7726 26.5272 40.7579 26.5272 45.5961V48.9062H26.1875C24.9813 48.9062 24 49.8876 24 51.0938V55.0312C24 56.2374 24.9813 57.2188 26.1875 57.2188H27.0625V60.4537C27.0625 61.0577 27.5523 61.5475 28.1562 61.5475C28.7602 61.5475 29.25 61.0577 29.25 60.4537V57.2188H74.75V60.2812H62.7552C62.1512 60.2812 61.6614 60.771 61.6614 61.375C61.6614 61.979 62.1512 62.4688 62.7552 62.4688H74.75V75.8125H29.25V69.6875C29.25 69.0835 28.7602 68.5938 28.1562 68.5938C27.5523 68.5938 27.0625 69.0835 27.0625 69.6875V76.9062C27.0625 77.5102 27.5523 78 28.1562 78H75.8438C76.4477 78 76.9375 77.5102 76.9375 76.9062V57.2188H77.8125C79.0187 57.2188 80 56.2374 80 55.0312V51.0938C80 49.8876 79.0187 48.9062 77.8125 48.9062ZM64.2035 36.296C61.8492 36.296 59.9338 34.3806 59.9338 32.0263V30.5808H66.4705C67.1954 30.5808 67.8778 30.3956 68.4732 30.0703V32.0263C68.4732 34.3806 66.5578 36.296 64.2035 36.296ZM66.11 38.4835L64.2034 40.3901L62.2968 38.4835H66.11ZM59.9336 27.1769C59.9337 25.5285 61.2748 24.1875 62.9232 24.1875H68.4731V26.3907C68.4731 27.495 67.5747 28.3934 66.4704 28.3934H59.9336V27.1769ZM53.1076 45.5961C53.1076 41.997 55.7953 39.0157 59.2687 38.549L63.43 42.7103C63.6436 42.9238 63.9235 43.0306 64.2034 43.0306C64.4833 43.0306 64.7632 42.9238 64.9768 42.7103L69.1382 38.5489C72.6115 39.0156 75.2993 41.9969 75.2993 45.596V48.9062H53.1076V45.5961ZM39.8106 36.296C37.4563 36.296 35.5409 34.3806 35.5409 32.0263V30.5808H42.0776C42.8024 30.5808 43.4848 30.3956 44.0803 30.0703V32.0263C44.0803 34.3806 42.1649 36.296 39.8106 36.296ZM41.717 38.4835L39.8104 40.3901L37.9038 38.4835H41.717ZM35.5407 27.1769C35.5408 25.5285 36.8819 24.1875 38.5303 24.1875H44.0802V26.3907C44.0802 27.495 43.1817 28.3934 42.0775 28.3934H35.5407V27.1769ZM28.7145 45.5961C28.7145 41.997 31.4023 39.0157 34.8756 38.549L39.037 42.7104C39.2506 42.9239 39.5305 43.0307 39.8104 43.0307C40.0903 43.0307 40.3702 42.9239 40.5838 42.7104L44.745 38.5491C48.2184 39.0158 50.9061 41.9971 50.9061 45.5962V48.9062H28.7145V45.5961ZM77.8125 55.0312H26.1875V51.0938H77.8125L77.8139 55.0311C77.8139 55.0312 77.8135 55.0312 77.8125 55.0312Z" fill="white"/>
<path d="M28.9294 64.1313C28.7261 63.9268 28.4439 63.8107 28.1562 63.8107C27.8686 63.8107 27.5864 63.9268 27.383 64.1313C27.1795 64.3346 27.0625 64.6158 27.0625 64.9045C27.0625 65.1921 27.1794 65.4743 27.383 65.6777C27.5865 65.8812 27.8686 65.9982 28.1562 65.9982C28.4439 65.9982 28.7261 65.8813 28.9294 65.6777C29.1329 65.4743 29.25 65.1921 29.25 64.9045C29.25 64.6157 29.133 64.3346 28.9294 64.1313Z" fill="white"/>
<path d="M58.4607 60.6017C58.2573 60.3983 57.9752 60.2812 57.6875 60.2812C57.3998 60.2812 57.1177 60.3982 56.9142 60.6017C56.7108 60.8053 56.5938 61.0873 56.5938 61.375C56.5938 61.6627 56.7107 61.9448 56.9142 62.1482C57.1177 62.3516 57.3998 62.4688 57.6875 62.4688C57.9752 62.4688 58.2573 62.3517 58.4607 62.1482C58.6642 61.9448 58.7812 61.6627 58.7812 61.375C58.7812 61.0873 58.6642 60.8052 58.4607 60.6017Z" fill="white"/>
<defs>
<filter id="filter0_d" x="0" y="0" width="104" height="104" filterUnits="userSpaceOnUse" color-interpolation-filters="sRGB">
<feFlood flood-opacity="0" result="BackgroundImageFix"/>
<feColorMatrix in="SourceAlpha" type="matrix" values="0 0 0 0 0 0 0 0 0 0 0 0 0 0 0 0 0 0 127 0"/>
<feOffset dy="2"/>
<feGaussianBlur stdDeviation="1"/>
<feColorMatrix type="matrix" values="0 0 0 0 0 0 0 0 0 0 0 0 0 0 0 0 0 0 0.15 0"/>
<feBlend mode="normal" in2="BackgroundImageFix" result="effect1_dropShadow"/>
<feBlend mode="normal" in="SourceGraphic" in2="effect1_dropShadow" result="shape"/>
</filter>
<linearGradient id="paint0_linear" x1="93.25" y1="3.38815e-06" x2="13.25" y2="92.5" gradientUnits="userSpaceOnUse">
<stop stop-color="#54D6BF"/>
<stop offset="1" stop-color="#9851DF"/>
</linearGradient>
</defs>
</svg>
