<svg width="104" height="104" viewBox="0 0 104 104" fill="none" xmlns="http://www.w3.org/2000/svg">
<g filter="url(#filter0_d)">
<circle cx="52" cy="50" r="50" fill="url(#paint0_linear)"/>
</g>
<path d="M73.2512 32.8086C73.8337 32.8086 74.3059 32.3364 74.3059 31.7539V26.1641C74.3059 24.4194 72.8865 23 71.1418 23H29.1653C27.4206 23 26.0012 24.4194 26.0012 26.1641V73.8359C26.0012 75.5806 27.4206 77 29.1653 77H71.1418C72.8865 77 74.3059 75.5806 74.3059 73.8359V70.8828C74.3059 70.3003 73.8337 69.8281 73.2512 69.8281C72.6687 69.8281 72.1965 70.3003 72.1965 70.8828V73.8359C72.1965 74.4175 71.7234 74.8906 71.1418 74.8906H29.1653C28.5837 74.8906 28.1106 74.4175 28.1106 73.8359V26.1641C28.1106 25.5825 28.5837 25.1094 29.1653 25.1094H71.1418C71.7234 25.1094 72.1965 25.5825 72.1965 26.1641V31.7539C72.1965 32.3364 72.6687 32.8086 73.2512 32.8086Z" fill="white"/>
<path d="M68.1885 28.0625H32.1169C31.5344 28.0625 31.0622 28.5347 31.0622 29.1172V51.1602C31.0622 51.7427 31.5344 52.2148 32.1169 52.2148C32.6994 52.2148 33.1716 51.7427 33.1716 51.1602V30.1719H67.1338V31.8594C67.1338 32.4419 67.6061 32.9141 68.1885 32.9141C68.771 32.9141 69.2432 32.4419 69.2432 31.8594V29.1172C69.2432 28.5347 68.771 28.0625 68.1885 28.0625Z" fill="white"/>
<path d="M32.8621 54.3168C32.6659 54.1207 32.3948 54.0078 32.1164 54.0078C31.839 54.0078 31.5669 54.1207 31.3707 54.3168C31.1746 54.513 31.0617 54.7851 31.0617 55.0625C31.0617 55.3399 31.1746 55.612 31.3707 55.8082C31.5669 56.0043 31.839 56.1172 32.1164 56.1172C32.3948 56.1172 32.6659 56.0043 32.8621 55.8082C33.0593 55.612 33.1711 55.3399 33.1711 55.0625C33.1711 54.7851 33.0593 54.513 32.8621 54.3168Z" fill="white"/>
<path d="M68.1885 67.5078C67.606 67.5078 67.1338 67.98 67.1338 68.5625V69.8281H33.1716V59.123C33.1716 58.5405 32.6994 58.0684 32.1169 58.0684C31.5344 58.0684 31.0622 58.5405 31.0622 59.123V70.8828C31.0622 71.4653 31.5344 71.9375 32.1169 71.9375H68.1885C68.771 71.9375 69.2432 71.4653 69.2432 70.8828V68.5625C69.2432 67.98 68.771 67.5078 68.1885 67.5078Z" fill="white"/>
<path d="M58.6855 60.266C58.2737 59.854 57.606 59.854 57.194 60.2659L55.1095 62.3505L53.8138 61.0547C52.9957 60.2367 51.6648 60.2367 50.8467 61.0547L50.0036 61.8978C49.5917 62.3097 49.5917 62.9775 50.0036 63.3894C50.4154 63.8013 51.0832 63.8013 51.4952 63.3894L52.3303 62.5543L53.626 63.8501C54.035 64.2591 54.5723 64.4636 55.1095 64.4636C55.6468 64.4636 56.184 64.2591 56.593 63.8501L58.6855 61.7576C59.0974 61.3458 59.0974 60.6779 58.6855 60.266Z" fill="white"/>
<path d="M79.5148 45.1254C79.9796 44.4003 80.1184 43.5072 79.8954 42.6753C79.6724 41.8434 79.1059 41.1394 78.3407 40.7438C78.0089 40.5724 77.8058 40.2205 77.8232 39.8475C77.8631 38.9871 77.5368 38.1444 76.9278 37.5353C76.3189 36.9263 75.4764 36.5995 74.6156 36.64C74.2408 36.6581 73.8908 36.4541 73.7193 36.1224C73.3237 35.3573 72.6197 34.7907 71.7878 34.5677C70.9556 34.3446 70.0628 34.4835 69.3378 34.9483C69.0234 35.15 68.6171 35.1499 68.3028 34.9483C67.5777 34.4834 66.6848 34.3447 65.8528 34.5677C65.0208 34.7907 64.3168 35.3573 63.9213 36.1224C63.7498 36.4542 63.397 36.6568 63.0249 36.64C62.1642 36.5998 61.3218 36.9263 60.7129 37.5353C60.1038 38.1444 59.7775 38.9871 59.8174 39.8474C59.8348 40.2205 59.6316 40.5724 59.2999 40.7438C58.5348 41.1394 57.9681 41.8433 57.7452 42.6753C57.6388 43.0722 57.6157 43.483 57.6702 43.8828H39.2659C38.6834 43.8828 38.2112 44.355 38.2112 44.9375C38.2112 45.52 38.6834 45.9922 39.2659 45.9922H58.209C58.1864 46.0501 58.1601 46.1069 58.1257 46.1605C57.6609 46.8856 57.5221 47.7787 57.7451 48.6107C57.7757 48.7249 57.8133 48.8365 57.8565 48.9453H39.2656C38.6831 48.9453 38.2109 49.4175 38.2109 50C38.2109 50.5825 38.6831 51.0547 39.2656 51.0547H59.7545C59.8003 51.1752 59.8233 51.3053 59.8171 51.4385C59.7771 52.2989 60.1035 53.1416 60.7125 53.7507C61.3215 54.3597 62.1639 54.6866 63.0246 54.646C63.3972 54.6278 63.7495 54.8317 63.921 55.1635C64.0477 55.4086 64.2064 55.633 64.3904 55.8326V65.6827C64.3904 66.1088 64.6468 66.493 65.0402 66.6566C65.4335 66.8202 65.8868 66.7309 66.189 66.4303L68.8201 63.8129L71.4513 66.4303C71.6529 66.6309 71.9218 66.7374 72.1953 66.7374C72.3316 66.7374 72.4691 66.7109 72.6 66.6565C72.9934 66.4929 73.2498 66.1087 73.2498 65.6826V55.8325C73.4339 55.633 73.5926 55.4085 73.7193 55.1634C73.8908 54.8316 74.243 54.6289 74.6156 54.6459C75.4769 54.6866 76.3187 54.3597 76.9277 53.7506C77.5368 53.1415 77.8631 52.2988 77.8232 51.4384C77.8058 51.0653 78.009 50.7135 78.3407 50.542C79.1058 50.1465 79.6724 49.4426 79.8954 48.6106C80.1184 47.7785 79.9796 46.8855 79.5148 46.1603C79.3131 45.8461 79.3131 45.4398 79.5148 45.1254ZM71.1404 63.1458L69.5639 61.5775C69.1525 61.1682 68.4877 61.1682 68.0763 61.5775L66.4998 63.1458V56.8186C67.1308 56.8483 67.7632 56.6833 68.3027 56.3376C68.6171 56.136 69.0234 56.1361 69.3377 56.3376C69.8358 56.657 70.4131 56.8225 70.9956 56.8225C71.0439 56.8225 71.0921 56.82 71.1404 56.8177V63.1458ZM77.8578 48.0648C77.7872 48.3285 77.6145 48.5429 77.372 48.6683C76.3105 49.2171 75.6604 50.3429 75.716 51.5366C75.7288 51.8094 75.6293 52.066 75.4362 52.2592C75.2431 52.4524 74.9865 52.5515 74.7136 52.5391C73.5193 52.4838 72.3942 53.1335 71.8454 54.195C71.72 54.4377 71.5056 54.6102 71.2417 54.6809C70.978 54.7515 70.7059 54.7094 70.4761 54.5619C69.973 54.2394 69.3966 54.0783 68.82 54.0783C68.2436 54.0783 67.667 54.2395 67.1641 54.5619C66.9341 54.7093 66.6621 54.7515 66.3984 54.6809C66.1345 54.6102 65.9202 54.4376 65.7947 54.195C65.2459 53.1336 64.121 52.4833 62.9264 52.5391C62.6542 52.5516 62.397 52.4524 62.2039 52.2592C62.0106 52.066 61.9113 51.8094 61.9241 51.5365C61.9632 50.694 61.6496 49.8863 61.0893 49.2905C61.0728 49.2725 61.056 49.2548 61.0383 49.2379C60.8158 49.0123 60.5579 48.8182 60.2681 48.6683C60.0255 48.5429 59.853 48.3286 59.7823 48.0648C59.7116 47.8009 59.7538 47.5289 59.9013 47.299C60.5462 46.2931 60.5462 44.9931 59.9013 43.9871C59.7539 43.7572 59.7116 43.4852 59.7823 43.2213C59.853 42.9575 60.0256 42.7431 60.2682 42.6177C61.3296 42.069 61.9796 40.9432 61.9242 39.7495C61.9114 39.4766 62.0109 39.22 62.204 39.0268C62.3971 38.8336 62.6542 38.7345 62.9265 38.747C64.121 38.8024 65.2461 38.1526 65.7948 37.091C65.9202 36.8484 66.1346 36.6758 66.3985 36.6051C66.6622 36.5346 66.9342 36.5767 67.1641 36.7241C68.1701 37.3692 69.4702 37.3692 70.476 36.7241C70.7059 36.5768 70.9778 36.5344 71.2417 36.6051C71.5056 36.6758 71.7199 36.8485 71.8454 37.091C72.3942 38.1525 73.5198 38.8027 74.7136 38.747C74.9866 38.7346 75.2431 38.8336 75.4362 39.0268C75.6294 39.22 75.7288 39.4766 75.716 39.7495C75.6605 40.9431 76.3104 42.069 77.3721 42.6177C77.6146 42.7431 77.7872 42.9574 77.8578 43.2213C77.9285 43.4852 77.8863 43.7572 77.7389 43.987C77.0939 44.993 77.0939 46.293 77.7389 47.2989C77.8863 47.5289 77.9286 47.8009 77.8578 48.0648Z" fill="white"/>
<path d="M73.8359 42.774C73.424 42.3621 72.7562 42.3621 72.3443 42.774L68.8437 46.2747L67.4502 44.8811C67.0383 44.4693 66.3705 44.4693 65.9585 44.8811C65.5467 45.293 65.5467 45.9608 65.9585 46.3728L68.0978 48.5121C68.3038 48.7181 68.5737 48.821 68.8436 48.821C69.1135 48.821 69.3835 48.7181 69.5894 48.5121L73.8359 44.2656C74.2477 43.8538 74.2477 43.1859 73.8359 42.774Z" fill="white"/>
<path d="M38.8749 35.7543C38.6787 35.5582 38.4066 35.4453 38.1292 35.4453C37.8518 35.4453 37.5797 35.5582 37.3835 35.7543C37.1874 35.9505 37.0745 36.2226 37.0745 36.5C37.0745 36.7774 37.1874 37.0495 37.3835 37.2457C37.5797 37.4418 37.8518 37.5547 38.1292 37.5547C38.4066 37.5547 38.6787 37.4418 38.8749 37.2457C39.071 37.0495 39.1839 36.7774 39.1839 36.5C39.1839 36.2226 39.071 35.9505 38.8749 35.7543Z" fill="white"/>
<path d="M47.1988 35.4453H42.066C41.4835 35.4453 41.0113 35.9175 41.0113 36.5C41.0113 37.0825 41.4835 37.5547 42.066 37.5547H47.1988C47.7813 37.5547 48.2535 37.0825 48.2535 36.5C48.2535 35.9175 47.7813 35.4453 47.1988 35.4453Z" fill="white"/>
<path d="M57.9398 54.0078H45.8824C45.2999 54.0078 44.8277 54.48 44.8277 55.0625C44.8277 55.645 45.2999 56.1172 45.8824 56.1172H57.9397C58.5222 56.1172 58.9944 55.645 58.9944 55.0625C58.9944 54.48 58.5223 54.0078 57.9398 54.0078Z" fill="white"/>
<defs>
<filter id="filter0_d" x="0" y="0" width="104" height="104" filterUnits="userSpaceOnUse" color-interpolation-filters="sRGB">
<feFlood flood-opacity="0" result="BackgroundImageFix"/>
<feColorMatrix in="SourceAlpha" type="matrix" values="0 0 0 0 0 0 0 0 0 0 0 0 0 0 0 0 0 0 127 0"/>
<feOffset dy="2"/>
<feGaussianBlur stdDeviation="1"/>
<feColorMatrix type="matrix" values="0 0 0 0 0 0 0 0 0 0 0 0 0 0 0 0 0 0 0.15 0"/>
<feBlend mode="normal" in2="BackgroundImageFix" result="effect1_dropShadow"/>
<feBlend mode="normal" in="SourceGraphic" in2="effect1_dropShadow" result="shape"/>
</filter>
<linearGradient id="paint0_linear" x1="93.25" y1="3.38815e-06" x2="13.25" y2="92.5" gradientUnits="userSpaceOnUse">
<stop stop-color="#54D6BF"/>
<stop offset="1" stop-color="#9851DF"/>
</linearGradient>
</defs>
</svg>
