<svg width="104" height="104" viewBox="0 0 104 104" fill="none" xmlns="http://www.w3.org/2000/svg">
<g filter="url(#filter0_d)">
<circle cx="52" cy="50" r="50" fill="url(#paint0_linear)"/>
</g>
<path d="M75.7188 22H36.7812C34.972 22 33.5 23.472 33.5 25.2812V29C33.5 29.604 33.9897 30.0938 34.5938 30.0938C35.1978 30.0938 35.6875 29.604 35.6875 29V25.2812C35.6875 24.6782 36.1782 24.1875 36.7812 24.1875H75.7188C76.3218 24.1875 76.8125 24.6782 76.8125 25.2812V74.7188C76.8125 75.3218 76.3218 75.8125 75.7188 75.8125H36.7812C36.1782 75.8125 35.6875 75.3218 35.6875 74.7188V71.1821C35.6875 70.5781 35.1978 70.0884 34.5938 70.0884C33.9897 70.0884 33.5 70.5781 33.5 71.1821V74.7188C33.5 76.528 34.972 78 36.7812 78H75.7188C77.528 78 79 76.528 79 74.7188V25.2812C79 23.472 77.528 22 75.7188 22Z" fill="white"/>
<path d="M70.457 64.2188H44.207C43.6029 64.2188 43.1132 64.7085 43.1132 65.3125C43.1132 65.9165 43.6029 66.4062 44.207 66.4062H70.457C71.0611 66.4062 71.5507 65.9165 71.5507 65.3125C71.5507 64.7085 71.0611 64.2188 70.457 64.2188Z" fill="white"/>
<path d="M71.2299 70.2267C71.0265 70.0232 70.7454 69.9062 70.4566 69.9062C70.169 69.9062 69.8868 70.0232 69.6833 70.2267C69.4799 70.4303 69.3629 70.7123 69.3629 71C69.3629 71.2877 69.4799 71.5698 69.6833 71.7732C69.8868 71.9766 70.169 72.0938 70.4566 72.0938C70.7454 72.0938 71.0265 71.9767 71.2299 71.7732C71.4333 71.5698 71.5504 71.2877 71.5504 71C71.5504 70.7123 71.4333 70.4302 71.2299 70.2267Z" fill="white"/>
<path d="M65.9843 69.9062H44.207C43.6029 69.9062 43.1132 70.396 43.1132 71C43.1132 71.604 43.6029 72.0938 44.207 72.0938H65.9843C66.5884 72.0938 67.078 71.604 67.078 71C67.078 70.396 66.5884 69.9062 65.9843 69.9062Z" fill="white"/>
<path d="M51.8724 31.5995C45.3638 31.5995 40.0685 36.8948 40.0685 43.4036C40.0683 46.782 41.4954 49.8331 43.7779 51.9868C43.8168 52.0289 43.8585 52.0685 43.9043 52.1044C46.0056 54.0304 48.8039 55.2075 51.8723 55.2075C54.9407 55.2075 57.739 54.0303 59.8404 52.1044C59.8861 52.0685 59.9279 52.0288 59.9667 51.9868C62.2493 49.8331 63.6764 46.782 63.6764 43.4036C63.6764 36.8948 58.3811 31.5995 51.8724 31.5995ZM51.8723 53.02C49.6255 53.02 47.5564 52.2453 45.9175 50.9492C47.0787 48.7527 49.3411 47.3707 51.8723 47.3707C54.4036 47.3707 56.666 48.7527 57.8272 50.9492C56.1883 52.2453 54.1192 53.02 51.8723 53.02ZM49.5701 42.8811V42.032C49.5701 40.7626 50.6028 39.7298 51.8722 39.7298C53.1416 39.7298 54.1744 40.7625 54.1744 42.032V42.8811C54.1744 44.1504 53.1416 45.1832 51.8722 45.1832C50.6028 45.1832 49.5701 44.1505 49.5701 42.8811ZM59.427 49.3471C58.4259 47.7504 56.961 46.5326 55.2466 45.838C55.9401 45.0475 56.362 44.0129 56.362 42.8812V42.0322C56.362 39.5564 54.3479 37.5424 51.8723 37.5424C49.3967 37.5424 47.3827 39.5564 47.3827 42.0322V42.8812C47.3827 44.0129 47.8046 45.0475 48.4981 45.838C46.7837 46.5327 45.3188 47.7504 44.3177 49.3471C43.027 47.7101 42.2559 45.6452 42.2559 43.4036C42.2558 38.101 46.5697 33.787 51.8723 33.787C57.1748 33.787 61.4888 38.101 61.4888 43.4036C61.4888 45.6452 60.7177 47.7101 59.427 49.3471Z" fill="white"/>
<path d="M51.8724 26.375C42.4829 26.375 34.8439 34.014 34.8439 43.4035C34.8439 48.8321 37.3974 53.6757 41.3662 56.7959L28.6715 69.4905C27.8758 70.2862 26.581 70.2862 25.7852 69.4905C25.3998 69.1051 25.1875 68.5925 25.1875 68.0474C25.1875 67.5023 25.3998 66.9898 25.7853 66.6043L32.2778 60.1118C32.705 59.6847 32.705 58.9922 32.2778 58.5649C31.8507 58.1379 31.1582 58.1379 30.7311 58.5649L24.2387 65.0574C23.4398 65.8561 23 66.918 23 68.0474C23 69.1768 23.4398 70.2388 24.2385 71.0374C25.0628 71.8617 26.1456 72.2739 27.2284 72.2739C28.3112 72.2739 29.3941 71.8617 30.2184 71.0374L43.202 58.0538C45.7432 59.5635 48.708 60.4321 51.8724 60.4321C61.262 60.4321 68.9009 52.7931 68.9009 43.4036C68.9009 34.0141 61.2619 26.375 51.8724 26.375ZM51.8724 58.2445C43.689 58.2445 37.0313 51.5869 37.0313 43.4035C37.0313 35.2202 43.6889 28.5625 51.8724 28.5625C60.0558 28.5625 66.7134 35.2202 66.7134 43.4035C66.7134 51.5868 60.0557 58.2445 51.8724 58.2445Z" fill="white"/>
<path d="M35.7203 55.1221C35.5168 54.9187 35.2358 54.8016 34.947 54.8016C34.6593 54.8016 34.3772 54.9186 34.1737 55.1221C33.9703 55.3255 33.8533 55.6076 33.8533 55.8953C33.8533 56.1831 33.9703 56.4651 34.1737 56.6686C34.3772 56.872 34.6593 56.9891 34.947 56.9891C35.2358 56.9889 35.5168 56.872 35.7203 56.6686C35.9248 56.4651 36.0408 56.1831 36.0408 55.8953C36.0408 55.6076 35.9248 55.3255 35.7203 55.1221Z" fill="white"/>
<defs>
<filter id="filter0_d" x="0" y="0" width="104" height="104" filterUnits="userSpaceOnUse" color-interpolation-filters="sRGB">
<feFlood flood-opacity="0" result="BackgroundImageFix"/>
<feColorMatrix in="SourceAlpha" type="matrix" values="0 0 0 0 0 0 0 0 0 0 0 0 0 0 0 0 0 0 127 0"/>
<feOffset dy="2"/>
<feGaussianBlur stdDeviation="1"/>
<feColorMatrix type="matrix" values="0 0 0 0 0 0 0 0 0 0 0 0 0 0 0 0 0 0 0.15 0"/>
<feBlend mode="normal" in2="BackgroundImageFix" result="effect1_dropShadow"/>
<feBlend mode="normal" in="SourceGraphic" in2="effect1_dropShadow" result="shape"/>
</filter>
<linearGradient id="paint0_linear" x1="93.25" y1="3.38815e-06" x2="13.25" y2="92.5" gradientUnits="userSpaceOnUse">
<stop stop-color="#54D6BF"/>
<stop offset="1" stop-color="#9851DF"/>
</linearGradient>
</defs>
</svg>
