<svg width="104" height="104" viewBox="0 0 104 104" fill="none" xmlns="http://www.w3.org/2000/svg">
<g filter="url(#filter0_d)">
<circle cx="52" cy="50" r="50" fill="url(#paint0_linear)"/>
</g>
<path d="M72.6991 48.6327C72.4885 48.4219 72.1963 48.3008 71.8983 48.3008C71.6004 48.3008 71.3082 48.4219 71.0975 48.6327C70.8867 48.8435 70.7655 49.1357 70.7655 49.4336C70.7655 49.7316 70.8866 50.0238 71.0975 50.2344C71.3082 50.4451 71.5993 50.5664 71.8983 50.5664C72.1963 50.5664 72.4885 50.4452 72.6991 50.2344C72.9098 50.0238 73.0312 49.7316 73.0312 49.4336C73.0312 49.1357 72.9099 48.8434 72.6991 48.6327Z" fill="white"/>
<path d="M65.3283 38.2187H54.6427C54.0171 38.2187 53.5099 38.7259 53.5099 39.3515C53.5099 39.977 54.0171 40.4843 54.6427 40.4843H65.3283C65.9539 40.4843 66.4612 39.977 66.4612 39.3515C66.4612 38.7259 65.9539 38.2187 65.3283 38.2187Z" fill="white"/>
<path d="M49.8164 38.5507C49.6059 38.34 49.3136 38.2188 49.0157 38.2188C48.7177 38.2188 48.4255 38.3399 48.2148 38.5507C48.0041 38.7616 47.8828 39.0537 47.8828 39.3516C47.8828 39.6496 48.0039 39.9418 48.2148 40.1524C48.4255 40.3632 48.7177 40.4845 49.0157 40.4845C49.3136 40.4845 49.6059 40.3632 49.8164 40.1524C50.0271 39.9418 50.1485 39.6496 50.1485 39.3516C50.1485 39.0537 50.0273 38.7615 49.8164 38.5507Z" fill="white"/>
<path d="M49.8153 26.2031C49.6047 25.9922 49.3124 25.8712 49.0145 25.8712C48.7165 25.8712 48.4242 25.9922 48.2136 26.2031C48.0029 26.4138 47.8817 26.706 47.8817 27.004C47.8817 27.3019 48.0028 27.5942 48.2136 27.8047C48.4242 28.0154 48.7165 28.1368 49.0145 28.1368C49.3124 28.1368 49.6047 28.0156 49.8153 27.8047C50.026 27.5942 50.1473 27.3019 50.1473 27.004C50.1473 26.706 50.0261 26.4138 49.8153 26.2031Z" fill="white"/>
<path d="M65.2148 43.6561H49.0157C48.3901 43.6561 47.8828 44.1634 47.8828 44.7889C47.8828 45.4145 48.3901 45.9217 49.0157 45.9217H65.2148C65.8404 45.9217 66.3476 45.4145 66.3476 44.7889C66.3476 44.1634 65.8404 43.6561 65.2148 43.6561Z" fill="white"/>
<path d="M61.8541 50.4531H49.0157C48.3901 50.4531 47.8828 50.9603 47.8828 51.5859C47.8828 52.2114 48.3901 52.7187 49.0157 52.7187H61.8541C62.4797 52.7187 62.9869 52.2114 62.9869 51.5859C62.9869 50.9603 62.4797 50.4531 61.8541 50.4531Z" fill="white"/>
<path d="M61.8541 55.8905H49.0157C48.3901 55.8905 47.8828 56.3978 47.8828 57.0233C47.8828 57.6489 48.3901 58.1561 49.0157 58.1561H61.8541C62.4797 58.1561 62.9869 57.6489 62.9869 57.0233C62.9869 56.3978 62.4797 55.8905 61.8541 55.8905Z" fill="white"/>
<path d="M61.8541 62.6873H49.0157C48.3901 62.6873 47.8828 63.1946 47.8828 63.8201C47.8828 64.4457 48.3901 64.9529 49.0157 64.9529H61.8541C62.4797 64.9529 62.9869 64.4457 62.9869 63.8201C62.9869 63.1946 62.4797 62.6873 61.8541 62.6873Z" fill="white"/>
<path d="M61.8541 68.1248H49.0157C48.3901 68.1248 47.8828 68.6321 47.8828 69.2576C47.8828 69.8831 48.3901 70.3904 49.0157 70.3904H61.8541C62.4797 70.3904 62.9869 69.8831 62.9869 69.2576C62.9869 68.6321 62.4797 68.1248 61.8541 68.1248Z" fill="white"/>
<path d="M41.8121 50.5772C41.3698 50.1351 40.6527 50.1349 40.21 50.5772L35.3658 55.4213L33.8735 53.929C33.4311 53.4868 32.7141 53.4867 32.2714 53.929C31.829 54.3713 31.829 55.0886 32.2714 55.5311L34.5646 57.8245C34.777 58.0369 35.0652 58.1563 35.3656 58.1563C35.6661 58.1563 35.9541 58.0369 36.1667 57.8245L41.8119 52.1794C42.2545 51.7369 42.2545 51.0196 41.8121 50.5772Z" fill="white"/>
<path d="M41.8121 37.992C41.3698 37.55 40.6527 37.5498 40.21 37.992L35.3658 42.8363L33.8735 41.3439C33.431 40.9017 32.714 40.9017 32.2714 41.3439C31.829 41.7863 31.829 42.5036 32.2714 42.946L34.5646 45.2393C34.7859 45.4604 35.0758 45.5711 35.3656 45.5711C35.6555 45.5711 35.9454 45.4604 36.1667 45.2393L41.8119 39.5942C42.2545 39.1517 42.2545 38.4344 41.8121 37.992Z" fill="white"/>
<path d="M39.0469 62.6873H33.6095C32.9839 62.6873 32.4766 63.1946 32.4766 63.8201V69.2576C32.4766 69.8832 32.9839 70.3904 33.6095 70.3904H39.0469C39.6725 70.3904 40.1797 69.8832 40.1797 69.2576V63.8201C40.1797 63.1946 39.6725 62.6873 39.0469 62.6873ZM37.9141 68.1248H34.7423V64.953H37.9141V68.1248Z" fill="white"/>
<path d="M81.868 76.7344H80.905V72.4021C80.905 69.8453 79.5684 67.5964 77.5584 66.3125C79.5684 65.0287 80.905 62.7798 80.905 60.223V55.8907H81.868C82.4935 55.8907 83.0008 55.3834 83.0008 54.7579C83.0008 54.1324 82.4935 53.6251 81.868 53.6251H65.4973C64.8718 53.6251 64.3645 54.1324 64.3645 54.7579C64.3645 55.3834 64.8718 55.8907 65.4973 55.8907H66.4603V60.223C66.4603 62.7798 67.7969 65.0287 69.8068 66.3125C67.7969 67.5964 66.4603 69.8453 66.4603 72.4021V76.7344H29.7588C28.3846 76.7344 27.2666 75.6164 27.2666 74.2422V30.1759C27.2666 28.8016 28.3846 27.6837 29.7588 27.6837H37.0087V31.1954C37.0087 31.8209 37.516 32.3282 38.1416 32.3282H59.8891C60.5146 32.3282 61.0219 31.8209 61.0219 31.1954V27.6837H68.2743C69.6485 27.6837 70.7664 28.8016 70.7664 30.1759V44.789C70.7664 45.4145 71.2737 45.9218 71.8993 45.9218C72.5248 45.9218 73.0321 45.4145 73.0321 44.789V30.1759C73.0321 27.5524 70.8977 25.4181 68.2743 25.4181H60.9734C60.7498 24.3206 59.7772 23.4922 58.6146 23.4922H53.0627C52.304 21.9905 50.7454 21 49.0164 21C47.2874 21 45.7289 21.9905 44.9701 23.4922H39.4159C38.2534 23.4922 37.2808 24.3206 37.0571 25.4181H29.7588C27.1353 25.4181 25.001 27.5524 25.001 30.1759V74.2422C25.001 76.8657 27.1353 79 29.7588 79H81.868C82.4935 79 83.0008 78.4927 83.0008 77.8672C83.0008 77.2417 82.4935 76.7344 81.868 76.7344ZM39.2744 25.8995C39.2744 25.8215 39.3379 25.7578 39.416 25.7578H45.7412C46.2508 25.7578 46.6975 25.4176 46.8333 24.9265C47.1031 23.9486 48.001 23.2656 49.0165 23.2656C50.0321 23.2656 50.9299 23.9486 51.1998 24.9265C51.3354 25.4176 51.7823 25.7578 52.2918 25.7578H58.6146C58.6926 25.7578 58.7563 25.8215 58.7563 25.8995V30.0626H39.2744V25.8995ZM68.7259 55.8908H78.6393V58.2064H68.7259V55.8908ZM68.7323 60.472H78.633C78.5028 63.0899 76.3322 65.1797 73.6826 65.1797C71.0331 65.1797 68.8624 63.0899 68.7323 60.472ZM73.6826 67.4454C76.3322 67.4454 78.5028 69.5352 78.633 72.1531H68.7323C68.8624 69.5352 71.0331 67.4454 73.6826 67.4454ZM78.6393 76.7344H68.7259V74.4187H78.6393V76.7344Z" fill="white"/>
<defs>
<filter id="filter0_d" x="0" y="0" width="104" height="104" filterUnits="userSpaceOnUse" color-interpolation-filters="sRGB">
<feFlood flood-opacity="0" result="BackgroundImageFix"/>
<feColorMatrix in="SourceAlpha" type="matrix" values="0 0 0 0 0 0 0 0 0 0 0 0 0 0 0 0 0 0 127 0"/>
<feOffset dy="2"/>
<feGaussianBlur stdDeviation="1"/>
<feColorMatrix type="matrix" values="0 0 0 0 0 0 0 0 0 0 0 0 0 0 0 0 0 0 0.15 0"/>
<feBlend mode="normal" in2="BackgroundImageFix" result="effect1_dropShadow"/>
<feBlend mode="normal" in="SourceGraphic" in2="effect1_dropShadow" result="shape"/>
</filter>
<linearGradient id="paint0_linear" x1="93.25" y1="3.38815e-06" x2="13.25" y2="92.5" gradientUnits="userSpaceOnUse">
<stop stop-color="#54D6BF"/>
<stop offset="1" stop-color="#9851DF"/>
</linearGradient>
</defs>
</svg>
