<svg width="104" height="104" viewBox="0 0 104 104" fill="none" xmlns="http://www.w3.org/2000/svg">
<g filter="url(#filter0_d)">
<circle cx="52" cy="50" r="50" fill="url(#paint0_linear)"/>
</g>
<path d="M63.4226 29.8437C63.3461 29.8437 63.2687 29.8355 63.1941 29.8204C63.1191 29.8053 63.0454 29.7828 62.9749 29.7536C62.9034 29.7243 62.8352 29.6881 62.7721 29.6455C62.7075 29.6034 62.648 29.5544 62.594 29.5004C62.54 29.4464 62.491 29.3869 62.4475 29.3223C62.4063 29.2592 62.3702 29.191 62.3409 29.1195C62.3116 29.0491 62.2882 28.9754 62.274 28.9003C62.2589 28.8252 62.2507 28.7478 62.2507 28.6719C62.2507 28.5959 62.2589 28.5185 62.274 28.4421C62.2882 28.3684 62.3116 28.2947 62.3409 28.2232C62.3702 28.1528 62.4063 28.0845 62.4475 28.0214C62.491 27.9568 62.54 27.8973 62.594 27.8433C62.648 27.7893 62.7075 27.7403 62.7721 27.6968C62.8352 27.6547 62.9034 27.6185 62.9749 27.5892C63.0454 27.5599 63.1191 27.5375 63.1941 27.5224C63.3452 27.4917 63.4999 27.4917 63.651 27.5224C63.726 27.5375 63.7997 27.5599 63.8702 27.5892C63.9417 27.6185 64.0094 27.6547 64.073 27.6968C64.1371 27.7403 64.1971 27.7893 64.2511 27.8433C64.3051 27.8973 64.3541 27.9568 64.3962 28.0214C64.4383 28.0845 64.4749 28.1528 64.5042 28.2232C64.5335 28.2947 64.5555 28.3684 64.5711 28.4421C64.5862 28.5185 64.5944 28.5959 64.5944 28.6719C64.5944 28.7478 64.5862 28.8252 64.5711 28.9003C64.5555 28.9754 64.5335 29.0491 64.5042 29.1195C64.4749 29.191 64.4383 29.2592 64.3962 29.3223C64.3541 29.3869 64.3051 29.4464 64.2511 29.5004C64.1971 29.5544 64.1371 29.6034 64.073 29.6455C64.0094 29.6881 63.9417 29.7243 63.8702 29.7536C63.7997 29.7828 63.726 29.8053 63.651 29.8204C63.5759 29.8355 63.4985 29.8437 63.4226 29.8437Z" fill="white"/>
<path d="M65.4528 20H38.7349C36.3568 20 34.4219 21.935 34.4219 24.313V75.687C34.4219 78.065 36.3568 80 38.7349 80H65.4528C67.8313 80 69.7663 78.065 69.7663 75.687V24.313C69.7663 21.935 67.8313 20 65.4528 20ZM67.4225 75.687C67.4225 76.7728 66.539 77.6562 65.4528 77.6562H38.7349C37.6491 77.6562 36.7656 76.7728 36.7656 75.687V29.8433H58.4618C59.1086 29.8433 59.6337 29.3187 59.6337 28.6714C59.6337 28.0246 59.1086 27.4995 58.4618 27.4995H36.7656V24.313C36.7656 23.2272 37.6491 22.3438 38.7349 22.3438H65.4528C66.539 22.3438 67.4225 23.2272 67.4225 24.313V66.6406H43.3052C42.658 66.6406 42.1334 67.1652 42.1334 67.8125C42.1334 68.4598 42.658 68.9844 43.3052 68.9844H67.4225V75.687Z" fill="white"/>
<path d="M52.0939 76.8359C50.1557 76.8359 48.5782 75.2589 48.5782 73.3203C48.5782 71.3821 50.1557 69.8047 52.0939 69.8047C54.0325 69.8047 55.6095 71.3821 55.6095 73.3203C55.6095 75.2589 54.0325 76.8359 52.0939 76.8359ZM52.0939 72.1484C51.4479 72.1484 50.922 72.6744 50.922 73.3203C50.922 73.9667 51.4479 74.4922 52.0939 74.4922C52.7402 74.4922 53.2657 73.9667 53.2657 73.3203C53.2657 72.6744 52.7402 72.1484 52.0939 72.1484Z" fill="white"/>
<path d="M49.7501 47.1953H40.3595C39.7122 47.1953 39.1876 46.6707 39.1876 46.0234V36.6333C39.1876 35.986 39.7122 35.4614 40.3595 35.4614H49.7501C50.3974 35.4614 50.922 35.986 50.922 36.6333V46.0234C50.922 46.6707 50.3974 47.1953 49.7501 47.1953ZM41.5314 44.8515H48.5782V37.8052H41.5314V44.8515Z" fill="white"/>
<path d="M63.8281 47.1953H54.438C53.7908 47.1953 53.2662 46.6707 53.2662 46.0234V36.6333C53.2662 35.986 53.7908 35.4614 54.438 35.4614H63.8281C64.4754 35.4614 65 35.986 65 36.6333V46.0234C65 46.6707 64.4754 47.1953 63.8281 47.1953ZM55.6099 44.8515H62.6563V37.8052H55.6099V44.8515Z" fill="white"/>
<path d="M49.7501 61.2738H40.3595C39.7122 61.2738 39.1876 60.7492 39.1876 60.1019V50.7114C39.1876 50.0641 39.7122 49.5395 40.3595 49.5395H49.7501C50.3974 49.5395 50.922 50.0641 50.922 50.7114V60.1019C50.922 60.7492 50.3974 61.2738 49.7501 61.2738ZM41.5314 58.9301H48.5782V51.8833H41.5314V58.9301Z" fill="white"/>
<path d="M63.8281 61.2738H54.438C53.7908 61.2738 53.2662 60.7492 53.2662 60.1019V50.7114C53.2662 50.0641 53.7908 49.5395 54.438 49.5395H63.8281C64.4754 49.5395 65 50.0641 65 50.7114V55.4067C65 56.0539 64.4754 56.5785 63.8281 56.5785C63.1809 56.5785 62.6563 56.0539 62.6563 55.4067V51.8833H55.6099V58.9301H63.8281C64.4754 58.9301 65 59.4547 65 60.1019C65 60.7492 64.4754 61.2738 63.8281 61.2738Z" fill="white"/>
<defs>
<filter id="filter0_d" x="0" y="0" width="104" height="104" filterUnits="userSpaceOnUse" color-interpolation-filters="sRGB">
<feFlood flood-opacity="0" result="BackgroundImageFix"/>
<feColorMatrix in="SourceAlpha" type="matrix" values="0 0 0 0 0 0 0 0 0 0 0 0 0 0 0 0 0 0 127 0"/>
<feOffset dy="2"/>
<feGaussianBlur stdDeviation="1"/>
<feColorMatrix type="matrix" values="0 0 0 0 0 0 0 0 0 0 0 0 0 0 0 0 0 0 0.15 0"/>
<feBlend mode="normal" in2="BackgroundImageFix" result="effect1_dropShadow"/>
<feBlend mode="normal" in="SourceGraphic" in2="effect1_dropShadow" result="shape"/>
</filter>
<linearGradient id="paint0_linear" x1="93.25" y1="3.38815e-06" x2="13.25" y2="92.5" gradientUnits="userSpaceOnUse">
<stop stop-color="#54D6BF"/>
<stop offset="1" stop-color="#9851DF"/>
</linearGradient>
</defs>
</svg>
