<svg width="104" height="104" viewBox="0 0 104 104" fill="none" xmlns="http://www.w3.org/2000/svg">
<g filter="url(#filter0_d)">
<circle cx="52" cy="50" r="50" fill="url(#paint0_linear)"/>
</g>
<path d="M71.7991 30.201C66.5105 24.9124 59.4791 22 52 22C44.5209 22 37.4895 24.9124 32.2009 30.201C26.9125 35.4895 24 42.5209 24 50C24 57.4791 26.9125 64.5105 32.2009 69.799C37.4895 75.0876 44.5209 78 52 78C59.4791 78 66.5105 75.0876 71.7991 69.799C77.0875 64.5105 80 57.4791 80 50C80 42.5209 77.0875 35.4895 71.7991 30.201ZM52 75.8125C37.7669 75.8125 26.1875 64.2331 26.1875 50C26.1875 35.7669 37.7669 24.1875 52 24.1875C66.2331 24.1875 77.8125 35.7669 77.8125 50C77.8125 64.2331 66.2331 75.8125 52 75.8125Z" fill="white"/>
<path d="M75.1986 45.5105C73.7243 37.8493 68.5587 31.4196 61.3803 28.3109C60.8261 28.0709 60.1821 28.3257 59.942 28.8799C59.7021 29.4342 59.9568 30.0782 60.5111 30.3182C67.0254 33.1393 71.713 38.9732 73.0505 45.9238C73.1512 46.4472 73.6095 46.8111 74.1235 46.8111C74.1919 46.8111 74.2615 46.8046 74.3312 46.7912C74.9243 46.6771 75.3127 46.1036 75.1986 45.5105Z" fill="white"/>
<path d="M57.0784 26.9223L57.0497 26.9161C56.4595 26.7888 55.8773 27.1644 55.7502 27.755C55.623 28.3455 55.9986 28.9273 56.5891 29.0545L56.6019 29.0573C56.6822 29.0753 56.7623 29.0838 56.8413 29.0838C57.3422 29.0838 57.7941 28.7373 57.9077 28.2281C58.0392 27.6384 57.6679 27.0539 57.0784 26.9223Z" fill="white"/>
<path d="M43.736 69.7871C37.0874 67.0069 32.3074 61.1336 30.9493 54.0762C30.8352 53.4831 30.2625 53.0941 29.6686 53.2089C29.0754 53.323 28.6871 53.8964 28.8012 54.4895C29.5374 58.3146 31.2367 61.936 33.7159 64.9621C36.1665 67.9533 39.3396 70.3195 42.892 71.8052C43.0299 71.8628 43.1729 71.8901 43.3136 71.8901C43.7413 71.8901 44.1477 71.6375 44.323 71.218C44.5561 70.6608 44.2933 70.02 43.736 69.7871Z" fill="white"/>
<path d="M47.4134 70.9461L47.3458 70.9312C46.7566 70.8003 46.1719 71.1719 46.0409 71.7616C45.9098 72.3512 46.2816 72.9355 46.8713 73.0665L46.9479 73.0834C47.0263 73.1004 47.1046 73.1086 47.1817 73.1086C47.685 73.1086 48.1379 72.7592 48.2494 72.2475C48.3779 71.6572 48.0036 71.0746 47.4134 70.9461Z" fill="white"/>
<path d="M74.2472 53.7508C73.6577 53.6221 73.0745 53.9965 72.9458 54.5867C71.1195 62.9675 64.4978 69.4302 56.076 71.0508C55.4827 71.1649 55.0945 71.7383 55.2085 72.3315C55.3093 72.8548 55.7676 73.2187 56.2815 73.2187C56.35 73.2187 56.4196 73.2123 56.4893 73.1988C61.0286 72.3253 65.1849 70.1471 68.5087 66.8998C71.8273 63.6574 74.1008 59.5606 75.0831 55.0523C75.2116 54.4621 74.8374 53.8795 74.2472 53.7508Z" fill="white"/>
<path d="M48.7911 27.6686C48.6769 27.0755 48.1036 26.6865 47.5103 26.8013C42.971 27.6747 38.8148 29.8529 35.491 33.1003C32.1723 36.3427 29.8989 40.4395 28.9166 44.9478C28.7881 45.538 29.1622 46.1206 29.7524 46.2492C29.8308 46.2663 29.9093 46.2745 29.9864 46.2745C30.4896 46.2745 30.9425 45.9252 31.054 45.4134C32.8802 37.0324 39.502 30.5699 47.9237 28.9493C48.5169 28.8352 48.9052 28.2618 48.7911 27.6686Z" fill="white"/>
<path d="M52 46.2812C49.9494 46.2812 48.2812 47.9494 48.2812 50C48.2812 52.0506 49.9494 53.7188 52 53.7188C54.0506 53.7188 55.7188 52.0506 55.7188 50C55.7188 47.9494 54.0506 46.2812 52 46.2812ZM52 51.5312C51.1556 51.5312 50.4688 50.8444 50.4688 50C50.4688 49.1556 51.1556 48.4688 52 48.4688C52.8444 48.4688 53.5312 49.1556 53.5312 50C53.5312 50.8444 52.8444 51.5312 52 51.5312Z" fill="white"/>
<path d="M52.0165 26.375C51.4126 26.375 50.9228 26.8647 50.9228 27.4688V29.9196C50.9228 30.5237 51.4126 31.0134 52.0165 31.0134C52.6206 31.0134 53.1103 30.5237 53.1103 29.9196V27.4688C53.1103 26.8647 52.6205 26.375 52.0165 26.375Z" fill="white"/>
<path d="M51.9835 68.2071C51.3795 68.2071 50.8897 68.6968 50.8897 69.3008V72.5313C50.8897 73.1354 51.3795 73.6251 51.9835 73.6251C52.5874 73.6251 53.0772 73.1354 53.0772 72.5313V69.3008C53.0772 68.6968 52.5874 68.2071 51.9835 68.2071Z" fill="white"/>
<path d="M74.5312 48.9228H71.5781C70.9742 48.9228 70.4844 49.4125 70.4844 50.0165C70.4844 50.6206 70.9742 51.1103 71.5781 51.1103H74.5312C75.1352 51.1103 75.625 50.6206 75.625 50.0165C75.625 49.4125 75.1352 48.9228 74.5312 48.9228Z" fill="white"/>
<path d="M32.6406 48.8897H29.4688C28.8648 48.8897 28.375 49.3794 28.375 49.9835C28.375 50.5875 28.8648 51.0772 29.4688 51.0772H32.6406C33.2446 51.0772 33.7344 50.5875 33.7344 49.9835C33.7344 49.3794 33.2446 48.8897 32.6406 48.8897Z" fill="white"/>
<path d="M49.375 48.9062H44.3802C43.7762 48.9062 43.2864 49.3959 43.2864 50C43.2864 50.6041 43.7762 51.0938 44.3802 51.0938H49.375C49.979 51.0938 50.4688 50.6041 50.4688 50C50.4688 49.3959 49.979 48.9062 49.375 48.9062Z" fill="white"/>
<path d="M52 36.0364C51.396 36.0364 50.9062 36.5261 50.9062 37.1302V47.375C50.9062 47.9791 51.396 48.4688 52 48.4688C52.604 48.4688 53.0938 47.9791 53.0938 47.375V37.1302C53.0938 36.5261 52.604 36.0364 52 36.0364Z" fill="white"/>
<defs>
<filter id="filter0_d" x="0" y="0" width="104" height="104" filterUnits="userSpaceOnUse" color-interpolation-filters="sRGB">
<feFlood flood-opacity="0" result="BackgroundImageFix"/>
<feColorMatrix in="SourceAlpha" type="matrix" values="0 0 0 0 0 0 0 0 0 0 0 0 0 0 0 0 0 0 127 0"/>
<feOffset dy="2"/>
<feGaussianBlur stdDeviation="1"/>
<feColorMatrix type="matrix" values="0 0 0 0 0 0 0 0 0 0 0 0 0 0 0 0 0 0 0.15 0"/>
<feBlend mode="normal" in2="BackgroundImageFix" result="effect1_dropShadow"/>
<feBlend mode="normal" in="SourceGraphic" in2="effect1_dropShadow" result="shape"/>
</filter>
<linearGradient id="paint0_linear" x1="93.25" y1="3.38815e-06" x2="13.25" y2="92.5" gradientUnits="userSpaceOnUse">
<stop stop-color="#54D6BF"/>
<stop offset="1" stop-color="#9851DF"/>
</linearGradient>
</defs>
</svg>
