<svg width="104" height="104" viewBox="0 0 104 104" fill="none" xmlns="http://www.w3.org/2000/svg">
<g filter="url(#filter0_d)">
<circle cx="52" cy="50" r="50" fill="url(#paint0_linear)"/>
</g>
<path d="M72.665 38.6885C73.2474 38.6885 73.7197 38.2163 73.7197 37.6338V26.1641C73.7197 24.4194 72.3003 23 70.5557 23H32.165C30.4204 23 29.001 24.4194 29.001 26.1641V73.8359C29.001 75.5806 30.4204 77 32.165 77H70.5557C72.3003 77 73.7197 75.5806 73.7197 73.8359V66.0658C73.7197 65.4833 73.2474 65.0112 72.665 65.0112C72.0826 65.0112 71.6104 65.4833 71.6104 66.0658V73.8359C71.6104 74.4175 71.1372 74.8906 70.5557 74.8906H32.165C31.5835 74.8906 31.1104 74.4175 31.1104 73.8359V26.1641C31.1104 25.5825 31.5835 25.1094 32.165 25.1094H70.5557C71.1372 25.1094 71.6104 25.5825 71.6104 26.1641V37.6338C71.6104 38.2163 72.0826 38.6885 72.665 38.6885Z" fill="white"/>
<path d="M51.3601 28.6953C46.0098 28.6953 41.657 33.0481 41.657 38.3984C41.657 41.1741 42.8288 43.6808 44.7032 45.451C44.7383 45.4886 44.7756 45.5241 44.8164 45.5565C46.5431 47.1363 48.8409 48.1015 51.36 48.1015C53.8792 48.1015 56.177 47.1362 57.9036 45.5565C57.9445 45.5241 57.9818 45.4885 58.0169 45.451C59.8915 43.6808 61.0633 41.1741 61.0633 38.3984C61.0633 33.0481 56.7105 28.6953 51.3601 28.6953ZM51.3601 45.9922C49.6379 45.9922 48.0485 45.4151 46.7732 44.4452C47.7002 42.8014 49.43 41.7734 51.3601 41.7734C53.2903 41.7734 55.0201 42.8014 55.9471 44.4452C54.6717 45.4151 53.0823 45.9922 51.3601 45.9922ZM49.6726 37.9766V37.291C49.6726 36.3606 50.4297 35.6035 51.3601 35.6035C52.2906 35.6035 53.0476 36.3606 53.0476 37.291V37.9766C53.0476 38.907 52.2906 39.6641 51.3601 39.6641C50.4297 39.6641 49.6726 38.907 49.6726 37.9766ZM57.471 42.9002C56.6932 41.7465 55.6152 40.8493 54.3636 40.2954C54.8603 39.6534 55.157 38.8492 55.157 37.9766V37.291C55.157 35.1974 53.4538 33.4941 51.3601 33.4941C49.2665 33.4941 47.5633 35.1974 47.5633 37.291V37.9766C47.5633 38.8492 47.86 39.6534 48.3567 40.2954C47.1051 40.8493 46.0271 41.7465 45.2493 42.9002C44.3181 41.6395 43.7664 40.0825 43.7664 38.3984C43.7664 34.2112 47.1729 30.8047 51.3601 30.8047C55.5474 30.8047 58.9539 34.2112 58.9539 38.3984C58.9539 40.0825 58.4022 41.6395 57.471 42.9002Z" fill="white"/>
<path d="M57.0555 69.1953H51.3601C50.7778 69.1953 50.3055 69.6675 50.3055 70.25C50.3055 70.8325 50.7778 71.3047 51.3601 71.3047H57.0555C57.6378 71.3047 58.1101 70.8325 58.1101 70.25C58.1101 69.6675 57.6378 69.1953 57.0555 69.1953Z" fill="white"/>
<path d="M57.0554 63.2891H42.0789C41.4965 63.2891 41.0242 63.7612 41.0242 64.3438C41.0242 64.9263 41.4965 65.3984 42.0789 65.3984H57.0554C57.6378 65.3984 58.1101 64.9263 58.1101 64.3438C58.1101 63.7612 57.6378 63.2891 57.0554 63.2891Z" fill="white"/>
<path d="M57.0554 57.3828H42.0789C41.4965 57.3828 41.0242 57.855 41.0242 58.4375C41.0242 59.02 41.4965 59.4922 42.0789 59.4922H57.0554C57.6378 59.4922 58.1101 59.02 58.1101 58.4375C58.1101 57.855 57.6378 57.3828 57.0554 57.3828Z" fill="white"/>
<path d="M38.32 51.7856C38.1239 51.5894 37.8518 51.4766 37.5733 51.4766C37.2958 51.4766 37.0237 51.5894 36.8277 51.7856C36.6315 51.9818 36.5187 52.2539 36.5187 52.5312C36.5187 52.8086 36.6314 53.0807 36.8277 53.2769C37.0249 53.4731 37.2958 53.5859 37.5733 53.5859C37.8518 53.5859 38.1228 53.4731 38.32 53.2769C38.5161 53.0807 38.6291 52.8086 38.6291 52.5312C38.6291 52.2539 38.5162 51.9818 38.32 51.7856Z" fill="white"/>
<path d="M38.32 57.6918C38.1228 57.4957 37.8518 57.3828 37.5733 57.3828C37.2958 57.3828 37.0249 57.4957 36.8277 57.6918C36.6315 57.888 36.5187 58.1601 36.5187 58.4375C36.5187 58.7149 36.6314 58.987 36.8277 59.1832C37.0249 59.3793 37.2958 59.4922 37.5733 59.4922C37.8518 59.4922 38.1228 59.3793 38.32 59.1832C38.5161 58.987 38.6291 58.7149 38.6291 58.4375C38.6291 58.1601 38.5162 57.888 38.32 57.6918Z" fill="white"/>
<path d="M38.32 63.5981C38.1228 63.4019 37.8518 63.2891 37.5733 63.2891C37.2958 63.2891 37.0249 63.4019 36.8277 63.5981C36.6315 63.7943 36.5187 64.0664 36.5187 64.3438C36.5187 64.6211 36.6314 64.8932 36.8277 65.0894C37.0237 65.2856 37.2958 65.3984 37.5733 65.3984C37.8518 65.3984 38.1239 65.2856 38.32 65.0894C38.5161 64.8932 38.6291 64.6211 38.6291 64.3438C38.6291 64.0664 38.5162 63.7943 38.32 63.5981Z" fill="white"/>
<path d="M57.0554 51.4766H42.0789C41.4965 51.4766 41.0242 51.9487 41.0242 52.5312C41.0242 53.1138 41.4965 53.5859 42.0789 53.5859H57.0554C57.6378 53.5859 58.1101 53.1138 58.1101 52.5312C58.1101 51.9487 57.6378 51.4766 57.0554 51.4766Z" fill="white"/>
<path d="M80.7854 36.7446C79.7607 36.153 78.5671 35.9959 77.424 36.302C76.2811 36.6083 75.3258 37.3413 74.7343 38.366L61.4619 61.3543C61.3892 61.4803 61.3433 61.62 61.3271 61.7646L60.3929 70.1329C60.3465 70.5493 60.5509 70.9538 60.9137 71.1634C61.0775 71.2579 61.2594 71.3047 61.4409 71.3047C61.6616 71.3047 61.8814 71.2356 62.0665 71.0993L68.8464 66.1059C68.9636 66.0197 69.0617 65.9101 69.1343 65.7841L82.4066 42.7958C83.628 40.6805 82.9007 37.9659 80.7854 36.7446ZM62.7566 67.9712L63.2445 63.6014L66.297 65.3638L62.7566 67.9712ZM67.835 63.8159L63.8161 61.4956L74.4668 43.048L78.4857 45.3684L67.835 63.8159ZM80.5799 41.741L79.5403 43.5416L75.5214 41.2213L76.561 39.4207C76.8709 38.8839 77.3712 38.5 77.9699 38.3396C78.5687 38.1791 79.194 38.2616 79.7306 38.5714C80.2673 38.8813 80.6512 39.3816 80.8116 39.9803C80.9721 40.5789 80.8898 41.2042 80.5799 41.741Z" fill="white"/>
<defs>
<filter id="filter0_d" x="0" y="0" width="104" height="104" filterUnits="userSpaceOnUse" color-interpolation-filters="sRGB">
<feFlood flood-opacity="0" result="BackgroundImageFix"/>
<feColorMatrix in="SourceAlpha" type="matrix" values="0 0 0 0 0 0 0 0 0 0 0 0 0 0 0 0 0 0 127 0"/>
<feOffset dy="2"/>
<feGaussianBlur stdDeviation="1"/>
<feColorMatrix type="matrix" values="0 0 0 0 0 0 0 0 0 0 0 0 0 0 0 0 0 0 0.15 0"/>
<feBlend mode="normal" in2="BackgroundImageFix" result="effect1_dropShadow"/>
<feBlend mode="normal" in="SourceGraphic" in2="effect1_dropShadow" result="shape"/>
</filter>
<linearGradient id="paint0_linear" x1="93.25" y1="3.38815e-06" x2="13.25" y2="92.5" gradientUnits="userSpaceOnUse">
<stop stop-color="#54D6BF"/>
<stop offset="1" stop-color="#9851DF"/>
</linearGradient>
</defs>
</svg>
