<svg width="150" height="150" viewBox="0 0 150 150" fill="none" xmlns="http://www.w3.org/2000/svg">
<g filter="url(#filter0_i)">
<circle cx="75" cy="75" r="75" fill="#9851DF"/>
</g>
<g clip-path="url(#clip0)">
<path d="M40.2667 93.6667H42.9V91H40.2667C38.8121 91 37.6333 89.8063 37.6333 88.3333V40.3333C37.6333 38.8603 38.8121 37.6667 40.2667 37.6667H98.2C99.6546 37.6667 100.833 38.8603 100.833 40.3333V43H103.467V40.3333C103.467 37.388 101.109 35 98.2 35H40.2667C37.3582 35 35 37.388 35 40.3333V88.3333C35 91.2787 37.3582 93.6667 40.2667 93.6667Z" fill="white"/>
<path d="M40.2667 40.3335H42.9V43.0002H40.2667V40.3335Z" fill="white"/>
<path d="M45.5333 40.3335H48.1667V43.0002H45.5333V40.3335Z" fill="white"/>
<path d="M50.8 40.3335H53.4333V43.0002H50.8V40.3335Z" fill="white"/>
<path d="M108.733 45.6667H50.8C47.8915 45.6667 45.5333 48.0547 45.5333 51.0001V99.0001C45.5333 101.945 47.8915 104.333 50.8 104.333H108.733C111.642 104.333 114 101.945 114 99.0001V51.0001C114 48.0547 111.642 45.6667 108.733 45.6667ZM111.367 99.0001C111.367 100.473 110.188 101.667 108.733 101.667H50.8C49.3454 101.667 48.1667 100.473 48.1667 99.0001V51.0001C48.1667 49.5271 49.3454 48.3334 50.8 48.3334H108.733C110.188 48.3334 111.367 49.5271 111.367 51.0001V99.0001Z" fill="white"/>
<path d="M50.8 51H53.4333V53.6667H50.8V51Z" fill="white"/>
<path d="M56.0667 51H58.7V53.6667H56.0667V51Z" fill="white"/>
<path d="M61.3333 51H63.9667V53.6667H61.3333V51Z" fill="white"/>
<path d="M50.8 56.3333H108.733V58.9999H50.8V56.3333Z" fill="white"/>
<path d="M53.4333 79H61.3333V81.6666H53.4333V79Z" fill="white"/>
<path d="M53.4333 85.6667H81.0834V88.3334H53.4333V85.6667Z" fill="white"/>
<path d="M53.4333 92.3333H67.9167V94.9999H53.4333V92.3333Z" fill="white"/>
<path d="M77.1333 72.3333H90.3V74.9999H77.1333V72.3333Z" fill="white"/>
<path d="M96.8833 85.6667H106.1V88.3334H96.8833V85.6667Z" fill="white"/>
<path d="M85.0333 92.3333H106.1V94.9999H85.0333V92.3333Z" fill="white"/>
<path d="M65.2833 79H85.0333V81.6666H65.2833V79Z" fill="white"/>
<path d="M77.1333 65.6667H86.35V68.3334H77.1333V65.6667Z" fill="white"/>
<path d="M88.9833 65.6667H106.1V68.3334H88.9833V65.6667Z" fill="white"/>
<path d="M70.55 92.3333H82.4V94.9999H70.55V92.3333Z" fill="white"/>
<path d="M87.6667 79H106.1V81.6666H87.6667V79Z" fill="white"/>
<path d="M92.9333 72.3333H106.1V74.9999H92.9333V72.3333Z" fill="white"/>
<path d="M83.7167 85.6667H94.25V88.3334H83.7167V85.6667Z" fill="white"/>
<path d="M57.7691 64.7241L53.8191 68.7241C53.3053 69.2451 53.3053 70.0885 53.8191 70.6095L57.7691 74.6095L59.6309 72.7241L56.6118 69.6668L59.6309 66.6095L57.7691 64.7241Z" fill="white"/>
<path d="M70.1642 74.6095L74.1142 70.6095C74.628 70.0885 74.628 69.2451 74.1142 68.7241L70.1642 64.7241L68.3024 66.6095L71.3215 69.6668L68.3024 72.7241L70.1642 74.6095Z" fill="white"/>
<path d="M61.3722 74.6769L64.0068 64.0103L66.5608 64.6573L63.9258 75.3233L61.3722 74.6769Z" fill="white"/>
<path d="M94.25 107H65.2833C64.9341 107 64.5993 107.141 64.3524 107.391L61.7191 110.057C61.2053 110.578 61.2053 111.422 61.7191 111.943L64.3524 114.609C64.5993 114.859 64.9341 115 65.2833 115H94.25C96.4311 115 98.2 113.209 98.2 111C98.2 108.791 96.4311 107 94.25 107ZM90.3 112.333H65.8284L64.5118 111L65.8284 109.667H90.3V112.333ZM94.25 112.333H92.9333V109.667H94.25C94.9775 109.667 95.5667 110.263 95.5667 111C95.5667 111.737 94.9775 112.333 94.25 112.333Z" fill="white"/>
</g>
<defs>
<filter id="filter0_i" x="0" y="0" width="150" height="156" filterUnits="userSpaceOnUse" color-interpolation-filters="sRGB">
<feFlood flood-opacity="0" result="BackgroundImageFix"/>
<feBlend mode="normal" in="SourceGraphic" in2="BackgroundImageFix" result="shape"/>
<feColorMatrix in="SourceAlpha" type="matrix" values="0 0 0 0 0 0 0 0 0 0 0 0 0 0 0 0 0 0 127 0" result="hardAlpha"/>
<feOffset dy="6"/>
<feGaussianBlur stdDeviation="3"/>
<feComposite in2="hardAlpha" operator="arithmetic" k2="-1" k3="1"/>
<feColorMatrix type="matrix" values="0 0 0 0 0 0 0 0 0 0 0 0 0 0 0 0 0 0 0.2 0"/>
<feBlend mode="normal" in2="shape" result="effect1_innerShadow"/>
</filter>
<clipPath id="clip0">
<rect width="79" height="80" fill="white" transform="translate(35 35)"/>
</clipPath>
</defs>
</svg>
