<svg width="150" height="150" viewBox="0 0 150 150" fill="none" xmlns="http://www.w3.org/2000/svg">
<g filter="url(#filter0_i)">
<circle cx="75" cy="75" r="75" fill="#9851DF"/>
</g>
<g clip-path="url(#clip0)">
<path d="M74.0006 36.0027H67.1674C53.0221 36.0187 41.5591 47.4817 41.5431 61.627V64.4987L33.2136 79.593C33.0749 79.8458 33.002 80.1296 33.0017 80.4181C32.9988 80.5151 32.9988 80.6123 33.0017 80.7094C33.0821 83.4594 35.3766 85.6235 38.1265 85.5429C39.369 85.612 40.5608 86.0583 41.5431 86.8224V92.376C41.5392 92.5065 41.5392 92.6372 41.5431 92.7679C41.6513 96.4334 44.7105 99.3174 48.3763 99.2092H58.626C58.723 99.2121 58.8202 99.2121 58.9173 99.2092C61.6673 99.1288 63.8314 96.8343 63.7508 94.0843V83.8346H60.3343V94.0843C60.3442 94.1858 60.3442 94.2882 60.3343 94.3897C60.2499 95.2489 59.4852 95.8769 58.626 95.7926H48.3763C48.24 95.8013 48.1032 95.8013 47.9669 95.7926C46.1931 95.6796 44.8467 94.15 44.9597 92.3761V86.0077C44.9599 85.5184 44.7503 85.0525 44.384 84.7282C42.6707 83.1496 40.454 82.2279 38.1265 82.1266C38.119 82.1275 38.1113 82.1283 38.1038 82.1291C37.2801 82.2164 36.5415 81.6195 36.4541 80.7957L44.7479 65.7627C44.8865 65.5098 44.9594 65.2261 44.9597 64.9376V61.627C44.9738 49.3678 54.9084 39.4333 67.1675 39.4192H73.9802C74.0842 39.4081 74.1891 39.4075 74.2932 39.4173C75.1564 39.4985 75.7903 40.2641 75.7091 41.1274V49.6687H79.1256V41.1275C79.1285 41.0305 79.1285 40.9333 79.1256 40.8362C79.045 38.0862 76.7505 35.9221 74.0006 36.0027Z" fill="white"/>
<path d="M103.042 87.2507H84.2507V90.6672H103.042C103.143 90.6573 103.246 90.6573 103.347 90.6672C104.206 90.7516 104.835 91.5164 104.75 92.3756V95.6042C104.504 96.6241 102.857 102.625 97.9169 102.625C96.9735 102.625 96.2086 103.39 96.2086 104.334V114.583H63.7512V109.458H60.3347V116.292C60.3347 117.235 61.0996 118 62.0431 118H97.9171C98.8605 118 99.6254 117.235 99.6254 116.292V105.892C104.966 104.882 107.511 99.248 108.133 96.1339C108.156 96.0214 108.167 95.9069 108.167 95.7923V92.3757C108.17 92.2787 108.17 92.1815 108.167 92.0844C108.086 89.3343 105.792 87.1702 103.042 87.2507Z" fill="white"/>
<path d="M113.292 56.5017H108.985C108.804 55.9942 108.597 55.4964 108.365 55.0104L111.412 51.9628C112.079 51.2958 112.079 50.2144 111.412 49.5473L106.58 44.7145C105.913 44.0476 104.831 44.0476 104.164 44.7145L101.117 47.762C100.63 47.5306 100.133 47.3243 99.6252 47.1437V42.8353C99.6252 41.8918 98.8604 41.127 97.9169 41.127H91.0839C90.1404 41.127 89.3755 41.8918 89.3755 42.8353V47.1435C88.4454 47.472 87.5495 47.8902 86.7004 48.3922L88.4359 51.3339C89.3965 50.7684 90.4316 50.34 91.5108 50.0612C92.265 49.8664 92.7919 49.1864 92.7921 48.4076V44.5436H96.2086V48.4078C96.2076 49.1863 96.7331 49.8669 97.4864 50.0631C98.5657 50.3419 99.6007 50.7703 100.561 51.3358C101.233 51.7325 102.087 51.6243 102.639 51.0727L105.372 48.3394L107.789 50.7514L105.056 53.4848C104.504 54.0355 104.395 54.8904 104.791 55.5621C105.358 56.5225 105.787 57.5576 106.067 58.637C106.262 59.3905 106.941 59.9173 107.719 59.9182H111.583V63.3331H107.723C106.944 63.3341 106.265 63.8608 106.071 64.6143C105.791 65.6938 105.361 66.7288 104.794 67.6893C104.398 68.3609 104.507 69.2157 105.059 69.7666L107.793 72.4999L105.377 74.9155L102.644 72.1822C102.092 71.6306 101.238 71.5223 100.566 71.919C99.6057 72.4845 98.5706 72.9129 97.4914 73.1918C96.7372 73.3865 96.2103 74.0665 96.2102 74.8453V78.7095H92.7936V74.8471C92.7935 74.0683 92.2666 73.3881 91.5124 73.1935C90.4332 72.9147 89.3981 72.4863 88.4375 71.9208C87.7662 71.5241 86.9114 71.6324 86.3602 72.1839L83.6272 74.9169L81.2116 72.5013L83.9449 69.768C84.497 69.2173 84.606 68.3624 84.2097 67.6907C83.6431 66.7303 83.2135 65.6952 82.9336 64.6158C82.739 63.8623 82.0598 63.3355 81.2816 63.3346H75.7093V66.7511H80.0175C80.1977 67.2586 80.4041 67.7564 80.6359 68.2424L77.5884 71.29C76.9215 71.957 76.9215 73.0383 77.5884 73.7055L82.4211 78.5383C83.0881 79.2051 84.1695 79.2051 84.8367 78.5383L87.8842 75.4907C88.3704 75.7222 88.8682 75.9284 89.3755 76.1091V80.4173C89.3755 81.3608 90.1404 82.1257 91.0839 82.1257H97.9171C98.8605 82.1257 99.6254 81.3608 99.6254 80.4173V76.1107C100.133 75.93 100.631 75.7236 101.117 75.4923L104.164 78.5383C104.831 79.2051 105.913 79.2051 106.58 78.5383L111.413 73.7055C112.079 73.0385 112.079 71.9571 111.413 71.29L108.363 68.2424C108.596 67.7564 108.803 67.2586 108.983 66.7511H113.292C114.235 66.7511 115 65.9862 115 65.0428V58.2099C115 57.2664 114.235 56.5017 113.292 56.5017Z" fill="white"/>
<path d="M94.5004 54.7935C90.7266 54.7935 87.6672 57.8528 87.6672 61.6267C87.6672 65.4005 90.7265 68.4599 94.5004 68.4599C98.2743 68.4599 101.334 65.4005 101.334 61.6267C101.334 57.8528 98.2744 54.7935 94.5004 54.7935ZM94.5004 65.0432C92.6135 65.0432 91.0839 63.5136 91.0839 61.6267C91.0839 59.7397 92.6135 58.2101 94.5004 58.2101C96.3873 58.2101 97.917 59.7397 97.917 61.6267C97.9171 63.5136 96.3875 65.0432 94.5004 65.0432Z" fill="white"/>
<path d="M58.6264 63.3347V65.0431H53.5015V63.3347H50.085V65.0431C50.084 65.0903 50.084 65.1374 50.085 65.1846C50.1241 67.0325 51.6537 68.4986 53.5015 68.4596H58.6264C58.6736 68.4605 58.7207 68.4605 58.768 68.4596C60.6158 68.4205 62.082 66.8909 62.0429 65.0431V63.3347H58.6264Z" fill="white"/>
<path d="M80.8341 83.834C78.0038 83.834 75.7093 86.1285 75.7093 88.9588C75.7093 91.7892 78.0038 94.0837 80.8341 94.0837C83.6645 94.0837 85.959 91.7892 85.959 88.9588C85.959 86.1285 83.6645 83.834 80.8341 83.834ZM80.8341 90.6672C79.8907 90.6672 79.1258 89.9023 79.1258 88.9588C79.1258 88.0154 79.8907 87.2505 80.8341 87.2505C81.7776 87.2505 82.5425 88.0154 82.5425 88.9588C82.5425 89.9023 81.7776 90.6672 80.8341 90.6672Z" fill="white"/>
<path d="M62.0431 75.2927C59.2127 75.2927 56.9182 77.5872 56.9182 80.4176C56.9182 83.2479 59.2127 85.5424 62.0431 85.5424C64.8734 85.5424 67.1679 83.2479 67.1679 80.4176C67.1679 77.5872 64.8734 75.2927 62.0431 75.2927ZM62.0431 82.1259C61.0996 82.1259 60.3347 81.361 60.3347 80.4176C60.3347 79.4741 61.0996 78.7092 62.0431 78.7092C62.9865 78.7092 63.7514 79.4741 63.7514 80.4176C63.7513 81.361 62.9865 82.1259 62.0431 82.1259Z" fill="white"/>
<path d="M77.4176 47.9602C74.5873 47.9602 72.2928 50.2547 72.2928 53.0851C72.2928 55.9154 74.5873 58.2099 77.4176 58.2099C80.248 58.2099 82.5425 55.9154 82.5425 53.0851C82.5425 50.2547 80.248 47.9602 77.4176 47.9602ZM77.4176 54.7934C76.4742 54.7934 75.7093 54.0285 75.7093 53.0851C75.7093 52.1416 76.4742 51.3767 77.4176 51.3767C78.3611 51.3767 79.126 52.1416 79.126 53.0851C79.126 54.0285 78.3611 54.7934 77.4176 54.7934Z" fill="white"/>
<path d="M72.2926 63.3347H68.8761V66.7512H72.2926V63.3347Z" fill="white"/>
<path d="M72.2926 70.168H68.8761V73.5845H72.2926V70.168Z" fill="white"/>
<path d="M63.7512 102.625H60.3347V106.042H63.7512V102.625Z" fill="white"/>
</g>
<defs>
<filter id="filter0_i" x="0" y="0" width="150" height="156" filterUnits="userSpaceOnUse" color-interpolation-filters="sRGB">
<feFlood flood-opacity="0" result="BackgroundImageFix"/>
<feBlend mode="normal" in="SourceGraphic" in2="BackgroundImageFix" result="shape"/>
<feColorMatrix in="SourceAlpha" type="matrix" values="0 0 0 0 0 0 0 0 0 0 0 0 0 0 0 0 0 0 127 0" result="hardAlpha"/>
<feOffset dy="6"/>
<feGaussianBlur stdDeviation="3"/>
<feComposite in2="hardAlpha" operator="arithmetic" k2="-1" k3="1"/>
<feColorMatrix type="matrix" values="0 0 0 0 0 0 0 0 0 0 0 0 0 0 0 0 0 0 0.2 0"/>
<feBlend mode="normal" in2="shape" result="effect1_innerShadow"/>
</filter>
<clipPath id="clip0">
<rect width="82" height="82" fill="white" transform="translate(33 36)"/>
</clipPath>
</defs>
</svg>
