<svg width="150" height="150" viewBox="0 0 150 150" fill="none" xmlns="http://www.w3.org/2000/svg">
<g filter="url(#filter0_i)">
<circle cx="75" cy="75" r="75" fill="#9851DF"/>
</g>
<path d="M110.933 67.5595C107.734 65.9604 101.737 65.9419 101.484 65.9419C100.723 65.9419 100.107 66.5584 100.107 67.3188C100.107 68.0793 100.723 68.6958 101.484 68.6958C103.031 68.696 107.524 68.9343 109.701 70.0228C109.899 70.1218 110.109 70.1684 110.316 70.1684C110.821 70.1684 111.308 69.8893 111.549 69.407C111.889 68.7268 111.613 67.8997 110.933 67.5595Z" fill="white"/>
<path d="M117.798 87.1639L112.111 85.5391C111.866 85.4689 111.694 85.2416 111.694 84.9863V83.0881C112.157 82.7675 112.598 82.4088 113.011 82.0084C115.01 80.0682 116.111 77.4657 116.111 74.6802V72.0609L116.661 70.9614C117.264 69.7542 117.583 68.4028 117.583 67.0534V59.9575C117.583 59.197 116.967 58.5805 116.206 58.5805H102.956C98.1376 58.5805 94.2175 62.5006 94.2175 67.3189V67.4009C94.2175 68.523 94.4828 69.6468 94.9845 70.6503L95.6897 72.0607V74.3097C95.6897 77.874 97.4462 81.072 100.107 82.9965L100.107 84.9859C100.107 85.2927 100.107 85.4197 98.97 85.7447L96.1952 86.5374L88.1683 83.6187C88.1971 83.2399 88.0693 82.8547 87.793 82.5645L85.228 79.8697V75.3459C85.4992 75.1225 85.7665 74.893 86.0255 74.6503C89.2614 71.6173 91.1171 67.3352 91.1171 62.902V59.2892C92.0942 57.163 92.5894 54.9131 92.5894 52.5959V37.8735C92.5894 37.1131 91.9729 36.4966 91.2124 36.4966H70.6005C63.3468 36.4966 57.4455 42.398 57.4455 49.6516V52.5963C57.4455 54.9134 57.9407 57.1634 58.9177 59.2896V62.398C58.9177 67.5452 61.2064 72.1824 64.8069 75.2396V79.8699L62.2419 82.5647C61.9656 82.8549 61.8378 83.2401 61.8666 83.6189L53.3947 86.6994C52.7808 86.9226 52.2103 87.225 51.6924 87.5913L50.3621 86.9261C54.3222 85.2024 55.5767 82.778 55.6369 82.6576C55.8308 82.27 55.8308 81.8136 55.6369 81.426C54.6442 79.4406 54.524 75.8016 54.4274 72.8777C54.3953 71.9043 54.3648 70.9847 54.3066 70.1658C53.8371 63.5612 48.8162 58.5805 42.6273 58.5805C36.4383 58.5805 31.4172 63.5611 30.948 70.1658C30.8898 70.9849 30.8593 71.9045 30.8272 72.8781C30.7306 75.8018 30.6102 79.4404 29.6176 81.4258C29.4238 81.8134 29.4238 82.2698 29.6176 82.6574C29.6779 82.7778 30.9298 85.1972 34.8978 86.923L31.2026 88.7705C29.2271 89.759 28 91.7445 28 93.953V104.126C28 104.886 28.6165 105.503 29.377 105.503C30.1374 105.503 30.7539 104.886 30.7539 104.126V93.953C30.7539 92.7941 31.3978 91.7522 32.4342 91.234L37.0356 88.9333L38.6361 90.4544C39.7553 91.518 41.191 92.0495 42.6273 92.0495C44.0632 92.0495 45.4996 91.5176 46.6184 90.4544L48.2188 88.9335L49.7191 89.6837C49.0127 90.8141 48.6117 92.1396 48.6117 93.5281V104.126C48.6117 104.887 49.2282 105.503 49.9887 105.503C50.7491 105.503 51.3656 104.887 51.3656 104.126V93.5281C51.3656 91.6379 52.5592 89.9338 54.3358 89.2877L63.268 86.0397L66.9863 91.6175C67.4616 92.3306 68.2234 92.7879 69.0762 92.8724C69.1713 92.8817 69.2658 92.8863 69.3602 92.8863C70.1126 92.8863 70.8332 92.5902 71.3718 92.0517L73.6403 89.7832V104.126C73.6403 104.887 74.2568 105.503 75.0173 105.503C75.7777 105.503 76.3942 104.887 76.3942 104.126V89.7832L78.6627 92.0517C79.2012 92.5904 79.9218 92.8865 80.6743 92.8865C80.7685 92.8865 80.8633 92.8819 80.9582 92.8725C81.8111 92.7881 82.5729 92.3307 83.0482 91.6177L86.7667 86.0401L95.6987 89.288C97.4752 89.9341 98.6689 91.6382 98.6689 93.5285V104.126C98.6689 104.887 99.2854 105.503 100.046 105.503C100.806 105.503 101.423 104.887 101.423 104.126V93.5285C101.423 91.614 100.662 89.8185 99.3862 88.4905L99.7264 88.3934C100.07 88.2954 100.538 88.1611 101.008 87.9307L104.523 91.4464V104.126C104.523 104.887 105.14 105.503 105.9 105.503C106.661 105.503 107.277 104.887 107.277 104.126V91.4464L110.768 87.9552C110.954 88.0495 111.149 88.1292 111.354 88.1878L117.041 89.8126C118.339 90.1834 119.246 91.3854 119.246 92.7356V104.126C119.246 104.887 119.863 105.503 120.623 105.503C121.383 105.503 122 104.887 122 104.126V92.7356C122 90.162 120.272 87.8709 117.798 87.1639ZM36.8336 84.7318C34.258 83.805 32.966 82.5694 32.4145 81.8947C32.7905 80.9118 33.0343 79.786 33.1994 78.5976C33.9587 80.4183 35.2305 81.9726 36.8336 83.0815V84.7318ZM44.7217 88.4584C43.5473 89.5743 41.7075 89.5741 40.5334 88.4582L39.2528 87.2413C39.4689 86.8365 39.5877 86.3775 39.5877 85.8967V84.4291C40.5483 84.7292 41.5694 84.8912 42.6276 84.8912C43.6846 84.8912 44.7052 84.7285 45.6674 84.43L45.6672 85.8965C45.6672 86.3775 45.7858 86.8367 46.0021 87.2417L44.7217 88.4584ZM42.628 82.1373C38.5163 82.1373 35.1714 78.7922 35.1714 74.6806C35.1714 73.9202 34.5548 73.3036 33.7944 73.3036C33.7173 73.3036 33.642 73.3115 33.5684 73.3238C33.5724 73.2054 33.5763 73.0868 33.5803 72.9695C33.611 72.0227 33.6406 71.1284 33.6951 70.3614C33.871 67.8873 34.8596 65.6074 36.4789 63.9415C38.1127 62.2605 40.2964 61.3348 42.6276 61.3348C44.9589 61.3348 47.1424 62.2605 48.7764 63.9415C50.3957 65.6074 51.3843 67.8873 51.5602 70.3614C51.6146 71.1282 51.6443 72.0223 51.6755 72.9689C51.6783 73.0503 51.681 73.1327 51.6838 73.2146C50.1857 70.9065 47.872 69.2055 44.8825 68.2449C42.1207 67.3576 39.7454 67.4125 39.6452 67.4151C39.2846 67.4252 38.9424 67.5761 38.6921 67.8357L36.2077 70.4122C35.6799 70.9597 35.6957 71.8314 36.2432 72.3592C36.7907 72.8871 37.6624 72.8711 38.1902 72.3238L40.2575 70.18C42.0378 70.267 47.7653 70.9331 49.9929 75.8382C49.4324 79.4527 46.3256 82.1373 42.628 82.1373ZM48.4209 84.7364L48.4211 83.0941C50.023 81.9913 51.2966 80.4399 52.0565 78.6055C52.2215 79.7911 52.4652 80.9143 52.8404 81.8951C52.292 82.5634 50.994 83.81 48.4209 84.7364ZM61.6716 62.3978V58.9815C61.6716 58.7742 61.6248 58.5695 61.5347 58.3828C60.6487 56.548 60.1994 54.6011 60.1994 52.5963V49.6518C60.1994 43.9165 64.8654 39.2507 70.6005 39.2507H89.8355V52.5965C89.8355 54.6013 89.3862 56.5481 88.5002 58.383C88.4101 58.5697 88.3632 58.7744 88.3632 58.9817V62.9023C88.3632 66.6313 86.8642 70.09 84.1422 72.6414C83.8024 72.9598 83.4497 73.2583 83.0851 73.5364C83.077 73.5419 83.0693 73.548 83.0614 73.5537C80.5115 75.4897 77.3882 76.4306 74.1265 76.2193C67.1424 75.7671 61.6716 69.696 61.6716 62.3978ZM69.4246 90.1041C69.4151 90.1137 69.3929 90.1362 69.3479 90.1315C69.3031 90.1271 69.2855 90.1008 69.2779 90.0894L64.9956 83.6659L66.3737 82.2179L72.8701 86.6584L69.4246 90.1041ZM75.0174 84.7904L67.5608 79.6934V77.1231C69.4902 78.1661 71.6505 78.8184 73.9482 78.9671C74.3112 78.9906 74.6719 79.0022 75.0316 79.0022C77.6645 79.0022 80.1985 78.3728 82.4741 77.1782V79.6934L75.0174 84.7904ZM80.7569 90.0898C80.7494 90.1012 80.7318 90.1274 80.687 90.1318C80.642 90.1375 80.62 90.1139 80.6103 90.1045L77.1648 86.659L83.6612 82.2182L85.0395 83.6662L80.7569 90.0898ZM105.9 88.928L102.776 85.8034C102.83 85.5558 102.861 85.2846 102.861 84.9855L102.861 84.4045C103.728 84.689 104.642 84.8579 105.587 84.8862C105.693 84.8895 105.799 84.891 105.904 84.891C106.949 84.891 107.969 84.7331 108.94 84.4318V84.9863C108.94 85.2609 108.975 85.5301 109.04 85.7887L105.9 88.928ZM111.093 80.0322C109.633 81.4484 107.706 82.1964 105.67 82.1336C101.685 82.0141 98.4436 78.5043 98.4436 74.3101V71.7359C98.4436 71.522 98.3939 71.3113 98.2982 71.1202L97.4476 69.419C97.1361 68.7957 96.9714 68.098 96.9714 67.4011V67.319C96.9714 64.0191 99.6561 61.3346 102.956 61.3346H114.829V67.0536C114.829 67.9778 114.611 68.9033 114.198 69.73L113.503 71.1202C113.407 71.3115 113.357 71.522 113.357 71.7359V74.6804C113.357 76.7146 112.553 78.6152 111.093 80.0322Z" fill="white"/>
<path d="M114.734 93.915C113.973 93.915 113.357 94.5315 113.357 95.292V104.126C113.357 104.886 113.973 105.503 114.734 105.503C115.494 105.503 116.111 104.886 116.111 104.126V95.292C116.111 94.5317 115.494 93.915 114.734 93.915Z" fill="white"/>
<path d="M35.2661 95.7351C34.5056 95.7351 33.8891 96.3516 33.8891 97.1121V104.126C33.8891 104.886 34.5056 105.502 35.2661 105.502C36.0265 105.502 36.643 104.886 36.643 104.126V97.1121C36.643 96.3518 36.0265 95.7351 35.2661 95.7351Z" fill="white"/>
<path d="M86.2969 53.0949C81.0891 47.8871 70.193 48.8827 65.7496 49.5525C64.3501 49.7634 63.3345 50.9478 63.3345 52.3686V55.5408C63.3345 56.3012 63.951 56.9177 64.7114 56.9177C65.4719 56.9177 66.0884 56.3012 66.0884 55.5408V52.3685C66.0884 52.3216 66.1192 52.2816 66.1603 52.2754C67.9351 52.0079 71.457 51.5952 75.1059 51.8384C79.3998 52.1243 82.5099 53.2022 84.3497 55.0421C84.8874 55.5799 85.7593 55.5799 86.2969 55.0421C86.8346 54.5044 86.8346 53.6325 86.2969 53.0949Z" fill="white"/>
<path d="M58.8225 96.8596C58.062 96.8596 57.4455 97.4761 57.4455 98.2366V104.126C57.4455 104.886 58.062 105.503 58.8225 105.503C59.5829 105.503 60.1994 104.886 60.1994 104.126V98.2366C60.1994 97.4763 59.5829 96.8596 58.8225 96.8596Z" fill="white"/>
<path d="M91.2124 96.8596C90.452 96.8596 89.8355 97.4761 89.8355 98.2366V104.126C89.8355 104.886 90.452 105.503 91.2124 105.503C91.9729 105.503 92.5894 104.886 92.5894 104.126V98.2366C92.5894 97.4763 91.9729 96.8596 91.2124 96.8596Z" fill="white"/>
<defs>
<filter id="filter0_i" x="0" y="0" width="150" height="156" filterUnits="userSpaceOnUse" color-interpolation-filters="sRGB">
<feFlood flood-opacity="0" result="BackgroundImageFix"/>
<feBlend mode="normal" in="SourceGraphic" in2="BackgroundImageFix" result="shape"/>
<feColorMatrix in="SourceAlpha" type="matrix" values="0 0 0 0 0 0 0 0 0 0 0 0 0 0 0 0 0 0 127 0" result="hardAlpha"/>
<feOffset dy="6"/>
<feGaussianBlur stdDeviation="3"/>
<feComposite in2="hardAlpha" operator="arithmetic" k2="-1" k3="1"/>
<feColorMatrix type="matrix" values="0 0 0 0 0 0 0 0 0 0 0 0 0 0 0 0 0 0 0.2 0"/>
<feBlend mode="normal" in2="shape" result="effect1_innerShadow"/>
</filter>
</defs>
</svg>
