<svg viewBox="0 0 32 26" fill="none" xmlns="http://www.w3.org/2000/svg">
<path d="M0.564678 22.3502C3.35988 24.123 6.6756 25.1489 10.2299 25.1489C20.2153 25.1489 28.3098 17.0535 28.3098 7.069C28.3098 6.81971 28.3045 6.57226 28.295 6.32555C28.6561 6.04133 30.8899 4.25094 31.4374 3.09996C31.4374 3.09996 29.6234 3.85383 27.8481 4.03142C27.8446 4.03142 27.8403 4.03225 27.8367 4.03225C27.8367 4.03225 27.8403 4.0305 27.8463 4.02616C28.0099 3.91686 30.2969 2.36001 30.6066 0.505017C30.6066 0.505017 29.3236 1.18986 27.5271 1.78899C27.2297 1.88778 26.9184 1.98492 26.5974 2.07496C25.4394 0.839095 23.7934 0.0677185 21.9664 0.0677185C18.4618 0.0677185 15.622 2.9067 15.622 6.40859C15.622 6.90275 15.6789 7.38373 15.7864 7.84554C15.2967 7.82545 7.83884 7.40732 2.76527 1.26321C2.76527 1.26321 -0.266971 5.40275 4.57224 9.65943C4.57224 9.65943 3.10119 9.60081 1.83206 8.84252C1.83206 8.84252 1.36591 13.8575 6.84619 15.1397C6.84619 15.1397 5.76783 15.5482 4.04748 15.2569C4.04748 15.2569 5.00954 19.309 9.87852 19.6877C9.87852 19.6877 6.02836 23.1658 0.562927 22.3497L0.564678 22.3502Z" fill="white"/>
</svg>
