<svg width="23" height="22" viewBox="0 0 23 22" fill="none" xmlns="http://www.w3.org/2000/svg">
<circle cx="11.2605" cy="10.9791" r="10.9791" fill="#C4C4C4"/>
<path d="M5.30106 14.6345C6.38024 15.2996 7.66039 15.6846 9.03266 15.6846C12.8879 15.6846 16.013 12.6471 16.013 8.90086C16.013 8.80732 16.011 8.71448 16.0073 8.62191C16.1467 8.51527 17.0091 7.8435 17.2205 7.41164C17.2205 7.41164 16.5202 7.6945 15.8347 7.76114C15.8334 7.76114 15.8317 7.76145 15.8304 7.76145C15.8304 7.76145 15.8317 7.76079 15.8341 7.75916C15.8972 7.71815 16.7802 7.13401 16.8998 6.438C16.8998 6.438 16.4044 6.69496 15.7108 6.91976C15.596 6.95683 15.4758 6.99327 15.3519 7.02706C14.9048 6.56335 14.2693 6.27393 13.5639 6.27393C12.2109 6.27393 11.1145 7.33913 11.1145 8.65307C11.1145 8.83848 11.1364 9.01895 11.1779 9.19222C10.9889 9.18468 8.1095 9.0278 6.15067 6.72248C6.15067 6.72248 4.97997 8.27567 6.84832 9.87281C6.84832 9.87281 6.28037 9.85081 5.79038 9.5663C5.79038 9.5663 5.6104 11.448 7.72625 11.929C7.72625 11.929 7.30991 12.0823 6.64572 11.973C6.64572 11.973 7.01715 13.4934 8.89699 13.6355C8.89699 13.6355 7.4105 14.9405 5.30038 14.6343L5.30106 14.6345Z" fill="#292929"/>
</svg>
