<svg viewBox="0 0 38 22" fill="none" xmlns="http://www.w3.org/2000/svg">
<path d="M8.88036 2.78163C9.88693 5.26735 11.1626 7.61097 12.8428 9.71489C13.0656 9.99487 13.3465 10.2438 13.6424 10.4465C14.0747 10.7433 14.4825 10.639 14.6582 10.1445C14.8441 9.62568 15.0147 8.57413 15.0248 8.02929C15.0526 6.6056 15.0207 5.67258 14.9442 4.25065C14.8946 3.33993 14.5709 2.54026 13.2312 2.29889C12.8175 2.22406 12.7791 1.88353 13.0449 1.54383C13.5982 0.836595 14.369 0.723884 15.2049 0.679279C16.5597 0.606104 17.9194 0.665823 19.2758 0.679279C19.8283 0.684347 20.3841 0.728861 20.9282 0.84747C21.6379 1.00221 22.018 1.50005 22.1349 2.19291C22.1955 2.5503 22.2266 2.91774 22.2182 3.27938C22.1829 4.83338 22.108 6.38654 22.0903 7.93971C22.0828 8.54934 22.1273 9.17419 22.2577 9.76788C22.4402 10.5953 23.0035 10.803 23.5796 10.2052C24.3112 9.44587 24.9562 8.59146 25.5616 7.72369C26.6615 6.14527 27.4831 4.41303 28.1903 2.62698C28.5561 1.70538 28.8361 1.50521 29.8275 1.50273C31.691 1.49849 33.5544 1.49683 35.4179 1.50273C35.7484 1.50438 36.094 1.53553 36.406 1.63479C36.9122 1.79625 37.1132 2.20913 36.9946 2.73306C36.7179 3.96081 36.0545 5.00433 35.3439 6.00758C34.2036 7.61706 33.0087 9.18792 31.8416 10.7789C31.6927 10.9815 31.5616 11.1976 31.4396 11.4171C31.0031 12.2059 31.0334 12.6481 31.67 13.3049C32.6833 14.3501 33.7681 15.3281 34.7494 16.4019C35.4625 17.1831 36.1226 18.0307 36.6877 18.9229C37.4025 20.0514 36.9609 21.1143 35.6256 21.3035C34.7856 21.4221 30.6821 21.3044 30.47 21.3035C29.3668 21.2985 28.3998 20.9159 27.621 20.1666C26.7549 19.3325 25.9678 18.4175 25.1361 17.5472C24.8855 17.2848 24.6181 17.0334 24.3297 16.8139C23.6494 16.295 22.9817 16.4102 22.6638 17.2091C22.3923 17.8953 22.1576 19.6973 22.1466 19.8512C22.0895 20.656 21.5774 21.1689 20.6759 21.2185C18.0733 21.3598 15.5513 21.0697 13.2019 19.8109C11.2106 18.7446 9.6205 17.2369 8.24308 15.4786C6.05503 12.6857 4.32676 9.61582 2.74889 6.45575C2.66825 6.2942 1.07011 2.89351 1.02717 2.73287C0.884411 2.19503 1.01758 1.68124 1.47202 1.50438C1.75532 1.39416 7.02445 1.50402 7.1121 1.50872C7.95287 1.55424 8.52619 1.90897 8.88036 2.78163Z" fill="white"/>
</svg>
