<svg width="22" height="22" viewBox="0 0 22 22" fill="none" xmlns="http://www.w3.org/2000/svg">
<circle cx="10.9791" cy="10.9791" r="10.9791" fill="#C4C4C4"/>
<path d="M6.79145 7.74325C7.17677 8.72203 7.66511 9.64486 8.3083 10.4733C8.3936 10.5835 8.50114 10.6816 8.61442 10.7614C8.77988 10.8782 8.93599 10.8372 9.00327 10.6425C9.07443 10.4382 9.13973 10.0241 9.14361 9.80957C9.15423 9.24898 9.14203 8.8816 9.11274 8.3217C9.09376 7.96309 8.96983 7.64821 8.457 7.55317C8.29863 7.52371 8.28392 7.38962 8.38567 7.25586C8.59749 6.97738 8.89256 6.933 9.21255 6.91543C9.73116 6.88662 10.2517 6.91014 10.7709 6.91543C10.9824 6.91743 11.1952 6.93496 11.4035 6.98166C11.6752 7.04259 11.8207 7.23862 11.8654 7.51144C11.8886 7.65217 11.9005 7.79685 11.8973 7.93925C11.8838 8.55115 11.8551 9.16272 11.8484 9.7743C11.8455 10.0143 11.8625 10.2604 11.9124 10.4942C11.9823 10.82 12.198 10.9018 12.4185 10.6663C12.6985 10.3674 12.9455 10.0309 13.1772 9.68924C13.5983 9.06772 13.9128 8.38564 14.1835 7.68236C14.3235 7.31947 14.4307 7.24065 14.8102 7.23967C15.5236 7.238 16.2369 7.23735 16.9503 7.23967C17.0768 7.24033 17.2091 7.25259 17.3285 7.29168C17.5223 7.35525 17.5993 7.51783 17.5539 7.72413C17.448 8.20757 17.194 8.61847 16.922 9.0135C16.4855 9.64725 16.028 10.2658 15.5812 10.8922C15.5243 10.972 15.4741 11.0571 15.4273 11.1435C15.2603 11.4541 15.2719 11.6283 15.5155 11.8869C15.9034 12.2985 16.3187 12.6835 16.6944 13.1064C16.9674 13.414 17.22 13.7477 17.4364 14.099C17.71 14.5434 17.541 14.9619 17.0298 15.0364C16.7082 15.0831 15.1374 15.0368 15.0562 15.0364C14.6339 15.0345 14.2637 14.8838 13.9656 14.5888C13.634 14.2603 13.3327 13.9 13.0143 13.5573C12.9184 13.454 12.816 13.355 12.7056 13.2686C12.4452 13.0643 12.1896 13.1096 12.0679 13.4242C11.9639 13.6944 11.8741 14.404 11.8699 14.4646C11.848 14.7815 11.652 14.9834 11.3069 15.003C10.3106 15.0586 9.34517 14.9444 8.44578 14.4487C7.6835 14.0288 7.07478 13.4351 6.54749 12.7428C5.70988 11.6431 5.04828 10.4343 4.44426 9.18998C4.41339 9.12636 3.80161 7.78731 3.78517 7.72406C3.73052 7.51227 3.7815 7.30997 3.95546 7.24033C4.06391 7.19693 6.08099 7.24018 6.11454 7.24203C6.4364 7.25996 6.65587 7.39963 6.79145 7.74325Z" fill="#292929"/>
</svg>
